; NON-PLATED HOLES START AT T1
; THROUGH (PLATED) HOLES START AT T100
M48
INCH
T100C0.036000
T101C0.040000
T102C0.015748
T103C0.035000
%
T100
X026057Y025204
X020057Y031204
X020057Y025204
X020057Y028204
X020057Y023204
X026057Y021204
X026057Y028204
X020057Y019204
X026057Y022204
X026057Y026204
X020057Y027204
X020057Y033204
X020057Y032204
X026057Y027204
X026057Y030204
X020057Y024204
X026057Y032204
X020057Y022204
X026057Y019204
X026057Y033204
X020057Y020204
X026057Y023204
X026057Y031204
X020057Y030204
X020057Y029204
X026057Y024204
X020057Y026204
X020057Y021204
X026057Y020204
X026057Y029204
T101
X023057Y012204
X022057Y012204
X026057Y012204
X025057Y012204
X024057Y012204
X021057Y012204
T102
X021868Y013556
X021868Y010676
X019228Y027476
T103
X034057Y006645
X009057Y012204
X039057Y009645
X012057Y009204
X006057Y009204
X009057Y002645
X009057Y009645
X007285Y009645
X007285Y002645
X004285Y009204
X037285Y012204
X044057Y006645
X004285Y006645
X032285Y006645
X042285Y006645
X010285Y006645
X010285Y009204
X007285Y005204
X007285Y012204
X032285Y009204
X034057Y009204
X006057Y006645
X039057Y012204
X042285Y009204
X012057Y006645
X037285Y009645
X044057Y009204
X009057Y005204
T00
M30
