G04 MADE WITH FRITZING*
G04 WWW.FRITZING.ORG*
G04 DOUBLE SIDED*
G04 HOLES PLATED*
G04 CONTOUR ON CENTER OF CONTOUR VECTOR*
%ASAXBY*%
%FSLAX23Y23*%
%MOIN*%
%OFA0B0*%
%SFA1.0B1.0*%
%ADD10R,0.001000X0.001000*%
%LNSILK0*%
G90*
G70*
G54D10*
X370Y3665D02*
X4457Y3665D01*
X356Y3664D02*
X4471Y3664D01*
X346Y3663D02*
X4481Y3663D01*
X337Y3662D02*
X4490Y3662D01*
X330Y3661D02*
X4497Y3661D01*
X324Y3660D02*
X4503Y3660D01*
X318Y3659D02*
X4509Y3659D01*
X313Y3658D02*
X4514Y3658D01*
X308Y3657D02*
X369Y3657D01*
X4458Y3657D02*
X4519Y3657D01*
X304Y3656D02*
X355Y3656D01*
X4472Y3656D02*
X4523Y3656D01*
X299Y3655D02*
X345Y3655D01*
X4482Y3655D02*
X4528Y3655D01*
X295Y3654D02*
X337Y3654D01*
X4490Y3654D02*
X4532Y3654D01*
X291Y3653D02*
X330Y3653D01*
X4497Y3653D02*
X4536Y3653D01*
X288Y3652D02*
X323Y3652D01*
X4504Y3652D02*
X4539Y3652D01*
X284Y3651D02*
X318Y3651D01*
X4509Y3651D02*
X4543Y3651D01*
X281Y3650D02*
X313Y3650D01*
X4514Y3650D02*
X4546Y3650D01*
X277Y3649D02*
X308Y3649D01*
X4519Y3649D02*
X4550Y3649D01*
X274Y3648D02*
X303Y3648D01*
X4524Y3648D02*
X4553Y3648D01*
X271Y3647D02*
X299Y3647D01*
X4528Y3647D02*
X4556Y3647D01*
X268Y3646D02*
X295Y3646D01*
X4532Y3646D02*
X4559Y3646D01*
X265Y3645D02*
X291Y3645D01*
X4536Y3645D02*
X4562Y3645D01*
X262Y3644D02*
X287Y3644D01*
X4540Y3644D02*
X4565Y3644D01*
X259Y3643D02*
X284Y3643D01*
X4543Y3643D02*
X4568Y3643D01*
X256Y3642D02*
X280Y3642D01*
X4547Y3642D02*
X4571Y3642D01*
X253Y3641D02*
X277Y3641D01*
X4550Y3641D02*
X4574Y3641D01*
X251Y3640D02*
X274Y3640D01*
X4553Y3640D02*
X4576Y3640D01*
X248Y3639D02*
X271Y3639D01*
X4556Y3639D02*
X4579Y3639D01*
X246Y3638D02*
X268Y3638D01*
X4559Y3638D02*
X4581Y3638D01*
X243Y3637D02*
X265Y3637D01*
X4562Y3637D02*
X4584Y3637D01*
X241Y3636D02*
X262Y3636D01*
X4565Y3636D02*
X4586Y3636D01*
X238Y3635D02*
X259Y3635D01*
X4568Y3635D02*
X4589Y3635D01*
X236Y3634D02*
X256Y3634D01*
X4571Y3634D02*
X4591Y3634D01*
X234Y3633D02*
X253Y3633D01*
X4574Y3633D02*
X4593Y3633D01*
X231Y3632D02*
X251Y3632D01*
X4576Y3632D02*
X4596Y3632D01*
X229Y3631D02*
X248Y3631D01*
X4579Y3631D02*
X4598Y3631D01*
X227Y3630D02*
X246Y3630D01*
X4581Y3630D02*
X4600Y3630D01*
X225Y3629D02*
X243Y3629D01*
X4584Y3629D02*
X4602Y3629D01*
X223Y3628D02*
X241Y3628D01*
X4586Y3628D02*
X4604Y3628D01*
X220Y3627D02*
X238Y3627D01*
X4589Y3627D02*
X4607Y3627D01*
X218Y3626D02*
X236Y3626D01*
X4591Y3626D02*
X4609Y3626D01*
X216Y3625D02*
X234Y3625D01*
X4593Y3625D02*
X4611Y3625D01*
X214Y3624D02*
X232Y3624D01*
X4595Y3624D02*
X4613Y3624D01*
X212Y3623D02*
X230Y3623D01*
X4597Y3623D02*
X4615Y3623D01*
X211Y3622D02*
X227Y3622D01*
X4600Y3622D02*
X4616Y3622D01*
X209Y3621D02*
X225Y3621D01*
X4602Y3621D02*
X4618Y3621D01*
X207Y3620D02*
X223Y3620D01*
X4604Y3620D02*
X4620Y3620D01*
X205Y3619D02*
X221Y3619D01*
X4606Y3619D02*
X4622Y3619D01*
X203Y3618D02*
X219Y3618D01*
X4608Y3618D02*
X4624Y3618D01*
X201Y3617D02*
X217Y3617D01*
X4610Y3617D02*
X4626Y3617D01*
X199Y3616D02*
X215Y3616D01*
X4612Y3616D02*
X4628Y3616D01*
X198Y3615D02*
X213Y3615D01*
X4614Y3615D02*
X4629Y3615D01*
X196Y3614D02*
X211Y3614D01*
X4616Y3614D02*
X4631Y3614D01*
X194Y3613D02*
X209Y3613D01*
X4618Y3613D02*
X4633Y3613D01*
X192Y3612D02*
X207Y3612D01*
X4620Y3612D02*
X4635Y3612D01*
X191Y3611D02*
X205Y3611D01*
X4622Y3611D02*
X4636Y3611D01*
X189Y3610D02*
X204Y3610D01*
X4623Y3610D02*
X4638Y3610D01*
X187Y3609D02*
X202Y3609D01*
X4625Y3609D02*
X4640Y3609D01*
X186Y3608D02*
X200Y3608D01*
X4627Y3608D02*
X4641Y3608D01*
X184Y3607D02*
X198Y3607D01*
X4629Y3607D02*
X4643Y3607D01*
X182Y3606D02*
X197Y3606D01*
X4630Y3606D02*
X4645Y3606D01*
X181Y3605D02*
X195Y3605D01*
X4632Y3605D02*
X4646Y3605D01*
X179Y3604D02*
X193Y3604D01*
X4634Y3604D02*
X4648Y3604D01*
X178Y3603D02*
X191Y3603D01*
X4636Y3603D02*
X4649Y3603D01*
X176Y3602D02*
X190Y3602D01*
X4637Y3602D02*
X4651Y3602D01*
X175Y3601D02*
X188Y3601D01*
X4639Y3601D02*
X4652Y3601D01*
X173Y3600D02*
X187Y3600D01*
X4640Y3600D02*
X4654Y3600D01*
X171Y3599D02*
X185Y3599D01*
X4642Y3599D02*
X4656Y3599D01*
X170Y3598D02*
X184Y3598D01*
X4643Y3598D02*
X4657Y3598D01*
X169Y3597D02*
X182Y3597D01*
X4645Y3597D02*
X4658Y3597D01*
X167Y3596D02*
X180Y3596D01*
X4647Y3596D02*
X4660Y3596D01*
X166Y3595D02*
X179Y3595D01*
X4648Y3595D02*
X4661Y3595D01*
X164Y3594D02*
X177Y3594D01*
X4650Y3594D02*
X4663Y3594D01*
X163Y3593D02*
X176Y3593D01*
X4651Y3593D02*
X4664Y3593D01*
X162Y3592D02*
X174Y3592D01*
X4653Y3592D02*
X4665Y3592D01*
X160Y3591D02*
X173Y3591D01*
X4654Y3591D02*
X4667Y3591D01*
X159Y3590D02*
X171Y3590D01*
X4656Y3590D02*
X4668Y3590D01*
X157Y3589D02*
X170Y3589D01*
X4657Y3589D02*
X4670Y3589D01*
X156Y3588D02*
X169Y3588D01*
X4658Y3588D02*
X4671Y3588D01*
X155Y3587D02*
X167Y3587D01*
X4660Y3587D02*
X4672Y3587D01*
X153Y3586D02*
X166Y3586D01*
X4661Y3586D02*
X4674Y3586D01*
X152Y3585D02*
X164Y3585D01*
X4663Y3585D02*
X4675Y3585D01*
X151Y3584D02*
X163Y3584D01*
X4664Y3584D02*
X4676Y3584D01*
X150Y3583D02*
X162Y3583D01*
X4665Y3583D02*
X4677Y3583D01*
X148Y3582D02*
X160Y3582D01*
X4667Y3582D02*
X4679Y3582D01*
X147Y3581D02*
X159Y3581D01*
X4668Y3581D02*
X4680Y3581D01*
X146Y3580D02*
X158Y3580D01*
X4669Y3580D02*
X4681Y3580D01*
X144Y3579D02*
X156Y3579D01*
X4671Y3579D02*
X4683Y3579D01*
X143Y3578D02*
X155Y3578D01*
X4672Y3578D02*
X4684Y3578D01*
X142Y3577D02*
X154Y3577D01*
X4673Y3577D02*
X4685Y3577D01*
X141Y3576D02*
X153Y3576D01*
X4674Y3576D02*
X4686Y3576D01*
X140Y3575D02*
X151Y3575D01*
X4676Y3575D02*
X4687Y3575D01*
X138Y3574D02*
X150Y3574D01*
X4677Y3574D02*
X4689Y3574D01*
X137Y3573D02*
X149Y3573D01*
X4678Y3573D02*
X4690Y3573D01*
X136Y3572D02*
X147Y3572D01*
X4680Y3572D02*
X4691Y3572D01*
X135Y3571D02*
X146Y3571D01*
X4681Y3571D02*
X4692Y3571D01*
X134Y3570D02*
X145Y3570D01*
X4682Y3570D02*
X4693Y3570D01*
X133Y3569D02*
X144Y3569D01*
X4683Y3569D02*
X4694Y3569D01*
X131Y3568D02*
X143Y3568D01*
X4684Y3568D02*
X4696Y3568D01*
X130Y3567D02*
X141Y3567D01*
X4686Y3567D02*
X4697Y3567D01*
X129Y3566D02*
X140Y3566D01*
X4687Y3566D02*
X4698Y3566D01*
X128Y3565D02*
X139Y3565D01*
X4688Y3565D02*
X4699Y3565D01*
X127Y3564D02*
X138Y3564D01*
X4689Y3564D02*
X4700Y3564D01*
X126Y3563D02*
X137Y3563D01*
X4690Y3563D02*
X4701Y3563D01*
X125Y3562D02*
X136Y3562D01*
X4691Y3562D02*
X4702Y3562D01*
X124Y3561D02*
X135Y3561D01*
X4692Y3561D02*
X4703Y3561D01*
X123Y3560D02*
X133Y3560D01*
X4694Y3560D02*
X4704Y3560D01*
X122Y3559D02*
X132Y3559D01*
X4695Y3559D02*
X4705Y3559D01*
X121Y3558D02*
X131Y3558D01*
X4696Y3558D02*
X4706Y3558D01*
X119Y3557D02*
X130Y3557D01*
X4697Y3557D02*
X4708Y3557D01*
X118Y3556D02*
X129Y3556D01*
X4698Y3556D02*
X4709Y3556D01*
X117Y3555D02*
X128Y3555D01*
X4699Y3555D02*
X4710Y3555D01*
X116Y3554D02*
X127Y3554D01*
X4700Y3554D02*
X4711Y3554D01*
X115Y3553D02*
X126Y3553D01*
X4701Y3553D02*
X4712Y3553D01*
X114Y3552D02*
X125Y3552D01*
X4702Y3552D02*
X4713Y3552D01*
X113Y3551D02*
X124Y3551D01*
X4703Y3551D02*
X4714Y3551D01*
X112Y3550D02*
X123Y3550D01*
X4704Y3550D02*
X4715Y3550D01*
X111Y3549D02*
X122Y3549D01*
X4705Y3549D02*
X4716Y3549D01*
X110Y3548D02*
X121Y3548D01*
X4706Y3548D02*
X4717Y3548D01*
X109Y3547D02*
X120Y3547D01*
X4707Y3547D02*
X4718Y3547D01*
X108Y3546D02*
X119Y3546D01*
X4708Y3546D02*
X4719Y3546D01*
X108Y3545D02*
X118Y3545D01*
X4709Y3545D02*
X4720Y3545D01*
X107Y3544D02*
X117Y3544D01*
X4710Y3544D02*
X4720Y3544D01*
X106Y3543D02*
X116Y3543D01*
X4711Y3543D02*
X4721Y3543D01*
X105Y3542D02*
X115Y3542D01*
X4712Y3542D02*
X4722Y3542D01*
X104Y3541D02*
X114Y3541D01*
X4713Y3541D02*
X4723Y3541D01*
X103Y3540D02*
X113Y3540D01*
X4714Y3540D02*
X4724Y3540D01*
X102Y3539D02*
X112Y3539D01*
X4715Y3539D02*
X4725Y3539D01*
X101Y3538D02*
X111Y3538D01*
X4716Y3538D02*
X4726Y3538D01*
X100Y3537D02*
X110Y3537D01*
X4717Y3537D02*
X4727Y3537D01*
X99Y3536D02*
X109Y3536D01*
X4718Y3536D02*
X4728Y3536D01*
X98Y3535D02*
X108Y3535D01*
X4719Y3535D02*
X4729Y3535D01*
X97Y3534D02*
X107Y3534D01*
X4720Y3534D02*
X4730Y3534D01*
X97Y3533D02*
X106Y3533D01*
X4721Y3533D02*
X4731Y3533D01*
X96Y3532D02*
X105Y3532D01*
X4722Y3532D02*
X4731Y3532D01*
X95Y3531D02*
X104Y3531D01*
X4723Y3531D02*
X4732Y3531D01*
X94Y3530D02*
X103Y3530D01*
X4724Y3530D02*
X4733Y3530D01*
X93Y3529D02*
X103Y3529D01*
X4724Y3529D02*
X4734Y3529D01*
X92Y3528D02*
X102Y3528D01*
X4725Y3528D02*
X4735Y3528D01*
X91Y3527D02*
X101Y3527D01*
X4726Y3527D02*
X4736Y3527D01*
X90Y3526D02*
X100Y3526D01*
X4727Y3526D02*
X4737Y3526D01*
X90Y3525D02*
X99Y3525D01*
X4728Y3525D02*
X4737Y3525D01*
X89Y3524D02*
X98Y3524D01*
X4729Y3524D02*
X4738Y3524D01*
X88Y3523D02*
X97Y3523D01*
X4730Y3523D02*
X4739Y3523D01*
X87Y3522D02*
X97Y3522D01*
X4730Y3522D02*
X4740Y3522D01*
X86Y3521D02*
X96Y3521D01*
X4731Y3521D02*
X4741Y3521D01*
X86Y3520D02*
X95Y3520D01*
X4732Y3520D02*
X4741Y3520D01*
X85Y3519D02*
X94Y3519D01*
X4733Y3519D02*
X4742Y3519D01*
X84Y3518D02*
X93Y3518D01*
X4734Y3518D02*
X4743Y3518D01*
X83Y3517D02*
X92Y3517D01*
X4735Y3517D02*
X4744Y3517D01*
X82Y3516D02*
X92Y3516D01*
X4735Y3516D02*
X4745Y3516D01*
X82Y3515D02*
X91Y3515D01*
X4736Y3515D02*
X4745Y3515D01*
X81Y3514D02*
X90Y3514D01*
X4737Y3514D02*
X4746Y3514D01*
X80Y3513D02*
X89Y3513D01*
X4738Y3513D02*
X4747Y3513D01*
X79Y3512D02*
X88Y3512D01*
X4739Y3512D02*
X4748Y3512D01*
X78Y3511D02*
X88Y3511D01*
X4739Y3511D02*
X4749Y3511D01*
X78Y3510D02*
X87Y3510D01*
X4740Y3510D02*
X4749Y3510D01*
X77Y3509D02*
X86Y3509D01*
X4741Y3509D02*
X4750Y3509D01*
X76Y3508D02*
X85Y3508D01*
X4742Y3508D02*
X4751Y3508D01*
X76Y3507D02*
X84Y3507D01*
X4743Y3507D02*
X4751Y3507D01*
X75Y3506D02*
X84Y3506D01*
X4743Y3506D02*
X4752Y3506D01*
X74Y3505D02*
X83Y3505D01*
X4744Y3505D02*
X4753Y3505D01*
X73Y3504D02*
X82Y3504D01*
X4745Y3504D02*
X4754Y3504D01*
X73Y3503D02*
X81Y3503D01*
X4746Y3503D02*
X4754Y3503D01*
X72Y3502D02*
X81Y3502D01*
X4746Y3502D02*
X4755Y3502D01*
X71Y3501D02*
X80Y3501D01*
X4747Y3501D02*
X4756Y3501D01*
X71Y3500D02*
X79Y3500D01*
X4748Y3500D02*
X4756Y3500D01*
X70Y3499D02*
X79Y3499D01*
X4748Y3499D02*
X4757Y3499D01*
X69Y3498D02*
X78Y3498D01*
X4749Y3498D02*
X4758Y3498D01*
X68Y3497D02*
X77Y3497D01*
X4750Y3497D02*
X4759Y3497D01*
X68Y3496D02*
X76Y3496D01*
X4751Y3496D02*
X4759Y3496D01*
X67Y3495D02*
X76Y3495D01*
X4751Y3495D02*
X4760Y3495D01*
X66Y3494D02*
X75Y3494D01*
X4752Y3494D02*
X4761Y3494D01*
X66Y3493D02*
X74Y3493D01*
X4753Y3493D02*
X4761Y3493D01*
X65Y3492D02*
X74Y3492D01*
X4753Y3492D02*
X4762Y3492D01*
X64Y3491D02*
X73Y3491D01*
X4754Y3491D02*
X4763Y3491D01*
X64Y3490D02*
X72Y3490D01*
X4755Y3490D02*
X4763Y3490D01*
X63Y3489D02*
X71Y3489D01*
X4756Y3489D02*
X4764Y3489D01*
X62Y3488D02*
X71Y3488D01*
X4756Y3488D02*
X4765Y3488D01*
X62Y3487D02*
X70Y3487D01*
X4757Y3487D02*
X4765Y3487D01*
X61Y3486D02*
X70Y3486D01*
X4757Y3486D02*
X4766Y3486D01*
X60Y3485D02*
X69Y3485D01*
X4758Y3485D02*
X4767Y3485D01*
X60Y3484D02*
X68Y3484D01*
X4759Y3484D02*
X4767Y3484D01*
X59Y3483D02*
X68Y3483D01*
X4759Y3483D02*
X4768Y3483D01*
X59Y3482D02*
X67Y3482D01*
X4760Y3482D02*
X4768Y3482D01*
X58Y3481D02*
X66Y3481D01*
X4761Y3481D02*
X4769Y3481D01*
X57Y3480D02*
X66Y3480D01*
X4761Y3480D02*
X4770Y3480D01*
X57Y3479D02*
X65Y3479D01*
X4762Y3479D02*
X4770Y3479D01*
X56Y3478D02*
X64Y3478D01*
X4763Y3478D02*
X4771Y3478D01*
X55Y3477D02*
X64Y3477D01*
X4763Y3477D02*
X4772Y3477D01*
X55Y3476D02*
X63Y3476D01*
X4764Y3476D02*
X4772Y3476D01*
X54Y3475D02*
X62Y3475D01*
X4765Y3475D02*
X4773Y3475D01*
X54Y3474D02*
X62Y3474D01*
X4765Y3474D02*
X4773Y3474D01*
X53Y3473D02*
X61Y3473D01*
X4766Y3473D02*
X4774Y3473D01*
X53Y3472D02*
X61Y3472D01*
X4766Y3472D02*
X4774Y3472D01*
X52Y3471D02*
X60Y3471D01*
X4767Y3471D02*
X4775Y3471D01*
X51Y3470D02*
X60Y3470D01*
X4767Y3470D02*
X4776Y3470D01*
X51Y3469D02*
X59Y3469D01*
X4768Y3469D02*
X4776Y3469D01*
X50Y3468D02*
X58Y3468D01*
X4769Y3468D02*
X4777Y3468D01*
X50Y3467D02*
X58Y3467D01*
X4769Y3467D02*
X4777Y3467D01*
X49Y3466D02*
X57Y3466D01*
X4770Y3466D02*
X4778Y3466D01*
X49Y3465D02*
X57Y3465D01*
X4770Y3465D02*
X4778Y3465D01*
X48Y3464D02*
X56Y3464D01*
X4771Y3464D02*
X4779Y3464D01*
X47Y3463D02*
X55Y3463D01*
X4772Y3463D02*
X4780Y3463D01*
X47Y3462D02*
X55Y3462D01*
X4772Y3462D02*
X4780Y3462D01*
X46Y3461D02*
X54Y3461D01*
X4773Y3461D02*
X4781Y3461D01*
X46Y3460D02*
X54Y3460D01*
X4773Y3460D02*
X4781Y3460D01*
X45Y3459D02*
X53Y3459D01*
X4774Y3459D02*
X4782Y3459D01*
X45Y3458D02*
X53Y3458D01*
X4774Y3458D02*
X4782Y3458D01*
X44Y3457D02*
X52Y3457D01*
X4775Y3457D02*
X4783Y3457D01*
X44Y3456D02*
X52Y3456D01*
X4775Y3456D02*
X4783Y3456D01*
X43Y3455D02*
X51Y3455D01*
X4776Y3455D02*
X4784Y3455D01*
X43Y3454D02*
X51Y3454D01*
X4776Y3454D02*
X4784Y3454D01*
X42Y3453D02*
X50Y3453D01*
X4777Y3453D02*
X4785Y3453D01*
X42Y3452D02*
X50Y3452D01*
X4777Y3452D02*
X4785Y3452D01*
X41Y3451D02*
X49Y3451D01*
X4778Y3451D02*
X4786Y3451D01*
X41Y3450D02*
X49Y3450D01*
X4779Y3450D02*
X4786Y3450D01*
X40Y3449D02*
X48Y3449D01*
X4779Y3449D02*
X4787Y3449D01*
X40Y3448D02*
X47Y3448D01*
X4780Y3448D02*
X4787Y3448D01*
X39Y3447D02*
X47Y3447D01*
X4780Y3447D02*
X4788Y3447D01*
X39Y3446D02*
X46Y3446D01*
X4781Y3446D02*
X4788Y3446D01*
X38Y3445D02*
X46Y3445D01*
X4781Y3445D02*
X4789Y3445D01*
X38Y3444D02*
X45Y3444D01*
X4782Y3444D02*
X4789Y3444D01*
X37Y3443D02*
X45Y3443D01*
X4782Y3443D02*
X4790Y3443D01*
X37Y3442D02*
X44Y3442D01*
X4783Y3442D02*
X4790Y3442D01*
X36Y3441D02*
X44Y3441D01*
X4783Y3441D02*
X4791Y3441D01*
X36Y3440D02*
X43Y3440D01*
X4784Y3440D02*
X4791Y3440D01*
X35Y3439D02*
X43Y3439D01*
X4784Y3439D02*
X4792Y3439D01*
X35Y3438D02*
X43Y3438D01*
X4784Y3438D02*
X4792Y3438D01*
X35Y3437D02*
X42Y3437D01*
X4785Y3437D02*
X4792Y3437D01*
X34Y3436D02*
X42Y3436D01*
X4785Y3436D02*
X4793Y3436D01*
X34Y3435D02*
X41Y3435D01*
X4786Y3435D02*
X4793Y3435D01*
X33Y3434D02*
X41Y3434D01*
X4786Y3434D02*
X4794Y3434D01*
X33Y3433D02*
X40Y3433D01*
X4787Y3433D02*
X4794Y3433D01*
X32Y3432D02*
X40Y3432D01*
X4787Y3432D02*
X4795Y3432D01*
X32Y3431D02*
X39Y3431D01*
X4788Y3431D02*
X4795Y3431D01*
X31Y3430D02*
X39Y3430D01*
X4788Y3430D02*
X4796Y3430D01*
X31Y3429D02*
X38Y3429D01*
X4789Y3429D02*
X4796Y3429D01*
X30Y3428D02*
X38Y3428D01*
X4789Y3428D02*
X4797Y3428D01*
X30Y3427D02*
X38Y3427D01*
X4789Y3427D02*
X4797Y3427D01*
X30Y3426D02*
X37Y3426D01*
X4790Y3426D02*
X4797Y3426D01*
X29Y3425D02*
X37Y3425D01*
X4790Y3425D02*
X4798Y3425D01*
X29Y3424D02*
X36Y3424D01*
X4791Y3424D02*
X4798Y3424D01*
X28Y3423D02*
X36Y3423D01*
X4791Y3423D02*
X4799Y3423D01*
X28Y3422D02*
X36Y3422D01*
X4791Y3422D02*
X4799Y3422D01*
X28Y3421D02*
X35Y3421D01*
X4792Y3421D02*
X4799Y3421D01*
X27Y3420D02*
X35Y3420D01*
X4792Y3420D02*
X4800Y3420D01*
X27Y3419D02*
X34Y3419D01*
X4793Y3419D02*
X4800Y3419D01*
X26Y3418D02*
X34Y3418D01*
X4793Y3418D02*
X4801Y3418D01*
X26Y3417D02*
X34Y3417D01*
X4793Y3417D02*
X4801Y3417D01*
X26Y3416D02*
X33Y3416D01*
X4794Y3416D02*
X4801Y3416D01*
X25Y3415D02*
X33Y3415D01*
X4794Y3415D02*
X4802Y3415D01*
X25Y3414D02*
X32Y3414D01*
X4795Y3414D02*
X4802Y3414D01*
X25Y3413D02*
X32Y3413D01*
X4795Y3413D02*
X4802Y3413D01*
X24Y3412D02*
X32Y3412D01*
X4795Y3412D02*
X4803Y3412D01*
X24Y3411D02*
X31Y3411D01*
X4796Y3411D02*
X4803Y3411D01*
X23Y3410D02*
X31Y3410D01*
X4796Y3410D02*
X4804Y3410D01*
X23Y3409D02*
X30Y3409D01*
X4797Y3409D02*
X4804Y3409D01*
X23Y3408D02*
X30Y3408D01*
X4797Y3408D02*
X4804Y3408D01*
X22Y3407D02*
X30Y3407D01*
X4797Y3407D02*
X4805Y3407D01*
X22Y3406D02*
X29Y3406D01*
X4798Y3406D02*
X4805Y3406D01*
X22Y3405D02*
X29Y3405D01*
X4798Y3405D02*
X4805Y3405D01*
X21Y3404D02*
X29Y3404D01*
X4798Y3404D02*
X4806Y3404D01*
X21Y3403D02*
X28Y3403D01*
X4799Y3403D02*
X4806Y3403D01*
X21Y3402D02*
X28Y3402D01*
X4799Y3402D02*
X4806Y3402D01*
X20Y3401D02*
X28Y3401D01*
X4799Y3401D02*
X4807Y3401D01*
X20Y3400D02*
X27Y3400D01*
X4800Y3400D02*
X4807Y3400D01*
X20Y3399D02*
X27Y3399D01*
X4800Y3399D02*
X4807Y3399D01*
X19Y3398D02*
X27Y3398D01*
X4800Y3398D02*
X4808Y3398D01*
X19Y3397D02*
X26Y3397D01*
X4801Y3397D02*
X4808Y3397D01*
X19Y3396D02*
X26Y3396D01*
X4801Y3396D02*
X4808Y3396D01*
X18Y3395D02*
X26Y3395D01*
X4801Y3395D02*
X4809Y3395D01*
X18Y3394D02*
X25Y3394D01*
X4802Y3394D02*
X4809Y3394D01*
X18Y3393D02*
X25Y3393D01*
X4802Y3393D02*
X4809Y3393D01*
X17Y3392D02*
X25Y3392D01*
X4802Y3392D02*
X4810Y3392D01*
X17Y3391D02*
X24Y3391D01*
X4803Y3391D02*
X4810Y3391D01*
X17Y3390D02*
X24Y3390D01*
X4803Y3390D02*
X4810Y3390D01*
X16Y3389D02*
X24Y3389D01*
X4803Y3389D02*
X4811Y3389D01*
X16Y3388D02*
X23Y3388D01*
X4804Y3388D02*
X4811Y3388D01*
X16Y3387D02*
X23Y3387D01*
X4804Y3387D02*
X4811Y3387D01*
X15Y3386D02*
X23Y3386D01*
X4804Y3386D02*
X4812Y3386D01*
X15Y3385D02*
X22Y3385D01*
X4805Y3385D02*
X4812Y3385D01*
X15Y3384D02*
X22Y3384D01*
X4805Y3384D02*
X4812Y3384D01*
X15Y3383D02*
X22Y3383D01*
X4805Y3383D02*
X4812Y3383D01*
X14Y3382D02*
X22Y3382D01*
X4805Y3382D02*
X4813Y3382D01*
X14Y3381D02*
X21Y3381D01*
X4806Y3381D02*
X4813Y3381D01*
X14Y3380D02*
X21Y3380D01*
X4806Y3380D02*
X4813Y3380D01*
X14Y3379D02*
X21Y3379D01*
X4806Y3379D02*
X4813Y3379D01*
X13Y3378D02*
X20Y3378D01*
X4807Y3378D02*
X4814Y3378D01*
X13Y3377D02*
X20Y3377D01*
X4807Y3377D02*
X4814Y3377D01*
X13Y3376D02*
X20Y3376D01*
X4807Y3376D02*
X4814Y3376D01*
X12Y3375D02*
X20Y3375D01*
X4807Y3375D02*
X4815Y3375D01*
X12Y3374D02*
X19Y3374D01*
X4808Y3374D02*
X4815Y3374D01*
X12Y3373D02*
X19Y3373D01*
X4808Y3373D02*
X4815Y3373D01*
X12Y3372D02*
X19Y3372D01*
X4808Y3372D02*
X4815Y3372D01*
X11Y3371D02*
X19Y3371D01*
X4808Y3371D02*
X4816Y3371D01*
X11Y3370D02*
X18Y3370D01*
X4809Y3370D02*
X4816Y3370D01*
X11Y3369D02*
X18Y3369D01*
X4809Y3369D02*
X4816Y3369D01*
X11Y3368D02*
X18Y3368D01*
X4809Y3368D02*
X4816Y3368D01*
X10Y3367D02*
X18Y3367D01*
X4809Y3367D02*
X4817Y3367D01*
X10Y3366D02*
X17Y3366D01*
X4810Y3366D02*
X4817Y3366D01*
X10Y3365D02*
X17Y3365D01*
X4810Y3365D02*
X4817Y3365D01*
X10Y3364D02*
X17Y3364D01*
X4810Y3364D02*
X4817Y3364D01*
X10Y3363D02*
X17Y3363D01*
X4810Y3363D02*
X4817Y3363D01*
X9Y3362D02*
X16Y3362D01*
X4811Y3362D02*
X4818Y3362D01*
X9Y3361D02*
X16Y3361D01*
X4811Y3361D02*
X4818Y3361D01*
X9Y3360D02*
X16Y3360D01*
X4811Y3360D02*
X4818Y3360D01*
X9Y3359D02*
X16Y3359D01*
X4811Y3359D02*
X4818Y3359D01*
X8Y3358D02*
X16Y3358D01*
X4811Y3358D02*
X4819Y3358D01*
X8Y3357D02*
X15Y3357D01*
X4812Y3357D02*
X4819Y3357D01*
X8Y3356D02*
X15Y3356D01*
X4812Y3356D02*
X4819Y3356D01*
X8Y3355D02*
X15Y3355D01*
X4812Y3355D02*
X4819Y3355D01*
X8Y3354D02*
X15Y3354D01*
X4812Y3354D02*
X4819Y3354D01*
X7Y3353D02*
X14Y3353D01*
X4813Y3353D02*
X4820Y3353D01*
X7Y3352D02*
X14Y3352D01*
X4813Y3352D02*
X4820Y3352D01*
X7Y3351D02*
X14Y3351D01*
X4813Y3351D02*
X4820Y3351D01*
X7Y3350D02*
X14Y3350D01*
X4813Y3350D02*
X4820Y3350D01*
X7Y3349D02*
X14Y3349D01*
X4813Y3349D02*
X4820Y3349D01*
X6Y3348D02*
X14Y3348D01*
X4813Y3348D02*
X4821Y3348D01*
X6Y3347D02*
X13Y3347D01*
X4814Y3347D02*
X4821Y3347D01*
X6Y3346D02*
X13Y3346D01*
X4814Y3346D02*
X4821Y3346D01*
X6Y3345D02*
X13Y3345D01*
X4814Y3345D02*
X4821Y3345D01*
X6Y3344D02*
X13Y3344D01*
X4814Y3344D02*
X4821Y3344D01*
X6Y3343D02*
X13Y3343D01*
X4814Y3343D02*
X4821Y3343D01*
X5Y3342D02*
X12Y3342D01*
X4815Y3342D02*
X4822Y3342D01*
X5Y3341D02*
X12Y3341D01*
X4815Y3341D02*
X4822Y3341D01*
X5Y3340D02*
X12Y3340D01*
X4815Y3340D02*
X4822Y3340D01*
X5Y3339D02*
X12Y3339D01*
X4815Y3339D02*
X4822Y3339D01*
X5Y3338D02*
X12Y3338D01*
X4815Y3338D02*
X4822Y3338D01*
X5Y3337D02*
X12Y3337D01*
X4815Y3337D02*
X4822Y3337D01*
X4Y3336D02*
X11Y3336D01*
X4816Y3336D02*
X4823Y3336D01*
X4Y3335D02*
X11Y3335D01*
X4816Y3335D02*
X4823Y3335D01*
X4Y3334D02*
X11Y3334D01*
X4816Y3334D02*
X4823Y3334D01*
X4Y3333D02*
X11Y3333D01*
X4816Y3333D02*
X4823Y3333D01*
X4Y3332D02*
X11Y3332D01*
X4816Y3332D02*
X4823Y3332D01*
X4Y3331D02*
X11Y3331D01*
X4816Y3331D02*
X4823Y3331D01*
X4Y3330D02*
X11Y3330D01*
X4816Y3330D02*
X4823Y3330D01*
X3Y3329D02*
X10Y3329D01*
X4817Y3329D02*
X4824Y3329D01*
X3Y3328D02*
X10Y3328D01*
X4817Y3328D02*
X4824Y3328D01*
X3Y3327D02*
X10Y3327D01*
X4817Y3327D02*
X4824Y3327D01*
X3Y3326D02*
X10Y3326D01*
X4817Y3326D02*
X4824Y3326D01*
X3Y3325D02*
X10Y3325D01*
X4817Y3325D02*
X4824Y3325D01*
X3Y3324D02*
X10Y3324D01*
X4817Y3324D02*
X4824Y3324D01*
X3Y3323D02*
X10Y3323D01*
X4817Y3323D02*
X4824Y3323D01*
X3Y3322D02*
X10Y3322D01*
X4817Y3322D02*
X4824Y3322D01*
X2Y3321D02*
X9Y3321D01*
X4818Y3321D02*
X4825Y3321D01*
X2Y3320D02*
X9Y3320D01*
X4818Y3320D02*
X4825Y3320D01*
X2Y3319D02*
X9Y3319D01*
X4818Y3319D02*
X4825Y3319D01*
X2Y3318D02*
X9Y3318D01*
X4818Y3318D02*
X4825Y3318D01*
X2Y3317D02*
X9Y3317D01*
X4818Y3317D02*
X4825Y3317D01*
X2Y3316D02*
X9Y3316D01*
X4818Y3316D02*
X4825Y3316D01*
X2Y3315D02*
X9Y3315D01*
X4818Y3315D02*
X4825Y3315D01*
X2Y3314D02*
X9Y3314D01*
X4818Y3314D02*
X4825Y3314D01*
X2Y3313D02*
X9Y3313D01*
X4818Y3313D02*
X4825Y3313D01*
X2Y3312D02*
X9Y3312D01*
X4818Y3312D02*
X4825Y3312D01*
X1Y3311D02*
X8Y3311D01*
X4819Y3311D02*
X4826Y3311D01*
X1Y3310D02*
X8Y3310D01*
X4819Y3310D02*
X4826Y3310D01*
X1Y3309D02*
X8Y3309D01*
X4819Y3309D02*
X4826Y3309D01*
X1Y3308D02*
X8Y3308D01*
X4819Y3308D02*
X4826Y3308D01*
X1Y3307D02*
X8Y3307D01*
X4819Y3307D02*
X4826Y3307D01*
X1Y3306D02*
X8Y3306D01*
X4819Y3306D02*
X4826Y3306D01*
X1Y3305D02*
X8Y3305D01*
X4819Y3305D02*
X4826Y3305D01*
X1Y3304D02*
X8Y3304D01*
X4819Y3304D02*
X4826Y3304D01*
X1Y3303D02*
X8Y3303D01*
X4819Y3303D02*
X4826Y3303D01*
X1Y3302D02*
X8Y3302D01*
X4819Y3302D02*
X4826Y3302D01*
X1Y3301D02*
X8Y3301D01*
X4819Y3301D02*
X4826Y3301D01*
X1Y3300D02*
X8Y3300D01*
X4819Y3300D02*
X4826Y3300D01*
X1Y3299D02*
X8Y3299D01*
X4819Y3299D02*
X4826Y3299D01*
X1Y3298D02*
X8Y3298D01*
X4819Y3298D02*
X4826Y3298D01*
X0Y3297D02*
X7Y3297D01*
X4820Y3297D02*
X4827Y3297D01*
X0Y3296D02*
X7Y3296D01*
X4820Y3296D02*
X4827Y3296D01*
X0Y3295D02*
X7Y3295D01*
X4820Y3295D02*
X4827Y3295D01*
X0Y3294D02*
X7Y3294D01*
X4820Y3294D02*
X4827Y3294D01*
X0Y3293D02*
X7Y3293D01*
X4820Y3293D02*
X4827Y3293D01*
X0Y3292D02*
X7Y3292D01*
X4820Y3292D02*
X4827Y3292D01*
X0Y3291D02*
X7Y3291D01*
X4820Y3291D02*
X4827Y3291D01*
X0Y3290D02*
X7Y3290D01*
X4820Y3290D02*
X4827Y3290D01*
X0Y3289D02*
X7Y3289D01*
X4820Y3289D02*
X4827Y3289D01*
X0Y3288D02*
X7Y3288D01*
X4820Y3288D02*
X4827Y3288D01*
X0Y3287D02*
X7Y3287D01*
X4820Y3287D02*
X4827Y3287D01*
X0Y3286D02*
X7Y3286D01*
X4820Y3286D02*
X4827Y3286D01*
X0Y3285D02*
X7Y3285D01*
X4820Y3285D02*
X4827Y3285D01*
X0Y3284D02*
X7Y3284D01*
X4820Y3284D02*
X4827Y3284D01*
X0Y3283D02*
X7Y3283D01*
X4820Y3283D02*
X4827Y3283D01*
X0Y3282D02*
X7Y3282D01*
X4820Y3282D02*
X4827Y3282D01*
X0Y3281D02*
X7Y3281D01*
X4820Y3281D02*
X4827Y3281D01*
X0Y3280D02*
X7Y3280D01*
X4820Y3280D02*
X4827Y3280D01*
X0Y3279D02*
X7Y3279D01*
X4820Y3279D02*
X4827Y3279D01*
X0Y3278D02*
X7Y3278D01*
X4820Y3278D02*
X4827Y3278D01*
X0Y3277D02*
X7Y3277D01*
X4820Y3277D02*
X4827Y3277D01*
X0Y3276D02*
X7Y3276D01*
X4820Y3276D02*
X4827Y3276D01*
X0Y3275D02*
X7Y3275D01*
X4820Y3275D02*
X4827Y3275D01*
X0Y3274D02*
X7Y3274D01*
X4820Y3274D02*
X4827Y3274D01*
X0Y3273D02*
X7Y3273D01*
X4820Y3273D02*
X4827Y3273D01*
X0Y3272D02*
X7Y3272D01*
X4820Y3272D02*
X4827Y3272D01*
X0Y3271D02*
X7Y3271D01*
X4820Y3271D02*
X4827Y3271D01*
X0Y3270D02*
X7Y3270D01*
X4820Y3270D02*
X4827Y3270D01*
X0Y3269D02*
X7Y3269D01*
X4820Y3269D02*
X4827Y3269D01*
X0Y3268D02*
X7Y3268D01*
X4820Y3268D02*
X4827Y3268D01*
X0Y3267D02*
X7Y3267D01*
X4820Y3267D02*
X4827Y3267D01*
X0Y3266D02*
X7Y3266D01*
X4820Y3266D02*
X4827Y3266D01*
X0Y3265D02*
X7Y3265D01*
X4820Y3265D02*
X4827Y3265D01*
X0Y3264D02*
X7Y3264D01*
X4820Y3264D02*
X4827Y3264D01*
X0Y3263D02*
X7Y3263D01*
X4820Y3263D02*
X4827Y3263D01*
X0Y3262D02*
X7Y3262D01*
X4820Y3262D02*
X4827Y3262D01*
X0Y3261D02*
X7Y3261D01*
X4820Y3261D02*
X4827Y3261D01*
X0Y3260D02*
X7Y3260D01*
X4820Y3260D02*
X4827Y3260D01*
X0Y3259D02*
X7Y3259D01*
X4820Y3259D02*
X4827Y3259D01*
X0Y3258D02*
X7Y3258D01*
X4820Y3258D02*
X4827Y3258D01*
X0Y3257D02*
X7Y3257D01*
X4820Y3257D02*
X4827Y3257D01*
X0Y3256D02*
X7Y3256D01*
X4820Y3256D02*
X4827Y3256D01*
X0Y3255D02*
X7Y3255D01*
X4820Y3255D02*
X4827Y3255D01*
X0Y3254D02*
X7Y3254D01*
X4820Y3254D02*
X4827Y3254D01*
X0Y3253D02*
X7Y3253D01*
X4820Y3253D02*
X4827Y3253D01*
X0Y3252D02*
X7Y3252D01*
X4820Y3252D02*
X4827Y3252D01*
X0Y3251D02*
X7Y3251D01*
X4820Y3251D02*
X4827Y3251D01*
X0Y3250D02*
X7Y3250D01*
X4820Y3250D02*
X4827Y3250D01*
X0Y3249D02*
X7Y3249D01*
X4820Y3249D02*
X4827Y3249D01*
X0Y3248D02*
X7Y3248D01*
X4820Y3248D02*
X4827Y3248D01*
X0Y3247D02*
X7Y3247D01*
X4820Y3247D02*
X4827Y3247D01*
X0Y3246D02*
X7Y3246D01*
X4820Y3246D02*
X4827Y3246D01*
X0Y3245D02*
X7Y3245D01*
X4820Y3245D02*
X4827Y3245D01*
X0Y3244D02*
X7Y3244D01*
X4820Y3244D02*
X4827Y3244D01*
X0Y3243D02*
X7Y3243D01*
X4820Y3243D02*
X4827Y3243D01*
X0Y3242D02*
X7Y3242D01*
X4820Y3242D02*
X4827Y3242D01*
X0Y3241D02*
X7Y3241D01*
X4820Y3241D02*
X4827Y3241D01*
X0Y3240D02*
X7Y3240D01*
X4820Y3240D02*
X4827Y3240D01*
X0Y3239D02*
X7Y3239D01*
X4820Y3239D02*
X4827Y3239D01*
X0Y3238D02*
X7Y3238D01*
X4820Y3238D02*
X4827Y3238D01*
X0Y3237D02*
X7Y3237D01*
X4820Y3237D02*
X4827Y3237D01*
X0Y3236D02*
X7Y3236D01*
X4820Y3236D02*
X4827Y3236D01*
X0Y3235D02*
X7Y3235D01*
X4820Y3235D02*
X4827Y3235D01*
X0Y3234D02*
X7Y3234D01*
X4820Y3234D02*
X4827Y3234D01*
X0Y3233D02*
X7Y3233D01*
X4820Y3233D02*
X4827Y3233D01*
X0Y3232D02*
X7Y3232D01*
X4820Y3232D02*
X4827Y3232D01*
X0Y3231D02*
X7Y3231D01*
X4820Y3231D02*
X4827Y3231D01*
X0Y3230D02*
X7Y3230D01*
X4820Y3230D02*
X4827Y3230D01*
X0Y3229D02*
X7Y3229D01*
X4820Y3229D02*
X4827Y3229D01*
X0Y3228D02*
X7Y3228D01*
X4820Y3228D02*
X4827Y3228D01*
X0Y3227D02*
X7Y3227D01*
X4820Y3227D02*
X4827Y3227D01*
X0Y3226D02*
X7Y3226D01*
X4820Y3226D02*
X4827Y3226D01*
X0Y3225D02*
X7Y3225D01*
X4820Y3225D02*
X4827Y3225D01*
X0Y3224D02*
X7Y3224D01*
X4820Y3224D02*
X4827Y3224D01*
X0Y3223D02*
X7Y3223D01*
X4820Y3223D02*
X4827Y3223D01*
X0Y3222D02*
X7Y3222D01*
X4820Y3222D02*
X4827Y3222D01*
X0Y3221D02*
X7Y3221D01*
X4820Y3221D02*
X4827Y3221D01*
X0Y3220D02*
X7Y3220D01*
X4820Y3220D02*
X4827Y3220D01*
X0Y3219D02*
X7Y3219D01*
X4820Y3219D02*
X4827Y3219D01*
X0Y3218D02*
X7Y3218D01*
X4820Y3218D02*
X4827Y3218D01*
X0Y3217D02*
X7Y3217D01*
X4820Y3217D02*
X4827Y3217D01*
X0Y3216D02*
X7Y3216D01*
X4820Y3216D02*
X4827Y3216D01*
X0Y3215D02*
X7Y3215D01*
X4820Y3215D02*
X4827Y3215D01*
X0Y3214D02*
X7Y3214D01*
X4820Y3214D02*
X4827Y3214D01*
X0Y3213D02*
X7Y3213D01*
X4820Y3213D02*
X4827Y3213D01*
X0Y3212D02*
X7Y3212D01*
X4820Y3212D02*
X4827Y3212D01*
X0Y3211D02*
X7Y3211D01*
X4820Y3211D02*
X4827Y3211D01*
X0Y3210D02*
X7Y3210D01*
X4820Y3210D02*
X4827Y3210D01*
X0Y3209D02*
X7Y3209D01*
X4820Y3209D02*
X4827Y3209D01*
X0Y3208D02*
X7Y3208D01*
X4820Y3208D02*
X4827Y3208D01*
X0Y3207D02*
X7Y3207D01*
X4820Y3207D02*
X4827Y3207D01*
X0Y3206D02*
X7Y3206D01*
X4820Y3206D02*
X4827Y3206D01*
X0Y3205D02*
X7Y3205D01*
X4820Y3205D02*
X4827Y3205D01*
X0Y3204D02*
X7Y3204D01*
X4820Y3204D02*
X4827Y3204D01*
X0Y3203D02*
X7Y3203D01*
X4820Y3203D02*
X4827Y3203D01*
X0Y3202D02*
X7Y3202D01*
X4820Y3202D02*
X4827Y3202D01*
X0Y3201D02*
X7Y3201D01*
X4820Y3201D02*
X4827Y3201D01*
X0Y3200D02*
X7Y3200D01*
X4820Y3200D02*
X4827Y3200D01*
X0Y3199D02*
X7Y3199D01*
X4820Y3199D02*
X4827Y3199D01*
X0Y3198D02*
X7Y3198D01*
X4820Y3198D02*
X4827Y3198D01*
X0Y3197D02*
X7Y3197D01*
X4820Y3197D02*
X4827Y3197D01*
X0Y3196D02*
X7Y3196D01*
X4820Y3196D02*
X4827Y3196D01*
X0Y3195D02*
X7Y3195D01*
X4820Y3195D02*
X4827Y3195D01*
X0Y3194D02*
X7Y3194D01*
X4820Y3194D02*
X4827Y3194D01*
X0Y3193D02*
X7Y3193D01*
X4820Y3193D02*
X4827Y3193D01*
X0Y3192D02*
X7Y3192D01*
X4820Y3192D02*
X4827Y3192D01*
X0Y3191D02*
X7Y3191D01*
X4820Y3191D02*
X4827Y3191D01*
X0Y3190D02*
X7Y3190D01*
X4820Y3190D02*
X4827Y3190D01*
X0Y3189D02*
X7Y3189D01*
X4820Y3189D02*
X4827Y3189D01*
X0Y3188D02*
X7Y3188D01*
X4820Y3188D02*
X4827Y3188D01*
X0Y3187D02*
X7Y3187D01*
X4820Y3187D02*
X4827Y3187D01*
X0Y3186D02*
X7Y3186D01*
X4820Y3186D02*
X4827Y3186D01*
X0Y3185D02*
X7Y3185D01*
X4820Y3185D02*
X4827Y3185D01*
X0Y3184D02*
X7Y3184D01*
X4820Y3184D02*
X4827Y3184D01*
X0Y3183D02*
X7Y3183D01*
X4820Y3183D02*
X4827Y3183D01*
X0Y3182D02*
X7Y3182D01*
X4820Y3182D02*
X4827Y3182D01*
X0Y3181D02*
X7Y3181D01*
X4820Y3181D02*
X4827Y3181D01*
X0Y3180D02*
X7Y3180D01*
X4820Y3180D02*
X4827Y3180D01*
X0Y3179D02*
X7Y3179D01*
X4820Y3179D02*
X4827Y3179D01*
X0Y3178D02*
X7Y3178D01*
X4820Y3178D02*
X4827Y3178D01*
X0Y3177D02*
X7Y3177D01*
X4820Y3177D02*
X4827Y3177D01*
X0Y3176D02*
X7Y3176D01*
X4820Y3176D02*
X4827Y3176D01*
X0Y3175D02*
X7Y3175D01*
X4820Y3175D02*
X4827Y3175D01*
X0Y3174D02*
X7Y3174D01*
X4820Y3174D02*
X4827Y3174D01*
X0Y3173D02*
X7Y3173D01*
X4820Y3173D02*
X4827Y3173D01*
X0Y3172D02*
X7Y3172D01*
X4820Y3172D02*
X4827Y3172D01*
X0Y3171D02*
X7Y3171D01*
X4820Y3171D02*
X4827Y3171D01*
X0Y3170D02*
X7Y3170D01*
X4820Y3170D02*
X4827Y3170D01*
X0Y3169D02*
X7Y3169D01*
X4820Y3169D02*
X4827Y3169D01*
X0Y3168D02*
X7Y3168D01*
X4820Y3168D02*
X4827Y3168D01*
X0Y3167D02*
X7Y3167D01*
X4820Y3167D02*
X4827Y3167D01*
X0Y3166D02*
X7Y3166D01*
X4820Y3166D02*
X4827Y3166D01*
X0Y3165D02*
X7Y3165D01*
X4820Y3165D02*
X4827Y3165D01*
X0Y3164D02*
X7Y3164D01*
X4820Y3164D02*
X4827Y3164D01*
X0Y3163D02*
X7Y3163D01*
X4820Y3163D02*
X4827Y3163D01*
X0Y3162D02*
X7Y3162D01*
X4820Y3162D02*
X4827Y3162D01*
X0Y3161D02*
X7Y3161D01*
X4820Y3161D02*
X4827Y3161D01*
X0Y3160D02*
X7Y3160D01*
X4820Y3160D02*
X4827Y3160D01*
X0Y3159D02*
X7Y3159D01*
X4820Y3159D02*
X4827Y3159D01*
X0Y3158D02*
X7Y3158D01*
X4820Y3158D02*
X4827Y3158D01*
X0Y3157D02*
X7Y3157D01*
X4820Y3157D02*
X4827Y3157D01*
X0Y3156D02*
X7Y3156D01*
X4820Y3156D02*
X4827Y3156D01*
X0Y3155D02*
X7Y3155D01*
X4820Y3155D02*
X4827Y3155D01*
X0Y3154D02*
X7Y3154D01*
X4820Y3154D02*
X4827Y3154D01*
X0Y3153D02*
X7Y3153D01*
X4820Y3153D02*
X4827Y3153D01*
X0Y3152D02*
X7Y3152D01*
X4820Y3152D02*
X4827Y3152D01*
X0Y3151D02*
X7Y3151D01*
X4820Y3151D02*
X4827Y3151D01*
X0Y3150D02*
X7Y3150D01*
X4820Y3150D02*
X4827Y3150D01*
X0Y3149D02*
X7Y3149D01*
X4820Y3149D02*
X4827Y3149D01*
X0Y3148D02*
X7Y3148D01*
X4820Y3148D02*
X4827Y3148D01*
X0Y3147D02*
X7Y3147D01*
X4820Y3147D02*
X4827Y3147D01*
X0Y3146D02*
X7Y3146D01*
X4820Y3146D02*
X4827Y3146D01*
X0Y3145D02*
X7Y3145D01*
X4820Y3145D02*
X4827Y3145D01*
X0Y3144D02*
X7Y3144D01*
X4820Y3144D02*
X4827Y3144D01*
X0Y3143D02*
X7Y3143D01*
X4820Y3143D02*
X4827Y3143D01*
X0Y3142D02*
X7Y3142D01*
X4820Y3142D02*
X4827Y3142D01*
X0Y3141D02*
X7Y3141D01*
X4820Y3141D02*
X4827Y3141D01*
X0Y3140D02*
X7Y3140D01*
X4820Y3140D02*
X4827Y3140D01*
X0Y3139D02*
X7Y3139D01*
X4820Y3139D02*
X4827Y3139D01*
X0Y3138D02*
X7Y3138D01*
X4820Y3138D02*
X4827Y3138D01*
X0Y3137D02*
X7Y3137D01*
X4820Y3137D02*
X4827Y3137D01*
X0Y3136D02*
X7Y3136D01*
X4820Y3136D02*
X4827Y3136D01*
X0Y3135D02*
X7Y3135D01*
X4820Y3135D02*
X4827Y3135D01*
X0Y3134D02*
X7Y3134D01*
X4820Y3134D02*
X4827Y3134D01*
X0Y3133D02*
X7Y3133D01*
X4820Y3133D02*
X4827Y3133D01*
X0Y3132D02*
X7Y3132D01*
X4820Y3132D02*
X4827Y3132D01*
X0Y3131D02*
X7Y3131D01*
X4820Y3131D02*
X4827Y3131D01*
X0Y3130D02*
X7Y3130D01*
X4820Y3130D02*
X4827Y3130D01*
X0Y3129D02*
X7Y3129D01*
X4820Y3129D02*
X4827Y3129D01*
X0Y3128D02*
X7Y3128D01*
X4820Y3128D02*
X4827Y3128D01*
X0Y3127D02*
X7Y3127D01*
X4820Y3127D02*
X4827Y3127D01*
X0Y3126D02*
X7Y3126D01*
X4820Y3126D02*
X4827Y3126D01*
X0Y3125D02*
X7Y3125D01*
X4820Y3125D02*
X4827Y3125D01*
X0Y3124D02*
X7Y3124D01*
X4820Y3124D02*
X4827Y3124D01*
X0Y3123D02*
X7Y3123D01*
X4820Y3123D02*
X4827Y3123D01*
X0Y3122D02*
X7Y3122D01*
X4820Y3122D02*
X4827Y3122D01*
X0Y3121D02*
X7Y3121D01*
X4820Y3121D02*
X4827Y3121D01*
X0Y3120D02*
X7Y3120D01*
X4820Y3120D02*
X4827Y3120D01*
X0Y3119D02*
X7Y3119D01*
X4820Y3119D02*
X4827Y3119D01*
X0Y3118D02*
X7Y3118D01*
X4820Y3118D02*
X4827Y3118D01*
X0Y3117D02*
X7Y3117D01*
X4820Y3117D02*
X4827Y3117D01*
X0Y3116D02*
X7Y3116D01*
X4820Y3116D02*
X4827Y3116D01*
X0Y3115D02*
X7Y3115D01*
X4820Y3115D02*
X4827Y3115D01*
X0Y3114D02*
X7Y3114D01*
X4820Y3114D02*
X4827Y3114D01*
X0Y3113D02*
X7Y3113D01*
X4820Y3113D02*
X4827Y3113D01*
X0Y3112D02*
X7Y3112D01*
X4820Y3112D02*
X4827Y3112D01*
X0Y3111D02*
X7Y3111D01*
X4820Y3111D02*
X4827Y3111D01*
X0Y3110D02*
X7Y3110D01*
X4820Y3110D02*
X4827Y3110D01*
X0Y3109D02*
X7Y3109D01*
X4820Y3109D02*
X4827Y3109D01*
X0Y3108D02*
X7Y3108D01*
X4820Y3108D02*
X4827Y3108D01*
X0Y3107D02*
X7Y3107D01*
X4820Y3107D02*
X4827Y3107D01*
X0Y3106D02*
X7Y3106D01*
X4820Y3106D02*
X4827Y3106D01*
X0Y3105D02*
X7Y3105D01*
X4820Y3105D02*
X4827Y3105D01*
X0Y3104D02*
X7Y3104D01*
X4820Y3104D02*
X4827Y3104D01*
X0Y3103D02*
X7Y3103D01*
X4820Y3103D02*
X4827Y3103D01*
X0Y3102D02*
X7Y3102D01*
X4820Y3102D02*
X4827Y3102D01*
X0Y3101D02*
X7Y3101D01*
X4820Y3101D02*
X4827Y3101D01*
X0Y3100D02*
X7Y3100D01*
X4820Y3100D02*
X4827Y3100D01*
X0Y3099D02*
X7Y3099D01*
X4820Y3099D02*
X4827Y3099D01*
X0Y3098D02*
X7Y3098D01*
X4820Y3098D02*
X4827Y3098D01*
X0Y3097D02*
X7Y3097D01*
X4820Y3097D02*
X4827Y3097D01*
X0Y3096D02*
X7Y3096D01*
X4820Y3096D02*
X4827Y3096D01*
X0Y3095D02*
X7Y3095D01*
X4820Y3095D02*
X4827Y3095D01*
X0Y3094D02*
X7Y3094D01*
X4820Y3094D02*
X4827Y3094D01*
X0Y3093D02*
X7Y3093D01*
X4820Y3093D02*
X4827Y3093D01*
X0Y3092D02*
X7Y3092D01*
X4820Y3092D02*
X4827Y3092D01*
X0Y3091D02*
X7Y3091D01*
X4820Y3091D02*
X4827Y3091D01*
X0Y3090D02*
X7Y3090D01*
X4820Y3090D02*
X4827Y3090D01*
X0Y3089D02*
X7Y3089D01*
X4820Y3089D02*
X4827Y3089D01*
X0Y3088D02*
X7Y3088D01*
X4820Y3088D02*
X4827Y3088D01*
X0Y3087D02*
X7Y3087D01*
X4820Y3087D02*
X4827Y3087D01*
X0Y3086D02*
X7Y3086D01*
X4820Y3086D02*
X4827Y3086D01*
X0Y3085D02*
X7Y3085D01*
X4820Y3085D02*
X4827Y3085D01*
X0Y3084D02*
X7Y3084D01*
X4820Y3084D02*
X4827Y3084D01*
X0Y3083D02*
X7Y3083D01*
X4820Y3083D02*
X4827Y3083D01*
X0Y3082D02*
X7Y3082D01*
X4820Y3082D02*
X4827Y3082D01*
X0Y3081D02*
X7Y3081D01*
X4820Y3081D02*
X4827Y3081D01*
X0Y3080D02*
X7Y3080D01*
X4820Y3080D02*
X4827Y3080D01*
X0Y3079D02*
X7Y3079D01*
X4820Y3079D02*
X4827Y3079D01*
X0Y3078D02*
X7Y3078D01*
X4820Y3078D02*
X4827Y3078D01*
X0Y3077D02*
X7Y3077D01*
X4820Y3077D02*
X4827Y3077D01*
X0Y3076D02*
X7Y3076D01*
X4820Y3076D02*
X4827Y3076D01*
X0Y3075D02*
X7Y3075D01*
X4820Y3075D02*
X4827Y3075D01*
X0Y3074D02*
X7Y3074D01*
X4820Y3074D02*
X4827Y3074D01*
X0Y3073D02*
X7Y3073D01*
X4820Y3073D02*
X4827Y3073D01*
X0Y3072D02*
X7Y3072D01*
X4820Y3072D02*
X4827Y3072D01*
X0Y3071D02*
X7Y3071D01*
X4820Y3071D02*
X4827Y3071D01*
X0Y3070D02*
X7Y3070D01*
X4820Y3070D02*
X4827Y3070D01*
X0Y3069D02*
X7Y3069D01*
X4820Y3069D02*
X4827Y3069D01*
X0Y3068D02*
X7Y3068D01*
X4820Y3068D02*
X4827Y3068D01*
X0Y3067D02*
X7Y3067D01*
X4820Y3067D02*
X4827Y3067D01*
X0Y3066D02*
X7Y3066D01*
X4820Y3066D02*
X4827Y3066D01*
X0Y3065D02*
X7Y3065D01*
X4820Y3065D02*
X4827Y3065D01*
X0Y3064D02*
X7Y3064D01*
X4820Y3064D02*
X4827Y3064D01*
X0Y3063D02*
X7Y3063D01*
X4820Y3063D02*
X4827Y3063D01*
X0Y3062D02*
X7Y3062D01*
X4820Y3062D02*
X4827Y3062D01*
X0Y3061D02*
X7Y3061D01*
X4820Y3061D02*
X4827Y3061D01*
X0Y3060D02*
X7Y3060D01*
X4820Y3060D02*
X4827Y3060D01*
X0Y3059D02*
X7Y3059D01*
X4820Y3059D02*
X4827Y3059D01*
X0Y3058D02*
X7Y3058D01*
X4820Y3058D02*
X4827Y3058D01*
X0Y3057D02*
X7Y3057D01*
X4820Y3057D02*
X4827Y3057D01*
X0Y3056D02*
X7Y3056D01*
X4820Y3056D02*
X4827Y3056D01*
X0Y3055D02*
X7Y3055D01*
X4820Y3055D02*
X4827Y3055D01*
X0Y3054D02*
X7Y3054D01*
X4820Y3054D02*
X4827Y3054D01*
X0Y3053D02*
X7Y3053D01*
X4820Y3053D02*
X4827Y3053D01*
X0Y3052D02*
X7Y3052D01*
X4820Y3052D02*
X4827Y3052D01*
X0Y3051D02*
X7Y3051D01*
X4820Y3051D02*
X4827Y3051D01*
X0Y3050D02*
X7Y3050D01*
X4820Y3050D02*
X4827Y3050D01*
X0Y3049D02*
X7Y3049D01*
X4820Y3049D02*
X4827Y3049D01*
X0Y3048D02*
X7Y3048D01*
X4820Y3048D02*
X4827Y3048D01*
X0Y3047D02*
X7Y3047D01*
X4820Y3047D02*
X4827Y3047D01*
X0Y3046D02*
X7Y3046D01*
X4820Y3046D02*
X4827Y3046D01*
X0Y3045D02*
X7Y3045D01*
X4820Y3045D02*
X4827Y3045D01*
X0Y3044D02*
X7Y3044D01*
X4820Y3044D02*
X4827Y3044D01*
X0Y3043D02*
X7Y3043D01*
X4820Y3043D02*
X4827Y3043D01*
X0Y3042D02*
X7Y3042D01*
X4820Y3042D02*
X4827Y3042D01*
X0Y3041D02*
X7Y3041D01*
X4820Y3041D02*
X4827Y3041D01*
X0Y3040D02*
X7Y3040D01*
X4820Y3040D02*
X4827Y3040D01*
X0Y3039D02*
X7Y3039D01*
X4820Y3039D02*
X4827Y3039D01*
X0Y3038D02*
X7Y3038D01*
X4820Y3038D02*
X4827Y3038D01*
X0Y3037D02*
X7Y3037D01*
X4820Y3037D02*
X4827Y3037D01*
X0Y3036D02*
X7Y3036D01*
X4820Y3036D02*
X4827Y3036D01*
X0Y3035D02*
X7Y3035D01*
X4820Y3035D02*
X4827Y3035D01*
X0Y3034D02*
X7Y3034D01*
X4820Y3034D02*
X4827Y3034D01*
X0Y3033D02*
X7Y3033D01*
X4820Y3033D02*
X4827Y3033D01*
X0Y3032D02*
X7Y3032D01*
X4820Y3032D02*
X4827Y3032D01*
X0Y3031D02*
X7Y3031D01*
X4820Y3031D02*
X4827Y3031D01*
X0Y3030D02*
X7Y3030D01*
X4820Y3030D02*
X4827Y3030D01*
X0Y3029D02*
X7Y3029D01*
X4820Y3029D02*
X4827Y3029D01*
X0Y3028D02*
X7Y3028D01*
X4820Y3028D02*
X4827Y3028D01*
X0Y3027D02*
X7Y3027D01*
X4820Y3027D02*
X4827Y3027D01*
X0Y3026D02*
X7Y3026D01*
X4820Y3026D02*
X4827Y3026D01*
X0Y3025D02*
X7Y3025D01*
X4820Y3025D02*
X4827Y3025D01*
X0Y3024D02*
X7Y3024D01*
X4820Y3024D02*
X4827Y3024D01*
X0Y3023D02*
X7Y3023D01*
X4820Y3023D02*
X4827Y3023D01*
X0Y3022D02*
X7Y3022D01*
X4820Y3022D02*
X4827Y3022D01*
X0Y3021D02*
X7Y3021D01*
X4820Y3021D02*
X4827Y3021D01*
X0Y3020D02*
X7Y3020D01*
X4820Y3020D02*
X4827Y3020D01*
X0Y3019D02*
X7Y3019D01*
X4820Y3019D02*
X4827Y3019D01*
X0Y3018D02*
X7Y3018D01*
X4820Y3018D02*
X4827Y3018D01*
X0Y3017D02*
X7Y3017D01*
X4820Y3017D02*
X4827Y3017D01*
X0Y3016D02*
X7Y3016D01*
X4820Y3016D02*
X4827Y3016D01*
X0Y3015D02*
X7Y3015D01*
X4820Y3015D02*
X4827Y3015D01*
X0Y3014D02*
X7Y3014D01*
X4820Y3014D02*
X4827Y3014D01*
X0Y3013D02*
X7Y3013D01*
X4820Y3013D02*
X4827Y3013D01*
X0Y3012D02*
X7Y3012D01*
X4820Y3012D02*
X4827Y3012D01*
X0Y3011D02*
X7Y3011D01*
X4820Y3011D02*
X4827Y3011D01*
X0Y3010D02*
X7Y3010D01*
X4820Y3010D02*
X4827Y3010D01*
X0Y3009D02*
X7Y3009D01*
X4820Y3009D02*
X4827Y3009D01*
X0Y3008D02*
X7Y3008D01*
X4820Y3008D02*
X4827Y3008D01*
X0Y3007D02*
X7Y3007D01*
X4820Y3007D02*
X4827Y3007D01*
X0Y3006D02*
X7Y3006D01*
X4820Y3006D02*
X4827Y3006D01*
X0Y3005D02*
X7Y3005D01*
X4820Y3005D02*
X4827Y3005D01*
X0Y3004D02*
X7Y3004D01*
X4820Y3004D02*
X4827Y3004D01*
X0Y3003D02*
X7Y3003D01*
X4820Y3003D02*
X4827Y3003D01*
X0Y3002D02*
X7Y3002D01*
X4820Y3002D02*
X4827Y3002D01*
X0Y3001D02*
X7Y3001D01*
X4820Y3001D02*
X4827Y3001D01*
X0Y3000D02*
X7Y3000D01*
X4820Y3000D02*
X4827Y3000D01*
X0Y2999D02*
X7Y2999D01*
X4820Y2999D02*
X4827Y2999D01*
X0Y2998D02*
X7Y2998D01*
X4820Y2998D02*
X4827Y2998D01*
X0Y2997D02*
X7Y2997D01*
X4820Y2997D02*
X4827Y2997D01*
X0Y2996D02*
X7Y2996D01*
X4820Y2996D02*
X4827Y2996D01*
X0Y2995D02*
X7Y2995D01*
X4820Y2995D02*
X4827Y2995D01*
X0Y2994D02*
X7Y2994D01*
X4820Y2994D02*
X4827Y2994D01*
X0Y2993D02*
X7Y2993D01*
X4820Y2993D02*
X4827Y2993D01*
X0Y2992D02*
X7Y2992D01*
X4820Y2992D02*
X4827Y2992D01*
X0Y2991D02*
X7Y2991D01*
X4820Y2991D02*
X4827Y2991D01*
X0Y2990D02*
X7Y2990D01*
X4820Y2990D02*
X4827Y2990D01*
X0Y2989D02*
X7Y2989D01*
X4820Y2989D02*
X4827Y2989D01*
X0Y2988D02*
X7Y2988D01*
X4820Y2988D02*
X4827Y2988D01*
X0Y2987D02*
X7Y2987D01*
X4820Y2987D02*
X4827Y2987D01*
X0Y2986D02*
X7Y2986D01*
X4820Y2986D02*
X4827Y2986D01*
X0Y2985D02*
X7Y2985D01*
X4820Y2985D02*
X4827Y2985D01*
X0Y2984D02*
X7Y2984D01*
X4820Y2984D02*
X4827Y2984D01*
X0Y2983D02*
X7Y2983D01*
X4820Y2983D02*
X4827Y2983D01*
X0Y2982D02*
X7Y2982D01*
X4820Y2982D02*
X4827Y2982D01*
X0Y2981D02*
X7Y2981D01*
X4820Y2981D02*
X4827Y2981D01*
X0Y2980D02*
X7Y2980D01*
X4820Y2980D02*
X4827Y2980D01*
X0Y2979D02*
X7Y2979D01*
X4820Y2979D02*
X4827Y2979D01*
X0Y2978D02*
X7Y2978D01*
X4820Y2978D02*
X4827Y2978D01*
X0Y2977D02*
X7Y2977D01*
X4820Y2977D02*
X4827Y2977D01*
X0Y2976D02*
X7Y2976D01*
X4820Y2976D02*
X4827Y2976D01*
X0Y2975D02*
X7Y2975D01*
X4820Y2975D02*
X4827Y2975D01*
X0Y2974D02*
X7Y2974D01*
X4820Y2974D02*
X4827Y2974D01*
X0Y2973D02*
X7Y2973D01*
X4820Y2973D02*
X4827Y2973D01*
X0Y2972D02*
X7Y2972D01*
X4820Y2972D02*
X4827Y2972D01*
X0Y2971D02*
X7Y2971D01*
X4820Y2971D02*
X4827Y2971D01*
X0Y2970D02*
X7Y2970D01*
X4820Y2970D02*
X4827Y2970D01*
X0Y2969D02*
X7Y2969D01*
X4820Y2969D02*
X4827Y2969D01*
X0Y2968D02*
X7Y2968D01*
X4820Y2968D02*
X4827Y2968D01*
X0Y2967D02*
X7Y2967D01*
X4820Y2967D02*
X4827Y2967D01*
X0Y2966D02*
X7Y2966D01*
X4820Y2966D02*
X4827Y2966D01*
X0Y2965D02*
X7Y2965D01*
X4820Y2965D02*
X4827Y2965D01*
X0Y2964D02*
X7Y2964D01*
X4820Y2964D02*
X4827Y2964D01*
X0Y2963D02*
X7Y2963D01*
X4820Y2963D02*
X4827Y2963D01*
X0Y2962D02*
X7Y2962D01*
X4820Y2962D02*
X4827Y2962D01*
X0Y2961D02*
X7Y2961D01*
X4820Y2961D02*
X4827Y2961D01*
X0Y2960D02*
X7Y2960D01*
X4820Y2960D02*
X4827Y2960D01*
X0Y2959D02*
X7Y2959D01*
X4820Y2959D02*
X4827Y2959D01*
X0Y2958D02*
X7Y2958D01*
X4820Y2958D02*
X4827Y2958D01*
X0Y2957D02*
X7Y2957D01*
X4820Y2957D02*
X4827Y2957D01*
X0Y2956D02*
X7Y2956D01*
X4820Y2956D02*
X4827Y2956D01*
X0Y2955D02*
X7Y2955D01*
X4820Y2955D02*
X4827Y2955D01*
X0Y2954D02*
X7Y2954D01*
X4820Y2954D02*
X4827Y2954D01*
X0Y2953D02*
X7Y2953D01*
X4820Y2953D02*
X4827Y2953D01*
X0Y2952D02*
X7Y2952D01*
X4820Y2952D02*
X4827Y2952D01*
X0Y2951D02*
X7Y2951D01*
X4820Y2951D02*
X4827Y2951D01*
X0Y2950D02*
X7Y2950D01*
X4820Y2950D02*
X4827Y2950D01*
X0Y2949D02*
X7Y2949D01*
X4820Y2949D02*
X4827Y2949D01*
X0Y2948D02*
X7Y2948D01*
X4820Y2948D02*
X4827Y2948D01*
X0Y2947D02*
X7Y2947D01*
X4820Y2947D02*
X4827Y2947D01*
X0Y2946D02*
X7Y2946D01*
X4820Y2946D02*
X4827Y2946D01*
X0Y2945D02*
X7Y2945D01*
X4820Y2945D02*
X4827Y2945D01*
X0Y2944D02*
X7Y2944D01*
X4820Y2944D02*
X4827Y2944D01*
X0Y2943D02*
X7Y2943D01*
X4820Y2943D02*
X4827Y2943D01*
X0Y2942D02*
X7Y2942D01*
X4820Y2942D02*
X4827Y2942D01*
X0Y2941D02*
X7Y2941D01*
X4820Y2941D02*
X4827Y2941D01*
X0Y2940D02*
X7Y2940D01*
X4820Y2940D02*
X4827Y2940D01*
X0Y2939D02*
X7Y2939D01*
X4820Y2939D02*
X4827Y2939D01*
X0Y2938D02*
X7Y2938D01*
X4820Y2938D02*
X4827Y2938D01*
X0Y2937D02*
X7Y2937D01*
X4820Y2937D02*
X4827Y2937D01*
X0Y2936D02*
X7Y2936D01*
X4820Y2936D02*
X4827Y2936D01*
X0Y2935D02*
X7Y2935D01*
X4820Y2935D02*
X4827Y2935D01*
X0Y2934D02*
X7Y2934D01*
X4820Y2934D02*
X4827Y2934D01*
X0Y2933D02*
X7Y2933D01*
X4820Y2933D02*
X4827Y2933D01*
X0Y2932D02*
X7Y2932D01*
X4820Y2932D02*
X4827Y2932D01*
X0Y2931D02*
X7Y2931D01*
X4820Y2931D02*
X4827Y2931D01*
X0Y2930D02*
X7Y2930D01*
X4820Y2930D02*
X4827Y2930D01*
X0Y2929D02*
X7Y2929D01*
X4820Y2929D02*
X4827Y2929D01*
X0Y2928D02*
X7Y2928D01*
X4820Y2928D02*
X4827Y2928D01*
X0Y2927D02*
X7Y2927D01*
X4820Y2927D02*
X4827Y2927D01*
X0Y2926D02*
X7Y2926D01*
X4820Y2926D02*
X4827Y2926D01*
X0Y2925D02*
X7Y2925D01*
X4820Y2925D02*
X4827Y2925D01*
X0Y2924D02*
X7Y2924D01*
X4820Y2924D02*
X4827Y2924D01*
X0Y2923D02*
X7Y2923D01*
X4820Y2923D02*
X4827Y2923D01*
X0Y2922D02*
X7Y2922D01*
X4820Y2922D02*
X4827Y2922D01*
X0Y2921D02*
X7Y2921D01*
X4820Y2921D02*
X4827Y2921D01*
X0Y2920D02*
X7Y2920D01*
X4820Y2920D02*
X4827Y2920D01*
X0Y2919D02*
X7Y2919D01*
X4820Y2919D02*
X4827Y2919D01*
X0Y2918D02*
X7Y2918D01*
X4820Y2918D02*
X4827Y2918D01*
X0Y2917D02*
X7Y2917D01*
X4820Y2917D02*
X4827Y2917D01*
X0Y2916D02*
X7Y2916D01*
X4820Y2916D02*
X4827Y2916D01*
X0Y2915D02*
X7Y2915D01*
X4820Y2915D02*
X4827Y2915D01*
X0Y2914D02*
X7Y2914D01*
X4820Y2914D02*
X4827Y2914D01*
X0Y2913D02*
X7Y2913D01*
X4820Y2913D02*
X4827Y2913D01*
X0Y2912D02*
X7Y2912D01*
X4820Y2912D02*
X4827Y2912D01*
X0Y2911D02*
X7Y2911D01*
X4820Y2911D02*
X4827Y2911D01*
X0Y2910D02*
X7Y2910D01*
X4820Y2910D02*
X4827Y2910D01*
X0Y2909D02*
X7Y2909D01*
X4820Y2909D02*
X4827Y2909D01*
X0Y2908D02*
X7Y2908D01*
X4820Y2908D02*
X4827Y2908D01*
X0Y2907D02*
X7Y2907D01*
X4820Y2907D02*
X4827Y2907D01*
X0Y2906D02*
X7Y2906D01*
X4820Y2906D02*
X4827Y2906D01*
X0Y2905D02*
X7Y2905D01*
X4820Y2905D02*
X4827Y2905D01*
X0Y2904D02*
X7Y2904D01*
X4820Y2904D02*
X4827Y2904D01*
X0Y2903D02*
X7Y2903D01*
X4820Y2903D02*
X4827Y2903D01*
X0Y2902D02*
X7Y2902D01*
X4820Y2902D02*
X4827Y2902D01*
X0Y2901D02*
X7Y2901D01*
X4820Y2901D02*
X4827Y2901D01*
X0Y2900D02*
X7Y2900D01*
X4820Y2900D02*
X4827Y2900D01*
X0Y2899D02*
X7Y2899D01*
X4820Y2899D02*
X4827Y2899D01*
X0Y2898D02*
X7Y2898D01*
X4820Y2898D02*
X4827Y2898D01*
X0Y2897D02*
X7Y2897D01*
X4820Y2897D02*
X4827Y2897D01*
X0Y2896D02*
X7Y2896D01*
X4820Y2896D02*
X4827Y2896D01*
X0Y2895D02*
X7Y2895D01*
X4820Y2895D02*
X4827Y2895D01*
X0Y2894D02*
X7Y2894D01*
X4820Y2894D02*
X4827Y2894D01*
X0Y2893D02*
X7Y2893D01*
X4820Y2893D02*
X4827Y2893D01*
X0Y2892D02*
X7Y2892D01*
X4820Y2892D02*
X4827Y2892D01*
X0Y2891D02*
X7Y2891D01*
X4820Y2891D02*
X4827Y2891D01*
X0Y2890D02*
X7Y2890D01*
X4820Y2890D02*
X4827Y2890D01*
X0Y2889D02*
X7Y2889D01*
X4820Y2889D02*
X4827Y2889D01*
X0Y2888D02*
X7Y2888D01*
X4820Y2888D02*
X4827Y2888D01*
X0Y2887D02*
X7Y2887D01*
X4820Y2887D02*
X4827Y2887D01*
X0Y2886D02*
X7Y2886D01*
X4820Y2886D02*
X4827Y2886D01*
X0Y2885D02*
X7Y2885D01*
X4820Y2885D02*
X4827Y2885D01*
X0Y2884D02*
X7Y2884D01*
X4820Y2884D02*
X4827Y2884D01*
X0Y2883D02*
X7Y2883D01*
X4820Y2883D02*
X4827Y2883D01*
X0Y2882D02*
X7Y2882D01*
X4820Y2882D02*
X4827Y2882D01*
X0Y2881D02*
X7Y2881D01*
X4820Y2881D02*
X4827Y2881D01*
X0Y2880D02*
X7Y2880D01*
X4820Y2880D02*
X4827Y2880D01*
X0Y2879D02*
X7Y2879D01*
X4820Y2879D02*
X4827Y2879D01*
X0Y2878D02*
X7Y2878D01*
X4820Y2878D02*
X4827Y2878D01*
X0Y2877D02*
X7Y2877D01*
X4820Y2877D02*
X4827Y2877D01*
X0Y2876D02*
X7Y2876D01*
X4820Y2876D02*
X4827Y2876D01*
X0Y2875D02*
X7Y2875D01*
X4820Y2875D02*
X4827Y2875D01*
X0Y2874D02*
X7Y2874D01*
X4820Y2874D02*
X4827Y2874D01*
X0Y2873D02*
X7Y2873D01*
X4820Y2873D02*
X4827Y2873D01*
X0Y2872D02*
X7Y2872D01*
X4820Y2872D02*
X4827Y2872D01*
X0Y2871D02*
X7Y2871D01*
X4820Y2871D02*
X4827Y2871D01*
X0Y2870D02*
X7Y2870D01*
X4820Y2870D02*
X4827Y2870D01*
X0Y2869D02*
X7Y2869D01*
X4820Y2869D02*
X4827Y2869D01*
X0Y2868D02*
X7Y2868D01*
X4820Y2868D02*
X4827Y2868D01*
X0Y2867D02*
X7Y2867D01*
X4820Y2867D02*
X4827Y2867D01*
X0Y2866D02*
X7Y2866D01*
X4820Y2866D02*
X4827Y2866D01*
X0Y2865D02*
X7Y2865D01*
X4820Y2865D02*
X4827Y2865D01*
X0Y2864D02*
X7Y2864D01*
X4820Y2864D02*
X4827Y2864D01*
X0Y2863D02*
X7Y2863D01*
X4820Y2863D02*
X4827Y2863D01*
X0Y2862D02*
X7Y2862D01*
X4820Y2862D02*
X4827Y2862D01*
X0Y2861D02*
X7Y2861D01*
X4820Y2861D02*
X4827Y2861D01*
X0Y2860D02*
X7Y2860D01*
X4820Y2860D02*
X4827Y2860D01*
X0Y2859D02*
X7Y2859D01*
X4820Y2859D02*
X4827Y2859D01*
X0Y2858D02*
X7Y2858D01*
X4820Y2858D02*
X4827Y2858D01*
X0Y2857D02*
X7Y2857D01*
X4820Y2857D02*
X4827Y2857D01*
X0Y2856D02*
X7Y2856D01*
X4820Y2856D02*
X4827Y2856D01*
X0Y2855D02*
X7Y2855D01*
X4820Y2855D02*
X4827Y2855D01*
X0Y2854D02*
X7Y2854D01*
X4820Y2854D02*
X4827Y2854D01*
X0Y2853D02*
X7Y2853D01*
X4820Y2853D02*
X4827Y2853D01*
X0Y2852D02*
X7Y2852D01*
X4820Y2852D02*
X4827Y2852D01*
X0Y2851D02*
X7Y2851D01*
X4820Y2851D02*
X4827Y2851D01*
X0Y2850D02*
X7Y2850D01*
X4820Y2850D02*
X4827Y2850D01*
X0Y2849D02*
X7Y2849D01*
X4820Y2849D02*
X4827Y2849D01*
X0Y2848D02*
X7Y2848D01*
X4820Y2848D02*
X4827Y2848D01*
X0Y2847D02*
X7Y2847D01*
X4820Y2847D02*
X4827Y2847D01*
X0Y2846D02*
X7Y2846D01*
X4820Y2846D02*
X4827Y2846D01*
X0Y2845D02*
X7Y2845D01*
X4820Y2845D02*
X4827Y2845D01*
X0Y2844D02*
X7Y2844D01*
X4820Y2844D02*
X4827Y2844D01*
X0Y2843D02*
X7Y2843D01*
X4820Y2843D02*
X4827Y2843D01*
X0Y2842D02*
X7Y2842D01*
X4820Y2842D02*
X4827Y2842D01*
X0Y2841D02*
X7Y2841D01*
X4820Y2841D02*
X4827Y2841D01*
X0Y2840D02*
X7Y2840D01*
X4820Y2840D02*
X4827Y2840D01*
X0Y2839D02*
X7Y2839D01*
X4820Y2839D02*
X4827Y2839D01*
X0Y2838D02*
X7Y2838D01*
X4820Y2838D02*
X4827Y2838D01*
X0Y2837D02*
X7Y2837D01*
X4820Y2837D02*
X4827Y2837D01*
X0Y2836D02*
X7Y2836D01*
X4820Y2836D02*
X4827Y2836D01*
X0Y2835D02*
X7Y2835D01*
X4820Y2835D02*
X4827Y2835D01*
X0Y2834D02*
X7Y2834D01*
X4820Y2834D02*
X4827Y2834D01*
X0Y2833D02*
X7Y2833D01*
X4820Y2833D02*
X4827Y2833D01*
X0Y2832D02*
X7Y2832D01*
X4820Y2832D02*
X4827Y2832D01*
X0Y2831D02*
X7Y2831D01*
X4820Y2831D02*
X4827Y2831D01*
X0Y2830D02*
X7Y2830D01*
X4820Y2830D02*
X4827Y2830D01*
X0Y2829D02*
X7Y2829D01*
X4820Y2829D02*
X4827Y2829D01*
X0Y2828D02*
X7Y2828D01*
X4820Y2828D02*
X4827Y2828D01*
X0Y2827D02*
X7Y2827D01*
X4820Y2827D02*
X4827Y2827D01*
X0Y2826D02*
X7Y2826D01*
X4820Y2826D02*
X4827Y2826D01*
X0Y2825D02*
X7Y2825D01*
X4820Y2825D02*
X4827Y2825D01*
X0Y2824D02*
X7Y2824D01*
X4820Y2824D02*
X4827Y2824D01*
X0Y2823D02*
X7Y2823D01*
X4820Y2823D02*
X4827Y2823D01*
X0Y2822D02*
X7Y2822D01*
X4820Y2822D02*
X4827Y2822D01*
X0Y2821D02*
X7Y2821D01*
X4820Y2821D02*
X4827Y2821D01*
X0Y2820D02*
X7Y2820D01*
X4820Y2820D02*
X4827Y2820D01*
X0Y2819D02*
X7Y2819D01*
X4820Y2819D02*
X4827Y2819D01*
X0Y2818D02*
X7Y2818D01*
X4820Y2818D02*
X4827Y2818D01*
X0Y2817D02*
X7Y2817D01*
X4820Y2817D02*
X4827Y2817D01*
X0Y2816D02*
X7Y2816D01*
X4820Y2816D02*
X4827Y2816D01*
X0Y2815D02*
X7Y2815D01*
X4820Y2815D02*
X4827Y2815D01*
X0Y2814D02*
X7Y2814D01*
X4820Y2814D02*
X4827Y2814D01*
X0Y2813D02*
X7Y2813D01*
X4820Y2813D02*
X4827Y2813D01*
X0Y2812D02*
X7Y2812D01*
X4820Y2812D02*
X4827Y2812D01*
X0Y2811D02*
X7Y2811D01*
X4820Y2811D02*
X4827Y2811D01*
X0Y2810D02*
X7Y2810D01*
X4820Y2810D02*
X4827Y2810D01*
X0Y2809D02*
X7Y2809D01*
X4820Y2809D02*
X4827Y2809D01*
X0Y2808D02*
X7Y2808D01*
X4820Y2808D02*
X4827Y2808D01*
X0Y2807D02*
X7Y2807D01*
X4820Y2807D02*
X4827Y2807D01*
X0Y2806D02*
X7Y2806D01*
X4820Y2806D02*
X4827Y2806D01*
X0Y2805D02*
X7Y2805D01*
X4820Y2805D02*
X4827Y2805D01*
X0Y2804D02*
X7Y2804D01*
X4820Y2804D02*
X4827Y2804D01*
X0Y2803D02*
X7Y2803D01*
X4820Y2803D02*
X4827Y2803D01*
X0Y2802D02*
X7Y2802D01*
X4820Y2802D02*
X4827Y2802D01*
X0Y2801D02*
X7Y2801D01*
X4820Y2801D02*
X4827Y2801D01*
X0Y2800D02*
X7Y2800D01*
X4820Y2800D02*
X4827Y2800D01*
X0Y2799D02*
X7Y2799D01*
X4820Y2799D02*
X4827Y2799D01*
X0Y2798D02*
X7Y2798D01*
X4820Y2798D02*
X4827Y2798D01*
X0Y2797D02*
X7Y2797D01*
X4820Y2797D02*
X4827Y2797D01*
X0Y2796D02*
X7Y2796D01*
X4820Y2796D02*
X4827Y2796D01*
X0Y2795D02*
X7Y2795D01*
X4820Y2795D02*
X4827Y2795D01*
X0Y2794D02*
X7Y2794D01*
X4820Y2794D02*
X4827Y2794D01*
X0Y2793D02*
X7Y2793D01*
X4820Y2793D02*
X4827Y2793D01*
X0Y2792D02*
X7Y2792D01*
X4820Y2792D02*
X4827Y2792D01*
X0Y2791D02*
X7Y2791D01*
X4820Y2791D02*
X4827Y2791D01*
X0Y2790D02*
X7Y2790D01*
X4820Y2790D02*
X4827Y2790D01*
X0Y2789D02*
X7Y2789D01*
X4820Y2789D02*
X4827Y2789D01*
X0Y2788D02*
X7Y2788D01*
X4820Y2788D02*
X4827Y2788D01*
X0Y2787D02*
X7Y2787D01*
X4820Y2787D02*
X4827Y2787D01*
X0Y2786D02*
X7Y2786D01*
X4820Y2786D02*
X4827Y2786D01*
X0Y2785D02*
X7Y2785D01*
X4820Y2785D02*
X4827Y2785D01*
X0Y2784D02*
X7Y2784D01*
X4820Y2784D02*
X4827Y2784D01*
X0Y2783D02*
X7Y2783D01*
X4820Y2783D02*
X4827Y2783D01*
X0Y2782D02*
X7Y2782D01*
X4820Y2782D02*
X4827Y2782D01*
X0Y2781D02*
X7Y2781D01*
X4820Y2781D02*
X4827Y2781D01*
X0Y2780D02*
X7Y2780D01*
X4820Y2780D02*
X4827Y2780D01*
X0Y2779D02*
X7Y2779D01*
X4820Y2779D02*
X4827Y2779D01*
X0Y2778D02*
X7Y2778D01*
X4820Y2778D02*
X4827Y2778D01*
X0Y2777D02*
X7Y2777D01*
X4820Y2777D02*
X4827Y2777D01*
X0Y2776D02*
X7Y2776D01*
X4820Y2776D02*
X4827Y2776D01*
X0Y2775D02*
X7Y2775D01*
X4820Y2775D02*
X4827Y2775D01*
X0Y2774D02*
X7Y2774D01*
X4820Y2774D02*
X4827Y2774D01*
X0Y2773D02*
X7Y2773D01*
X4820Y2773D02*
X4827Y2773D01*
X0Y2772D02*
X7Y2772D01*
X4820Y2772D02*
X4827Y2772D01*
X0Y2771D02*
X7Y2771D01*
X4820Y2771D02*
X4827Y2771D01*
X0Y2770D02*
X7Y2770D01*
X4820Y2770D02*
X4827Y2770D01*
X0Y2769D02*
X7Y2769D01*
X4820Y2769D02*
X4827Y2769D01*
X0Y2768D02*
X7Y2768D01*
X4820Y2768D02*
X4827Y2768D01*
X0Y2767D02*
X7Y2767D01*
X4820Y2767D02*
X4827Y2767D01*
X0Y2766D02*
X7Y2766D01*
X4820Y2766D02*
X4827Y2766D01*
X0Y2765D02*
X7Y2765D01*
X4820Y2765D02*
X4827Y2765D01*
X0Y2764D02*
X7Y2764D01*
X4820Y2764D02*
X4827Y2764D01*
X0Y2763D02*
X7Y2763D01*
X4820Y2763D02*
X4827Y2763D01*
X0Y2762D02*
X7Y2762D01*
X4820Y2762D02*
X4827Y2762D01*
X0Y2761D02*
X7Y2761D01*
X4820Y2761D02*
X4827Y2761D01*
X0Y2760D02*
X7Y2760D01*
X4820Y2760D02*
X4827Y2760D01*
X0Y2759D02*
X7Y2759D01*
X4820Y2759D02*
X4827Y2759D01*
X0Y2758D02*
X7Y2758D01*
X4820Y2758D02*
X4827Y2758D01*
X0Y2757D02*
X7Y2757D01*
X4820Y2757D02*
X4827Y2757D01*
X0Y2756D02*
X7Y2756D01*
X4820Y2756D02*
X4827Y2756D01*
X0Y2755D02*
X7Y2755D01*
X4820Y2755D02*
X4827Y2755D01*
X0Y2754D02*
X7Y2754D01*
X4820Y2754D02*
X4827Y2754D01*
X0Y2753D02*
X7Y2753D01*
X4820Y2753D02*
X4827Y2753D01*
X0Y2752D02*
X7Y2752D01*
X4820Y2752D02*
X4827Y2752D01*
X0Y2751D02*
X7Y2751D01*
X4820Y2751D02*
X4827Y2751D01*
X0Y2750D02*
X7Y2750D01*
X4820Y2750D02*
X4827Y2750D01*
X0Y2749D02*
X7Y2749D01*
X4820Y2749D02*
X4827Y2749D01*
X0Y2748D02*
X7Y2748D01*
X4820Y2748D02*
X4827Y2748D01*
X0Y2747D02*
X7Y2747D01*
X4820Y2747D02*
X4827Y2747D01*
X0Y2746D02*
X7Y2746D01*
X4820Y2746D02*
X4827Y2746D01*
X0Y2745D02*
X7Y2745D01*
X4820Y2745D02*
X4827Y2745D01*
X0Y2744D02*
X7Y2744D01*
X4820Y2744D02*
X4827Y2744D01*
X0Y2743D02*
X7Y2743D01*
X4820Y2743D02*
X4827Y2743D01*
X0Y2742D02*
X7Y2742D01*
X4820Y2742D02*
X4827Y2742D01*
X0Y2741D02*
X7Y2741D01*
X4820Y2741D02*
X4827Y2741D01*
X0Y2740D02*
X7Y2740D01*
X4820Y2740D02*
X4827Y2740D01*
X0Y2739D02*
X7Y2739D01*
X4820Y2739D02*
X4827Y2739D01*
X0Y2738D02*
X7Y2738D01*
X4820Y2738D02*
X4827Y2738D01*
X0Y2737D02*
X7Y2737D01*
X4820Y2737D02*
X4827Y2737D01*
X0Y2736D02*
X7Y2736D01*
X4820Y2736D02*
X4827Y2736D01*
X0Y2735D02*
X7Y2735D01*
X4820Y2735D02*
X4827Y2735D01*
X0Y2734D02*
X7Y2734D01*
X4820Y2734D02*
X4827Y2734D01*
X0Y2733D02*
X7Y2733D01*
X4820Y2733D02*
X4827Y2733D01*
X0Y2732D02*
X7Y2732D01*
X4820Y2732D02*
X4827Y2732D01*
X0Y2731D02*
X7Y2731D01*
X4820Y2731D02*
X4827Y2731D01*
X0Y2730D02*
X7Y2730D01*
X4820Y2730D02*
X4827Y2730D01*
X0Y2729D02*
X7Y2729D01*
X4820Y2729D02*
X4827Y2729D01*
X0Y2728D02*
X7Y2728D01*
X4820Y2728D02*
X4827Y2728D01*
X0Y2727D02*
X7Y2727D01*
X4820Y2727D02*
X4827Y2727D01*
X0Y2726D02*
X7Y2726D01*
X4820Y2726D02*
X4827Y2726D01*
X0Y2725D02*
X7Y2725D01*
X4820Y2725D02*
X4827Y2725D01*
X0Y2724D02*
X7Y2724D01*
X4820Y2724D02*
X4827Y2724D01*
X0Y2723D02*
X7Y2723D01*
X4820Y2723D02*
X4827Y2723D01*
X0Y2722D02*
X7Y2722D01*
X4820Y2722D02*
X4827Y2722D01*
X0Y2721D02*
X7Y2721D01*
X4820Y2721D02*
X4827Y2721D01*
X0Y2720D02*
X7Y2720D01*
X4820Y2720D02*
X4827Y2720D01*
X0Y2719D02*
X7Y2719D01*
X4820Y2719D02*
X4827Y2719D01*
X0Y2718D02*
X7Y2718D01*
X4820Y2718D02*
X4827Y2718D01*
X0Y2717D02*
X7Y2717D01*
X4820Y2717D02*
X4827Y2717D01*
X0Y2716D02*
X7Y2716D01*
X4820Y2716D02*
X4827Y2716D01*
X0Y2715D02*
X7Y2715D01*
X4820Y2715D02*
X4827Y2715D01*
X0Y2714D02*
X7Y2714D01*
X4820Y2714D02*
X4827Y2714D01*
X0Y2713D02*
X7Y2713D01*
X4820Y2713D02*
X4827Y2713D01*
X0Y2712D02*
X7Y2712D01*
X4820Y2712D02*
X4827Y2712D01*
X0Y2711D02*
X7Y2711D01*
X4820Y2711D02*
X4827Y2711D01*
X0Y2710D02*
X7Y2710D01*
X4820Y2710D02*
X4827Y2710D01*
X0Y2709D02*
X7Y2709D01*
X4820Y2709D02*
X4827Y2709D01*
X0Y2708D02*
X7Y2708D01*
X4820Y2708D02*
X4827Y2708D01*
X0Y2707D02*
X7Y2707D01*
X4820Y2707D02*
X4827Y2707D01*
X0Y2706D02*
X7Y2706D01*
X4820Y2706D02*
X4827Y2706D01*
X0Y2705D02*
X7Y2705D01*
X4820Y2705D02*
X4827Y2705D01*
X0Y2704D02*
X7Y2704D01*
X4820Y2704D02*
X4827Y2704D01*
X0Y2703D02*
X7Y2703D01*
X4820Y2703D02*
X4827Y2703D01*
X0Y2702D02*
X7Y2702D01*
X4820Y2702D02*
X4827Y2702D01*
X0Y2701D02*
X7Y2701D01*
X4820Y2701D02*
X4827Y2701D01*
X0Y2700D02*
X7Y2700D01*
X4820Y2700D02*
X4827Y2700D01*
X0Y2699D02*
X7Y2699D01*
X4820Y2699D02*
X4827Y2699D01*
X0Y2698D02*
X7Y2698D01*
X4820Y2698D02*
X4827Y2698D01*
X0Y2697D02*
X7Y2697D01*
X4820Y2697D02*
X4827Y2697D01*
X0Y2696D02*
X7Y2696D01*
X4820Y2696D02*
X4827Y2696D01*
X0Y2695D02*
X7Y2695D01*
X4820Y2695D02*
X4827Y2695D01*
X0Y2694D02*
X7Y2694D01*
X4820Y2694D02*
X4827Y2694D01*
X0Y2693D02*
X7Y2693D01*
X4820Y2693D02*
X4827Y2693D01*
X0Y2692D02*
X7Y2692D01*
X4820Y2692D02*
X4827Y2692D01*
X0Y2691D02*
X7Y2691D01*
X4820Y2691D02*
X4827Y2691D01*
X0Y2690D02*
X7Y2690D01*
X4820Y2690D02*
X4827Y2690D01*
X0Y2689D02*
X7Y2689D01*
X4820Y2689D02*
X4827Y2689D01*
X0Y2688D02*
X7Y2688D01*
X4820Y2688D02*
X4827Y2688D01*
X0Y2687D02*
X7Y2687D01*
X4820Y2687D02*
X4827Y2687D01*
X0Y2686D02*
X7Y2686D01*
X4820Y2686D02*
X4827Y2686D01*
X0Y2685D02*
X7Y2685D01*
X4820Y2685D02*
X4827Y2685D01*
X0Y2684D02*
X7Y2684D01*
X4820Y2684D02*
X4827Y2684D01*
X0Y2683D02*
X7Y2683D01*
X4820Y2683D02*
X4827Y2683D01*
X0Y2682D02*
X7Y2682D01*
X4820Y2682D02*
X4827Y2682D01*
X0Y2681D02*
X7Y2681D01*
X4820Y2681D02*
X4827Y2681D01*
X0Y2680D02*
X7Y2680D01*
X4820Y2680D02*
X4827Y2680D01*
X0Y2679D02*
X7Y2679D01*
X4820Y2679D02*
X4827Y2679D01*
X0Y2678D02*
X7Y2678D01*
X4820Y2678D02*
X4827Y2678D01*
X0Y2677D02*
X7Y2677D01*
X4820Y2677D02*
X4827Y2677D01*
X0Y2676D02*
X7Y2676D01*
X4820Y2676D02*
X4827Y2676D01*
X0Y2675D02*
X7Y2675D01*
X4820Y2675D02*
X4827Y2675D01*
X0Y2674D02*
X7Y2674D01*
X4820Y2674D02*
X4827Y2674D01*
X0Y2673D02*
X7Y2673D01*
X4820Y2673D02*
X4827Y2673D01*
X0Y2672D02*
X7Y2672D01*
X4820Y2672D02*
X4827Y2672D01*
X0Y2671D02*
X7Y2671D01*
X4820Y2671D02*
X4827Y2671D01*
X0Y2670D02*
X7Y2670D01*
X4820Y2670D02*
X4827Y2670D01*
X0Y2669D02*
X7Y2669D01*
X4820Y2669D02*
X4827Y2669D01*
X0Y2668D02*
X7Y2668D01*
X4820Y2668D02*
X4827Y2668D01*
X0Y2667D02*
X7Y2667D01*
X4820Y2667D02*
X4827Y2667D01*
X0Y2666D02*
X7Y2666D01*
X4820Y2666D02*
X4827Y2666D01*
X0Y2665D02*
X7Y2665D01*
X4820Y2665D02*
X4827Y2665D01*
X0Y2664D02*
X7Y2664D01*
X4820Y2664D02*
X4827Y2664D01*
X0Y2663D02*
X7Y2663D01*
X4820Y2663D02*
X4827Y2663D01*
X0Y2662D02*
X7Y2662D01*
X4820Y2662D02*
X4827Y2662D01*
X0Y2661D02*
X7Y2661D01*
X4820Y2661D02*
X4827Y2661D01*
X0Y2660D02*
X7Y2660D01*
X4820Y2660D02*
X4827Y2660D01*
X0Y2659D02*
X7Y2659D01*
X4820Y2659D02*
X4827Y2659D01*
X0Y2658D02*
X7Y2658D01*
X4820Y2658D02*
X4827Y2658D01*
X0Y2657D02*
X7Y2657D01*
X4820Y2657D02*
X4827Y2657D01*
X0Y2656D02*
X7Y2656D01*
X4820Y2656D02*
X4827Y2656D01*
X0Y2655D02*
X7Y2655D01*
X4820Y2655D02*
X4827Y2655D01*
X0Y2654D02*
X7Y2654D01*
X4820Y2654D02*
X4827Y2654D01*
X0Y2653D02*
X7Y2653D01*
X4820Y2653D02*
X4827Y2653D01*
X0Y2652D02*
X7Y2652D01*
X4820Y2652D02*
X4827Y2652D01*
X0Y2651D02*
X7Y2651D01*
X4820Y2651D02*
X4827Y2651D01*
X0Y2650D02*
X7Y2650D01*
X4820Y2650D02*
X4827Y2650D01*
X0Y2649D02*
X7Y2649D01*
X4820Y2649D02*
X4827Y2649D01*
X0Y2648D02*
X7Y2648D01*
X4820Y2648D02*
X4827Y2648D01*
X0Y2647D02*
X7Y2647D01*
X4820Y2647D02*
X4827Y2647D01*
X0Y2646D02*
X7Y2646D01*
X4820Y2646D02*
X4827Y2646D01*
X0Y2645D02*
X7Y2645D01*
X4820Y2645D02*
X4827Y2645D01*
X0Y2644D02*
X7Y2644D01*
X4820Y2644D02*
X4827Y2644D01*
X0Y2643D02*
X7Y2643D01*
X4820Y2643D02*
X4827Y2643D01*
X0Y2642D02*
X7Y2642D01*
X4820Y2642D02*
X4827Y2642D01*
X0Y2641D02*
X7Y2641D01*
X4820Y2641D02*
X4827Y2641D01*
X0Y2640D02*
X7Y2640D01*
X4820Y2640D02*
X4827Y2640D01*
X0Y2639D02*
X7Y2639D01*
X4820Y2639D02*
X4827Y2639D01*
X0Y2638D02*
X7Y2638D01*
X4820Y2638D02*
X4827Y2638D01*
X0Y2637D02*
X7Y2637D01*
X4820Y2637D02*
X4827Y2637D01*
X0Y2636D02*
X7Y2636D01*
X4820Y2636D02*
X4827Y2636D01*
X0Y2635D02*
X7Y2635D01*
X4820Y2635D02*
X4827Y2635D01*
X0Y2634D02*
X7Y2634D01*
X4820Y2634D02*
X4827Y2634D01*
X0Y2633D02*
X7Y2633D01*
X4820Y2633D02*
X4827Y2633D01*
X0Y2632D02*
X7Y2632D01*
X4820Y2632D02*
X4827Y2632D01*
X0Y2631D02*
X7Y2631D01*
X4820Y2631D02*
X4827Y2631D01*
X0Y2630D02*
X7Y2630D01*
X4820Y2630D02*
X4827Y2630D01*
X0Y2629D02*
X7Y2629D01*
X4820Y2629D02*
X4827Y2629D01*
X0Y2628D02*
X7Y2628D01*
X4820Y2628D02*
X4827Y2628D01*
X0Y2627D02*
X7Y2627D01*
X4820Y2627D02*
X4827Y2627D01*
X0Y2626D02*
X7Y2626D01*
X4820Y2626D02*
X4827Y2626D01*
X0Y2625D02*
X7Y2625D01*
X4820Y2625D02*
X4827Y2625D01*
X0Y2624D02*
X7Y2624D01*
X4820Y2624D02*
X4827Y2624D01*
X0Y2623D02*
X7Y2623D01*
X4820Y2623D02*
X4827Y2623D01*
X0Y2622D02*
X7Y2622D01*
X4820Y2622D02*
X4827Y2622D01*
X0Y2621D02*
X7Y2621D01*
X4820Y2621D02*
X4827Y2621D01*
X0Y2620D02*
X7Y2620D01*
X4820Y2620D02*
X4827Y2620D01*
X0Y2619D02*
X7Y2619D01*
X4820Y2619D02*
X4827Y2619D01*
X0Y2618D02*
X7Y2618D01*
X4820Y2618D02*
X4827Y2618D01*
X0Y2617D02*
X7Y2617D01*
X4820Y2617D02*
X4827Y2617D01*
X0Y2616D02*
X7Y2616D01*
X4820Y2616D02*
X4827Y2616D01*
X0Y2615D02*
X7Y2615D01*
X4820Y2615D02*
X4827Y2615D01*
X0Y2614D02*
X7Y2614D01*
X4820Y2614D02*
X4827Y2614D01*
X0Y2613D02*
X7Y2613D01*
X4820Y2613D02*
X4827Y2613D01*
X0Y2612D02*
X7Y2612D01*
X4820Y2612D02*
X4827Y2612D01*
X0Y2611D02*
X7Y2611D01*
X4820Y2611D02*
X4827Y2611D01*
X0Y2610D02*
X7Y2610D01*
X4820Y2610D02*
X4827Y2610D01*
X0Y2609D02*
X7Y2609D01*
X4820Y2609D02*
X4827Y2609D01*
X0Y2608D02*
X7Y2608D01*
X4820Y2608D02*
X4827Y2608D01*
X0Y2607D02*
X7Y2607D01*
X4820Y2607D02*
X4827Y2607D01*
X0Y2606D02*
X7Y2606D01*
X4820Y2606D02*
X4827Y2606D01*
X0Y2605D02*
X7Y2605D01*
X4820Y2605D02*
X4827Y2605D01*
X0Y2604D02*
X7Y2604D01*
X4820Y2604D02*
X4827Y2604D01*
X0Y2603D02*
X7Y2603D01*
X4820Y2603D02*
X4827Y2603D01*
X0Y2602D02*
X7Y2602D01*
X4820Y2602D02*
X4827Y2602D01*
X0Y2601D02*
X7Y2601D01*
X4820Y2601D02*
X4827Y2601D01*
X0Y2600D02*
X7Y2600D01*
X4820Y2600D02*
X4827Y2600D01*
X0Y2599D02*
X7Y2599D01*
X4820Y2599D02*
X4827Y2599D01*
X0Y2598D02*
X7Y2598D01*
X4820Y2598D02*
X4827Y2598D01*
X0Y2597D02*
X7Y2597D01*
X4820Y2597D02*
X4827Y2597D01*
X0Y2596D02*
X7Y2596D01*
X4820Y2596D02*
X4827Y2596D01*
X0Y2595D02*
X7Y2595D01*
X4820Y2595D02*
X4827Y2595D01*
X0Y2594D02*
X7Y2594D01*
X4820Y2594D02*
X4827Y2594D01*
X0Y2593D02*
X7Y2593D01*
X4820Y2593D02*
X4827Y2593D01*
X0Y2592D02*
X7Y2592D01*
X4820Y2592D02*
X4827Y2592D01*
X0Y2591D02*
X7Y2591D01*
X4820Y2591D02*
X4827Y2591D01*
X0Y2590D02*
X7Y2590D01*
X4820Y2590D02*
X4827Y2590D01*
X0Y2589D02*
X7Y2589D01*
X4820Y2589D02*
X4827Y2589D01*
X0Y2588D02*
X7Y2588D01*
X4820Y2588D02*
X4827Y2588D01*
X0Y2587D02*
X7Y2587D01*
X4820Y2587D02*
X4827Y2587D01*
X0Y2586D02*
X7Y2586D01*
X4820Y2586D02*
X4827Y2586D01*
X0Y2585D02*
X7Y2585D01*
X4820Y2585D02*
X4827Y2585D01*
X0Y2584D02*
X7Y2584D01*
X4820Y2584D02*
X4827Y2584D01*
X0Y2583D02*
X7Y2583D01*
X4820Y2583D02*
X4827Y2583D01*
X0Y2582D02*
X7Y2582D01*
X4820Y2582D02*
X4827Y2582D01*
X0Y2581D02*
X7Y2581D01*
X4820Y2581D02*
X4827Y2581D01*
X0Y2580D02*
X7Y2580D01*
X4820Y2580D02*
X4827Y2580D01*
X0Y2579D02*
X7Y2579D01*
X4820Y2579D02*
X4827Y2579D01*
X0Y2578D02*
X7Y2578D01*
X4820Y2578D02*
X4827Y2578D01*
X0Y2577D02*
X7Y2577D01*
X4820Y2577D02*
X4827Y2577D01*
X0Y2576D02*
X7Y2576D01*
X4820Y2576D02*
X4827Y2576D01*
X0Y2575D02*
X7Y2575D01*
X4820Y2575D02*
X4827Y2575D01*
X0Y2574D02*
X7Y2574D01*
X4820Y2574D02*
X4827Y2574D01*
X0Y2573D02*
X7Y2573D01*
X4820Y2573D02*
X4827Y2573D01*
X0Y2572D02*
X7Y2572D01*
X4820Y2572D02*
X4827Y2572D01*
X0Y2571D02*
X7Y2571D01*
X4820Y2571D02*
X4827Y2571D01*
X0Y2570D02*
X7Y2570D01*
X4820Y2570D02*
X4827Y2570D01*
X0Y2569D02*
X7Y2569D01*
X4820Y2569D02*
X4827Y2569D01*
X0Y2568D02*
X7Y2568D01*
X4820Y2568D02*
X4827Y2568D01*
X0Y2567D02*
X7Y2567D01*
X4820Y2567D02*
X4827Y2567D01*
X0Y2566D02*
X7Y2566D01*
X4820Y2566D02*
X4827Y2566D01*
X0Y2565D02*
X7Y2565D01*
X4820Y2565D02*
X4827Y2565D01*
X0Y2564D02*
X7Y2564D01*
X4820Y2564D02*
X4827Y2564D01*
X0Y2563D02*
X7Y2563D01*
X4820Y2563D02*
X4827Y2563D01*
X0Y2562D02*
X7Y2562D01*
X4820Y2562D02*
X4827Y2562D01*
X0Y2561D02*
X7Y2561D01*
X4820Y2561D02*
X4827Y2561D01*
X0Y2560D02*
X7Y2560D01*
X4820Y2560D02*
X4827Y2560D01*
X0Y2559D02*
X7Y2559D01*
X4820Y2559D02*
X4827Y2559D01*
X0Y2558D02*
X7Y2558D01*
X4820Y2558D02*
X4827Y2558D01*
X0Y2557D02*
X7Y2557D01*
X4820Y2557D02*
X4827Y2557D01*
X0Y2556D02*
X7Y2556D01*
X4820Y2556D02*
X4827Y2556D01*
X0Y2555D02*
X7Y2555D01*
X4820Y2555D02*
X4827Y2555D01*
X0Y2554D02*
X7Y2554D01*
X4820Y2554D02*
X4827Y2554D01*
X0Y2553D02*
X7Y2553D01*
X4820Y2553D02*
X4827Y2553D01*
X0Y2552D02*
X7Y2552D01*
X4820Y2552D02*
X4827Y2552D01*
X0Y2551D02*
X7Y2551D01*
X4820Y2551D02*
X4827Y2551D01*
X0Y2550D02*
X7Y2550D01*
X4820Y2550D02*
X4827Y2550D01*
X0Y2549D02*
X7Y2549D01*
X4820Y2549D02*
X4827Y2549D01*
X0Y2548D02*
X7Y2548D01*
X4820Y2548D02*
X4827Y2548D01*
X0Y2547D02*
X7Y2547D01*
X4820Y2547D02*
X4827Y2547D01*
X0Y2546D02*
X7Y2546D01*
X4820Y2546D02*
X4827Y2546D01*
X0Y2545D02*
X7Y2545D01*
X4820Y2545D02*
X4827Y2545D01*
X0Y2544D02*
X7Y2544D01*
X4820Y2544D02*
X4827Y2544D01*
X0Y2543D02*
X7Y2543D01*
X4820Y2543D02*
X4827Y2543D01*
X0Y2542D02*
X7Y2542D01*
X4820Y2542D02*
X4827Y2542D01*
X0Y2541D02*
X7Y2541D01*
X4820Y2541D02*
X4827Y2541D01*
X0Y2540D02*
X7Y2540D01*
X4820Y2540D02*
X4827Y2540D01*
X0Y2539D02*
X7Y2539D01*
X4820Y2539D02*
X4827Y2539D01*
X0Y2538D02*
X7Y2538D01*
X4820Y2538D02*
X4827Y2538D01*
X0Y2537D02*
X7Y2537D01*
X4820Y2537D02*
X4827Y2537D01*
X0Y2536D02*
X7Y2536D01*
X4820Y2536D02*
X4827Y2536D01*
X0Y2535D02*
X7Y2535D01*
X4820Y2535D02*
X4827Y2535D01*
X0Y2534D02*
X7Y2534D01*
X4820Y2534D02*
X4827Y2534D01*
X0Y2533D02*
X7Y2533D01*
X4820Y2533D02*
X4827Y2533D01*
X0Y2532D02*
X7Y2532D01*
X4820Y2532D02*
X4827Y2532D01*
X0Y2531D02*
X7Y2531D01*
X4820Y2531D02*
X4827Y2531D01*
X0Y2530D02*
X7Y2530D01*
X4820Y2530D02*
X4827Y2530D01*
X0Y2529D02*
X7Y2529D01*
X4820Y2529D02*
X4827Y2529D01*
X0Y2528D02*
X7Y2528D01*
X4820Y2528D02*
X4827Y2528D01*
X0Y2527D02*
X7Y2527D01*
X4820Y2527D02*
X4827Y2527D01*
X0Y2526D02*
X7Y2526D01*
X4820Y2526D02*
X4827Y2526D01*
X0Y2525D02*
X7Y2525D01*
X4820Y2525D02*
X4827Y2525D01*
X0Y2524D02*
X7Y2524D01*
X4820Y2524D02*
X4827Y2524D01*
X0Y2523D02*
X7Y2523D01*
X4820Y2523D02*
X4827Y2523D01*
X0Y2522D02*
X7Y2522D01*
X4820Y2522D02*
X4827Y2522D01*
X0Y2521D02*
X7Y2521D01*
X4820Y2521D02*
X4827Y2521D01*
X0Y2520D02*
X7Y2520D01*
X4820Y2520D02*
X4827Y2520D01*
X0Y2519D02*
X7Y2519D01*
X4820Y2519D02*
X4827Y2519D01*
X0Y2518D02*
X7Y2518D01*
X4820Y2518D02*
X4827Y2518D01*
X0Y2517D02*
X7Y2517D01*
X4820Y2517D02*
X4827Y2517D01*
X0Y2516D02*
X7Y2516D01*
X4820Y2516D02*
X4827Y2516D01*
X0Y2515D02*
X7Y2515D01*
X4820Y2515D02*
X4827Y2515D01*
X0Y2514D02*
X7Y2514D01*
X4820Y2514D02*
X4827Y2514D01*
X0Y2513D02*
X7Y2513D01*
X4820Y2513D02*
X4827Y2513D01*
X0Y2512D02*
X7Y2512D01*
X4820Y2512D02*
X4827Y2512D01*
X0Y2511D02*
X7Y2511D01*
X4820Y2511D02*
X4827Y2511D01*
X0Y2510D02*
X7Y2510D01*
X4820Y2510D02*
X4827Y2510D01*
X0Y2509D02*
X7Y2509D01*
X4820Y2509D02*
X4827Y2509D01*
X0Y2508D02*
X7Y2508D01*
X4820Y2508D02*
X4827Y2508D01*
X0Y2507D02*
X7Y2507D01*
X4820Y2507D02*
X4827Y2507D01*
X0Y2506D02*
X7Y2506D01*
X4820Y2506D02*
X4827Y2506D01*
X0Y2505D02*
X7Y2505D01*
X4820Y2505D02*
X4827Y2505D01*
X0Y2504D02*
X7Y2504D01*
X4820Y2504D02*
X4827Y2504D01*
X0Y2503D02*
X7Y2503D01*
X4820Y2503D02*
X4827Y2503D01*
X0Y2502D02*
X7Y2502D01*
X4820Y2502D02*
X4827Y2502D01*
X0Y2501D02*
X7Y2501D01*
X4820Y2501D02*
X4827Y2501D01*
X0Y2500D02*
X7Y2500D01*
X4820Y2500D02*
X4827Y2500D01*
X0Y2499D02*
X7Y2499D01*
X4820Y2499D02*
X4827Y2499D01*
X0Y2498D02*
X7Y2498D01*
X4820Y2498D02*
X4827Y2498D01*
X0Y2497D02*
X7Y2497D01*
X4820Y2497D02*
X4827Y2497D01*
X0Y2496D02*
X7Y2496D01*
X4820Y2496D02*
X4827Y2496D01*
X0Y2495D02*
X7Y2495D01*
X4820Y2495D02*
X4827Y2495D01*
X0Y2494D02*
X7Y2494D01*
X4820Y2494D02*
X4827Y2494D01*
X0Y2493D02*
X7Y2493D01*
X4820Y2493D02*
X4827Y2493D01*
X0Y2492D02*
X7Y2492D01*
X4820Y2492D02*
X4827Y2492D01*
X0Y2491D02*
X7Y2491D01*
X4820Y2491D02*
X4827Y2491D01*
X0Y2490D02*
X7Y2490D01*
X4820Y2490D02*
X4827Y2490D01*
X0Y2489D02*
X7Y2489D01*
X4820Y2489D02*
X4827Y2489D01*
X0Y2488D02*
X7Y2488D01*
X4820Y2488D02*
X4827Y2488D01*
X0Y2487D02*
X7Y2487D01*
X4820Y2487D02*
X4827Y2487D01*
X0Y2486D02*
X7Y2486D01*
X4820Y2486D02*
X4827Y2486D01*
X0Y2485D02*
X7Y2485D01*
X4820Y2485D02*
X4827Y2485D01*
X0Y2484D02*
X7Y2484D01*
X4820Y2484D02*
X4827Y2484D01*
X0Y2483D02*
X7Y2483D01*
X4820Y2483D02*
X4827Y2483D01*
X0Y2482D02*
X7Y2482D01*
X4820Y2482D02*
X4827Y2482D01*
X0Y2481D02*
X7Y2481D01*
X4820Y2481D02*
X4827Y2481D01*
X0Y2480D02*
X7Y2480D01*
X4820Y2480D02*
X4827Y2480D01*
X0Y2479D02*
X7Y2479D01*
X4820Y2479D02*
X4827Y2479D01*
X0Y2478D02*
X7Y2478D01*
X4820Y2478D02*
X4827Y2478D01*
X0Y2477D02*
X7Y2477D01*
X4820Y2477D02*
X4827Y2477D01*
X0Y2476D02*
X7Y2476D01*
X4820Y2476D02*
X4827Y2476D01*
X0Y2475D02*
X7Y2475D01*
X4820Y2475D02*
X4827Y2475D01*
X0Y2474D02*
X7Y2474D01*
X4820Y2474D02*
X4827Y2474D01*
X0Y2473D02*
X7Y2473D01*
X4820Y2473D02*
X4827Y2473D01*
X0Y2472D02*
X7Y2472D01*
X4820Y2472D02*
X4827Y2472D01*
X0Y2471D02*
X7Y2471D01*
X4820Y2471D02*
X4827Y2471D01*
X0Y2470D02*
X7Y2470D01*
X4820Y2470D02*
X4827Y2470D01*
X0Y2469D02*
X7Y2469D01*
X4820Y2469D02*
X4827Y2469D01*
X0Y2468D02*
X7Y2468D01*
X4820Y2468D02*
X4827Y2468D01*
X0Y2467D02*
X7Y2467D01*
X4820Y2467D02*
X4827Y2467D01*
X0Y2466D02*
X7Y2466D01*
X4820Y2466D02*
X4827Y2466D01*
X0Y2465D02*
X7Y2465D01*
X4820Y2465D02*
X4827Y2465D01*
X0Y2464D02*
X7Y2464D01*
X4820Y2464D02*
X4827Y2464D01*
X0Y2463D02*
X7Y2463D01*
X4820Y2463D02*
X4827Y2463D01*
X0Y2462D02*
X7Y2462D01*
X4820Y2462D02*
X4827Y2462D01*
X0Y2461D02*
X7Y2461D01*
X4820Y2461D02*
X4827Y2461D01*
X0Y2460D02*
X7Y2460D01*
X4820Y2460D02*
X4827Y2460D01*
X0Y2459D02*
X7Y2459D01*
X4820Y2459D02*
X4827Y2459D01*
X0Y2458D02*
X7Y2458D01*
X4820Y2458D02*
X4827Y2458D01*
X0Y2457D02*
X7Y2457D01*
X4820Y2457D02*
X4827Y2457D01*
X0Y2456D02*
X7Y2456D01*
X4820Y2456D02*
X4827Y2456D01*
X0Y2455D02*
X7Y2455D01*
X4820Y2455D02*
X4827Y2455D01*
X0Y2454D02*
X7Y2454D01*
X4820Y2454D02*
X4827Y2454D01*
X0Y2453D02*
X7Y2453D01*
X4820Y2453D02*
X4827Y2453D01*
X0Y2452D02*
X7Y2452D01*
X4820Y2452D02*
X4827Y2452D01*
X0Y2451D02*
X7Y2451D01*
X4820Y2451D02*
X4827Y2451D01*
X0Y2450D02*
X7Y2450D01*
X4820Y2450D02*
X4827Y2450D01*
X0Y2449D02*
X7Y2449D01*
X4820Y2449D02*
X4827Y2449D01*
X0Y2448D02*
X7Y2448D01*
X4820Y2448D02*
X4827Y2448D01*
X0Y2447D02*
X7Y2447D01*
X4820Y2447D02*
X4827Y2447D01*
X0Y2446D02*
X7Y2446D01*
X4820Y2446D02*
X4827Y2446D01*
X0Y2445D02*
X7Y2445D01*
X4820Y2445D02*
X4827Y2445D01*
X0Y2444D02*
X7Y2444D01*
X4820Y2444D02*
X4827Y2444D01*
X0Y2443D02*
X7Y2443D01*
X4820Y2443D02*
X4827Y2443D01*
X0Y2442D02*
X7Y2442D01*
X4820Y2442D02*
X4827Y2442D01*
X0Y2441D02*
X7Y2441D01*
X4820Y2441D02*
X4827Y2441D01*
X0Y2440D02*
X7Y2440D01*
X4820Y2440D02*
X4827Y2440D01*
X0Y2439D02*
X7Y2439D01*
X4820Y2439D02*
X4827Y2439D01*
X0Y2438D02*
X7Y2438D01*
X4820Y2438D02*
X4827Y2438D01*
X0Y2437D02*
X7Y2437D01*
X4820Y2437D02*
X4827Y2437D01*
X0Y2436D02*
X7Y2436D01*
X4820Y2436D02*
X4827Y2436D01*
X0Y2435D02*
X7Y2435D01*
X4820Y2435D02*
X4827Y2435D01*
X0Y2434D02*
X7Y2434D01*
X4820Y2434D02*
X4827Y2434D01*
X0Y2433D02*
X7Y2433D01*
X4820Y2433D02*
X4827Y2433D01*
X0Y2432D02*
X7Y2432D01*
X4820Y2432D02*
X4827Y2432D01*
X0Y2431D02*
X7Y2431D01*
X4820Y2431D02*
X4827Y2431D01*
X0Y2430D02*
X7Y2430D01*
X4820Y2430D02*
X4827Y2430D01*
X0Y2429D02*
X7Y2429D01*
X4820Y2429D02*
X4827Y2429D01*
X0Y2428D02*
X7Y2428D01*
X4820Y2428D02*
X4827Y2428D01*
X0Y2427D02*
X7Y2427D01*
X4820Y2427D02*
X4827Y2427D01*
X0Y2426D02*
X7Y2426D01*
X4820Y2426D02*
X4827Y2426D01*
X0Y2425D02*
X7Y2425D01*
X4820Y2425D02*
X4827Y2425D01*
X0Y2424D02*
X7Y2424D01*
X4820Y2424D02*
X4827Y2424D01*
X0Y2423D02*
X7Y2423D01*
X4820Y2423D02*
X4827Y2423D01*
X0Y2422D02*
X7Y2422D01*
X4820Y2422D02*
X4827Y2422D01*
X0Y2421D02*
X7Y2421D01*
X4820Y2421D02*
X4827Y2421D01*
X0Y2420D02*
X7Y2420D01*
X4820Y2420D02*
X4827Y2420D01*
X0Y2419D02*
X7Y2419D01*
X4820Y2419D02*
X4827Y2419D01*
X0Y2418D02*
X7Y2418D01*
X4820Y2418D02*
X4827Y2418D01*
X0Y2417D02*
X7Y2417D01*
X4820Y2417D02*
X4827Y2417D01*
X0Y2416D02*
X7Y2416D01*
X4820Y2416D02*
X4827Y2416D01*
X0Y2415D02*
X7Y2415D01*
X4820Y2415D02*
X4827Y2415D01*
X0Y2414D02*
X7Y2414D01*
X4820Y2414D02*
X4827Y2414D01*
X0Y2413D02*
X7Y2413D01*
X4820Y2413D02*
X4827Y2413D01*
X0Y2412D02*
X7Y2412D01*
X4820Y2412D02*
X4827Y2412D01*
X0Y2411D02*
X7Y2411D01*
X4820Y2411D02*
X4827Y2411D01*
X0Y2410D02*
X7Y2410D01*
X4820Y2410D02*
X4827Y2410D01*
X0Y2409D02*
X7Y2409D01*
X4820Y2409D02*
X4827Y2409D01*
X0Y2408D02*
X7Y2408D01*
X4820Y2408D02*
X4827Y2408D01*
X0Y2407D02*
X7Y2407D01*
X4820Y2407D02*
X4827Y2407D01*
X0Y2406D02*
X7Y2406D01*
X4820Y2406D02*
X4827Y2406D01*
X0Y2405D02*
X7Y2405D01*
X4820Y2405D02*
X4827Y2405D01*
X0Y2404D02*
X7Y2404D01*
X4820Y2404D02*
X4827Y2404D01*
X0Y2403D02*
X7Y2403D01*
X4820Y2403D02*
X4827Y2403D01*
X0Y2402D02*
X7Y2402D01*
X4820Y2402D02*
X4827Y2402D01*
X0Y2401D02*
X7Y2401D01*
X4820Y2401D02*
X4827Y2401D01*
X0Y2400D02*
X7Y2400D01*
X4820Y2400D02*
X4827Y2400D01*
X0Y2399D02*
X7Y2399D01*
X4820Y2399D02*
X4827Y2399D01*
X0Y2398D02*
X7Y2398D01*
X4820Y2398D02*
X4827Y2398D01*
X0Y2397D02*
X7Y2397D01*
X4820Y2397D02*
X4827Y2397D01*
X0Y2396D02*
X7Y2396D01*
X4820Y2396D02*
X4827Y2396D01*
X0Y2395D02*
X7Y2395D01*
X4820Y2395D02*
X4827Y2395D01*
X0Y2394D02*
X7Y2394D01*
X4820Y2394D02*
X4827Y2394D01*
X0Y2393D02*
X7Y2393D01*
X4820Y2393D02*
X4827Y2393D01*
X0Y2392D02*
X7Y2392D01*
X4820Y2392D02*
X4827Y2392D01*
X0Y2391D02*
X7Y2391D01*
X4820Y2391D02*
X4827Y2391D01*
X0Y2390D02*
X7Y2390D01*
X4820Y2390D02*
X4827Y2390D01*
X0Y2389D02*
X7Y2389D01*
X4820Y2389D02*
X4827Y2389D01*
X0Y2388D02*
X7Y2388D01*
X4820Y2388D02*
X4827Y2388D01*
X0Y2387D02*
X7Y2387D01*
X4820Y2387D02*
X4827Y2387D01*
X0Y2386D02*
X7Y2386D01*
X4820Y2386D02*
X4827Y2386D01*
X0Y2385D02*
X7Y2385D01*
X4820Y2385D02*
X4827Y2385D01*
X0Y2384D02*
X7Y2384D01*
X4820Y2384D02*
X4827Y2384D01*
X0Y2383D02*
X7Y2383D01*
X4820Y2383D02*
X4827Y2383D01*
X0Y2382D02*
X7Y2382D01*
X4820Y2382D02*
X4827Y2382D01*
X0Y2381D02*
X7Y2381D01*
X4820Y2381D02*
X4827Y2381D01*
X0Y2380D02*
X7Y2380D01*
X4820Y2380D02*
X4827Y2380D01*
X0Y2379D02*
X7Y2379D01*
X4820Y2379D02*
X4827Y2379D01*
X0Y2378D02*
X7Y2378D01*
X4820Y2378D02*
X4827Y2378D01*
X0Y2377D02*
X7Y2377D01*
X4820Y2377D02*
X4827Y2377D01*
X0Y2376D02*
X7Y2376D01*
X4820Y2376D02*
X4827Y2376D01*
X0Y2375D02*
X7Y2375D01*
X4820Y2375D02*
X4827Y2375D01*
X0Y2374D02*
X7Y2374D01*
X4820Y2374D02*
X4827Y2374D01*
X0Y2373D02*
X7Y2373D01*
X4820Y2373D02*
X4827Y2373D01*
X0Y2372D02*
X7Y2372D01*
X4820Y2372D02*
X4827Y2372D01*
X0Y2371D02*
X7Y2371D01*
X4820Y2371D02*
X4827Y2371D01*
X0Y2370D02*
X7Y2370D01*
X4820Y2370D02*
X4827Y2370D01*
X0Y2369D02*
X7Y2369D01*
X4820Y2369D02*
X4827Y2369D01*
X0Y2368D02*
X7Y2368D01*
X4820Y2368D02*
X4827Y2368D01*
X0Y2367D02*
X7Y2367D01*
X4820Y2367D02*
X4827Y2367D01*
X0Y2366D02*
X7Y2366D01*
X4820Y2366D02*
X4827Y2366D01*
X0Y2365D02*
X7Y2365D01*
X4820Y2365D02*
X4827Y2365D01*
X0Y2364D02*
X7Y2364D01*
X4820Y2364D02*
X4827Y2364D01*
X0Y2363D02*
X7Y2363D01*
X4820Y2363D02*
X4827Y2363D01*
X0Y2362D02*
X7Y2362D01*
X4820Y2362D02*
X4827Y2362D01*
X0Y2361D02*
X7Y2361D01*
X4820Y2361D02*
X4827Y2361D01*
X0Y2360D02*
X7Y2360D01*
X4820Y2360D02*
X4827Y2360D01*
X0Y2359D02*
X7Y2359D01*
X4820Y2359D02*
X4827Y2359D01*
X0Y2358D02*
X7Y2358D01*
X4820Y2358D02*
X4827Y2358D01*
X0Y2357D02*
X7Y2357D01*
X4820Y2357D02*
X4827Y2357D01*
X0Y2356D02*
X7Y2356D01*
X4820Y2356D02*
X4827Y2356D01*
X0Y2355D02*
X7Y2355D01*
X4820Y2355D02*
X4827Y2355D01*
X0Y2354D02*
X7Y2354D01*
X4820Y2354D02*
X4827Y2354D01*
X0Y2353D02*
X7Y2353D01*
X4820Y2353D02*
X4827Y2353D01*
X0Y2352D02*
X7Y2352D01*
X4820Y2352D02*
X4827Y2352D01*
X0Y2351D02*
X7Y2351D01*
X4820Y2351D02*
X4827Y2351D01*
X0Y2350D02*
X7Y2350D01*
X4820Y2350D02*
X4827Y2350D01*
X0Y2349D02*
X7Y2349D01*
X4820Y2349D02*
X4827Y2349D01*
X0Y2348D02*
X7Y2348D01*
X4820Y2348D02*
X4827Y2348D01*
X0Y2347D02*
X7Y2347D01*
X4820Y2347D02*
X4827Y2347D01*
X0Y2346D02*
X7Y2346D01*
X4820Y2346D02*
X4827Y2346D01*
X0Y2345D02*
X7Y2345D01*
X4820Y2345D02*
X4827Y2345D01*
X0Y2344D02*
X7Y2344D01*
X4820Y2344D02*
X4827Y2344D01*
X0Y2343D02*
X7Y2343D01*
X4820Y2343D02*
X4827Y2343D01*
X0Y2342D02*
X7Y2342D01*
X4820Y2342D02*
X4827Y2342D01*
X0Y2341D02*
X7Y2341D01*
X4820Y2341D02*
X4827Y2341D01*
X0Y2340D02*
X7Y2340D01*
X4820Y2340D02*
X4827Y2340D01*
X0Y2339D02*
X7Y2339D01*
X4820Y2339D02*
X4827Y2339D01*
X0Y2338D02*
X7Y2338D01*
X4820Y2338D02*
X4827Y2338D01*
X0Y2337D02*
X7Y2337D01*
X4820Y2337D02*
X4827Y2337D01*
X0Y2336D02*
X7Y2336D01*
X4820Y2336D02*
X4827Y2336D01*
X0Y2335D02*
X7Y2335D01*
X4820Y2335D02*
X4827Y2335D01*
X0Y2334D02*
X7Y2334D01*
X4820Y2334D02*
X4827Y2334D01*
X0Y2333D02*
X7Y2333D01*
X4820Y2333D02*
X4827Y2333D01*
X0Y2332D02*
X7Y2332D01*
X4820Y2332D02*
X4827Y2332D01*
X0Y2331D02*
X7Y2331D01*
X4820Y2331D02*
X4827Y2331D01*
X0Y2330D02*
X7Y2330D01*
X4820Y2330D02*
X4827Y2330D01*
X0Y2329D02*
X7Y2329D01*
X4820Y2329D02*
X4827Y2329D01*
X0Y2328D02*
X7Y2328D01*
X4820Y2328D02*
X4827Y2328D01*
X0Y2327D02*
X7Y2327D01*
X4820Y2327D02*
X4827Y2327D01*
X0Y2326D02*
X7Y2326D01*
X4820Y2326D02*
X4827Y2326D01*
X0Y2325D02*
X7Y2325D01*
X4820Y2325D02*
X4827Y2325D01*
X0Y2324D02*
X7Y2324D01*
X4820Y2324D02*
X4827Y2324D01*
X0Y2323D02*
X7Y2323D01*
X4820Y2323D02*
X4827Y2323D01*
X0Y2322D02*
X7Y2322D01*
X4820Y2322D02*
X4827Y2322D01*
X0Y2321D02*
X7Y2321D01*
X4820Y2321D02*
X4827Y2321D01*
X0Y2320D02*
X7Y2320D01*
X4820Y2320D02*
X4827Y2320D01*
X0Y2319D02*
X7Y2319D01*
X4820Y2319D02*
X4827Y2319D01*
X0Y2318D02*
X7Y2318D01*
X4820Y2318D02*
X4827Y2318D01*
X0Y2317D02*
X7Y2317D01*
X4820Y2317D02*
X4827Y2317D01*
X0Y2316D02*
X7Y2316D01*
X4820Y2316D02*
X4827Y2316D01*
X0Y2315D02*
X7Y2315D01*
X4820Y2315D02*
X4827Y2315D01*
X0Y2314D02*
X7Y2314D01*
X4820Y2314D02*
X4827Y2314D01*
X0Y2313D02*
X7Y2313D01*
X4820Y2313D02*
X4827Y2313D01*
X0Y2312D02*
X7Y2312D01*
X4820Y2312D02*
X4827Y2312D01*
X0Y2311D02*
X7Y2311D01*
X4820Y2311D02*
X4827Y2311D01*
X0Y2310D02*
X7Y2310D01*
X4820Y2310D02*
X4827Y2310D01*
X0Y2309D02*
X7Y2309D01*
X4820Y2309D02*
X4827Y2309D01*
X0Y2308D02*
X7Y2308D01*
X4820Y2308D02*
X4827Y2308D01*
X0Y2307D02*
X7Y2307D01*
X4820Y2307D02*
X4827Y2307D01*
X0Y2306D02*
X7Y2306D01*
X4820Y2306D02*
X4827Y2306D01*
X0Y2305D02*
X7Y2305D01*
X4820Y2305D02*
X4827Y2305D01*
X0Y2304D02*
X7Y2304D01*
X4820Y2304D02*
X4827Y2304D01*
X0Y2303D02*
X7Y2303D01*
X4820Y2303D02*
X4827Y2303D01*
X0Y2302D02*
X7Y2302D01*
X4820Y2302D02*
X4827Y2302D01*
X0Y2301D02*
X7Y2301D01*
X4820Y2301D02*
X4827Y2301D01*
X0Y2300D02*
X7Y2300D01*
X4820Y2300D02*
X4827Y2300D01*
X0Y2299D02*
X7Y2299D01*
X4820Y2299D02*
X4827Y2299D01*
X0Y2298D02*
X7Y2298D01*
X4820Y2298D02*
X4827Y2298D01*
X0Y2297D02*
X7Y2297D01*
X4820Y2297D02*
X4827Y2297D01*
X0Y2296D02*
X7Y2296D01*
X4820Y2296D02*
X4827Y2296D01*
X0Y2295D02*
X7Y2295D01*
X4820Y2295D02*
X4827Y2295D01*
X0Y2294D02*
X7Y2294D01*
X4820Y2294D02*
X4827Y2294D01*
X0Y2293D02*
X7Y2293D01*
X4820Y2293D02*
X4827Y2293D01*
X0Y2292D02*
X7Y2292D01*
X4820Y2292D02*
X4827Y2292D01*
X0Y2291D02*
X7Y2291D01*
X4820Y2291D02*
X4827Y2291D01*
X0Y2290D02*
X7Y2290D01*
X4820Y2290D02*
X4827Y2290D01*
X0Y2289D02*
X7Y2289D01*
X4820Y2289D02*
X4827Y2289D01*
X0Y2288D02*
X7Y2288D01*
X4820Y2288D02*
X4827Y2288D01*
X0Y2287D02*
X7Y2287D01*
X4820Y2287D02*
X4827Y2287D01*
X0Y2286D02*
X7Y2286D01*
X4820Y2286D02*
X4827Y2286D01*
X0Y2285D02*
X7Y2285D01*
X4820Y2285D02*
X4827Y2285D01*
X0Y2284D02*
X7Y2284D01*
X4820Y2284D02*
X4827Y2284D01*
X0Y2283D02*
X7Y2283D01*
X4820Y2283D02*
X4827Y2283D01*
X0Y2282D02*
X7Y2282D01*
X4820Y2282D02*
X4827Y2282D01*
X0Y2281D02*
X7Y2281D01*
X4820Y2281D02*
X4827Y2281D01*
X0Y2280D02*
X7Y2280D01*
X4820Y2280D02*
X4827Y2280D01*
X0Y2279D02*
X7Y2279D01*
X4820Y2279D02*
X4827Y2279D01*
X0Y2278D02*
X7Y2278D01*
X4820Y2278D02*
X4827Y2278D01*
X0Y2277D02*
X7Y2277D01*
X4820Y2277D02*
X4827Y2277D01*
X0Y2276D02*
X7Y2276D01*
X4820Y2276D02*
X4827Y2276D01*
X0Y2275D02*
X7Y2275D01*
X4820Y2275D02*
X4827Y2275D01*
X0Y2274D02*
X7Y2274D01*
X4820Y2274D02*
X4827Y2274D01*
X0Y2273D02*
X7Y2273D01*
X4820Y2273D02*
X4827Y2273D01*
X0Y2272D02*
X7Y2272D01*
X4820Y2272D02*
X4827Y2272D01*
X0Y2271D02*
X7Y2271D01*
X4820Y2271D02*
X4827Y2271D01*
X0Y2270D02*
X7Y2270D01*
X4820Y2270D02*
X4827Y2270D01*
X0Y2269D02*
X7Y2269D01*
X4820Y2269D02*
X4827Y2269D01*
X0Y2268D02*
X7Y2268D01*
X4820Y2268D02*
X4827Y2268D01*
X0Y2267D02*
X7Y2267D01*
X4820Y2267D02*
X4827Y2267D01*
X0Y2266D02*
X7Y2266D01*
X4820Y2266D02*
X4827Y2266D01*
X0Y2265D02*
X7Y2265D01*
X4820Y2265D02*
X4827Y2265D01*
X0Y2264D02*
X7Y2264D01*
X4820Y2264D02*
X4827Y2264D01*
X0Y2263D02*
X7Y2263D01*
X4820Y2263D02*
X4827Y2263D01*
X0Y2262D02*
X7Y2262D01*
X4820Y2262D02*
X4827Y2262D01*
X0Y2261D02*
X7Y2261D01*
X4820Y2261D02*
X4827Y2261D01*
X0Y2260D02*
X7Y2260D01*
X4820Y2260D02*
X4827Y2260D01*
X0Y2259D02*
X7Y2259D01*
X4820Y2259D02*
X4827Y2259D01*
X0Y2258D02*
X7Y2258D01*
X4820Y2258D02*
X4827Y2258D01*
X0Y2257D02*
X7Y2257D01*
X4820Y2257D02*
X4827Y2257D01*
X0Y2256D02*
X7Y2256D01*
X4820Y2256D02*
X4827Y2256D01*
X0Y2255D02*
X7Y2255D01*
X4820Y2255D02*
X4827Y2255D01*
X0Y2254D02*
X7Y2254D01*
X4820Y2254D02*
X4827Y2254D01*
X0Y2253D02*
X7Y2253D01*
X4820Y2253D02*
X4827Y2253D01*
X0Y2252D02*
X7Y2252D01*
X4820Y2252D02*
X4827Y2252D01*
X0Y2251D02*
X7Y2251D01*
X4820Y2251D02*
X4827Y2251D01*
X0Y2250D02*
X7Y2250D01*
X4820Y2250D02*
X4827Y2250D01*
X0Y2249D02*
X7Y2249D01*
X4820Y2249D02*
X4827Y2249D01*
X0Y2248D02*
X7Y2248D01*
X4820Y2248D02*
X4827Y2248D01*
X0Y2247D02*
X7Y2247D01*
X4820Y2247D02*
X4827Y2247D01*
X0Y2246D02*
X7Y2246D01*
X4820Y2246D02*
X4827Y2246D01*
X0Y2245D02*
X7Y2245D01*
X4820Y2245D02*
X4827Y2245D01*
X0Y2244D02*
X7Y2244D01*
X4820Y2244D02*
X4827Y2244D01*
X0Y2243D02*
X7Y2243D01*
X4820Y2243D02*
X4827Y2243D01*
X0Y2242D02*
X7Y2242D01*
X4820Y2242D02*
X4827Y2242D01*
X0Y2241D02*
X7Y2241D01*
X4820Y2241D02*
X4827Y2241D01*
X0Y2240D02*
X7Y2240D01*
X4820Y2240D02*
X4827Y2240D01*
X0Y2239D02*
X7Y2239D01*
X4820Y2239D02*
X4827Y2239D01*
X0Y2238D02*
X7Y2238D01*
X4820Y2238D02*
X4827Y2238D01*
X0Y2237D02*
X7Y2237D01*
X4820Y2237D02*
X4827Y2237D01*
X0Y2236D02*
X7Y2236D01*
X4820Y2236D02*
X4827Y2236D01*
X0Y2235D02*
X7Y2235D01*
X4820Y2235D02*
X4827Y2235D01*
X0Y2234D02*
X7Y2234D01*
X4820Y2234D02*
X4827Y2234D01*
X0Y2233D02*
X7Y2233D01*
X4820Y2233D02*
X4827Y2233D01*
X0Y2232D02*
X7Y2232D01*
X4820Y2232D02*
X4827Y2232D01*
X0Y2231D02*
X7Y2231D01*
X4820Y2231D02*
X4827Y2231D01*
X0Y2230D02*
X7Y2230D01*
X4820Y2230D02*
X4827Y2230D01*
X0Y2229D02*
X7Y2229D01*
X4820Y2229D02*
X4827Y2229D01*
X0Y2228D02*
X7Y2228D01*
X4820Y2228D02*
X4827Y2228D01*
X0Y2227D02*
X7Y2227D01*
X4820Y2227D02*
X4827Y2227D01*
X0Y2226D02*
X7Y2226D01*
X4820Y2226D02*
X4827Y2226D01*
X0Y2225D02*
X7Y2225D01*
X4820Y2225D02*
X4827Y2225D01*
X0Y2224D02*
X7Y2224D01*
X4820Y2224D02*
X4827Y2224D01*
X0Y2223D02*
X7Y2223D01*
X4820Y2223D02*
X4827Y2223D01*
X0Y2222D02*
X7Y2222D01*
X4820Y2222D02*
X4827Y2222D01*
X0Y2221D02*
X7Y2221D01*
X4820Y2221D02*
X4827Y2221D01*
X0Y2220D02*
X7Y2220D01*
X4820Y2220D02*
X4827Y2220D01*
X0Y2219D02*
X7Y2219D01*
X4820Y2219D02*
X4827Y2219D01*
X0Y2218D02*
X7Y2218D01*
X4820Y2218D02*
X4827Y2218D01*
X0Y2217D02*
X7Y2217D01*
X4820Y2217D02*
X4827Y2217D01*
X0Y2216D02*
X7Y2216D01*
X4820Y2216D02*
X4827Y2216D01*
X0Y2215D02*
X7Y2215D01*
X4820Y2215D02*
X4827Y2215D01*
X0Y2214D02*
X7Y2214D01*
X4820Y2214D02*
X4827Y2214D01*
X0Y2213D02*
X7Y2213D01*
X4820Y2213D02*
X4827Y2213D01*
X0Y2212D02*
X7Y2212D01*
X4820Y2212D02*
X4827Y2212D01*
X0Y2211D02*
X7Y2211D01*
X4820Y2211D02*
X4827Y2211D01*
X0Y2210D02*
X7Y2210D01*
X4820Y2210D02*
X4827Y2210D01*
X0Y2209D02*
X7Y2209D01*
X4820Y2209D02*
X4827Y2209D01*
X0Y2208D02*
X7Y2208D01*
X4820Y2208D02*
X4827Y2208D01*
X0Y2207D02*
X7Y2207D01*
X4820Y2207D02*
X4827Y2207D01*
X0Y2206D02*
X7Y2206D01*
X4820Y2206D02*
X4827Y2206D01*
X0Y2205D02*
X7Y2205D01*
X4820Y2205D02*
X4827Y2205D01*
X0Y2204D02*
X7Y2204D01*
X4820Y2204D02*
X4827Y2204D01*
X0Y2203D02*
X7Y2203D01*
X4820Y2203D02*
X4827Y2203D01*
X0Y2202D02*
X7Y2202D01*
X4820Y2202D02*
X4827Y2202D01*
X0Y2201D02*
X7Y2201D01*
X4820Y2201D02*
X4827Y2201D01*
X0Y2200D02*
X7Y2200D01*
X4820Y2200D02*
X4827Y2200D01*
X0Y2199D02*
X7Y2199D01*
X4820Y2199D02*
X4827Y2199D01*
X0Y2198D02*
X7Y2198D01*
X4820Y2198D02*
X4827Y2198D01*
X0Y2197D02*
X7Y2197D01*
X4820Y2197D02*
X4827Y2197D01*
X0Y2196D02*
X7Y2196D01*
X4820Y2196D02*
X4827Y2196D01*
X0Y2195D02*
X7Y2195D01*
X4820Y2195D02*
X4827Y2195D01*
X0Y2194D02*
X7Y2194D01*
X4820Y2194D02*
X4827Y2194D01*
X0Y2193D02*
X7Y2193D01*
X4820Y2193D02*
X4827Y2193D01*
X0Y2192D02*
X7Y2192D01*
X4820Y2192D02*
X4827Y2192D01*
X0Y2191D02*
X7Y2191D01*
X4820Y2191D02*
X4827Y2191D01*
X0Y2190D02*
X7Y2190D01*
X4820Y2190D02*
X4827Y2190D01*
X0Y2189D02*
X7Y2189D01*
X4820Y2189D02*
X4827Y2189D01*
X0Y2188D02*
X7Y2188D01*
X4820Y2188D02*
X4827Y2188D01*
X0Y2187D02*
X7Y2187D01*
X4820Y2187D02*
X4827Y2187D01*
X0Y2186D02*
X7Y2186D01*
X4820Y2186D02*
X4827Y2186D01*
X0Y2185D02*
X7Y2185D01*
X4820Y2185D02*
X4827Y2185D01*
X0Y2184D02*
X7Y2184D01*
X4820Y2184D02*
X4827Y2184D01*
X0Y2183D02*
X7Y2183D01*
X4820Y2183D02*
X4827Y2183D01*
X0Y2182D02*
X7Y2182D01*
X4820Y2182D02*
X4827Y2182D01*
X0Y2181D02*
X7Y2181D01*
X4820Y2181D02*
X4827Y2181D01*
X0Y2180D02*
X7Y2180D01*
X4820Y2180D02*
X4827Y2180D01*
X0Y2179D02*
X7Y2179D01*
X4820Y2179D02*
X4827Y2179D01*
X0Y2178D02*
X7Y2178D01*
X4820Y2178D02*
X4827Y2178D01*
X0Y2177D02*
X7Y2177D01*
X4820Y2177D02*
X4827Y2177D01*
X0Y2176D02*
X7Y2176D01*
X4820Y2176D02*
X4827Y2176D01*
X0Y2175D02*
X7Y2175D01*
X4820Y2175D02*
X4827Y2175D01*
X0Y2174D02*
X7Y2174D01*
X4820Y2174D02*
X4827Y2174D01*
X0Y2173D02*
X7Y2173D01*
X4820Y2173D02*
X4827Y2173D01*
X0Y2172D02*
X7Y2172D01*
X4820Y2172D02*
X4827Y2172D01*
X0Y2171D02*
X7Y2171D01*
X4820Y2171D02*
X4827Y2171D01*
X0Y2170D02*
X7Y2170D01*
X4820Y2170D02*
X4827Y2170D01*
X0Y2169D02*
X7Y2169D01*
X4820Y2169D02*
X4827Y2169D01*
X0Y2168D02*
X7Y2168D01*
X4820Y2168D02*
X4827Y2168D01*
X0Y2167D02*
X7Y2167D01*
X4820Y2167D02*
X4827Y2167D01*
X0Y2166D02*
X7Y2166D01*
X4820Y2166D02*
X4827Y2166D01*
X0Y2165D02*
X7Y2165D01*
X4820Y2165D02*
X4827Y2165D01*
X0Y2164D02*
X7Y2164D01*
X4820Y2164D02*
X4827Y2164D01*
X0Y2163D02*
X7Y2163D01*
X4820Y2163D02*
X4827Y2163D01*
X0Y2162D02*
X7Y2162D01*
X4820Y2162D02*
X4827Y2162D01*
X0Y2161D02*
X7Y2161D01*
X4820Y2161D02*
X4827Y2161D01*
X0Y2160D02*
X7Y2160D01*
X4820Y2160D02*
X4827Y2160D01*
X0Y2159D02*
X7Y2159D01*
X4820Y2159D02*
X4827Y2159D01*
X0Y2158D02*
X7Y2158D01*
X4820Y2158D02*
X4827Y2158D01*
X0Y2157D02*
X7Y2157D01*
X4820Y2157D02*
X4827Y2157D01*
X0Y2156D02*
X7Y2156D01*
X4820Y2156D02*
X4827Y2156D01*
X0Y2155D02*
X7Y2155D01*
X4820Y2155D02*
X4827Y2155D01*
X0Y2154D02*
X7Y2154D01*
X4820Y2154D02*
X4827Y2154D01*
X0Y2153D02*
X7Y2153D01*
X4820Y2153D02*
X4827Y2153D01*
X0Y2152D02*
X7Y2152D01*
X4820Y2152D02*
X4827Y2152D01*
X0Y2151D02*
X7Y2151D01*
X4820Y2151D02*
X4827Y2151D01*
X0Y2150D02*
X7Y2150D01*
X4820Y2150D02*
X4827Y2150D01*
X0Y2149D02*
X7Y2149D01*
X4820Y2149D02*
X4827Y2149D01*
X0Y2148D02*
X7Y2148D01*
X4820Y2148D02*
X4827Y2148D01*
X0Y2147D02*
X7Y2147D01*
X4820Y2147D02*
X4827Y2147D01*
X0Y2146D02*
X7Y2146D01*
X4820Y2146D02*
X4827Y2146D01*
X0Y2145D02*
X7Y2145D01*
X4820Y2145D02*
X4827Y2145D01*
X0Y2144D02*
X7Y2144D01*
X4820Y2144D02*
X4827Y2144D01*
X0Y2143D02*
X7Y2143D01*
X4820Y2143D02*
X4827Y2143D01*
X0Y2142D02*
X7Y2142D01*
X4820Y2142D02*
X4827Y2142D01*
X0Y2141D02*
X7Y2141D01*
X4820Y2141D02*
X4827Y2141D01*
X0Y2140D02*
X7Y2140D01*
X4820Y2140D02*
X4827Y2140D01*
X0Y2139D02*
X7Y2139D01*
X4820Y2139D02*
X4827Y2139D01*
X0Y2138D02*
X7Y2138D01*
X4820Y2138D02*
X4827Y2138D01*
X0Y2137D02*
X7Y2137D01*
X4820Y2137D02*
X4827Y2137D01*
X0Y2136D02*
X7Y2136D01*
X4820Y2136D02*
X4827Y2136D01*
X0Y2135D02*
X7Y2135D01*
X4820Y2135D02*
X4827Y2135D01*
X0Y2134D02*
X7Y2134D01*
X4820Y2134D02*
X4827Y2134D01*
X0Y2133D02*
X7Y2133D01*
X4820Y2133D02*
X4827Y2133D01*
X0Y2132D02*
X7Y2132D01*
X4820Y2132D02*
X4827Y2132D01*
X0Y2131D02*
X7Y2131D01*
X4820Y2131D02*
X4827Y2131D01*
X0Y2130D02*
X7Y2130D01*
X4820Y2130D02*
X4827Y2130D01*
X0Y2129D02*
X7Y2129D01*
X4820Y2129D02*
X4827Y2129D01*
X0Y2128D02*
X7Y2128D01*
X4820Y2128D02*
X4827Y2128D01*
X0Y2127D02*
X7Y2127D01*
X4820Y2127D02*
X4827Y2127D01*
X0Y2126D02*
X7Y2126D01*
X4820Y2126D02*
X4827Y2126D01*
X0Y2125D02*
X7Y2125D01*
X4820Y2125D02*
X4827Y2125D01*
X0Y2124D02*
X7Y2124D01*
X4820Y2124D02*
X4827Y2124D01*
X0Y2123D02*
X7Y2123D01*
X4820Y2123D02*
X4827Y2123D01*
X0Y2122D02*
X7Y2122D01*
X4820Y2122D02*
X4827Y2122D01*
X0Y2121D02*
X7Y2121D01*
X4820Y2121D02*
X4827Y2121D01*
X0Y2120D02*
X7Y2120D01*
X4820Y2120D02*
X4827Y2120D01*
X0Y2119D02*
X7Y2119D01*
X4820Y2119D02*
X4827Y2119D01*
X0Y2118D02*
X7Y2118D01*
X4820Y2118D02*
X4827Y2118D01*
X0Y2117D02*
X7Y2117D01*
X4820Y2117D02*
X4827Y2117D01*
X0Y2116D02*
X7Y2116D01*
X4820Y2116D02*
X4827Y2116D01*
X0Y2115D02*
X7Y2115D01*
X4820Y2115D02*
X4827Y2115D01*
X0Y2114D02*
X7Y2114D01*
X4820Y2114D02*
X4827Y2114D01*
X0Y2113D02*
X7Y2113D01*
X4820Y2113D02*
X4827Y2113D01*
X0Y2112D02*
X7Y2112D01*
X4820Y2112D02*
X4827Y2112D01*
X0Y2111D02*
X7Y2111D01*
X4820Y2111D02*
X4827Y2111D01*
X0Y2110D02*
X7Y2110D01*
X4820Y2110D02*
X4827Y2110D01*
X0Y2109D02*
X7Y2109D01*
X4820Y2109D02*
X4827Y2109D01*
X0Y2108D02*
X7Y2108D01*
X4820Y2108D02*
X4827Y2108D01*
X0Y2107D02*
X7Y2107D01*
X4820Y2107D02*
X4827Y2107D01*
X0Y2106D02*
X7Y2106D01*
X4820Y2106D02*
X4827Y2106D01*
X0Y2105D02*
X7Y2105D01*
X4820Y2105D02*
X4827Y2105D01*
X0Y2104D02*
X7Y2104D01*
X4820Y2104D02*
X4827Y2104D01*
X0Y2103D02*
X7Y2103D01*
X4820Y2103D02*
X4827Y2103D01*
X0Y2102D02*
X7Y2102D01*
X4820Y2102D02*
X4827Y2102D01*
X0Y2101D02*
X7Y2101D01*
X4820Y2101D02*
X4827Y2101D01*
X0Y2100D02*
X7Y2100D01*
X4820Y2100D02*
X4827Y2100D01*
X0Y2099D02*
X7Y2099D01*
X4820Y2099D02*
X4827Y2099D01*
X0Y2098D02*
X7Y2098D01*
X4820Y2098D02*
X4827Y2098D01*
X0Y2097D02*
X7Y2097D01*
X4820Y2097D02*
X4827Y2097D01*
X0Y2096D02*
X7Y2096D01*
X4820Y2096D02*
X4827Y2096D01*
X0Y2095D02*
X7Y2095D01*
X4820Y2095D02*
X4827Y2095D01*
X0Y2094D02*
X7Y2094D01*
X4820Y2094D02*
X4827Y2094D01*
X0Y2093D02*
X7Y2093D01*
X4820Y2093D02*
X4827Y2093D01*
X0Y2092D02*
X7Y2092D01*
X4820Y2092D02*
X4827Y2092D01*
X0Y2091D02*
X7Y2091D01*
X4820Y2091D02*
X4827Y2091D01*
X0Y2090D02*
X7Y2090D01*
X4820Y2090D02*
X4827Y2090D01*
X0Y2089D02*
X7Y2089D01*
X4820Y2089D02*
X4827Y2089D01*
X0Y2088D02*
X7Y2088D01*
X4820Y2088D02*
X4827Y2088D01*
X0Y2087D02*
X7Y2087D01*
X4820Y2087D02*
X4827Y2087D01*
X0Y2086D02*
X7Y2086D01*
X4820Y2086D02*
X4827Y2086D01*
X0Y2085D02*
X7Y2085D01*
X4820Y2085D02*
X4827Y2085D01*
X0Y2084D02*
X7Y2084D01*
X4820Y2084D02*
X4827Y2084D01*
X0Y2083D02*
X7Y2083D01*
X4820Y2083D02*
X4827Y2083D01*
X0Y2082D02*
X7Y2082D01*
X4820Y2082D02*
X4827Y2082D01*
X0Y2081D02*
X7Y2081D01*
X4820Y2081D02*
X4827Y2081D01*
X0Y2080D02*
X7Y2080D01*
X4820Y2080D02*
X4827Y2080D01*
X0Y2079D02*
X7Y2079D01*
X4820Y2079D02*
X4827Y2079D01*
X0Y2078D02*
X7Y2078D01*
X4820Y2078D02*
X4827Y2078D01*
X0Y2077D02*
X7Y2077D01*
X4820Y2077D02*
X4827Y2077D01*
X0Y2076D02*
X7Y2076D01*
X4820Y2076D02*
X4827Y2076D01*
X0Y2075D02*
X7Y2075D01*
X4820Y2075D02*
X4827Y2075D01*
X0Y2074D02*
X7Y2074D01*
X4820Y2074D02*
X4827Y2074D01*
X0Y2073D02*
X7Y2073D01*
X4820Y2073D02*
X4827Y2073D01*
X0Y2072D02*
X7Y2072D01*
X4820Y2072D02*
X4827Y2072D01*
X0Y2071D02*
X7Y2071D01*
X4820Y2071D02*
X4827Y2071D01*
X0Y2070D02*
X7Y2070D01*
X4820Y2070D02*
X4827Y2070D01*
X0Y2069D02*
X7Y2069D01*
X4820Y2069D02*
X4827Y2069D01*
X0Y2068D02*
X7Y2068D01*
X4820Y2068D02*
X4827Y2068D01*
X0Y2067D02*
X7Y2067D01*
X4820Y2067D02*
X4827Y2067D01*
X0Y2066D02*
X7Y2066D01*
X4820Y2066D02*
X4827Y2066D01*
X0Y2065D02*
X7Y2065D01*
X4820Y2065D02*
X4827Y2065D01*
X0Y2064D02*
X7Y2064D01*
X4820Y2064D02*
X4827Y2064D01*
X0Y2063D02*
X7Y2063D01*
X4820Y2063D02*
X4827Y2063D01*
X0Y2062D02*
X7Y2062D01*
X4820Y2062D02*
X4827Y2062D01*
X0Y2061D02*
X7Y2061D01*
X4820Y2061D02*
X4827Y2061D01*
X0Y2060D02*
X7Y2060D01*
X4820Y2060D02*
X4827Y2060D01*
X0Y2059D02*
X7Y2059D01*
X4820Y2059D02*
X4827Y2059D01*
X0Y2058D02*
X7Y2058D01*
X4820Y2058D02*
X4827Y2058D01*
X0Y2057D02*
X7Y2057D01*
X4820Y2057D02*
X4827Y2057D01*
X0Y2056D02*
X7Y2056D01*
X4820Y2056D02*
X4827Y2056D01*
X0Y2055D02*
X7Y2055D01*
X4820Y2055D02*
X4827Y2055D01*
X0Y2054D02*
X7Y2054D01*
X4820Y2054D02*
X4827Y2054D01*
X0Y2053D02*
X7Y2053D01*
X4820Y2053D02*
X4827Y2053D01*
X0Y2052D02*
X7Y2052D01*
X4820Y2052D02*
X4827Y2052D01*
X0Y2051D02*
X7Y2051D01*
X4820Y2051D02*
X4827Y2051D01*
X0Y2050D02*
X7Y2050D01*
X4820Y2050D02*
X4827Y2050D01*
X0Y2049D02*
X7Y2049D01*
X4820Y2049D02*
X4827Y2049D01*
X0Y2048D02*
X7Y2048D01*
X4820Y2048D02*
X4827Y2048D01*
X0Y2047D02*
X7Y2047D01*
X4820Y2047D02*
X4827Y2047D01*
X0Y2046D02*
X7Y2046D01*
X4820Y2046D02*
X4827Y2046D01*
X0Y2045D02*
X7Y2045D01*
X4820Y2045D02*
X4827Y2045D01*
X0Y2044D02*
X7Y2044D01*
X4820Y2044D02*
X4827Y2044D01*
X0Y2043D02*
X7Y2043D01*
X4820Y2043D02*
X4827Y2043D01*
X0Y2042D02*
X7Y2042D01*
X4820Y2042D02*
X4827Y2042D01*
X0Y2041D02*
X7Y2041D01*
X4820Y2041D02*
X4827Y2041D01*
X0Y2040D02*
X7Y2040D01*
X4820Y2040D02*
X4827Y2040D01*
X0Y2039D02*
X7Y2039D01*
X4820Y2039D02*
X4827Y2039D01*
X0Y2038D02*
X7Y2038D01*
X4820Y2038D02*
X4827Y2038D01*
X0Y2037D02*
X7Y2037D01*
X4820Y2037D02*
X4827Y2037D01*
X0Y2036D02*
X7Y2036D01*
X4820Y2036D02*
X4827Y2036D01*
X0Y2035D02*
X7Y2035D01*
X4820Y2035D02*
X4827Y2035D01*
X0Y2034D02*
X7Y2034D01*
X4820Y2034D02*
X4827Y2034D01*
X0Y2033D02*
X7Y2033D01*
X4820Y2033D02*
X4827Y2033D01*
X0Y2032D02*
X7Y2032D01*
X4820Y2032D02*
X4827Y2032D01*
X0Y2031D02*
X7Y2031D01*
X4820Y2031D02*
X4827Y2031D01*
X0Y2030D02*
X7Y2030D01*
X4820Y2030D02*
X4827Y2030D01*
X0Y2029D02*
X7Y2029D01*
X4820Y2029D02*
X4827Y2029D01*
X0Y2028D02*
X7Y2028D01*
X4820Y2028D02*
X4827Y2028D01*
X0Y2027D02*
X7Y2027D01*
X4820Y2027D02*
X4827Y2027D01*
X0Y2026D02*
X7Y2026D01*
X4820Y2026D02*
X4827Y2026D01*
X0Y2025D02*
X7Y2025D01*
X4820Y2025D02*
X4827Y2025D01*
X0Y2024D02*
X7Y2024D01*
X4820Y2024D02*
X4827Y2024D01*
X0Y2023D02*
X7Y2023D01*
X4820Y2023D02*
X4827Y2023D01*
X0Y2022D02*
X7Y2022D01*
X4820Y2022D02*
X4827Y2022D01*
X0Y2021D02*
X7Y2021D01*
X4820Y2021D02*
X4827Y2021D01*
X0Y2020D02*
X7Y2020D01*
X4820Y2020D02*
X4827Y2020D01*
X0Y2019D02*
X7Y2019D01*
X4820Y2019D02*
X4827Y2019D01*
X0Y2018D02*
X7Y2018D01*
X4820Y2018D02*
X4827Y2018D01*
X0Y2017D02*
X7Y2017D01*
X4820Y2017D02*
X4827Y2017D01*
X0Y2016D02*
X7Y2016D01*
X4820Y2016D02*
X4827Y2016D01*
X0Y2015D02*
X7Y2015D01*
X4820Y2015D02*
X4827Y2015D01*
X0Y2014D02*
X7Y2014D01*
X4820Y2014D02*
X4827Y2014D01*
X0Y2013D02*
X7Y2013D01*
X4820Y2013D02*
X4827Y2013D01*
X0Y2012D02*
X7Y2012D01*
X4820Y2012D02*
X4827Y2012D01*
X0Y2011D02*
X7Y2011D01*
X4820Y2011D02*
X4827Y2011D01*
X0Y2010D02*
X7Y2010D01*
X4820Y2010D02*
X4827Y2010D01*
X0Y2009D02*
X7Y2009D01*
X4820Y2009D02*
X4827Y2009D01*
X0Y2008D02*
X7Y2008D01*
X4820Y2008D02*
X4827Y2008D01*
X0Y2007D02*
X7Y2007D01*
X4820Y2007D02*
X4827Y2007D01*
X0Y2006D02*
X7Y2006D01*
X4820Y2006D02*
X4827Y2006D01*
X0Y2005D02*
X7Y2005D01*
X4820Y2005D02*
X4827Y2005D01*
X0Y2004D02*
X7Y2004D01*
X4820Y2004D02*
X4827Y2004D01*
X0Y2003D02*
X7Y2003D01*
X4820Y2003D02*
X4827Y2003D01*
X0Y2002D02*
X7Y2002D01*
X4820Y2002D02*
X4827Y2002D01*
X0Y2001D02*
X7Y2001D01*
X4820Y2001D02*
X4827Y2001D01*
X0Y2000D02*
X7Y2000D01*
X4820Y2000D02*
X4827Y2000D01*
X0Y1999D02*
X7Y1999D01*
X4820Y1999D02*
X4827Y1999D01*
X0Y1998D02*
X7Y1998D01*
X4820Y1998D02*
X4827Y1998D01*
X0Y1997D02*
X7Y1997D01*
X4820Y1997D02*
X4827Y1997D01*
X0Y1996D02*
X7Y1996D01*
X4820Y1996D02*
X4827Y1996D01*
X0Y1995D02*
X7Y1995D01*
X4820Y1995D02*
X4827Y1995D01*
X0Y1994D02*
X7Y1994D01*
X4820Y1994D02*
X4827Y1994D01*
X0Y1993D02*
X7Y1993D01*
X4820Y1993D02*
X4827Y1993D01*
X0Y1992D02*
X7Y1992D01*
X4820Y1992D02*
X4827Y1992D01*
X0Y1991D02*
X7Y1991D01*
X4820Y1991D02*
X4827Y1991D01*
X0Y1990D02*
X7Y1990D01*
X4820Y1990D02*
X4827Y1990D01*
X0Y1989D02*
X7Y1989D01*
X4820Y1989D02*
X4827Y1989D01*
X0Y1988D02*
X7Y1988D01*
X4820Y1988D02*
X4827Y1988D01*
X0Y1987D02*
X7Y1987D01*
X4820Y1987D02*
X4827Y1987D01*
X0Y1986D02*
X7Y1986D01*
X4820Y1986D02*
X4827Y1986D01*
X0Y1985D02*
X7Y1985D01*
X4820Y1985D02*
X4827Y1985D01*
X0Y1984D02*
X7Y1984D01*
X4820Y1984D02*
X4827Y1984D01*
X0Y1983D02*
X7Y1983D01*
X4820Y1983D02*
X4827Y1983D01*
X0Y1982D02*
X7Y1982D01*
X4820Y1982D02*
X4827Y1982D01*
X0Y1981D02*
X7Y1981D01*
X4820Y1981D02*
X4827Y1981D01*
X0Y1980D02*
X7Y1980D01*
X4820Y1980D02*
X4827Y1980D01*
X0Y1979D02*
X7Y1979D01*
X4820Y1979D02*
X4827Y1979D01*
X0Y1978D02*
X7Y1978D01*
X4820Y1978D02*
X4827Y1978D01*
X0Y1977D02*
X7Y1977D01*
X4820Y1977D02*
X4827Y1977D01*
X0Y1976D02*
X7Y1976D01*
X4820Y1976D02*
X4827Y1976D01*
X0Y1975D02*
X7Y1975D01*
X4820Y1975D02*
X4827Y1975D01*
X0Y1974D02*
X7Y1974D01*
X4820Y1974D02*
X4827Y1974D01*
X0Y1973D02*
X7Y1973D01*
X4820Y1973D02*
X4827Y1973D01*
X0Y1972D02*
X7Y1972D01*
X4820Y1972D02*
X4827Y1972D01*
X0Y1971D02*
X7Y1971D01*
X4820Y1971D02*
X4827Y1971D01*
X0Y1970D02*
X7Y1970D01*
X4820Y1970D02*
X4827Y1970D01*
X0Y1969D02*
X7Y1969D01*
X4820Y1969D02*
X4827Y1969D01*
X0Y1968D02*
X7Y1968D01*
X4820Y1968D02*
X4827Y1968D01*
X0Y1967D02*
X7Y1967D01*
X4820Y1967D02*
X4827Y1967D01*
X0Y1966D02*
X7Y1966D01*
X4820Y1966D02*
X4827Y1966D01*
X0Y1965D02*
X7Y1965D01*
X4820Y1965D02*
X4827Y1965D01*
X0Y1964D02*
X7Y1964D01*
X4820Y1964D02*
X4827Y1964D01*
X0Y1963D02*
X7Y1963D01*
X4820Y1963D02*
X4827Y1963D01*
X0Y1962D02*
X7Y1962D01*
X4820Y1962D02*
X4827Y1962D01*
X0Y1961D02*
X7Y1961D01*
X4820Y1961D02*
X4827Y1961D01*
X0Y1960D02*
X7Y1960D01*
X4820Y1960D02*
X4827Y1960D01*
X0Y1959D02*
X7Y1959D01*
X4820Y1959D02*
X4827Y1959D01*
X0Y1958D02*
X7Y1958D01*
X4820Y1958D02*
X4827Y1958D01*
X0Y1957D02*
X7Y1957D01*
X4820Y1957D02*
X4827Y1957D01*
X0Y1956D02*
X7Y1956D01*
X4820Y1956D02*
X4827Y1956D01*
X0Y1955D02*
X7Y1955D01*
X4820Y1955D02*
X4827Y1955D01*
X0Y1954D02*
X7Y1954D01*
X4820Y1954D02*
X4827Y1954D01*
X0Y1953D02*
X7Y1953D01*
X4820Y1953D02*
X4827Y1953D01*
X0Y1952D02*
X7Y1952D01*
X4820Y1952D02*
X4827Y1952D01*
X0Y1951D02*
X7Y1951D01*
X4820Y1951D02*
X4827Y1951D01*
X0Y1950D02*
X7Y1950D01*
X4820Y1950D02*
X4827Y1950D01*
X0Y1949D02*
X7Y1949D01*
X4820Y1949D02*
X4827Y1949D01*
X0Y1948D02*
X7Y1948D01*
X4820Y1948D02*
X4827Y1948D01*
X0Y1947D02*
X7Y1947D01*
X4820Y1947D02*
X4827Y1947D01*
X0Y1946D02*
X7Y1946D01*
X4820Y1946D02*
X4827Y1946D01*
X0Y1945D02*
X7Y1945D01*
X4820Y1945D02*
X4827Y1945D01*
X0Y1944D02*
X7Y1944D01*
X4820Y1944D02*
X4827Y1944D01*
X0Y1943D02*
X7Y1943D01*
X4820Y1943D02*
X4827Y1943D01*
X0Y1942D02*
X7Y1942D01*
X4820Y1942D02*
X4827Y1942D01*
X0Y1941D02*
X7Y1941D01*
X4820Y1941D02*
X4827Y1941D01*
X0Y1940D02*
X7Y1940D01*
X4820Y1940D02*
X4827Y1940D01*
X0Y1939D02*
X7Y1939D01*
X4820Y1939D02*
X4827Y1939D01*
X0Y1938D02*
X7Y1938D01*
X4820Y1938D02*
X4827Y1938D01*
X0Y1937D02*
X7Y1937D01*
X4820Y1937D02*
X4827Y1937D01*
X0Y1936D02*
X7Y1936D01*
X4820Y1936D02*
X4827Y1936D01*
X0Y1935D02*
X7Y1935D01*
X4820Y1935D02*
X4827Y1935D01*
X0Y1934D02*
X7Y1934D01*
X4820Y1934D02*
X4827Y1934D01*
X0Y1933D02*
X7Y1933D01*
X4820Y1933D02*
X4827Y1933D01*
X0Y1932D02*
X7Y1932D01*
X4820Y1932D02*
X4827Y1932D01*
X0Y1931D02*
X7Y1931D01*
X4820Y1931D02*
X4827Y1931D01*
X0Y1930D02*
X7Y1930D01*
X4820Y1930D02*
X4827Y1930D01*
X0Y1929D02*
X7Y1929D01*
X4820Y1929D02*
X4827Y1929D01*
X0Y1928D02*
X7Y1928D01*
X4820Y1928D02*
X4827Y1928D01*
X0Y1927D02*
X7Y1927D01*
X4820Y1927D02*
X4827Y1927D01*
X0Y1926D02*
X7Y1926D01*
X4820Y1926D02*
X4827Y1926D01*
X0Y1925D02*
X7Y1925D01*
X4820Y1925D02*
X4827Y1925D01*
X0Y1924D02*
X7Y1924D01*
X4820Y1924D02*
X4827Y1924D01*
X0Y1923D02*
X7Y1923D01*
X4820Y1923D02*
X4827Y1923D01*
X0Y1922D02*
X7Y1922D01*
X4820Y1922D02*
X4827Y1922D01*
X0Y1921D02*
X7Y1921D01*
X4820Y1921D02*
X4827Y1921D01*
X0Y1920D02*
X7Y1920D01*
X4820Y1920D02*
X4827Y1920D01*
X0Y1919D02*
X7Y1919D01*
X4820Y1919D02*
X4827Y1919D01*
X0Y1918D02*
X7Y1918D01*
X4820Y1918D02*
X4827Y1918D01*
X0Y1917D02*
X7Y1917D01*
X4820Y1917D02*
X4827Y1917D01*
X0Y1916D02*
X7Y1916D01*
X4820Y1916D02*
X4827Y1916D01*
X0Y1915D02*
X7Y1915D01*
X4820Y1915D02*
X4827Y1915D01*
X0Y1914D02*
X7Y1914D01*
X4820Y1914D02*
X4827Y1914D01*
X0Y1913D02*
X7Y1913D01*
X4820Y1913D02*
X4827Y1913D01*
X0Y1912D02*
X7Y1912D01*
X4820Y1912D02*
X4827Y1912D01*
X0Y1911D02*
X7Y1911D01*
X4820Y1911D02*
X4827Y1911D01*
X0Y1910D02*
X7Y1910D01*
X4820Y1910D02*
X4827Y1910D01*
X0Y1909D02*
X7Y1909D01*
X4820Y1909D02*
X4827Y1909D01*
X0Y1908D02*
X7Y1908D01*
X4820Y1908D02*
X4827Y1908D01*
X0Y1907D02*
X7Y1907D01*
X4820Y1907D02*
X4827Y1907D01*
X0Y1906D02*
X7Y1906D01*
X4820Y1906D02*
X4827Y1906D01*
X0Y1905D02*
X7Y1905D01*
X4820Y1905D02*
X4827Y1905D01*
X0Y1904D02*
X7Y1904D01*
X4820Y1904D02*
X4827Y1904D01*
X0Y1903D02*
X7Y1903D01*
X4820Y1903D02*
X4827Y1903D01*
X0Y1902D02*
X7Y1902D01*
X4820Y1902D02*
X4827Y1902D01*
X0Y1901D02*
X7Y1901D01*
X4820Y1901D02*
X4827Y1901D01*
X0Y1900D02*
X7Y1900D01*
X4820Y1900D02*
X4827Y1900D01*
X0Y1899D02*
X7Y1899D01*
X4820Y1899D02*
X4827Y1899D01*
X0Y1898D02*
X7Y1898D01*
X4820Y1898D02*
X4827Y1898D01*
X0Y1897D02*
X7Y1897D01*
X4820Y1897D02*
X4827Y1897D01*
X0Y1896D02*
X7Y1896D01*
X4820Y1896D02*
X4827Y1896D01*
X0Y1895D02*
X7Y1895D01*
X4820Y1895D02*
X4827Y1895D01*
X0Y1894D02*
X7Y1894D01*
X4820Y1894D02*
X4827Y1894D01*
X0Y1893D02*
X7Y1893D01*
X4820Y1893D02*
X4827Y1893D01*
X0Y1892D02*
X7Y1892D01*
X4820Y1892D02*
X4827Y1892D01*
X0Y1891D02*
X7Y1891D01*
X4820Y1891D02*
X4827Y1891D01*
X0Y1890D02*
X7Y1890D01*
X4820Y1890D02*
X4827Y1890D01*
X0Y1889D02*
X7Y1889D01*
X4820Y1889D02*
X4827Y1889D01*
X0Y1888D02*
X7Y1888D01*
X4820Y1888D02*
X4827Y1888D01*
X0Y1887D02*
X7Y1887D01*
X4820Y1887D02*
X4827Y1887D01*
X0Y1886D02*
X7Y1886D01*
X4820Y1886D02*
X4827Y1886D01*
X0Y1885D02*
X7Y1885D01*
X4820Y1885D02*
X4827Y1885D01*
X0Y1884D02*
X7Y1884D01*
X4820Y1884D02*
X4827Y1884D01*
X0Y1883D02*
X7Y1883D01*
X4820Y1883D02*
X4827Y1883D01*
X0Y1882D02*
X7Y1882D01*
X4820Y1882D02*
X4827Y1882D01*
X0Y1881D02*
X7Y1881D01*
X4820Y1881D02*
X4827Y1881D01*
X0Y1880D02*
X7Y1880D01*
X4820Y1880D02*
X4827Y1880D01*
X0Y1879D02*
X7Y1879D01*
X4820Y1879D02*
X4827Y1879D01*
X0Y1878D02*
X7Y1878D01*
X4820Y1878D02*
X4827Y1878D01*
X0Y1877D02*
X7Y1877D01*
X4820Y1877D02*
X4827Y1877D01*
X0Y1876D02*
X7Y1876D01*
X4820Y1876D02*
X4827Y1876D01*
X0Y1875D02*
X7Y1875D01*
X4820Y1875D02*
X4827Y1875D01*
X0Y1874D02*
X7Y1874D01*
X4820Y1874D02*
X4827Y1874D01*
X0Y1873D02*
X7Y1873D01*
X4820Y1873D02*
X4827Y1873D01*
X0Y1872D02*
X7Y1872D01*
X4820Y1872D02*
X4827Y1872D01*
X0Y1871D02*
X7Y1871D01*
X4820Y1871D02*
X4827Y1871D01*
X0Y1870D02*
X7Y1870D01*
X4820Y1870D02*
X4827Y1870D01*
X0Y1869D02*
X7Y1869D01*
X4820Y1869D02*
X4827Y1869D01*
X0Y1868D02*
X7Y1868D01*
X4820Y1868D02*
X4827Y1868D01*
X0Y1867D02*
X7Y1867D01*
X4820Y1867D02*
X4827Y1867D01*
X0Y1866D02*
X7Y1866D01*
X4820Y1866D02*
X4827Y1866D01*
X0Y1865D02*
X7Y1865D01*
X4820Y1865D02*
X4827Y1865D01*
X0Y1864D02*
X7Y1864D01*
X4820Y1864D02*
X4827Y1864D01*
X0Y1863D02*
X7Y1863D01*
X4820Y1863D02*
X4827Y1863D01*
X0Y1862D02*
X7Y1862D01*
X4820Y1862D02*
X4827Y1862D01*
X0Y1861D02*
X7Y1861D01*
X4820Y1861D02*
X4827Y1861D01*
X0Y1860D02*
X7Y1860D01*
X4820Y1860D02*
X4827Y1860D01*
X0Y1859D02*
X7Y1859D01*
X4820Y1859D02*
X4827Y1859D01*
X0Y1858D02*
X7Y1858D01*
X4820Y1858D02*
X4827Y1858D01*
X0Y1857D02*
X7Y1857D01*
X4820Y1857D02*
X4827Y1857D01*
X0Y1856D02*
X7Y1856D01*
X4820Y1856D02*
X4827Y1856D01*
X0Y1855D02*
X7Y1855D01*
X4820Y1855D02*
X4827Y1855D01*
X0Y1854D02*
X7Y1854D01*
X4820Y1854D02*
X4827Y1854D01*
X0Y1853D02*
X7Y1853D01*
X4820Y1853D02*
X4827Y1853D01*
X0Y1852D02*
X7Y1852D01*
X4820Y1852D02*
X4827Y1852D01*
X0Y1851D02*
X7Y1851D01*
X4820Y1851D02*
X4827Y1851D01*
X0Y1850D02*
X7Y1850D01*
X4820Y1850D02*
X4827Y1850D01*
X0Y1849D02*
X7Y1849D01*
X4820Y1849D02*
X4827Y1849D01*
X0Y1848D02*
X7Y1848D01*
X4820Y1848D02*
X4827Y1848D01*
X0Y1847D02*
X7Y1847D01*
X4820Y1847D02*
X4827Y1847D01*
X0Y1846D02*
X7Y1846D01*
X4820Y1846D02*
X4827Y1846D01*
X0Y1845D02*
X7Y1845D01*
X4820Y1845D02*
X4827Y1845D01*
X0Y1844D02*
X7Y1844D01*
X4820Y1844D02*
X4827Y1844D01*
X0Y1843D02*
X7Y1843D01*
X4820Y1843D02*
X4827Y1843D01*
X0Y1842D02*
X7Y1842D01*
X4820Y1842D02*
X4827Y1842D01*
X0Y1841D02*
X7Y1841D01*
X4820Y1841D02*
X4827Y1841D01*
X0Y1840D02*
X7Y1840D01*
X4820Y1840D02*
X4827Y1840D01*
X0Y1839D02*
X7Y1839D01*
X4820Y1839D02*
X4827Y1839D01*
X0Y1838D02*
X7Y1838D01*
X4820Y1838D02*
X4827Y1838D01*
X0Y1837D02*
X7Y1837D01*
X4820Y1837D02*
X4827Y1837D01*
X0Y1836D02*
X7Y1836D01*
X4820Y1836D02*
X4827Y1836D01*
X0Y1835D02*
X7Y1835D01*
X4820Y1835D02*
X4827Y1835D01*
X0Y1834D02*
X7Y1834D01*
X4820Y1834D02*
X4827Y1834D01*
X0Y1833D02*
X7Y1833D01*
X4820Y1833D02*
X4827Y1833D01*
X0Y1832D02*
X7Y1832D01*
X4820Y1832D02*
X4827Y1832D01*
X0Y1831D02*
X7Y1831D01*
X4820Y1831D02*
X4827Y1831D01*
X0Y1830D02*
X7Y1830D01*
X4820Y1830D02*
X4827Y1830D01*
X0Y1829D02*
X7Y1829D01*
X4820Y1829D02*
X4827Y1829D01*
X0Y1828D02*
X7Y1828D01*
X4820Y1828D02*
X4827Y1828D01*
X0Y1827D02*
X7Y1827D01*
X4820Y1827D02*
X4827Y1827D01*
X0Y1826D02*
X7Y1826D01*
X4820Y1826D02*
X4827Y1826D01*
X0Y1825D02*
X7Y1825D01*
X4820Y1825D02*
X4827Y1825D01*
X0Y1824D02*
X7Y1824D01*
X4820Y1824D02*
X4827Y1824D01*
X0Y1823D02*
X7Y1823D01*
X4820Y1823D02*
X4827Y1823D01*
X0Y1822D02*
X7Y1822D01*
X4820Y1822D02*
X4827Y1822D01*
X0Y1821D02*
X7Y1821D01*
X4820Y1821D02*
X4827Y1821D01*
X0Y1820D02*
X7Y1820D01*
X4820Y1820D02*
X4827Y1820D01*
X0Y1819D02*
X7Y1819D01*
X4820Y1819D02*
X4827Y1819D01*
X0Y1818D02*
X7Y1818D01*
X4820Y1818D02*
X4827Y1818D01*
X0Y1817D02*
X7Y1817D01*
X4820Y1817D02*
X4827Y1817D01*
X0Y1816D02*
X7Y1816D01*
X4820Y1816D02*
X4827Y1816D01*
X0Y1815D02*
X7Y1815D01*
X4820Y1815D02*
X4827Y1815D01*
X0Y1814D02*
X7Y1814D01*
X4820Y1814D02*
X4827Y1814D01*
X0Y1813D02*
X7Y1813D01*
X4820Y1813D02*
X4827Y1813D01*
X0Y1812D02*
X7Y1812D01*
X4820Y1812D02*
X4827Y1812D01*
X0Y1811D02*
X7Y1811D01*
X4820Y1811D02*
X4827Y1811D01*
X0Y1810D02*
X7Y1810D01*
X4820Y1810D02*
X4827Y1810D01*
X0Y1809D02*
X7Y1809D01*
X4820Y1809D02*
X4827Y1809D01*
X0Y1808D02*
X7Y1808D01*
X4820Y1808D02*
X4827Y1808D01*
X0Y1807D02*
X7Y1807D01*
X4820Y1807D02*
X4827Y1807D01*
X0Y1806D02*
X7Y1806D01*
X4820Y1806D02*
X4827Y1806D01*
X0Y1805D02*
X7Y1805D01*
X4820Y1805D02*
X4827Y1805D01*
X0Y1804D02*
X7Y1804D01*
X4820Y1804D02*
X4827Y1804D01*
X0Y1803D02*
X7Y1803D01*
X4820Y1803D02*
X4827Y1803D01*
X0Y1802D02*
X7Y1802D01*
X4820Y1802D02*
X4827Y1802D01*
X0Y1801D02*
X7Y1801D01*
X4820Y1801D02*
X4827Y1801D01*
X0Y1800D02*
X7Y1800D01*
X4820Y1800D02*
X4827Y1800D01*
X0Y1799D02*
X7Y1799D01*
X4820Y1799D02*
X4827Y1799D01*
X0Y1798D02*
X7Y1798D01*
X4820Y1798D02*
X4827Y1798D01*
X0Y1797D02*
X7Y1797D01*
X4820Y1797D02*
X4827Y1797D01*
X0Y1796D02*
X7Y1796D01*
X4820Y1796D02*
X4827Y1796D01*
X0Y1795D02*
X7Y1795D01*
X4820Y1795D02*
X4827Y1795D01*
X0Y1794D02*
X7Y1794D01*
X4820Y1794D02*
X4827Y1794D01*
X0Y1793D02*
X7Y1793D01*
X4820Y1793D02*
X4827Y1793D01*
X0Y1792D02*
X7Y1792D01*
X4820Y1792D02*
X4827Y1792D01*
X0Y1791D02*
X7Y1791D01*
X4820Y1791D02*
X4827Y1791D01*
X0Y1790D02*
X7Y1790D01*
X4820Y1790D02*
X4827Y1790D01*
X0Y1789D02*
X7Y1789D01*
X4820Y1789D02*
X4827Y1789D01*
X0Y1788D02*
X7Y1788D01*
X4820Y1788D02*
X4827Y1788D01*
X0Y1787D02*
X7Y1787D01*
X4820Y1787D02*
X4827Y1787D01*
X0Y1786D02*
X7Y1786D01*
X4820Y1786D02*
X4827Y1786D01*
X0Y1785D02*
X7Y1785D01*
X4820Y1785D02*
X4827Y1785D01*
X0Y1784D02*
X7Y1784D01*
X4820Y1784D02*
X4827Y1784D01*
X0Y1783D02*
X7Y1783D01*
X4820Y1783D02*
X4827Y1783D01*
X0Y1782D02*
X7Y1782D01*
X4820Y1782D02*
X4827Y1782D01*
X0Y1781D02*
X7Y1781D01*
X4820Y1781D02*
X4827Y1781D01*
X0Y1780D02*
X7Y1780D01*
X4820Y1780D02*
X4827Y1780D01*
X0Y1779D02*
X7Y1779D01*
X4820Y1779D02*
X4827Y1779D01*
X0Y1778D02*
X7Y1778D01*
X4820Y1778D02*
X4827Y1778D01*
X0Y1777D02*
X7Y1777D01*
X4820Y1777D02*
X4827Y1777D01*
X0Y1776D02*
X7Y1776D01*
X4820Y1776D02*
X4827Y1776D01*
X0Y1775D02*
X7Y1775D01*
X4820Y1775D02*
X4827Y1775D01*
X0Y1774D02*
X7Y1774D01*
X4820Y1774D02*
X4827Y1774D01*
X0Y1773D02*
X7Y1773D01*
X4820Y1773D02*
X4827Y1773D01*
X0Y1772D02*
X7Y1772D01*
X4820Y1772D02*
X4827Y1772D01*
X0Y1771D02*
X7Y1771D01*
X4820Y1771D02*
X4827Y1771D01*
X0Y1770D02*
X7Y1770D01*
X4820Y1770D02*
X4827Y1770D01*
X0Y1769D02*
X7Y1769D01*
X4820Y1769D02*
X4827Y1769D01*
X0Y1768D02*
X7Y1768D01*
X4820Y1768D02*
X4827Y1768D01*
X0Y1767D02*
X7Y1767D01*
X4820Y1767D02*
X4827Y1767D01*
X0Y1766D02*
X7Y1766D01*
X4820Y1766D02*
X4827Y1766D01*
X0Y1765D02*
X7Y1765D01*
X4820Y1765D02*
X4827Y1765D01*
X0Y1764D02*
X7Y1764D01*
X4820Y1764D02*
X4827Y1764D01*
X0Y1763D02*
X7Y1763D01*
X4820Y1763D02*
X4827Y1763D01*
X0Y1762D02*
X7Y1762D01*
X4820Y1762D02*
X4827Y1762D01*
X0Y1761D02*
X7Y1761D01*
X4820Y1761D02*
X4827Y1761D01*
X0Y1760D02*
X7Y1760D01*
X4820Y1760D02*
X4827Y1760D01*
X0Y1759D02*
X7Y1759D01*
X4820Y1759D02*
X4827Y1759D01*
X0Y1758D02*
X7Y1758D01*
X4820Y1758D02*
X4827Y1758D01*
X0Y1757D02*
X7Y1757D01*
X4820Y1757D02*
X4827Y1757D01*
X0Y1756D02*
X7Y1756D01*
X4820Y1756D02*
X4827Y1756D01*
X0Y1755D02*
X7Y1755D01*
X4820Y1755D02*
X4827Y1755D01*
X0Y1754D02*
X7Y1754D01*
X4820Y1754D02*
X4827Y1754D01*
X0Y1753D02*
X7Y1753D01*
X4820Y1753D02*
X4827Y1753D01*
X0Y1752D02*
X7Y1752D01*
X4820Y1752D02*
X4827Y1752D01*
X0Y1751D02*
X7Y1751D01*
X4820Y1751D02*
X4827Y1751D01*
X0Y1750D02*
X7Y1750D01*
X4820Y1750D02*
X4827Y1750D01*
X0Y1749D02*
X7Y1749D01*
X4820Y1749D02*
X4827Y1749D01*
X0Y1748D02*
X7Y1748D01*
X4820Y1748D02*
X4827Y1748D01*
X0Y1747D02*
X7Y1747D01*
X4820Y1747D02*
X4827Y1747D01*
X0Y1746D02*
X7Y1746D01*
X4820Y1746D02*
X4827Y1746D01*
X0Y1745D02*
X7Y1745D01*
X4820Y1745D02*
X4827Y1745D01*
X0Y1744D02*
X7Y1744D01*
X4820Y1744D02*
X4827Y1744D01*
X0Y1743D02*
X7Y1743D01*
X4820Y1743D02*
X4827Y1743D01*
X0Y1742D02*
X7Y1742D01*
X4820Y1742D02*
X4827Y1742D01*
X0Y1741D02*
X7Y1741D01*
X4820Y1741D02*
X4827Y1741D01*
X0Y1740D02*
X7Y1740D01*
X4820Y1740D02*
X4827Y1740D01*
X0Y1739D02*
X7Y1739D01*
X4820Y1739D02*
X4827Y1739D01*
X0Y1738D02*
X7Y1738D01*
X4820Y1738D02*
X4827Y1738D01*
X0Y1737D02*
X7Y1737D01*
X4820Y1737D02*
X4827Y1737D01*
X0Y1736D02*
X7Y1736D01*
X4820Y1736D02*
X4827Y1736D01*
X0Y1735D02*
X7Y1735D01*
X4820Y1735D02*
X4827Y1735D01*
X0Y1734D02*
X7Y1734D01*
X4820Y1734D02*
X4827Y1734D01*
X0Y1733D02*
X7Y1733D01*
X4820Y1733D02*
X4827Y1733D01*
X0Y1732D02*
X7Y1732D01*
X4820Y1732D02*
X4827Y1732D01*
X0Y1731D02*
X7Y1731D01*
X4820Y1731D02*
X4827Y1731D01*
X0Y1730D02*
X7Y1730D01*
X4820Y1730D02*
X4827Y1730D01*
X0Y1729D02*
X7Y1729D01*
X4820Y1729D02*
X4827Y1729D01*
X0Y1728D02*
X7Y1728D01*
X4820Y1728D02*
X4827Y1728D01*
X0Y1727D02*
X7Y1727D01*
X4820Y1727D02*
X4827Y1727D01*
X0Y1726D02*
X7Y1726D01*
X4820Y1726D02*
X4827Y1726D01*
X0Y1725D02*
X7Y1725D01*
X4820Y1725D02*
X4827Y1725D01*
X0Y1724D02*
X7Y1724D01*
X4820Y1724D02*
X4827Y1724D01*
X0Y1723D02*
X7Y1723D01*
X4820Y1723D02*
X4827Y1723D01*
X0Y1722D02*
X7Y1722D01*
X4820Y1722D02*
X4827Y1722D01*
X0Y1721D02*
X7Y1721D01*
X4820Y1721D02*
X4827Y1721D01*
X0Y1720D02*
X7Y1720D01*
X4820Y1720D02*
X4827Y1720D01*
X0Y1719D02*
X7Y1719D01*
X4820Y1719D02*
X4827Y1719D01*
X0Y1718D02*
X7Y1718D01*
X4820Y1718D02*
X4827Y1718D01*
X0Y1717D02*
X7Y1717D01*
X4820Y1717D02*
X4827Y1717D01*
X0Y1716D02*
X7Y1716D01*
X4820Y1716D02*
X4827Y1716D01*
X0Y1715D02*
X7Y1715D01*
X4820Y1715D02*
X4827Y1715D01*
X0Y1714D02*
X7Y1714D01*
X4820Y1714D02*
X4827Y1714D01*
X0Y1713D02*
X7Y1713D01*
X4820Y1713D02*
X4827Y1713D01*
X0Y1712D02*
X7Y1712D01*
X4820Y1712D02*
X4827Y1712D01*
X0Y1711D02*
X7Y1711D01*
X4820Y1711D02*
X4827Y1711D01*
X0Y1710D02*
X7Y1710D01*
X4820Y1710D02*
X4827Y1710D01*
X0Y1709D02*
X7Y1709D01*
X4820Y1709D02*
X4827Y1709D01*
X0Y1708D02*
X7Y1708D01*
X4820Y1708D02*
X4827Y1708D01*
X0Y1707D02*
X7Y1707D01*
X4820Y1707D02*
X4827Y1707D01*
X0Y1706D02*
X7Y1706D01*
X4820Y1706D02*
X4827Y1706D01*
X0Y1705D02*
X7Y1705D01*
X4820Y1705D02*
X4827Y1705D01*
X0Y1704D02*
X7Y1704D01*
X4820Y1704D02*
X4827Y1704D01*
X0Y1703D02*
X7Y1703D01*
X4820Y1703D02*
X4827Y1703D01*
X0Y1702D02*
X7Y1702D01*
X4820Y1702D02*
X4827Y1702D01*
X0Y1701D02*
X7Y1701D01*
X4820Y1701D02*
X4827Y1701D01*
X0Y1700D02*
X7Y1700D01*
X4820Y1700D02*
X4827Y1700D01*
X0Y1699D02*
X7Y1699D01*
X4820Y1699D02*
X4827Y1699D01*
X0Y1698D02*
X7Y1698D01*
X4820Y1698D02*
X4827Y1698D01*
X0Y1697D02*
X7Y1697D01*
X4820Y1697D02*
X4827Y1697D01*
X0Y1696D02*
X7Y1696D01*
X4820Y1696D02*
X4827Y1696D01*
X0Y1695D02*
X7Y1695D01*
X4820Y1695D02*
X4827Y1695D01*
X0Y1694D02*
X7Y1694D01*
X4820Y1694D02*
X4827Y1694D01*
X0Y1693D02*
X7Y1693D01*
X4820Y1693D02*
X4827Y1693D01*
X0Y1692D02*
X7Y1692D01*
X4820Y1692D02*
X4827Y1692D01*
X0Y1691D02*
X7Y1691D01*
X4820Y1691D02*
X4827Y1691D01*
X0Y1690D02*
X7Y1690D01*
X4820Y1690D02*
X4827Y1690D01*
X0Y1689D02*
X7Y1689D01*
X4820Y1689D02*
X4827Y1689D01*
X0Y1688D02*
X7Y1688D01*
X4820Y1688D02*
X4827Y1688D01*
X0Y1687D02*
X7Y1687D01*
X4820Y1687D02*
X4827Y1687D01*
X0Y1686D02*
X7Y1686D01*
X4820Y1686D02*
X4827Y1686D01*
X0Y1685D02*
X7Y1685D01*
X4820Y1685D02*
X4827Y1685D01*
X0Y1684D02*
X7Y1684D01*
X4820Y1684D02*
X4827Y1684D01*
X0Y1683D02*
X7Y1683D01*
X4820Y1683D02*
X4827Y1683D01*
X0Y1682D02*
X7Y1682D01*
X4820Y1682D02*
X4827Y1682D01*
X0Y1681D02*
X7Y1681D01*
X4820Y1681D02*
X4827Y1681D01*
X0Y1680D02*
X7Y1680D01*
X4820Y1680D02*
X4827Y1680D01*
X0Y1679D02*
X7Y1679D01*
X4820Y1679D02*
X4827Y1679D01*
X0Y1678D02*
X7Y1678D01*
X4820Y1678D02*
X4827Y1678D01*
X0Y1677D02*
X7Y1677D01*
X4820Y1677D02*
X4827Y1677D01*
X0Y1676D02*
X7Y1676D01*
X4820Y1676D02*
X4827Y1676D01*
X0Y1675D02*
X7Y1675D01*
X4820Y1675D02*
X4827Y1675D01*
X0Y1674D02*
X7Y1674D01*
X4820Y1674D02*
X4827Y1674D01*
X0Y1673D02*
X7Y1673D01*
X4820Y1673D02*
X4827Y1673D01*
X0Y1672D02*
X7Y1672D01*
X4820Y1672D02*
X4827Y1672D01*
X0Y1671D02*
X7Y1671D01*
X4820Y1671D02*
X4827Y1671D01*
X0Y1670D02*
X7Y1670D01*
X4820Y1670D02*
X4827Y1670D01*
X0Y1669D02*
X7Y1669D01*
X4820Y1669D02*
X4827Y1669D01*
X0Y1668D02*
X7Y1668D01*
X4820Y1668D02*
X4827Y1668D01*
X0Y1667D02*
X7Y1667D01*
X4820Y1667D02*
X4827Y1667D01*
X0Y1666D02*
X7Y1666D01*
X4820Y1666D02*
X4827Y1666D01*
X0Y1665D02*
X7Y1665D01*
X4820Y1665D02*
X4827Y1665D01*
X0Y1664D02*
X7Y1664D01*
X4820Y1664D02*
X4827Y1664D01*
X0Y1663D02*
X7Y1663D01*
X4820Y1663D02*
X4827Y1663D01*
X0Y1662D02*
X7Y1662D01*
X4820Y1662D02*
X4827Y1662D01*
X0Y1661D02*
X7Y1661D01*
X4820Y1661D02*
X4827Y1661D01*
X0Y1660D02*
X7Y1660D01*
X4820Y1660D02*
X4827Y1660D01*
X0Y1659D02*
X7Y1659D01*
X4820Y1659D02*
X4827Y1659D01*
X0Y1658D02*
X7Y1658D01*
X4820Y1658D02*
X4827Y1658D01*
X0Y1657D02*
X7Y1657D01*
X4820Y1657D02*
X4827Y1657D01*
X0Y1656D02*
X7Y1656D01*
X4820Y1656D02*
X4827Y1656D01*
X0Y1655D02*
X7Y1655D01*
X4820Y1655D02*
X4827Y1655D01*
X0Y1654D02*
X7Y1654D01*
X4820Y1654D02*
X4827Y1654D01*
X0Y1653D02*
X7Y1653D01*
X4820Y1653D02*
X4827Y1653D01*
X0Y1652D02*
X7Y1652D01*
X4820Y1652D02*
X4827Y1652D01*
X0Y1651D02*
X7Y1651D01*
X4820Y1651D02*
X4827Y1651D01*
X0Y1650D02*
X7Y1650D01*
X4820Y1650D02*
X4827Y1650D01*
X0Y1649D02*
X7Y1649D01*
X4820Y1649D02*
X4827Y1649D01*
X0Y1648D02*
X7Y1648D01*
X4820Y1648D02*
X4827Y1648D01*
X0Y1647D02*
X7Y1647D01*
X4820Y1647D02*
X4827Y1647D01*
X0Y1646D02*
X7Y1646D01*
X4820Y1646D02*
X4827Y1646D01*
X0Y1645D02*
X7Y1645D01*
X4820Y1645D02*
X4827Y1645D01*
X0Y1644D02*
X7Y1644D01*
X4820Y1644D02*
X4827Y1644D01*
X0Y1643D02*
X7Y1643D01*
X4820Y1643D02*
X4827Y1643D01*
X0Y1642D02*
X7Y1642D01*
X4820Y1642D02*
X4827Y1642D01*
X0Y1641D02*
X7Y1641D01*
X4820Y1641D02*
X4827Y1641D01*
X0Y1640D02*
X7Y1640D01*
X4820Y1640D02*
X4827Y1640D01*
X0Y1639D02*
X7Y1639D01*
X4820Y1639D02*
X4827Y1639D01*
X0Y1638D02*
X7Y1638D01*
X4820Y1638D02*
X4827Y1638D01*
X0Y1637D02*
X7Y1637D01*
X4820Y1637D02*
X4827Y1637D01*
X0Y1636D02*
X7Y1636D01*
X4820Y1636D02*
X4827Y1636D01*
X0Y1635D02*
X7Y1635D01*
X4820Y1635D02*
X4827Y1635D01*
X0Y1634D02*
X7Y1634D01*
X4820Y1634D02*
X4827Y1634D01*
X0Y1633D02*
X7Y1633D01*
X4820Y1633D02*
X4827Y1633D01*
X0Y1632D02*
X7Y1632D01*
X4820Y1632D02*
X4827Y1632D01*
X0Y1631D02*
X7Y1631D01*
X4820Y1631D02*
X4827Y1631D01*
X0Y1630D02*
X7Y1630D01*
X4820Y1630D02*
X4827Y1630D01*
X0Y1629D02*
X7Y1629D01*
X4820Y1629D02*
X4827Y1629D01*
X0Y1628D02*
X7Y1628D01*
X4820Y1628D02*
X4827Y1628D01*
X0Y1627D02*
X7Y1627D01*
X4820Y1627D02*
X4827Y1627D01*
X0Y1626D02*
X7Y1626D01*
X4820Y1626D02*
X4827Y1626D01*
X0Y1625D02*
X7Y1625D01*
X4820Y1625D02*
X4827Y1625D01*
X0Y1624D02*
X7Y1624D01*
X4820Y1624D02*
X4827Y1624D01*
X0Y1623D02*
X7Y1623D01*
X4820Y1623D02*
X4827Y1623D01*
X0Y1622D02*
X7Y1622D01*
X4820Y1622D02*
X4827Y1622D01*
X0Y1621D02*
X7Y1621D01*
X4820Y1621D02*
X4827Y1621D01*
X0Y1620D02*
X7Y1620D01*
X4820Y1620D02*
X4827Y1620D01*
X0Y1619D02*
X7Y1619D01*
X4820Y1619D02*
X4827Y1619D01*
X0Y1618D02*
X7Y1618D01*
X4820Y1618D02*
X4827Y1618D01*
X0Y1617D02*
X7Y1617D01*
X4820Y1617D02*
X4827Y1617D01*
X0Y1616D02*
X7Y1616D01*
X4820Y1616D02*
X4827Y1616D01*
X0Y1615D02*
X7Y1615D01*
X4820Y1615D02*
X4827Y1615D01*
X0Y1614D02*
X7Y1614D01*
X4820Y1614D02*
X4827Y1614D01*
X0Y1613D02*
X7Y1613D01*
X4820Y1613D02*
X4827Y1613D01*
X0Y1612D02*
X7Y1612D01*
X4820Y1612D02*
X4827Y1612D01*
X0Y1611D02*
X7Y1611D01*
X4820Y1611D02*
X4827Y1611D01*
X0Y1610D02*
X7Y1610D01*
X4820Y1610D02*
X4827Y1610D01*
X0Y1609D02*
X7Y1609D01*
X4820Y1609D02*
X4827Y1609D01*
X0Y1608D02*
X7Y1608D01*
X4820Y1608D02*
X4827Y1608D01*
X0Y1607D02*
X7Y1607D01*
X4820Y1607D02*
X4827Y1607D01*
X0Y1606D02*
X7Y1606D01*
X4820Y1606D02*
X4827Y1606D01*
X0Y1605D02*
X7Y1605D01*
X4820Y1605D02*
X4827Y1605D01*
X0Y1604D02*
X7Y1604D01*
X4820Y1604D02*
X4827Y1604D01*
X0Y1603D02*
X7Y1603D01*
X4820Y1603D02*
X4827Y1603D01*
X0Y1602D02*
X7Y1602D01*
X4820Y1602D02*
X4827Y1602D01*
X0Y1601D02*
X7Y1601D01*
X4820Y1601D02*
X4827Y1601D01*
X0Y1600D02*
X7Y1600D01*
X4820Y1600D02*
X4827Y1600D01*
X0Y1599D02*
X7Y1599D01*
X4820Y1599D02*
X4827Y1599D01*
X0Y1598D02*
X7Y1598D01*
X4820Y1598D02*
X4827Y1598D01*
X0Y1597D02*
X7Y1597D01*
X4820Y1597D02*
X4827Y1597D01*
X0Y1596D02*
X7Y1596D01*
X4820Y1596D02*
X4827Y1596D01*
X0Y1595D02*
X7Y1595D01*
X4820Y1595D02*
X4827Y1595D01*
X0Y1594D02*
X7Y1594D01*
X4820Y1594D02*
X4827Y1594D01*
X0Y1593D02*
X7Y1593D01*
X4820Y1593D02*
X4827Y1593D01*
X0Y1592D02*
X7Y1592D01*
X4820Y1592D02*
X4827Y1592D01*
X0Y1591D02*
X7Y1591D01*
X4820Y1591D02*
X4827Y1591D01*
X0Y1590D02*
X7Y1590D01*
X4820Y1590D02*
X4827Y1590D01*
X0Y1589D02*
X7Y1589D01*
X4820Y1589D02*
X4827Y1589D01*
X0Y1588D02*
X7Y1588D01*
X4820Y1588D02*
X4827Y1588D01*
X0Y1587D02*
X7Y1587D01*
X4820Y1587D02*
X4827Y1587D01*
X0Y1586D02*
X7Y1586D01*
X4820Y1586D02*
X4827Y1586D01*
X0Y1585D02*
X7Y1585D01*
X4820Y1585D02*
X4827Y1585D01*
X0Y1584D02*
X7Y1584D01*
X4820Y1584D02*
X4827Y1584D01*
X0Y1583D02*
X7Y1583D01*
X4820Y1583D02*
X4827Y1583D01*
X0Y1582D02*
X7Y1582D01*
X4820Y1582D02*
X4827Y1582D01*
X0Y1581D02*
X7Y1581D01*
X4820Y1581D02*
X4827Y1581D01*
X0Y1580D02*
X7Y1580D01*
X4820Y1580D02*
X4827Y1580D01*
X0Y1579D02*
X7Y1579D01*
X4820Y1579D02*
X4827Y1579D01*
X0Y1578D02*
X7Y1578D01*
X4820Y1578D02*
X4827Y1578D01*
X0Y1577D02*
X7Y1577D01*
X4820Y1577D02*
X4827Y1577D01*
X0Y1576D02*
X7Y1576D01*
X4820Y1576D02*
X4827Y1576D01*
X0Y1575D02*
X7Y1575D01*
X4820Y1575D02*
X4827Y1575D01*
X0Y1574D02*
X7Y1574D01*
X4820Y1574D02*
X4827Y1574D01*
X0Y1573D02*
X7Y1573D01*
X4820Y1573D02*
X4827Y1573D01*
X0Y1572D02*
X7Y1572D01*
X4820Y1572D02*
X4827Y1572D01*
X0Y1571D02*
X7Y1571D01*
X4820Y1571D02*
X4827Y1571D01*
X0Y1570D02*
X7Y1570D01*
X4820Y1570D02*
X4827Y1570D01*
X0Y1569D02*
X7Y1569D01*
X4820Y1569D02*
X4827Y1569D01*
X0Y1568D02*
X7Y1568D01*
X4820Y1568D02*
X4827Y1568D01*
X0Y1567D02*
X7Y1567D01*
X4820Y1567D02*
X4827Y1567D01*
X0Y1566D02*
X7Y1566D01*
X4820Y1566D02*
X4827Y1566D01*
X0Y1565D02*
X7Y1565D01*
X4820Y1565D02*
X4827Y1565D01*
X0Y1564D02*
X7Y1564D01*
X4820Y1564D02*
X4827Y1564D01*
X0Y1563D02*
X7Y1563D01*
X4820Y1563D02*
X4827Y1563D01*
X0Y1562D02*
X7Y1562D01*
X4820Y1562D02*
X4827Y1562D01*
X0Y1561D02*
X7Y1561D01*
X4820Y1561D02*
X4827Y1561D01*
X0Y1560D02*
X7Y1560D01*
X4820Y1560D02*
X4827Y1560D01*
X0Y1559D02*
X7Y1559D01*
X4820Y1559D02*
X4827Y1559D01*
X0Y1558D02*
X7Y1558D01*
X4820Y1558D02*
X4827Y1558D01*
X0Y1557D02*
X7Y1557D01*
X4820Y1557D02*
X4827Y1557D01*
X0Y1556D02*
X7Y1556D01*
X4820Y1556D02*
X4827Y1556D01*
X0Y1555D02*
X7Y1555D01*
X4820Y1555D02*
X4827Y1555D01*
X0Y1554D02*
X7Y1554D01*
X4820Y1554D02*
X4827Y1554D01*
X0Y1553D02*
X7Y1553D01*
X4820Y1553D02*
X4827Y1553D01*
X0Y1552D02*
X7Y1552D01*
X4820Y1552D02*
X4827Y1552D01*
X0Y1551D02*
X7Y1551D01*
X4820Y1551D02*
X4827Y1551D01*
X0Y1550D02*
X7Y1550D01*
X4820Y1550D02*
X4827Y1550D01*
X0Y1549D02*
X7Y1549D01*
X4820Y1549D02*
X4827Y1549D01*
X0Y1548D02*
X7Y1548D01*
X4820Y1548D02*
X4827Y1548D01*
X0Y1547D02*
X7Y1547D01*
X4820Y1547D02*
X4827Y1547D01*
X0Y1546D02*
X7Y1546D01*
X4820Y1546D02*
X4827Y1546D01*
X0Y1545D02*
X7Y1545D01*
X4820Y1545D02*
X4827Y1545D01*
X0Y1544D02*
X7Y1544D01*
X4820Y1544D02*
X4827Y1544D01*
X0Y1543D02*
X7Y1543D01*
X4820Y1543D02*
X4827Y1543D01*
X0Y1542D02*
X7Y1542D01*
X4820Y1542D02*
X4827Y1542D01*
X0Y1541D02*
X7Y1541D01*
X4820Y1541D02*
X4827Y1541D01*
X0Y1540D02*
X7Y1540D01*
X4820Y1540D02*
X4827Y1540D01*
X0Y1539D02*
X7Y1539D01*
X4820Y1539D02*
X4827Y1539D01*
X0Y1538D02*
X7Y1538D01*
X4820Y1538D02*
X4827Y1538D01*
X0Y1537D02*
X7Y1537D01*
X4820Y1537D02*
X4827Y1537D01*
X0Y1536D02*
X7Y1536D01*
X4820Y1536D02*
X4827Y1536D01*
X0Y1535D02*
X7Y1535D01*
X4820Y1535D02*
X4827Y1535D01*
X0Y1534D02*
X7Y1534D01*
X4820Y1534D02*
X4827Y1534D01*
X0Y1533D02*
X7Y1533D01*
X4820Y1533D02*
X4827Y1533D01*
X0Y1532D02*
X7Y1532D01*
X4820Y1532D02*
X4827Y1532D01*
X0Y1531D02*
X7Y1531D01*
X4820Y1531D02*
X4827Y1531D01*
X0Y1530D02*
X7Y1530D01*
X4820Y1530D02*
X4827Y1530D01*
X0Y1529D02*
X7Y1529D01*
X4820Y1529D02*
X4827Y1529D01*
X0Y1528D02*
X7Y1528D01*
X4820Y1528D02*
X4827Y1528D01*
X0Y1527D02*
X7Y1527D01*
X4820Y1527D02*
X4827Y1527D01*
X0Y1526D02*
X7Y1526D01*
X4820Y1526D02*
X4827Y1526D01*
X0Y1525D02*
X7Y1525D01*
X4820Y1525D02*
X4827Y1525D01*
X0Y1524D02*
X7Y1524D01*
X4820Y1524D02*
X4827Y1524D01*
X0Y1523D02*
X7Y1523D01*
X4820Y1523D02*
X4827Y1523D01*
X0Y1522D02*
X7Y1522D01*
X4820Y1522D02*
X4827Y1522D01*
X0Y1521D02*
X7Y1521D01*
X4820Y1521D02*
X4827Y1521D01*
X0Y1520D02*
X7Y1520D01*
X4820Y1520D02*
X4827Y1520D01*
X0Y1519D02*
X7Y1519D01*
X4820Y1519D02*
X4827Y1519D01*
X0Y1518D02*
X7Y1518D01*
X4820Y1518D02*
X4827Y1518D01*
X0Y1517D02*
X7Y1517D01*
X4820Y1517D02*
X4827Y1517D01*
X0Y1516D02*
X7Y1516D01*
X4820Y1516D02*
X4827Y1516D01*
X0Y1515D02*
X7Y1515D01*
X4820Y1515D02*
X4827Y1515D01*
X0Y1514D02*
X7Y1514D01*
X4820Y1514D02*
X4827Y1514D01*
X0Y1513D02*
X7Y1513D01*
X4820Y1513D02*
X4827Y1513D01*
X0Y1512D02*
X7Y1512D01*
X4820Y1512D02*
X4827Y1512D01*
X0Y1511D02*
X7Y1511D01*
X4820Y1511D02*
X4827Y1511D01*
X0Y1510D02*
X7Y1510D01*
X4820Y1510D02*
X4827Y1510D01*
X0Y1509D02*
X7Y1509D01*
X4820Y1509D02*
X4827Y1509D01*
X0Y1508D02*
X7Y1508D01*
X4820Y1508D02*
X4827Y1508D01*
X0Y1507D02*
X7Y1507D01*
X4820Y1507D02*
X4827Y1507D01*
X0Y1506D02*
X7Y1506D01*
X4820Y1506D02*
X4827Y1506D01*
X0Y1505D02*
X7Y1505D01*
X4820Y1505D02*
X4827Y1505D01*
X0Y1504D02*
X7Y1504D01*
X4820Y1504D02*
X4827Y1504D01*
X0Y1503D02*
X7Y1503D01*
X4820Y1503D02*
X4827Y1503D01*
X0Y1502D02*
X7Y1502D01*
X4820Y1502D02*
X4827Y1502D01*
X0Y1501D02*
X7Y1501D01*
X4820Y1501D02*
X4827Y1501D01*
X0Y1500D02*
X7Y1500D01*
X4820Y1500D02*
X4827Y1500D01*
X0Y1499D02*
X7Y1499D01*
X4820Y1499D02*
X4827Y1499D01*
X0Y1498D02*
X7Y1498D01*
X4820Y1498D02*
X4827Y1498D01*
X0Y1497D02*
X7Y1497D01*
X4820Y1497D02*
X4827Y1497D01*
X0Y1496D02*
X7Y1496D01*
X4820Y1496D02*
X4827Y1496D01*
X0Y1495D02*
X7Y1495D01*
X4820Y1495D02*
X4827Y1495D01*
X0Y1494D02*
X7Y1494D01*
X4820Y1494D02*
X4827Y1494D01*
X0Y1493D02*
X7Y1493D01*
X4820Y1493D02*
X4827Y1493D01*
X0Y1492D02*
X7Y1492D01*
X4820Y1492D02*
X4827Y1492D01*
X0Y1491D02*
X7Y1491D01*
X4820Y1491D02*
X4827Y1491D01*
X0Y1490D02*
X7Y1490D01*
X4820Y1490D02*
X4827Y1490D01*
X0Y1489D02*
X7Y1489D01*
X4820Y1489D02*
X4827Y1489D01*
X0Y1488D02*
X7Y1488D01*
X4820Y1488D02*
X4827Y1488D01*
X0Y1487D02*
X7Y1487D01*
X4820Y1487D02*
X4827Y1487D01*
X0Y1486D02*
X7Y1486D01*
X4820Y1486D02*
X4827Y1486D01*
X0Y1485D02*
X7Y1485D01*
X4820Y1485D02*
X4827Y1485D01*
X0Y1484D02*
X7Y1484D01*
X4820Y1484D02*
X4827Y1484D01*
X0Y1483D02*
X7Y1483D01*
X4820Y1483D02*
X4827Y1483D01*
X0Y1482D02*
X7Y1482D01*
X4820Y1482D02*
X4827Y1482D01*
X0Y1481D02*
X7Y1481D01*
X4820Y1481D02*
X4827Y1481D01*
X0Y1480D02*
X7Y1480D01*
X4820Y1480D02*
X4827Y1480D01*
X0Y1479D02*
X7Y1479D01*
X4820Y1479D02*
X4827Y1479D01*
X0Y1478D02*
X7Y1478D01*
X4820Y1478D02*
X4827Y1478D01*
X0Y1477D02*
X7Y1477D01*
X4820Y1477D02*
X4827Y1477D01*
X0Y1476D02*
X7Y1476D01*
X4820Y1476D02*
X4827Y1476D01*
X0Y1475D02*
X7Y1475D01*
X4820Y1475D02*
X4827Y1475D01*
X0Y1474D02*
X7Y1474D01*
X4820Y1474D02*
X4827Y1474D01*
X0Y1473D02*
X7Y1473D01*
X4820Y1473D02*
X4827Y1473D01*
X0Y1472D02*
X7Y1472D01*
X4820Y1472D02*
X4827Y1472D01*
X0Y1471D02*
X7Y1471D01*
X4820Y1471D02*
X4827Y1471D01*
X0Y1470D02*
X7Y1470D01*
X4820Y1470D02*
X4827Y1470D01*
X0Y1469D02*
X7Y1469D01*
X4820Y1469D02*
X4827Y1469D01*
X0Y1468D02*
X7Y1468D01*
X4820Y1468D02*
X4827Y1468D01*
X0Y1467D02*
X7Y1467D01*
X4820Y1467D02*
X4827Y1467D01*
X0Y1466D02*
X7Y1466D01*
X4820Y1466D02*
X4827Y1466D01*
X0Y1465D02*
X7Y1465D01*
X4820Y1465D02*
X4827Y1465D01*
X0Y1464D02*
X7Y1464D01*
X4820Y1464D02*
X4827Y1464D01*
X0Y1463D02*
X7Y1463D01*
X4820Y1463D02*
X4827Y1463D01*
X0Y1462D02*
X7Y1462D01*
X4820Y1462D02*
X4827Y1462D01*
X0Y1461D02*
X7Y1461D01*
X4820Y1461D02*
X4827Y1461D01*
X0Y1460D02*
X7Y1460D01*
X4820Y1460D02*
X4827Y1460D01*
X0Y1459D02*
X7Y1459D01*
X4820Y1459D02*
X4827Y1459D01*
X0Y1458D02*
X7Y1458D01*
X4820Y1458D02*
X4827Y1458D01*
X0Y1457D02*
X7Y1457D01*
X4820Y1457D02*
X4827Y1457D01*
X0Y1456D02*
X7Y1456D01*
X4820Y1456D02*
X4827Y1456D01*
X0Y1455D02*
X7Y1455D01*
X4820Y1455D02*
X4827Y1455D01*
X0Y1454D02*
X7Y1454D01*
X4820Y1454D02*
X4827Y1454D01*
X0Y1453D02*
X7Y1453D01*
X4820Y1453D02*
X4827Y1453D01*
X0Y1452D02*
X7Y1452D01*
X4820Y1452D02*
X4827Y1452D01*
X0Y1451D02*
X7Y1451D01*
X4820Y1451D02*
X4827Y1451D01*
X0Y1450D02*
X7Y1450D01*
X4820Y1450D02*
X4827Y1450D01*
X0Y1449D02*
X7Y1449D01*
X4820Y1449D02*
X4827Y1449D01*
X0Y1448D02*
X7Y1448D01*
X4820Y1448D02*
X4827Y1448D01*
X0Y1447D02*
X7Y1447D01*
X4820Y1447D02*
X4827Y1447D01*
X0Y1446D02*
X7Y1446D01*
X4820Y1446D02*
X4827Y1446D01*
X0Y1445D02*
X7Y1445D01*
X4820Y1445D02*
X4827Y1445D01*
X0Y1444D02*
X7Y1444D01*
X4820Y1444D02*
X4827Y1444D01*
X0Y1443D02*
X7Y1443D01*
X4820Y1443D02*
X4827Y1443D01*
X0Y1442D02*
X7Y1442D01*
X4820Y1442D02*
X4827Y1442D01*
X0Y1441D02*
X7Y1441D01*
X4820Y1441D02*
X4827Y1441D01*
X0Y1440D02*
X7Y1440D01*
X4820Y1440D02*
X4827Y1440D01*
X0Y1439D02*
X7Y1439D01*
X4820Y1439D02*
X4827Y1439D01*
X0Y1438D02*
X7Y1438D01*
X4820Y1438D02*
X4827Y1438D01*
X0Y1437D02*
X7Y1437D01*
X4820Y1437D02*
X4827Y1437D01*
X0Y1436D02*
X7Y1436D01*
X4820Y1436D02*
X4827Y1436D01*
X0Y1435D02*
X7Y1435D01*
X4820Y1435D02*
X4827Y1435D01*
X0Y1434D02*
X7Y1434D01*
X4820Y1434D02*
X4827Y1434D01*
X0Y1433D02*
X7Y1433D01*
X4820Y1433D02*
X4827Y1433D01*
X0Y1432D02*
X7Y1432D01*
X4820Y1432D02*
X4827Y1432D01*
X0Y1431D02*
X7Y1431D01*
X4820Y1431D02*
X4827Y1431D01*
X0Y1430D02*
X7Y1430D01*
X4820Y1430D02*
X4827Y1430D01*
X0Y1429D02*
X7Y1429D01*
X4820Y1429D02*
X4827Y1429D01*
X0Y1428D02*
X7Y1428D01*
X4820Y1428D02*
X4827Y1428D01*
X0Y1427D02*
X7Y1427D01*
X4820Y1427D02*
X4827Y1427D01*
X0Y1426D02*
X7Y1426D01*
X4820Y1426D02*
X4827Y1426D01*
X0Y1425D02*
X7Y1425D01*
X4820Y1425D02*
X4827Y1425D01*
X0Y1424D02*
X7Y1424D01*
X4820Y1424D02*
X4827Y1424D01*
X0Y1423D02*
X7Y1423D01*
X4820Y1423D02*
X4827Y1423D01*
X0Y1422D02*
X7Y1422D01*
X4820Y1422D02*
X4827Y1422D01*
X0Y1421D02*
X7Y1421D01*
X4820Y1421D02*
X4827Y1421D01*
X0Y1420D02*
X7Y1420D01*
X4820Y1420D02*
X4827Y1420D01*
X0Y1419D02*
X7Y1419D01*
X4820Y1419D02*
X4827Y1419D01*
X0Y1418D02*
X7Y1418D01*
X4820Y1418D02*
X4827Y1418D01*
X0Y1417D02*
X7Y1417D01*
X4820Y1417D02*
X4827Y1417D01*
X0Y1416D02*
X7Y1416D01*
X4820Y1416D02*
X4827Y1416D01*
X0Y1415D02*
X7Y1415D01*
X4820Y1415D02*
X4827Y1415D01*
X0Y1414D02*
X7Y1414D01*
X4820Y1414D02*
X4827Y1414D01*
X0Y1413D02*
X7Y1413D01*
X4820Y1413D02*
X4827Y1413D01*
X0Y1412D02*
X7Y1412D01*
X4820Y1412D02*
X4827Y1412D01*
X0Y1411D02*
X7Y1411D01*
X4820Y1411D02*
X4827Y1411D01*
X0Y1410D02*
X7Y1410D01*
X4820Y1410D02*
X4827Y1410D01*
X0Y1409D02*
X7Y1409D01*
X4820Y1409D02*
X4827Y1409D01*
X0Y1408D02*
X7Y1408D01*
X4820Y1408D02*
X4827Y1408D01*
X0Y1407D02*
X7Y1407D01*
X4820Y1407D02*
X4827Y1407D01*
X0Y1406D02*
X7Y1406D01*
X4820Y1406D02*
X4827Y1406D01*
X0Y1405D02*
X7Y1405D01*
X4820Y1405D02*
X4827Y1405D01*
X0Y1404D02*
X7Y1404D01*
X4820Y1404D02*
X4827Y1404D01*
X0Y1403D02*
X7Y1403D01*
X4820Y1403D02*
X4827Y1403D01*
X0Y1402D02*
X7Y1402D01*
X4820Y1402D02*
X4827Y1402D01*
X0Y1401D02*
X7Y1401D01*
X4820Y1401D02*
X4827Y1401D01*
X0Y1400D02*
X7Y1400D01*
X4820Y1400D02*
X4827Y1400D01*
X0Y1399D02*
X7Y1399D01*
X4820Y1399D02*
X4827Y1399D01*
X0Y1398D02*
X7Y1398D01*
X4820Y1398D02*
X4827Y1398D01*
X0Y1397D02*
X7Y1397D01*
X4820Y1397D02*
X4827Y1397D01*
X0Y1396D02*
X7Y1396D01*
X4820Y1396D02*
X4827Y1396D01*
X0Y1395D02*
X7Y1395D01*
X4820Y1395D02*
X4827Y1395D01*
X0Y1394D02*
X7Y1394D01*
X4820Y1394D02*
X4827Y1394D01*
X0Y1393D02*
X7Y1393D01*
X4820Y1393D02*
X4827Y1393D01*
X0Y1392D02*
X7Y1392D01*
X4820Y1392D02*
X4827Y1392D01*
X0Y1391D02*
X7Y1391D01*
X4820Y1391D02*
X4827Y1391D01*
X0Y1390D02*
X7Y1390D01*
X4820Y1390D02*
X4827Y1390D01*
X0Y1389D02*
X7Y1389D01*
X4820Y1389D02*
X4827Y1389D01*
X0Y1388D02*
X7Y1388D01*
X4820Y1388D02*
X4827Y1388D01*
X0Y1387D02*
X7Y1387D01*
X4820Y1387D02*
X4827Y1387D01*
X0Y1386D02*
X7Y1386D01*
X4820Y1386D02*
X4827Y1386D01*
X0Y1385D02*
X7Y1385D01*
X4820Y1385D02*
X4827Y1385D01*
X0Y1384D02*
X7Y1384D01*
X4820Y1384D02*
X4827Y1384D01*
X0Y1383D02*
X7Y1383D01*
X4820Y1383D02*
X4827Y1383D01*
X0Y1382D02*
X7Y1382D01*
X4820Y1382D02*
X4827Y1382D01*
X0Y1381D02*
X7Y1381D01*
X4820Y1381D02*
X4827Y1381D01*
X0Y1380D02*
X7Y1380D01*
X4820Y1380D02*
X4827Y1380D01*
X0Y1379D02*
X7Y1379D01*
X4820Y1379D02*
X4827Y1379D01*
X0Y1378D02*
X7Y1378D01*
X4820Y1378D02*
X4827Y1378D01*
X0Y1377D02*
X7Y1377D01*
X4820Y1377D02*
X4827Y1377D01*
X0Y1376D02*
X7Y1376D01*
X4820Y1376D02*
X4827Y1376D01*
X0Y1375D02*
X7Y1375D01*
X4820Y1375D02*
X4827Y1375D01*
X0Y1374D02*
X7Y1374D01*
X4820Y1374D02*
X4827Y1374D01*
X0Y1373D02*
X7Y1373D01*
X4820Y1373D02*
X4827Y1373D01*
X0Y1372D02*
X7Y1372D01*
X4820Y1372D02*
X4827Y1372D01*
X0Y1371D02*
X7Y1371D01*
X4820Y1371D02*
X4827Y1371D01*
X0Y1370D02*
X7Y1370D01*
X4820Y1370D02*
X4827Y1370D01*
X0Y1369D02*
X7Y1369D01*
X4820Y1369D02*
X4827Y1369D01*
X0Y1368D02*
X7Y1368D01*
X4820Y1368D02*
X4827Y1368D01*
X0Y1367D02*
X7Y1367D01*
X4820Y1367D02*
X4827Y1367D01*
X0Y1366D02*
X7Y1366D01*
X4820Y1366D02*
X4827Y1366D01*
X0Y1365D02*
X7Y1365D01*
X4820Y1365D02*
X4827Y1365D01*
X0Y1364D02*
X7Y1364D01*
X4820Y1364D02*
X4827Y1364D01*
X0Y1363D02*
X7Y1363D01*
X4820Y1363D02*
X4827Y1363D01*
X0Y1362D02*
X7Y1362D01*
X4820Y1362D02*
X4827Y1362D01*
X0Y1361D02*
X7Y1361D01*
X4820Y1361D02*
X4827Y1361D01*
X0Y1360D02*
X7Y1360D01*
X4820Y1360D02*
X4827Y1360D01*
X0Y1359D02*
X7Y1359D01*
X4820Y1359D02*
X4827Y1359D01*
X0Y1358D02*
X7Y1358D01*
X4820Y1358D02*
X4827Y1358D01*
X0Y1357D02*
X7Y1357D01*
X4820Y1357D02*
X4827Y1357D01*
X0Y1356D02*
X7Y1356D01*
X4820Y1356D02*
X4827Y1356D01*
X0Y1355D02*
X7Y1355D01*
X4820Y1355D02*
X4827Y1355D01*
X0Y1354D02*
X7Y1354D01*
X4820Y1354D02*
X4827Y1354D01*
X0Y1353D02*
X7Y1353D01*
X4820Y1353D02*
X4827Y1353D01*
X0Y1352D02*
X7Y1352D01*
X4820Y1352D02*
X4827Y1352D01*
X0Y1351D02*
X7Y1351D01*
X4820Y1351D02*
X4827Y1351D01*
X0Y1350D02*
X7Y1350D01*
X4820Y1350D02*
X4827Y1350D01*
X0Y1349D02*
X7Y1349D01*
X4820Y1349D02*
X4827Y1349D01*
X0Y1348D02*
X7Y1348D01*
X4820Y1348D02*
X4827Y1348D01*
X0Y1347D02*
X7Y1347D01*
X4820Y1347D02*
X4827Y1347D01*
X0Y1346D02*
X7Y1346D01*
X4820Y1346D02*
X4827Y1346D01*
X0Y1345D02*
X7Y1345D01*
X4820Y1345D02*
X4827Y1345D01*
X0Y1344D02*
X7Y1344D01*
X4820Y1344D02*
X4827Y1344D01*
X0Y1343D02*
X7Y1343D01*
X4820Y1343D02*
X4827Y1343D01*
X0Y1342D02*
X7Y1342D01*
X4820Y1342D02*
X4827Y1342D01*
X0Y1341D02*
X7Y1341D01*
X4820Y1341D02*
X4827Y1341D01*
X0Y1340D02*
X7Y1340D01*
X4820Y1340D02*
X4827Y1340D01*
X0Y1339D02*
X7Y1339D01*
X4820Y1339D02*
X4827Y1339D01*
X0Y1338D02*
X7Y1338D01*
X4820Y1338D02*
X4827Y1338D01*
X0Y1337D02*
X7Y1337D01*
X4820Y1337D02*
X4827Y1337D01*
X0Y1336D02*
X7Y1336D01*
X4820Y1336D02*
X4827Y1336D01*
X0Y1335D02*
X7Y1335D01*
X4820Y1335D02*
X4827Y1335D01*
X0Y1334D02*
X7Y1334D01*
X4820Y1334D02*
X4827Y1334D01*
X0Y1333D02*
X7Y1333D01*
X4820Y1333D02*
X4827Y1333D01*
X0Y1332D02*
X7Y1332D01*
X4820Y1332D02*
X4827Y1332D01*
X0Y1331D02*
X7Y1331D01*
X4820Y1331D02*
X4827Y1331D01*
X0Y1330D02*
X7Y1330D01*
X4820Y1330D02*
X4827Y1330D01*
X0Y1329D02*
X7Y1329D01*
X4820Y1329D02*
X4827Y1329D01*
X0Y1328D02*
X7Y1328D01*
X4820Y1328D02*
X4827Y1328D01*
X0Y1327D02*
X7Y1327D01*
X4820Y1327D02*
X4827Y1327D01*
X0Y1326D02*
X7Y1326D01*
X4820Y1326D02*
X4827Y1326D01*
X0Y1325D02*
X7Y1325D01*
X4820Y1325D02*
X4827Y1325D01*
X0Y1324D02*
X7Y1324D01*
X4820Y1324D02*
X4827Y1324D01*
X0Y1323D02*
X7Y1323D01*
X4820Y1323D02*
X4827Y1323D01*
X0Y1322D02*
X7Y1322D01*
X4820Y1322D02*
X4827Y1322D01*
X0Y1321D02*
X7Y1321D01*
X4820Y1321D02*
X4827Y1321D01*
X0Y1320D02*
X7Y1320D01*
X4820Y1320D02*
X4827Y1320D01*
X0Y1319D02*
X7Y1319D01*
X4820Y1319D02*
X4827Y1319D01*
X0Y1318D02*
X7Y1318D01*
X4820Y1318D02*
X4827Y1318D01*
X0Y1317D02*
X7Y1317D01*
X4820Y1317D02*
X4827Y1317D01*
X0Y1316D02*
X7Y1316D01*
X4820Y1316D02*
X4827Y1316D01*
X0Y1315D02*
X7Y1315D01*
X4820Y1315D02*
X4827Y1315D01*
X0Y1314D02*
X7Y1314D01*
X4820Y1314D02*
X4827Y1314D01*
X0Y1313D02*
X7Y1313D01*
X4820Y1313D02*
X4827Y1313D01*
X0Y1312D02*
X7Y1312D01*
X4820Y1312D02*
X4827Y1312D01*
X0Y1311D02*
X7Y1311D01*
X4820Y1311D02*
X4827Y1311D01*
X0Y1310D02*
X7Y1310D01*
X4820Y1310D02*
X4827Y1310D01*
X0Y1309D02*
X7Y1309D01*
X4820Y1309D02*
X4827Y1309D01*
X0Y1308D02*
X7Y1308D01*
X4820Y1308D02*
X4827Y1308D01*
X0Y1307D02*
X7Y1307D01*
X4820Y1307D02*
X4827Y1307D01*
X0Y1306D02*
X7Y1306D01*
X4820Y1306D02*
X4827Y1306D01*
X0Y1305D02*
X7Y1305D01*
X4820Y1305D02*
X4827Y1305D01*
X0Y1304D02*
X7Y1304D01*
X4820Y1304D02*
X4827Y1304D01*
X0Y1303D02*
X7Y1303D01*
X4820Y1303D02*
X4827Y1303D01*
X0Y1302D02*
X7Y1302D01*
X4820Y1302D02*
X4827Y1302D01*
X0Y1301D02*
X7Y1301D01*
X4820Y1301D02*
X4827Y1301D01*
X0Y1300D02*
X7Y1300D01*
X4820Y1300D02*
X4827Y1300D01*
X0Y1299D02*
X7Y1299D01*
X4820Y1299D02*
X4827Y1299D01*
X0Y1298D02*
X7Y1298D01*
X4820Y1298D02*
X4827Y1298D01*
X0Y1297D02*
X7Y1297D01*
X4820Y1297D02*
X4827Y1297D01*
X0Y1296D02*
X7Y1296D01*
X4820Y1296D02*
X4827Y1296D01*
X0Y1295D02*
X7Y1295D01*
X4820Y1295D02*
X4827Y1295D01*
X0Y1294D02*
X7Y1294D01*
X4820Y1294D02*
X4827Y1294D01*
X0Y1293D02*
X7Y1293D01*
X4820Y1293D02*
X4827Y1293D01*
X0Y1292D02*
X7Y1292D01*
X4820Y1292D02*
X4827Y1292D01*
X0Y1291D02*
X7Y1291D01*
X4820Y1291D02*
X4827Y1291D01*
X0Y1290D02*
X7Y1290D01*
X4820Y1290D02*
X4827Y1290D01*
X0Y1289D02*
X7Y1289D01*
X4820Y1289D02*
X4827Y1289D01*
X0Y1288D02*
X7Y1288D01*
X4820Y1288D02*
X4827Y1288D01*
X0Y1287D02*
X7Y1287D01*
X4820Y1287D02*
X4827Y1287D01*
X0Y1286D02*
X7Y1286D01*
X4820Y1286D02*
X4827Y1286D01*
X0Y1285D02*
X7Y1285D01*
X4820Y1285D02*
X4827Y1285D01*
X0Y1284D02*
X7Y1284D01*
X4820Y1284D02*
X4827Y1284D01*
X0Y1283D02*
X7Y1283D01*
X4820Y1283D02*
X4827Y1283D01*
X0Y1282D02*
X7Y1282D01*
X4820Y1282D02*
X4827Y1282D01*
X0Y1281D02*
X7Y1281D01*
X4820Y1281D02*
X4827Y1281D01*
X0Y1280D02*
X7Y1280D01*
X4820Y1280D02*
X4827Y1280D01*
X0Y1279D02*
X7Y1279D01*
X4820Y1279D02*
X4827Y1279D01*
X0Y1278D02*
X7Y1278D01*
X4820Y1278D02*
X4827Y1278D01*
X0Y1277D02*
X7Y1277D01*
X4820Y1277D02*
X4827Y1277D01*
X0Y1276D02*
X7Y1276D01*
X4820Y1276D02*
X4827Y1276D01*
X0Y1275D02*
X7Y1275D01*
X4820Y1275D02*
X4827Y1275D01*
X0Y1274D02*
X7Y1274D01*
X4820Y1274D02*
X4827Y1274D01*
X0Y1273D02*
X7Y1273D01*
X4820Y1273D02*
X4827Y1273D01*
X0Y1272D02*
X7Y1272D01*
X4820Y1272D02*
X4827Y1272D01*
X0Y1271D02*
X7Y1271D01*
X4820Y1271D02*
X4827Y1271D01*
X0Y1270D02*
X7Y1270D01*
X4820Y1270D02*
X4827Y1270D01*
X0Y1269D02*
X7Y1269D01*
X4820Y1269D02*
X4827Y1269D01*
X0Y1268D02*
X7Y1268D01*
X4820Y1268D02*
X4827Y1268D01*
X0Y1267D02*
X7Y1267D01*
X4820Y1267D02*
X4827Y1267D01*
X0Y1266D02*
X7Y1266D01*
X4820Y1266D02*
X4827Y1266D01*
X0Y1265D02*
X7Y1265D01*
X4820Y1265D02*
X4827Y1265D01*
X0Y1264D02*
X7Y1264D01*
X4820Y1264D02*
X4827Y1264D01*
X0Y1263D02*
X7Y1263D01*
X4820Y1263D02*
X4827Y1263D01*
X0Y1262D02*
X7Y1262D01*
X4820Y1262D02*
X4827Y1262D01*
X0Y1261D02*
X7Y1261D01*
X4820Y1261D02*
X4827Y1261D01*
X0Y1260D02*
X7Y1260D01*
X4820Y1260D02*
X4827Y1260D01*
X0Y1259D02*
X7Y1259D01*
X4820Y1259D02*
X4827Y1259D01*
X0Y1258D02*
X7Y1258D01*
X4820Y1258D02*
X4827Y1258D01*
X0Y1257D02*
X7Y1257D01*
X4820Y1257D02*
X4827Y1257D01*
X0Y1256D02*
X7Y1256D01*
X4820Y1256D02*
X4827Y1256D01*
X0Y1255D02*
X7Y1255D01*
X4820Y1255D02*
X4827Y1255D01*
X0Y1254D02*
X7Y1254D01*
X4820Y1254D02*
X4827Y1254D01*
X0Y1253D02*
X7Y1253D01*
X4820Y1253D02*
X4827Y1253D01*
X0Y1252D02*
X7Y1252D01*
X4820Y1252D02*
X4827Y1252D01*
X0Y1251D02*
X7Y1251D01*
X4820Y1251D02*
X4827Y1251D01*
X0Y1250D02*
X7Y1250D01*
X4820Y1250D02*
X4827Y1250D01*
X0Y1249D02*
X7Y1249D01*
X4820Y1249D02*
X4827Y1249D01*
X0Y1248D02*
X7Y1248D01*
X4820Y1248D02*
X4827Y1248D01*
X0Y1247D02*
X7Y1247D01*
X4820Y1247D02*
X4827Y1247D01*
X0Y1246D02*
X7Y1246D01*
X4820Y1246D02*
X4827Y1246D01*
X0Y1245D02*
X7Y1245D01*
X4820Y1245D02*
X4827Y1245D01*
X0Y1244D02*
X7Y1244D01*
X4820Y1244D02*
X4827Y1244D01*
X0Y1243D02*
X7Y1243D01*
X4820Y1243D02*
X4827Y1243D01*
X0Y1242D02*
X7Y1242D01*
X4820Y1242D02*
X4827Y1242D01*
X0Y1241D02*
X7Y1241D01*
X4820Y1241D02*
X4827Y1241D01*
X0Y1240D02*
X7Y1240D01*
X4820Y1240D02*
X4827Y1240D01*
X0Y1239D02*
X7Y1239D01*
X4820Y1239D02*
X4827Y1239D01*
X0Y1238D02*
X7Y1238D01*
X4820Y1238D02*
X4827Y1238D01*
X0Y1237D02*
X7Y1237D01*
X4820Y1237D02*
X4827Y1237D01*
X0Y1236D02*
X7Y1236D01*
X4820Y1236D02*
X4827Y1236D01*
X0Y1235D02*
X7Y1235D01*
X4820Y1235D02*
X4827Y1235D01*
X0Y1234D02*
X7Y1234D01*
X4820Y1234D02*
X4827Y1234D01*
X0Y1233D02*
X7Y1233D01*
X4820Y1233D02*
X4827Y1233D01*
X0Y1232D02*
X7Y1232D01*
X4820Y1232D02*
X4827Y1232D01*
X0Y1231D02*
X7Y1231D01*
X4820Y1231D02*
X4827Y1231D01*
X0Y1230D02*
X7Y1230D01*
X4820Y1230D02*
X4827Y1230D01*
X0Y1229D02*
X7Y1229D01*
X4820Y1229D02*
X4827Y1229D01*
X0Y1228D02*
X7Y1228D01*
X4820Y1228D02*
X4827Y1228D01*
X0Y1227D02*
X7Y1227D01*
X4820Y1227D02*
X4827Y1227D01*
X0Y1226D02*
X7Y1226D01*
X4820Y1226D02*
X4827Y1226D01*
X0Y1225D02*
X7Y1225D01*
X4820Y1225D02*
X4827Y1225D01*
X0Y1224D02*
X7Y1224D01*
X4820Y1224D02*
X4827Y1224D01*
X0Y1223D02*
X7Y1223D01*
X4820Y1223D02*
X4827Y1223D01*
X0Y1222D02*
X7Y1222D01*
X4820Y1222D02*
X4827Y1222D01*
X0Y1221D02*
X7Y1221D01*
X4820Y1221D02*
X4827Y1221D01*
X0Y1220D02*
X7Y1220D01*
X4820Y1220D02*
X4827Y1220D01*
X0Y1219D02*
X7Y1219D01*
X4820Y1219D02*
X4827Y1219D01*
X0Y1218D02*
X7Y1218D01*
X4820Y1218D02*
X4827Y1218D01*
X0Y1217D02*
X7Y1217D01*
X4820Y1217D02*
X4827Y1217D01*
X0Y1216D02*
X7Y1216D01*
X4820Y1216D02*
X4827Y1216D01*
X0Y1215D02*
X7Y1215D01*
X4820Y1215D02*
X4827Y1215D01*
X0Y1214D02*
X7Y1214D01*
X4820Y1214D02*
X4827Y1214D01*
X0Y1213D02*
X7Y1213D01*
X4820Y1213D02*
X4827Y1213D01*
X0Y1212D02*
X7Y1212D01*
X4820Y1212D02*
X4827Y1212D01*
X0Y1211D02*
X7Y1211D01*
X4820Y1211D02*
X4827Y1211D01*
X0Y1210D02*
X7Y1210D01*
X4820Y1210D02*
X4827Y1210D01*
X0Y1209D02*
X7Y1209D01*
X4820Y1209D02*
X4827Y1209D01*
X0Y1208D02*
X7Y1208D01*
X4820Y1208D02*
X4827Y1208D01*
X0Y1207D02*
X7Y1207D01*
X4820Y1207D02*
X4827Y1207D01*
X0Y1206D02*
X7Y1206D01*
X4820Y1206D02*
X4827Y1206D01*
X0Y1205D02*
X7Y1205D01*
X4820Y1205D02*
X4827Y1205D01*
X0Y1204D02*
X7Y1204D01*
X4820Y1204D02*
X4827Y1204D01*
X0Y1203D02*
X7Y1203D01*
X4820Y1203D02*
X4827Y1203D01*
X0Y1202D02*
X7Y1202D01*
X4820Y1202D02*
X4827Y1202D01*
X0Y1201D02*
X7Y1201D01*
X4820Y1201D02*
X4827Y1201D01*
X0Y1200D02*
X7Y1200D01*
X4820Y1200D02*
X4827Y1200D01*
X0Y1199D02*
X7Y1199D01*
X4820Y1199D02*
X4827Y1199D01*
X0Y1198D02*
X7Y1198D01*
X4820Y1198D02*
X4827Y1198D01*
X0Y1197D02*
X7Y1197D01*
X4820Y1197D02*
X4827Y1197D01*
X0Y1196D02*
X7Y1196D01*
X4820Y1196D02*
X4827Y1196D01*
X0Y1195D02*
X7Y1195D01*
X4820Y1195D02*
X4827Y1195D01*
X0Y1194D02*
X7Y1194D01*
X4820Y1194D02*
X4827Y1194D01*
X0Y1193D02*
X7Y1193D01*
X4820Y1193D02*
X4827Y1193D01*
X0Y1192D02*
X7Y1192D01*
X4820Y1192D02*
X4827Y1192D01*
X0Y1191D02*
X7Y1191D01*
X4820Y1191D02*
X4827Y1191D01*
X0Y1190D02*
X7Y1190D01*
X4820Y1190D02*
X4827Y1190D01*
X0Y1189D02*
X7Y1189D01*
X4820Y1189D02*
X4827Y1189D01*
X0Y1188D02*
X7Y1188D01*
X4820Y1188D02*
X4827Y1188D01*
X0Y1187D02*
X7Y1187D01*
X4820Y1187D02*
X4827Y1187D01*
X0Y1186D02*
X7Y1186D01*
X4820Y1186D02*
X4827Y1186D01*
X0Y1185D02*
X7Y1185D01*
X4820Y1185D02*
X4827Y1185D01*
X0Y1184D02*
X7Y1184D01*
X4820Y1184D02*
X4827Y1184D01*
X0Y1183D02*
X7Y1183D01*
X4820Y1183D02*
X4827Y1183D01*
X0Y1182D02*
X7Y1182D01*
X4820Y1182D02*
X4827Y1182D01*
X0Y1181D02*
X7Y1181D01*
X4820Y1181D02*
X4827Y1181D01*
X0Y1180D02*
X7Y1180D01*
X4820Y1180D02*
X4827Y1180D01*
X0Y1179D02*
X7Y1179D01*
X4820Y1179D02*
X4827Y1179D01*
X0Y1178D02*
X7Y1178D01*
X4820Y1178D02*
X4827Y1178D01*
X0Y1177D02*
X7Y1177D01*
X4820Y1177D02*
X4827Y1177D01*
X0Y1176D02*
X7Y1176D01*
X4820Y1176D02*
X4827Y1176D01*
X0Y1175D02*
X7Y1175D01*
X4820Y1175D02*
X4827Y1175D01*
X0Y1174D02*
X7Y1174D01*
X4820Y1174D02*
X4827Y1174D01*
X0Y1173D02*
X7Y1173D01*
X4820Y1173D02*
X4827Y1173D01*
X0Y1172D02*
X7Y1172D01*
X4820Y1172D02*
X4827Y1172D01*
X0Y1171D02*
X7Y1171D01*
X4820Y1171D02*
X4827Y1171D01*
X0Y1170D02*
X7Y1170D01*
X4820Y1170D02*
X4827Y1170D01*
X0Y1169D02*
X7Y1169D01*
X4820Y1169D02*
X4827Y1169D01*
X0Y1168D02*
X7Y1168D01*
X4820Y1168D02*
X4827Y1168D01*
X0Y1167D02*
X7Y1167D01*
X4820Y1167D02*
X4827Y1167D01*
X0Y1166D02*
X7Y1166D01*
X4820Y1166D02*
X4827Y1166D01*
X0Y1165D02*
X7Y1165D01*
X4820Y1165D02*
X4827Y1165D01*
X0Y1164D02*
X7Y1164D01*
X4820Y1164D02*
X4827Y1164D01*
X0Y1163D02*
X7Y1163D01*
X4820Y1163D02*
X4827Y1163D01*
X0Y1162D02*
X7Y1162D01*
X4820Y1162D02*
X4827Y1162D01*
X0Y1161D02*
X7Y1161D01*
X4820Y1161D02*
X4827Y1161D01*
X0Y1160D02*
X7Y1160D01*
X4820Y1160D02*
X4827Y1160D01*
X0Y1159D02*
X7Y1159D01*
X4820Y1159D02*
X4827Y1159D01*
X0Y1158D02*
X7Y1158D01*
X4820Y1158D02*
X4827Y1158D01*
X0Y1157D02*
X7Y1157D01*
X4820Y1157D02*
X4827Y1157D01*
X0Y1156D02*
X7Y1156D01*
X4820Y1156D02*
X4827Y1156D01*
X0Y1155D02*
X7Y1155D01*
X4820Y1155D02*
X4827Y1155D01*
X0Y1154D02*
X7Y1154D01*
X4820Y1154D02*
X4827Y1154D01*
X0Y1153D02*
X7Y1153D01*
X4820Y1153D02*
X4827Y1153D01*
X0Y1152D02*
X7Y1152D01*
X4820Y1152D02*
X4827Y1152D01*
X0Y1151D02*
X7Y1151D01*
X4820Y1151D02*
X4827Y1151D01*
X0Y1150D02*
X7Y1150D01*
X4820Y1150D02*
X4827Y1150D01*
X0Y1149D02*
X7Y1149D01*
X4820Y1149D02*
X4827Y1149D01*
X0Y1148D02*
X7Y1148D01*
X4820Y1148D02*
X4827Y1148D01*
X0Y1147D02*
X7Y1147D01*
X4820Y1147D02*
X4827Y1147D01*
X0Y1146D02*
X7Y1146D01*
X4820Y1146D02*
X4827Y1146D01*
X0Y1145D02*
X7Y1145D01*
X4820Y1145D02*
X4827Y1145D01*
X0Y1144D02*
X7Y1144D01*
X4820Y1144D02*
X4827Y1144D01*
X0Y1143D02*
X7Y1143D01*
X4820Y1143D02*
X4827Y1143D01*
X0Y1142D02*
X7Y1142D01*
X4820Y1142D02*
X4827Y1142D01*
X0Y1141D02*
X7Y1141D01*
X4820Y1141D02*
X4827Y1141D01*
X0Y1140D02*
X7Y1140D01*
X4820Y1140D02*
X4827Y1140D01*
X0Y1139D02*
X7Y1139D01*
X4820Y1139D02*
X4827Y1139D01*
X0Y1138D02*
X7Y1138D01*
X4820Y1138D02*
X4827Y1138D01*
X0Y1137D02*
X7Y1137D01*
X4820Y1137D02*
X4827Y1137D01*
X0Y1136D02*
X7Y1136D01*
X4820Y1136D02*
X4827Y1136D01*
X0Y1135D02*
X7Y1135D01*
X4820Y1135D02*
X4827Y1135D01*
X0Y1134D02*
X7Y1134D01*
X4820Y1134D02*
X4827Y1134D01*
X0Y1133D02*
X7Y1133D01*
X4820Y1133D02*
X4827Y1133D01*
X0Y1132D02*
X7Y1132D01*
X4820Y1132D02*
X4827Y1132D01*
X0Y1131D02*
X7Y1131D01*
X4820Y1131D02*
X4827Y1131D01*
X0Y1130D02*
X7Y1130D01*
X4820Y1130D02*
X4827Y1130D01*
X0Y1129D02*
X7Y1129D01*
X4820Y1129D02*
X4827Y1129D01*
X0Y1128D02*
X7Y1128D01*
X4820Y1128D02*
X4827Y1128D01*
X0Y1127D02*
X7Y1127D01*
X4820Y1127D02*
X4827Y1127D01*
X0Y1126D02*
X7Y1126D01*
X4820Y1126D02*
X4827Y1126D01*
X0Y1125D02*
X7Y1125D01*
X4820Y1125D02*
X4827Y1125D01*
X0Y1124D02*
X7Y1124D01*
X4820Y1124D02*
X4827Y1124D01*
X0Y1123D02*
X7Y1123D01*
X4820Y1123D02*
X4827Y1123D01*
X0Y1122D02*
X7Y1122D01*
X4820Y1122D02*
X4827Y1122D01*
X0Y1121D02*
X7Y1121D01*
X4820Y1121D02*
X4827Y1121D01*
X0Y1120D02*
X7Y1120D01*
X4820Y1120D02*
X4827Y1120D01*
X0Y1119D02*
X7Y1119D01*
X4820Y1119D02*
X4827Y1119D01*
X0Y1118D02*
X7Y1118D01*
X4820Y1118D02*
X4827Y1118D01*
X0Y1117D02*
X7Y1117D01*
X4820Y1117D02*
X4827Y1117D01*
X0Y1116D02*
X7Y1116D01*
X4820Y1116D02*
X4827Y1116D01*
X0Y1115D02*
X7Y1115D01*
X4820Y1115D02*
X4827Y1115D01*
X0Y1114D02*
X7Y1114D01*
X4820Y1114D02*
X4827Y1114D01*
X0Y1113D02*
X7Y1113D01*
X4820Y1113D02*
X4827Y1113D01*
X0Y1112D02*
X7Y1112D01*
X4820Y1112D02*
X4827Y1112D01*
X0Y1111D02*
X7Y1111D01*
X4820Y1111D02*
X4827Y1111D01*
X0Y1110D02*
X7Y1110D01*
X4820Y1110D02*
X4827Y1110D01*
X0Y1109D02*
X7Y1109D01*
X4820Y1109D02*
X4827Y1109D01*
X0Y1108D02*
X7Y1108D01*
X4820Y1108D02*
X4827Y1108D01*
X0Y1107D02*
X7Y1107D01*
X4820Y1107D02*
X4827Y1107D01*
X0Y1106D02*
X7Y1106D01*
X4820Y1106D02*
X4827Y1106D01*
X0Y1105D02*
X7Y1105D01*
X4820Y1105D02*
X4827Y1105D01*
X0Y1104D02*
X7Y1104D01*
X4820Y1104D02*
X4827Y1104D01*
X0Y1103D02*
X7Y1103D01*
X4820Y1103D02*
X4827Y1103D01*
X0Y1102D02*
X7Y1102D01*
X4820Y1102D02*
X4827Y1102D01*
X0Y1101D02*
X7Y1101D01*
X4820Y1101D02*
X4827Y1101D01*
X0Y1100D02*
X7Y1100D01*
X4820Y1100D02*
X4827Y1100D01*
X0Y1099D02*
X7Y1099D01*
X4820Y1099D02*
X4827Y1099D01*
X0Y1098D02*
X7Y1098D01*
X4820Y1098D02*
X4827Y1098D01*
X0Y1097D02*
X7Y1097D01*
X4820Y1097D02*
X4827Y1097D01*
X0Y1096D02*
X7Y1096D01*
X4820Y1096D02*
X4827Y1096D01*
X0Y1095D02*
X7Y1095D01*
X4820Y1095D02*
X4827Y1095D01*
X0Y1094D02*
X7Y1094D01*
X4820Y1094D02*
X4827Y1094D01*
X0Y1093D02*
X7Y1093D01*
X4820Y1093D02*
X4827Y1093D01*
X0Y1092D02*
X7Y1092D01*
X4820Y1092D02*
X4827Y1092D01*
X0Y1091D02*
X7Y1091D01*
X4820Y1091D02*
X4827Y1091D01*
X0Y1090D02*
X7Y1090D01*
X4820Y1090D02*
X4827Y1090D01*
X0Y1089D02*
X7Y1089D01*
X4820Y1089D02*
X4827Y1089D01*
X0Y1088D02*
X7Y1088D01*
X4820Y1088D02*
X4827Y1088D01*
X0Y1087D02*
X7Y1087D01*
X4820Y1087D02*
X4827Y1087D01*
X0Y1086D02*
X7Y1086D01*
X4820Y1086D02*
X4827Y1086D01*
X0Y1085D02*
X7Y1085D01*
X4820Y1085D02*
X4827Y1085D01*
X0Y1084D02*
X7Y1084D01*
X4820Y1084D02*
X4827Y1084D01*
X0Y1083D02*
X7Y1083D01*
X4820Y1083D02*
X4827Y1083D01*
X0Y1082D02*
X7Y1082D01*
X4820Y1082D02*
X4827Y1082D01*
X0Y1081D02*
X7Y1081D01*
X4820Y1081D02*
X4827Y1081D01*
X0Y1080D02*
X7Y1080D01*
X4820Y1080D02*
X4827Y1080D01*
X0Y1079D02*
X7Y1079D01*
X4820Y1079D02*
X4827Y1079D01*
X0Y1078D02*
X7Y1078D01*
X4820Y1078D02*
X4827Y1078D01*
X0Y1077D02*
X7Y1077D01*
X4820Y1077D02*
X4827Y1077D01*
X0Y1076D02*
X7Y1076D01*
X4820Y1076D02*
X4827Y1076D01*
X0Y1075D02*
X7Y1075D01*
X4820Y1075D02*
X4827Y1075D01*
X0Y1074D02*
X7Y1074D01*
X4820Y1074D02*
X4827Y1074D01*
X0Y1073D02*
X7Y1073D01*
X4820Y1073D02*
X4827Y1073D01*
X0Y1072D02*
X7Y1072D01*
X4820Y1072D02*
X4827Y1072D01*
X0Y1071D02*
X7Y1071D01*
X4820Y1071D02*
X4827Y1071D01*
X0Y1070D02*
X7Y1070D01*
X4820Y1070D02*
X4827Y1070D01*
X0Y1069D02*
X7Y1069D01*
X4820Y1069D02*
X4827Y1069D01*
X0Y1068D02*
X7Y1068D01*
X4820Y1068D02*
X4827Y1068D01*
X0Y1067D02*
X7Y1067D01*
X4820Y1067D02*
X4827Y1067D01*
X0Y1066D02*
X7Y1066D01*
X4820Y1066D02*
X4827Y1066D01*
X0Y1065D02*
X7Y1065D01*
X4820Y1065D02*
X4827Y1065D01*
X0Y1064D02*
X7Y1064D01*
X4820Y1064D02*
X4827Y1064D01*
X0Y1063D02*
X7Y1063D01*
X4820Y1063D02*
X4827Y1063D01*
X0Y1062D02*
X7Y1062D01*
X4820Y1062D02*
X4827Y1062D01*
X0Y1061D02*
X7Y1061D01*
X4820Y1061D02*
X4827Y1061D01*
X0Y1060D02*
X7Y1060D01*
X4820Y1060D02*
X4827Y1060D01*
X0Y1059D02*
X7Y1059D01*
X4820Y1059D02*
X4827Y1059D01*
X0Y1058D02*
X7Y1058D01*
X4820Y1058D02*
X4827Y1058D01*
X0Y1057D02*
X7Y1057D01*
X4820Y1057D02*
X4827Y1057D01*
X0Y1056D02*
X7Y1056D01*
X4820Y1056D02*
X4827Y1056D01*
X0Y1055D02*
X7Y1055D01*
X4820Y1055D02*
X4827Y1055D01*
X0Y1054D02*
X7Y1054D01*
X4820Y1054D02*
X4827Y1054D01*
X0Y1053D02*
X7Y1053D01*
X4820Y1053D02*
X4827Y1053D01*
X0Y1052D02*
X7Y1052D01*
X4820Y1052D02*
X4827Y1052D01*
X0Y1051D02*
X7Y1051D01*
X4820Y1051D02*
X4827Y1051D01*
X0Y1050D02*
X7Y1050D01*
X4820Y1050D02*
X4827Y1050D01*
X0Y1049D02*
X7Y1049D01*
X4820Y1049D02*
X4827Y1049D01*
X0Y1048D02*
X7Y1048D01*
X4820Y1048D02*
X4827Y1048D01*
X0Y1047D02*
X7Y1047D01*
X4820Y1047D02*
X4827Y1047D01*
X0Y1046D02*
X7Y1046D01*
X4820Y1046D02*
X4827Y1046D01*
X0Y1045D02*
X7Y1045D01*
X4820Y1045D02*
X4827Y1045D01*
X0Y1044D02*
X7Y1044D01*
X4820Y1044D02*
X4827Y1044D01*
X0Y1043D02*
X7Y1043D01*
X4820Y1043D02*
X4827Y1043D01*
X0Y1042D02*
X7Y1042D01*
X4820Y1042D02*
X4827Y1042D01*
X0Y1041D02*
X7Y1041D01*
X4820Y1041D02*
X4827Y1041D01*
X0Y1040D02*
X7Y1040D01*
X4820Y1040D02*
X4827Y1040D01*
X0Y1039D02*
X7Y1039D01*
X4820Y1039D02*
X4827Y1039D01*
X0Y1038D02*
X7Y1038D01*
X4820Y1038D02*
X4827Y1038D01*
X0Y1037D02*
X7Y1037D01*
X4820Y1037D02*
X4827Y1037D01*
X0Y1036D02*
X7Y1036D01*
X4820Y1036D02*
X4827Y1036D01*
X0Y1035D02*
X7Y1035D01*
X4820Y1035D02*
X4827Y1035D01*
X0Y1034D02*
X7Y1034D01*
X4820Y1034D02*
X4827Y1034D01*
X0Y1033D02*
X7Y1033D01*
X4820Y1033D02*
X4827Y1033D01*
X0Y1032D02*
X7Y1032D01*
X4820Y1032D02*
X4827Y1032D01*
X0Y1031D02*
X7Y1031D01*
X4820Y1031D02*
X4827Y1031D01*
X0Y1030D02*
X7Y1030D01*
X4820Y1030D02*
X4827Y1030D01*
X0Y1029D02*
X7Y1029D01*
X4820Y1029D02*
X4827Y1029D01*
X0Y1028D02*
X7Y1028D01*
X4820Y1028D02*
X4827Y1028D01*
X0Y1027D02*
X7Y1027D01*
X4820Y1027D02*
X4827Y1027D01*
X0Y1026D02*
X7Y1026D01*
X4820Y1026D02*
X4827Y1026D01*
X0Y1025D02*
X7Y1025D01*
X4820Y1025D02*
X4827Y1025D01*
X0Y1024D02*
X7Y1024D01*
X4820Y1024D02*
X4827Y1024D01*
X0Y1023D02*
X7Y1023D01*
X4820Y1023D02*
X4827Y1023D01*
X0Y1022D02*
X7Y1022D01*
X4820Y1022D02*
X4827Y1022D01*
X0Y1021D02*
X7Y1021D01*
X4820Y1021D02*
X4827Y1021D01*
X0Y1020D02*
X7Y1020D01*
X4820Y1020D02*
X4827Y1020D01*
X0Y1019D02*
X7Y1019D01*
X4820Y1019D02*
X4827Y1019D01*
X0Y1018D02*
X7Y1018D01*
X4820Y1018D02*
X4827Y1018D01*
X0Y1017D02*
X7Y1017D01*
X4820Y1017D02*
X4827Y1017D01*
X0Y1016D02*
X7Y1016D01*
X4820Y1016D02*
X4827Y1016D01*
X0Y1015D02*
X7Y1015D01*
X4820Y1015D02*
X4827Y1015D01*
X0Y1014D02*
X7Y1014D01*
X4820Y1014D02*
X4827Y1014D01*
X0Y1013D02*
X7Y1013D01*
X4820Y1013D02*
X4827Y1013D01*
X0Y1012D02*
X7Y1012D01*
X4820Y1012D02*
X4827Y1012D01*
X0Y1011D02*
X7Y1011D01*
X4820Y1011D02*
X4827Y1011D01*
X0Y1010D02*
X7Y1010D01*
X4820Y1010D02*
X4827Y1010D01*
X0Y1009D02*
X7Y1009D01*
X4820Y1009D02*
X4827Y1009D01*
X0Y1008D02*
X7Y1008D01*
X4820Y1008D02*
X4827Y1008D01*
X0Y1007D02*
X7Y1007D01*
X4820Y1007D02*
X4827Y1007D01*
X0Y1006D02*
X7Y1006D01*
X4820Y1006D02*
X4827Y1006D01*
X0Y1005D02*
X7Y1005D01*
X4820Y1005D02*
X4827Y1005D01*
X0Y1004D02*
X7Y1004D01*
X4820Y1004D02*
X4827Y1004D01*
X0Y1003D02*
X7Y1003D01*
X4820Y1003D02*
X4827Y1003D01*
X0Y1002D02*
X7Y1002D01*
X4820Y1002D02*
X4827Y1002D01*
X0Y1001D02*
X7Y1001D01*
X4820Y1001D02*
X4827Y1001D01*
X0Y1000D02*
X7Y1000D01*
X4820Y1000D02*
X4827Y1000D01*
X0Y999D02*
X7Y999D01*
X4820Y999D02*
X4827Y999D01*
X0Y998D02*
X7Y998D01*
X4820Y998D02*
X4827Y998D01*
X0Y997D02*
X7Y997D01*
X4820Y997D02*
X4827Y997D01*
X0Y996D02*
X7Y996D01*
X4820Y996D02*
X4827Y996D01*
X0Y995D02*
X7Y995D01*
X4820Y995D02*
X4827Y995D01*
X0Y994D02*
X7Y994D01*
X4820Y994D02*
X4827Y994D01*
X0Y993D02*
X7Y993D01*
X4820Y993D02*
X4827Y993D01*
X0Y992D02*
X7Y992D01*
X4820Y992D02*
X4827Y992D01*
X0Y991D02*
X7Y991D01*
X4820Y991D02*
X4827Y991D01*
X0Y990D02*
X7Y990D01*
X4820Y990D02*
X4827Y990D01*
X0Y989D02*
X7Y989D01*
X4820Y989D02*
X4827Y989D01*
X0Y988D02*
X7Y988D01*
X4820Y988D02*
X4827Y988D01*
X0Y987D02*
X7Y987D01*
X4820Y987D02*
X4827Y987D01*
X0Y986D02*
X7Y986D01*
X4820Y986D02*
X4827Y986D01*
X0Y985D02*
X7Y985D01*
X4820Y985D02*
X4827Y985D01*
X0Y984D02*
X7Y984D01*
X4820Y984D02*
X4827Y984D01*
X0Y983D02*
X7Y983D01*
X4820Y983D02*
X4827Y983D01*
X0Y982D02*
X7Y982D01*
X4820Y982D02*
X4827Y982D01*
X0Y981D02*
X7Y981D01*
X4820Y981D02*
X4827Y981D01*
X0Y980D02*
X7Y980D01*
X4820Y980D02*
X4827Y980D01*
X0Y979D02*
X7Y979D01*
X4820Y979D02*
X4827Y979D01*
X0Y978D02*
X7Y978D01*
X4820Y978D02*
X4827Y978D01*
X0Y977D02*
X7Y977D01*
X4820Y977D02*
X4827Y977D01*
X0Y976D02*
X7Y976D01*
X4820Y976D02*
X4827Y976D01*
X0Y975D02*
X7Y975D01*
X4820Y975D02*
X4827Y975D01*
X0Y974D02*
X7Y974D01*
X4820Y974D02*
X4827Y974D01*
X0Y973D02*
X7Y973D01*
X4820Y973D02*
X4827Y973D01*
X0Y972D02*
X7Y972D01*
X4820Y972D02*
X4827Y972D01*
X0Y971D02*
X7Y971D01*
X4820Y971D02*
X4827Y971D01*
X0Y970D02*
X7Y970D01*
X4820Y970D02*
X4827Y970D01*
X0Y969D02*
X7Y969D01*
X4820Y969D02*
X4827Y969D01*
X0Y968D02*
X7Y968D01*
X4820Y968D02*
X4827Y968D01*
X0Y967D02*
X7Y967D01*
X4820Y967D02*
X4827Y967D01*
X0Y966D02*
X7Y966D01*
X4820Y966D02*
X4827Y966D01*
X0Y965D02*
X7Y965D01*
X4820Y965D02*
X4827Y965D01*
X0Y964D02*
X7Y964D01*
X4820Y964D02*
X4827Y964D01*
X0Y963D02*
X7Y963D01*
X4820Y963D02*
X4827Y963D01*
X0Y962D02*
X7Y962D01*
X4820Y962D02*
X4827Y962D01*
X0Y961D02*
X7Y961D01*
X4820Y961D02*
X4827Y961D01*
X0Y960D02*
X7Y960D01*
X4820Y960D02*
X4827Y960D01*
X0Y959D02*
X7Y959D01*
X4820Y959D02*
X4827Y959D01*
X0Y958D02*
X7Y958D01*
X4820Y958D02*
X4827Y958D01*
X0Y957D02*
X7Y957D01*
X4820Y957D02*
X4827Y957D01*
X0Y956D02*
X7Y956D01*
X4820Y956D02*
X4827Y956D01*
X0Y955D02*
X7Y955D01*
X4820Y955D02*
X4827Y955D01*
X0Y954D02*
X7Y954D01*
X4820Y954D02*
X4827Y954D01*
X0Y953D02*
X7Y953D01*
X4820Y953D02*
X4827Y953D01*
X0Y952D02*
X7Y952D01*
X4820Y952D02*
X4827Y952D01*
X0Y951D02*
X7Y951D01*
X4820Y951D02*
X4827Y951D01*
X0Y950D02*
X7Y950D01*
X4820Y950D02*
X4827Y950D01*
X0Y949D02*
X7Y949D01*
X4820Y949D02*
X4827Y949D01*
X0Y948D02*
X7Y948D01*
X4820Y948D02*
X4827Y948D01*
X0Y947D02*
X7Y947D01*
X4820Y947D02*
X4827Y947D01*
X0Y946D02*
X7Y946D01*
X4820Y946D02*
X4827Y946D01*
X0Y945D02*
X7Y945D01*
X4820Y945D02*
X4827Y945D01*
X0Y944D02*
X7Y944D01*
X4820Y944D02*
X4827Y944D01*
X0Y943D02*
X7Y943D01*
X4820Y943D02*
X4827Y943D01*
X0Y942D02*
X7Y942D01*
X4820Y942D02*
X4827Y942D01*
X0Y941D02*
X7Y941D01*
X4820Y941D02*
X4827Y941D01*
X0Y940D02*
X7Y940D01*
X4820Y940D02*
X4827Y940D01*
X0Y939D02*
X7Y939D01*
X4820Y939D02*
X4827Y939D01*
X0Y938D02*
X7Y938D01*
X4820Y938D02*
X4827Y938D01*
X0Y937D02*
X7Y937D01*
X4820Y937D02*
X4827Y937D01*
X0Y936D02*
X7Y936D01*
X4820Y936D02*
X4827Y936D01*
X0Y935D02*
X7Y935D01*
X4820Y935D02*
X4827Y935D01*
X0Y934D02*
X7Y934D01*
X4820Y934D02*
X4827Y934D01*
X0Y933D02*
X7Y933D01*
X4820Y933D02*
X4827Y933D01*
X0Y932D02*
X7Y932D01*
X4820Y932D02*
X4827Y932D01*
X0Y931D02*
X7Y931D01*
X4820Y931D02*
X4827Y931D01*
X0Y930D02*
X7Y930D01*
X4820Y930D02*
X4827Y930D01*
X0Y929D02*
X7Y929D01*
X4820Y929D02*
X4827Y929D01*
X0Y928D02*
X7Y928D01*
X4820Y928D02*
X4827Y928D01*
X0Y927D02*
X7Y927D01*
X4820Y927D02*
X4827Y927D01*
X0Y926D02*
X7Y926D01*
X4820Y926D02*
X4827Y926D01*
X0Y925D02*
X7Y925D01*
X4820Y925D02*
X4827Y925D01*
X0Y924D02*
X7Y924D01*
X4820Y924D02*
X4827Y924D01*
X0Y923D02*
X7Y923D01*
X4820Y923D02*
X4827Y923D01*
X0Y922D02*
X7Y922D01*
X4820Y922D02*
X4827Y922D01*
X0Y921D02*
X7Y921D01*
X4820Y921D02*
X4827Y921D01*
X0Y920D02*
X7Y920D01*
X4820Y920D02*
X4827Y920D01*
X0Y919D02*
X7Y919D01*
X4820Y919D02*
X4827Y919D01*
X0Y918D02*
X7Y918D01*
X4820Y918D02*
X4827Y918D01*
X0Y917D02*
X7Y917D01*
X4820Y917D02*
X4827Y917D01*
X0Y916D02*
X7Y916D01*
X4820Y916D02*
X4827Y916D01*
X0Y915D02*
X7Y915D01*
X4820Y915D02*
X4827Y915D01*
X0Y914D02*
X7Y914D01*
X4820Y914D02*
X4827Y914D01*
X0Y913D02*
X7Y913D01*
X4820Y913D02*
X4827Y913D01*
X0Y912D02*
X7Y912D01*
X4820Y912D02*
X4827Y912D01*
X0Y911D02*
X7Y911D01*
X4820Y911D02*
X4827Y911D01*
X0Y910D02*
X7Y910D01*
X4820Y910D02*
X4827Y910D01*
X0Y909D02*
X7Y909D01*
X4820Y909D02*
X4827Y909D01*
X0Y908D02*
X7Y908D01*
X4820Y908D02*
X4827Y908D01*
X0Y907D02*
X7Y907D01*
X4820Y907D02*
X4827Y907D01*
X0Y906D02*
X7Y906D01*
X4820Y906D02*
X4827Y906D01*
X0Y905D02*
X7Y905D01*
X4820Y905D02*
X4827Y905D01*
X0Y904D02*
X7Y904D01*
X4820Y904D02*
X4827Y904D01*
X0Y903D02*
X7Y903D01*
X4820Y903D02*
X4827Y903D01*
X0Y902D02*
X7Y902D01*
X4820Y902D02*
X4827Y902D01*
X0Y901D02*
X7Y901D01*
X4820Y901D02*
X4827Y901D01*
X0Y900D02*
X7Y900D01*
X4820Y900D02*
X4827Y900D01*
X0Y899D02*
X7Y899D01*
X4820Y899D02*
X4827Y899D01*
X0Y898D02*
X7Y898D01*
X4820Y898D02*
X4827Y898D01*
X0Y897D02*
X7Y897D01*
X4820Y897D02*
X4827Y897D01*
X0Y896D02*
X7Y896D01*
X4820Y896D02*
X4827Y896D01*
X0Y895D02*
X7Y895D01*
X4820Y895D02*
X4827Y895D01*
X0Y894D02*
X7Y894D01*
X4820Y894D02*
X4827Y894D01*
X0Y893D02*
X7Y893D01*
X4820Y893D02*
X4827Y893D01*
X0Y892D02*
X7Y892D01*
X4820Y892D02*
X4827Y892D01*
X0Y891D02*
X7Y891D01*
X4820Y891D02*
X4827Y891D01*
X0Y890D02*
X7Y890D01*
X4820Y890D02*
X4827Y890D01*
X0Y889D02*
X7Y889D01*
X4820Y889D02*
X4827Y889D01*
X0Y888D02*
X7Y888D01*
X4820Y888D02*
X4827Y888D01*
X0Y887D02*
X7Y887D01*
X4820Y887D02*
X4827Y887D01*
X0Y886D02*
X7Y886D01*
X4820Y886D02*
X4827Y886D01*
X0Y885D02*
X7Y885D01*
X4820Y885D02*
X4827Y885D01*
X0Y884D02*
X7Y884D01*
X4820Y884D02*
X4827Y884D01*
X0Y883D02*
X7Y883D01*
X4820Y883D02*
X4827Y883D01*
X0Y882D02*
X7Y882D01*
X4820Y882D02*
X4827Y882D01*
X0Y881D02*
X7Y881D01*
X4820Y881D02*
X4827Y881D01*
X0Y880D02*
X7Y880D01*
X4820Y880D02*
X4827Y880D01*
X0Y879D02*
X7Y879D01*
X4820Y879D02*
X4827Y879D01*
X0Y878D02*
X7Y878D01*
X4820Y878D02*
X4827Y878D01*
X0Y877D02*
X7Y877D01*
X4820Y877D02*
X4827Y877D01*
X0Y876D02*
X7Y876D01*
X4820Y876D02*
X4827Y876D01*
X0Y875D02*
X7Y875D01*
X4820Y875D02*
X4827Y875D01*
X0Y874D02*
X7Y874D01*
X4820Y874D02*
X4827Y874D01*
X0Y873D02*
X7Y873D01*
X4820Y873D02*
X4827Y873D01*
X0Y872D02*
X7Y872D01*
X4820Y872D02*
X4827Y872D01*
X0Y871D02*
X7Y871D01*
X4820Y871D02*
X4827Y871D01*
X0Y870D02*
X7Y870D01*
X4820Y870D02*
X4827Y870D01*
X0Y869D02*
X7Y869D01*
X4820Y869D02*
X4827Y869D01*
X0Y868D02*
X7Y868D01*
X4820Y868D02*
X4827Y868D01*
X0Y867D02*
X7Y867D01*
X4820Y867D02*
X4827Y867D01*
X0Y866D02*
X7Y866D01*
X4820Y866D02*
X4827Y866D01*
X0Y865D02*
X7Y865D01*
X4820Y865D02*
X4827Y865D01*
X0Y864D02*
X7Y864D01*
X4820Y864D02*
X4827Y864D01*
X0Y863D02*
X7Y863D01*
X4820Y863D02*
X4827Y863D01*
X0Y862D02*
X7Y862D01*
X4820Y862D02*
X4827Y862D01*
X0Y861D02*
X7Y861D01*
X4820Y861D02*
X4827Y861D01*
X0Y860D02*
X7Y860D01*
X4820Y860D02*
X4827Y860D01*
X0Y859D02*
X7Y859D01*
X4820Y859D02*
X4827Y859D01*
X0Y858D02*
X7Y858D01*
X4820Y858D02*
X4827Y858D01*
X0Y857D02*
X7Y857D01*
X4820Y857D02*
X4827Y857D01*
X0Y856D02*
X7Y856D01*
X4820Y856D02*
X4827Y856D01*
X0Y855D02*
X7Y855D01*
X4820Y855D02*
X4827Y855D01*
X0Y854D02*
X7Y854D01*
X4820Y854D02*
X4827Y854D01*
X0Y853D02*
X7Y853D01*
X4820Y853D02*
X4827Y853D01*
X0Y852D02*
X7Y852D01*
X4820Y852D02*
X4827Y852D01*
X0Y851D02*
X7Y851D01*
X4820Y851D02*
X4827Y851D01*
X0Y850D02*
X7Y850D01*
X4820Y850D02*
X4827Y850D01*
X0Y849D02*
X7Y849D01*
X4820Y849D02*
X4827Y849D01*
X0Y848D02*
X7Y848D01*
X4820Y848D02*
X4827Y848D01*
X0Y847D02*
X7Y847D01*
X4820Y847D02*
X4827Y847D01*
X0Y846D02*
X7Y846D01*
X4820Y846D02*
X4827Y846D01*
X0Y845D02*
X7Y845D01*
X4820Y845D02*
X4827Y845D01*
X0Y844D02*
X7Y844D01*
X4820Y844D02*
X4827Y844D01*
X0Y843D02*
X7Y843D01*
X4820Y843D02*
X4827Y843D01*
X0Y842D02*
X7Y842D01*
X4820Y842D02*
X4827Y842D01*
X0Y841D02*
X7Y841D01*
X4820Y841D02*
X4827Y841D01*
X0Y840D02*
X7Y840D01*
X4820Y840D02*
X4827Y840D01*
X0Y839D02*
X7Y839D01*
X4820Y839D02*
X4827Y839D01*
X0Y838D02*
X7Y838D01*
X4820Y838D02*
X4827Y838D01*
X0Y837D02*
X7Y837D01*
X4820Y837D02*
X4827Y837D01*
X0Y836D02*
X7Y836D01*
X4820Y836D02*
X4827Y836D01*
X0Y835D02*
X7Y835D01*
X4820Y835D02*
X4827Y835D01*
X0Y834D02*
X7Y834D01*
X4820Y834D02*
X4827Y834D01*
X0Y833D02*
X7Y833D01*
X4820Y833D02*
X4827Y833D01*
X0Y832D02*
X7Y832D01*
X4820Y832D02*
X4827Y832D01*
X0Y831D02*
X7Y831D01*
X4820Y831D02*
X4827Y831D01*
X0Y830D02*
X7Y830D01*
X4820Y830D02*
X4827Y830D01*
X0Y829D02*
X7Y829D01*
X4820Y829D02*
X4827Y829D01*
X0Y828D02*
X7Y828D01*
X4820Y828D02*
X4827Y828D01*
X0Y827D02*
X7Y827D01*
X4820Y827D02*
X4827Y827D01*
X0Y826D02*
X7Y826D01*
X4820Y826D02*
X4827Y826D01*
X0Y825D02*
X7Y825D01*
X4820Y825D02*
X4827Y825D01*
X0Y824D02*
X7Y824D01*
X4820Y824D02*
X4827Y824D01*
X0Y823D02*
X7Y823D01*
X4820Y823D02*
X4827Y823D01*
X0Y822D02*
X7Y822D01*
X4820Y822D02*
X4827Y822D01*
X0Y821D02*
X7Y821D01*
X4820Y821D02*
X4827Y821D01*
X0Y820D02*
X7Y820D01*
X4820Y820D02*
X4827Y820D01*
X0Y819D02*
X7Y819D01*
X4820Y819D02*
X4827Y819D01*
X0Y818D02*
X7Y818D01*
X4820Y818D02*
X4827Y818D01*
X0Y817D02*
X7Y817D01*
X4820Y817D02*
X4827Y817D01*
X0Y816D02*
X7Y816D01*
X4820Y816D02*
X4827Y816D01*
X0Y815D02*
X7Y815D01*
X4820Y815D02*
X4827Y815D01*
X0Y814D02*
X7Y814D01*
X4820Y814D02*
X4827Y814D01*
X0Y813D02*
X7Y813D01*
X4820Y813D02*
X4827Y813D01*
X0Y812D02*
X7Y812D01*
X4820Y812D02*
X4827Y812D01*
X0Y811D02*
X7Y811D01*
X4820Y811D02*
X4827Y811D01*
X0Y810D02*
X7Y810D01*
X4820Y810D02*
X4827Y810D01*
X0Y809D02*
X7Y809D01*
X4820Y809D02*
X4827Y809D01*
X0Y808D02*
X7Y808D01*
X4820Y808D02*
X4827Y808D01*
X0Y807D02*
X7Y807D01*
X4820Y807D02*
X4827Y807D01*
X0Y806D02*
X7Y806D01*
X4820Y806D02*
X4827Y806D01*
X0Y805D02*
X7Y805D01*
X4820Y805D02*
X4827Y805D01*
X0Y804D02*
X7Y804D01*
X4820Y804D02*
X4827Y804D01*
X0Y803D02*
X7Y803D01*
X4820Y803D02*
X4827Y803D01*
X0Y802D02*
X7Y802D01*
X4820Y802D02*
X4827Y802D01*
X0Y801D02*
X7Y801D01*
X4820Y801D02*
X4827Y801D01*
X0Y800D02*
X7Y800D01*
X4820Y800D02*
X4827Y800D01*
X0Y799D02*
X7Y799D01*
X4820Y799D02*
X4827Y799D01*
X0Y798D02*
X7Y798D01*
X4820Y798D02*
X4827Y798D01*
X0Y797D02*
X7Y797D01*
X4820Y797D02*
X4827Y797D01*
X0Y796D02*
X7Y796D01*
X4820Y796D02*
X4827Y796D01*
X0Y795D02*
X7Y795D01*
X4820Y795D02*
X4827Y795D01*
X0Y794D02*
X7Y794D01*
X4820Y794D02*
X4827Y794D01*
X0Y793D02*
X7Y793D01*
X4820Y793D02*
X4827Y793D01*
X0Y792D02*
X7Y792D01*
X4820Y792D02*
X4827Y792D01*
X0Y791D02*
X7Y791D01*
X4820Y791D02*
X4827Y791D01*
X0Y790D02*
X7Y790D01*
X4820Y790D02*
X4827Y790D01*
X0Y789D02*
X7Y789D01*
X4820Y789D02*
X4827Y789D01*
X0Y788D02*
X7Y788D01*
X4820Y788D02*
X4827Y788D01*
X0Y787D02*
X7Y787D01*
X4820Y787D02*
X4827Y787D01*
X0Y786D02*
X7Y786D01*
X4820Y786D02*
X4827Y786D01*
X0Y785D02*
X7Y785D01*
X4820Y785D02*
X4827Y785D01*
X0Y784D02*
X7Y784D01*
X4820Y784D02*
X4827Y784D01*
X0Y783D02*
X7Y783D01*
X4820Y783D02*
X4827Y783D01*
X0Y782D02*
X7Y782D01*
X4820Y782D02*
X4827Y782D01*
X0Y781D02*
X7Y781D01*
X4820Y781D02*
X4827Y781D01*
X0Y780D02*
X7Y780D01*
X4820Y780D02*
X4827Y780D01*
X0Y779D02*
X7Y779D01*
X4820Y779D02*
X4827Y779D01*
X0Y778D02*
X7Y778D01*
X4820Y778D02*
X4827Y778D01*
X0Y777D02*
X7Y777D01*
X4820Y777D02*
X4827Y777D01*
X0Y776D02*
X7Y776D01*
X4820Y776D02*
X4827Y776D01*
X0Y775D02*
X7Y775D01*
X4820Y775D02*
X4827Y775D01*
X0Y774D02*
X7Y774D01*
X4820Y774D02*
X4827Y774D01*
X0Y773D02*
X7Y773D01*
X4820Y773D02*
X4827Y773D01*
X0Y772D02*
X7Y772D01*
X4820Y772D02*
X4827Y772D01*
X0Y771D02*
X7Y771D01*
X4820Y771D02*
X4827Y771D01*
X0Y770D02*
X7Y770D01*
X4820Y770D02*
X4827Y770D01*
X0Y769D02*
X7Y769D01*
X4820Y769D02*
X4827Y769D01*
X0Y768D02*
X7Y768D01*
X4820Y768D02*
X4827Y768D01*
X0Y767D02*
X7Y767D01*
X4820Y767D02*
X4827Y767D01*
X0Y766D02*
X7Y766D01*
X4820Y766D02*
X4827Y766D01*
X0Y765D02*
X7Y765D01*
X4820Y765D02*
X4827Y765D01*
X0Y764D02*
X7Y764D01*
X4820Y764D02*
X4827Y764D01*
X0Y763D02*
X7Y763D01*
X4820Y763D02*
X4827Y763D01*
X0Y762D02*
X7Y762D01*
X4820Y762D02*
X4827Y762D01*
X0Y761D02*
X7Y761D01*
X4820Y761D02*
X4827Y761D01*
X0Y760D02*
X7Y760D01*
X4820Y760D02*
X4827Y760D01*
X0Y759D02*
X7Y759D01*
X4820Y759D02*
X4827Y759D01*
X0Y758D02*
X7Y758D01*
X4820Y758D02*
X4827Y758D01*
X0Y757D02*
X7Y757D01*
X4820Y757D02*
X4827Y757D01*
X0Y756D02*
X7Y756D01*
X4820Y756D02*
X4827Y756D01*
X0Y755D02*
X7Y755D01*
X4820Y755D02*
X4827Y755D01*
X0Y754D02*
X7Y754D01*
X4820Y754D02*
X4827Y754D01*
X0Y753D02*
X7Y753D01*
X4820Y753D02*
X4827Y753D01*
X0Y752D02*
X7Y752D01*
X4820Y752D02*
X4827Y752D01*
X0Y751D02*
X7Y751D01*
X4820Y751D02*
X4827Y751D01*
X0Y750D02*
X7Y750D01*
X4820Y750D02*
X4827Y750D01*
X0Y749D02*
X7Y749D01*
X4820Y749D02*
X4827Y749D01*
X0Y748D02*
X7Y748D01*
X4820Y748D02*
X4827Y748D01*
X0Y747D02*
X7Y747D01*
X4820Y747D02*
X4827Y747D01*
X0Y746D02*
X7Y746D01*
X4820Y746D02*
X4827Y746D01*
X0Y745D02*
X7Y745D01*
X4820Y745D02*
X4827Y745D01*
X0Y744D02*
X7Y744D01*
X4820Y744D02*
X4827Y744D01*
X0Y743D02*
X7Y743D01*
X4820Y743D02*
X4827Y743D01*
X0Y742D02*
X7Y742D01*
X4820Y742D02*
X4827Y742D01*
X0Y741D02*
X7Y741D01*
X4820Y741D02*
X4827Y741D01*
X0Y740D02*
X7Y740D01*
X4820Y740D02*
X4827Y740D01*
X0Y739D02*
X7Y739D01*
X4820Y739D02*
X4827Y739D01*
X0Y738D02*
X7Y738D01*
X4820Y738D02*
X4827Y738D01*
X0Y737D02*
X7Y737D01*
X4820Y737D02*
X4827Y737D01*
X0Y736D02*
X7Y736D01*
X4820Y736D02*
X4827Y736D01*
X0Y735D02*
X7Y735D01*
X4820Y735D02*
X4827Y735D01*
X0Y734D02*
X7Y734D01*
X4820Y734D02*
X4827Y734D01*
X0Y733D02*
X7Y733D01*
X4820Y733D02*
X4827Y733D01*
X0Y732D02*
X7Y732D01*
X4820Y732D02*
X4827Y732D01*
X0Y731D02*
X7Y731D01*
X4820Y731D02*
X4827Y731D01*
X0Y730D02*
X7Y730D01*
X4820Y730D02*
X4827Y730D01*
X0Y729D02*
X7Y729D01*
X4820Y729D02*
X4827Y729D01*
X0Y728D02*
X7Y728D01*
X4820Y728D02*
X4827Y728D01*
X0Y727D02*
X7Y727D01*
X4820Y727D02*
X4827Y727D01*
X0Y726D02*
X7Y726D01*
X4820Y726D02*
X4827Y726D01*
X0Y725D02*
X7Y725D01*
X4820Y725D02*
X4827Y725D01*
X0Y724D02*
X7Y724D01*
X4820Y724D02*
X4827Y724D01*
X0Y723D02*
X7Y723D01*
X4820Y723D02*
X4827Y723D01*
X0Y722D02*
X7Y722D01*
X4820Y722D02*
X4827Y722D01*
X0Y721D02*
X7Y721D01*
X4820Y721D02*
X4827Y721D01*
X0Y720D02*
X7Y720D01*
X4820Y720D02*
X4827Y720D01*
X0Y719D02*
X7Y719D01*
X4820Y719D02*
X4827Y719D01*
X0Y718D02*
X7Y718D01*
X4820Y718D02*
X4827Y718D01*
X0Y717D02*
X7Y717D01*
X4820Y717D02*
X4827Y717D01*
X0Y716D02*
X7Y716D01*
X4820Y716D02*
X4827Y716D01*
X0Y715D02*
X7Y715D01*
X4820Y715D02*
X4827Y715D01*
X0Y714D02*
X7Y714D01*
X4820Y714D02*
X4827Y714D01*
X0Y713D02*
X7Y713D01*
X4820Y713D02*
X4827Y713D01*
X0Y712D02*
X7Y712D01*
X4820Y712D02*
X4827Y712D01*
X0Y711D02*
X7Y711D01*
X4820Y711D02*
X4827Y711D01*
X0Y710D02*
X7Y710D01*
X4820Y710D02*
X4827Y710D01*
X0Y709D02*
X7Y709D01*
X4820Y709D02*
X4827Y709D01*
X0Y708D02*
X7Y708D01*
X4820Y708D02*
X4827Y708D01*
X0Y707D02*
X7Y707D01*
X4820Y707D02*
X4827Y707D01*
X0Y706D02*
X7Y706D01*
X4820Y706D02*
X4827Y706D01*
X0Y705D02*
X7Y705D01*
X4820Y705D02*
X4827Y705D01*
X0Y704D02*
X7Y704D01*
X4820Y704D02*
X4827Y704D01*
X0Y703D02*
X7Y703D01*
X4820Y703D02*
X4827Y703D01*
X0Y702D02*
X7Y702D01*
X4820Y702D02*
X4827Y702D01*
X0Y701D02*
X7Y701D01*
X4820Y701D02*
X4827Y701D01*
X0Y700D02*
X7Y700D01*
X4820Y700D02*
X4827Y700D01*
X0Y699D02*
X7Y699D01*
X4820Y699D02*
X4827Y699D01*
X0Y698D02*
X7Y698D01*
X4820Y698D02*
X4827Y698D01*
X0Y697D02*
X7Y697D01*
X4820Y697D02*
X4827Y697D01*
X0Y696D02*
X7Y696D01*
X4820Y696D02*
X4827Y696D01*
X0Y695D02*
X7Y695D01*
X4820Y695D02*
X4827Y695D01*
X0Y694D02*
X7Y694D01*
X4820Y694D02*
X4827Y694D01*
X0Y693D02*
X7Y693D01*
X4820Y693D02*
X4827Y693D01*
X0Y692D02*
X7Y692D01*
X4820Y692D02*
X4827Y692D01*
X0Y691D02*
X7Y691D01*
X4820Y691D02*
X4827Y691D01*
X0Y690D02*
X7Y690D01*
X4820Y690D02*
X4827Y690D01*
X0Y689D02*
X7Y689D01*
X4820Y689D02*
X4827Y689D01*
X0Y688D02*
X7Y688D01*
X4820Y688D02*
X4827Y688D01*
X0Y687D02*
X7Y687D01*
X4820Y687D02*
X4827Y687D01*
X0Y686D02*
X7Y686D01*
X4820Y686D02*
X4827Y686D01*
X0Y685D02*
X7Y685D01*
X4820Y685D02*
X4827Y685D01*
X0Y684D02*
X7Y684D01*
X4820Y684D02*
X4827Y684D01*
X0Y683D02*
X7Y683D01*
X4820Y683D02*
X4827Y683D01*
X0Y682D02*
X7Y682D01*
X4820Y682D02*
X4827Y682D01*
X0Y681D02*
X7Y681D01*
X4820Y681D02*
X4827Y681D01*
X0Y680D02*
X7Y680D01*
X4820Y680D02*
X4827Y680D01*
X0Y679D02*
X7Y679D01*
X4820Y679D02*
X4827Y679D01*
X0Y678D02*
X7Y678D01*
X4820Y678D02*
X4827Y678D01*
X0Y677D02*
X7Y677D01*
X4820Y677D02*
X4827Y677D01*
X0Y676D02*
X7Y676D01*
X4820Y676D02*
X4827Y676D01*
X0Y675D02*
X7Y675D01*
X4820Y675D02*
X4827Y675D01*
X0Y674D02*
X7Y674D01*
X4820Y674D02*
X4827Y674D01*
X0Y673D02*
X7Y673D01*
X4820Y673D02*
X4827Y673D01*
X0Y672D02*
X7Y672D01*
X4820Y672D02*
X4827Y672D01*
X0Y671D02*
X7Y671D01*
X4820Y671D02*
X4827Y671D01*
X0Y670D02*
X7Y670D01*
X4820Y670D02*
X4827Y670D01*
X0Y669D02*
X7Y669D01*
X4820Y669D02*
X4827Y669D01*
X0Y668D02*
X7Y668D01*
X4820Y668D02*
X4827Y668D01*
X0Y667D02*
X7Y667D01*
X4820Y667D02*
X4827Y667D01*
X0Y666D02*
X7Y666D01*
X4820Y666D02*
X4827Y666D01*
X0Y665D02*
X7Y665D01*
X4820Y665D02*
X4827Y665D01*
X0Y664D02*
X7Y664D01*
X4820Y664D02*
X4827Y664D01*
X0Y663D02*
X7Y663D01*
X4820Y663D02*
X4827Y663D01*
X0Y662D02*
X7Y662D01*
X4820Y662D02*
X4827Y662D01*
X0Y661D02*
X7Y661D01*
X4820Y661D02*
X4827Y661D01*
X0Y660D02*
X7Y660D01*
X4820Y660D02*
X4827Y660D01*
X0Y659D02*
X7Y659D01*
X4820Y659D02*
X4827Y659D01*
X0Y658D02*
X7Y658D01*
X4820Y658D02*
X4827Y658D01*
X0Y657D02*
X7Y657D01*
X4820Y657D02*
X4827Y657D01*
X0Y656D02*
X7Y656D01*
X4820Y656D02*
X4827Y656D01*
X0Y655D02*
X7Y655D01*
X4820Y655D02*
X4827Y655D01*
X0Y654D02*
X7Y654D01*
X4820Y654D02*
X4827Y654D01*
X0Y653D02*
X7Y653D01*
X4820Y653D02*
X4827Y653D01*
X0Y652D02*
X7Y652D01*
X4820Y652D02*
X4827Y652D01*
X0Y651D02*
X7Y651D01*
X4820Y651D02*
X4827Y651D01*
X0Y650D02*
X7Y650D01*
X4820Y650D02*
X4827Y650D01*
X0Y649D02*
X7Y649D01*
X4820Y649D02*
X4827Y649D01*
X0Y648D02*
X7Y648D01*
X4820Y648D02*
X4827Y648D01*
X0Y647D02*
X7Y647D01*
X4820Y647D02*
X4827Y647D01*
X0Y646D02*
X7Y646D01*
X4820Y646D02*
X4827Y646D01*
X0Y645D02*
X7Y645D01*
X4820Y645D02*
X4827Y645D01*
X0Y644D02*
X7Y644D01*
X4820Y644D02*
X4827Y644D01*
X0Y643D02*
X7Y643D01*
X4820Y643D02*
X4827Y643D01*
X0Y642D02*
X7Y642D01*
X4820Y642D02*
X4827Y642D01*
X0Y641D02*
X7Y641D01*
X4820Y641D02*
X4827Y641D01*
X0Y640D02*
X7Y640D01*
X4820Y640D02*
X4827Y640D01*
X0Y639D02*
X7Y639D01*
X4820Y639D02*
X4827Y639D01*
X0Y638D02*
X7Y638D01*
X4820Y638D02*
X4827Y638D01*
X0Y637D02*
X7Y637D01*
X4820Y637D02*
X4827Y637D01*
X0Y636D02*
X7Y636D01*
X4820Y636D02*
X4827Y636D01*
X0Y635D02*
X7Y635D01*
X4820Y635D02*
X4827Y635D01*
X0Y634D02*
X7Y634D01*
X4820Y634D02*
X4827Y634D01*
X0Y633D02*
X7Y633D01*
X4820Y633D02*
X4827Y633D01*
X0Y632D02*
X7Y632D01*
X4820Y632D02*
X4827Y632D01*
X0Y631D02*
X7Y631D01*
X4820Y631D02*
X4827Y631D01*
X0Y630D02*
X7Y630D01*
X4820Y630D02*
X4827Y630D01*
X0Y629D02*
X7Y629D01*
X4820Y629D02*
X4827Y629D01*
X0Y628D02*
X7Y628D01*
X4820Y628D02*
X4827Y628D01*
X0Y627D02*
X7Y627D01*
X4820Y627D02*
X4827Y627D01*
X0Y626D02*
X7Y626D01*
X4820Y626D02*
X4827Y626D01*
X0Y625D02*
X7Y625D01*
X4820Y625D02*
X4827Y625D01*
X0Y624D02*
X7Y624D01*
X4820Y624D02*
X4827Y624D01*
X0Y623D02*
X7Y623D01*
X4820Y623D02*
X4827Y623D01*
X0Y622D02*
X7Y622D01*
X4820Y622D02*
X4827Y622D01*
X0Y621D02*
X7Y621D01*
X4820Y621D02*
X4827Y621D01*
X0Y620D02*
X7Y620D01*
X4820Y620D02*
X4827Y620D01*
X0Y619D02*
X7Y619D01*
X4820Y619D02*
X4827Y619D01*
X0Y618D02*
X7Y618D01*
X4820Y618D02*
X4827Y618D01*
X0Y617D02*
X7Y617D01*
X4820Y617D02*
X4827Y617D01*
X0Y616D02*
X7Y616D01*
X4820Y616D02*
X4827Y616D01*
X0Y615D02*
X7Y615D01*
X4820Y615D02*
X4827Y615D01*
X0Y614D02*
X7Y614D01*
X4820Y614D02*
X4827Y614D01*
X0Y613D02*
X7Y613D01*
X4820Y613D02*
X4827Y613D01*
X0Y612D02*
X7Y612D01*
X4820Y612D02*
X4827Y612D01*
X0Y611D02*
X7Y611D01*
X4820Y611D02*
X4827Y611D01*
X0Y610D02*
X7Y610D01*
X4820Y610D02*
X4827Y610D01*
X0Y609D02*
X7Y609D01*
X4820Y609D02*
X4827Y609D01*
X0Y608D02*
X7Y608D01*
X4820Y608D02*
X4827Y608D01*
X0Y607D02*
X7Y607D01*
X4820Y607D02*
X4827Y607D01*
X0Y606D02*
X7Y606D01*
X4820Y606D02*
X4827Y606D01*
X0Y605D02*
X7Y605D01*
X4820Y605D02*
X4827Y605D01*
X0Y604D02*
X7Y604D01*
X4820Y604D02*
X4827Y604D01*
X0Y603D02*
X7Y603D01*
X4820Y603D02*
X4827Y603D01*
X0Y602D02*
X7Y602D01*
X4820Y602D02*
X4827Y602D01*
X0Y601D02*
X7Y601D01*
X4820Y601D02*
X4827Y601D01*
X0Y600D02*
X7Y600D01*
X4820Y600D02*
X4827Y600D01*
X0Y599D02*
X7Y599D01*
X4820Y599D02*
X4827Y599D01*
X0Y598D02*
X7Y598D01*
X4820Y598D02*
X4827Y598D01*
X0Y597D02*
X7Y597D01*
X4820Y597D02*
X4827Y597D01*
X0Y596D02*
X7Y596D01*
X4820Y596D02*
X4827Y596D01*
X0Y595D02*
X7Y595D01*
X4820Y595D02*
X4827Y595D01*
X0Y594D02*
X7Y594D01*
X4820Y594D02*
X4827Y594D01*
X0Y593D02*
X7Y593D01*
X4820Y593D02*
X4827Y593D01*
X0Y592D02*
X7Y592D01*
X4820Y592D02*
X4827Y592D01*
X0Y591D02*
X7Y591D01*
X4820Y591D02*
X4827Y591D01*
X0Y590D02*
X7Y590D01*
X4820Y590D02*
X4827Y590D01*
X0Y589D02*
X7Y589D01*
X4820Y589D02*
X4827Y589D01*
X0Y588D02*
X7Y588D01*
X4820Y588D02*
X4827Y588D01*
X0Y587D02*
X7Y587D01*
X4820Y587D02*
X4827Y587D01*
X0Y586D02*
X7Y586D01*
X4820Y586D02*
X4827Y586D01*
X0Y585D02*
X7Y585D01*
X4820Y585D02*
X4827Y585D01*
X0Y584D02*
X7Y584D01*
X4820Y584D02*
X4827Y584D01*
X0Y583D02*
X7Y583D01*
X4820Y583D02*
X4827Y583D01*
X0Y582D02*
X7Y582D01*
X4820Y582D02*
X4827Y582D01*
X0Y581D02*
X7Y581D01*
X4820Y581D02*
X4827Y581D01*
X0Y580D02*
X7Y580D01*
X4820Y580D02*
X4827Y580D01*
X0Y579D02*
X7Y579D01*
X4820Y579D02*
X4827Y579D01*
X0Y578D02*
X7Y578D01*
X4820Y578D02*
X4827Y578D01*
X0Y577D02*
X7Y577D01*
X4820Y577D02*
X4827Y577D01*
X0Y576D02*
X7Y576D01*
X4820Y576D02*
X4827Y576D01*
X0Y575D02*
X7Y575D01*
X4820Y575D02*
X4827Y575D01*
X0Y574D02*
X7Y574D01*
X4820Y574D02*
X4827Y574D01*
X0Y573D02*
X7Y573D01*
X4820Y573D02*
X4827Y573D01*
X0Y572D02*
X7Y572D01*
X4820Y572D02*
X4827Y572D01*
X0Y571D02*
X7Y571D01*
X4820Y571D02*
X4827Y571D01*
X0Y570D02*
X7Y570D01*
X4820Y570D02*
X4827Y570D01*
X0Y569D02*
X7Y569D01*
X4820Y569D02*
X4827Y569D01*
X0Y568D02*
X7Y568D01*
X4820Y568D02*
X4827Y568D01*
X0Y567D02*
X7Y567D01*
X4820Y567D02*
X4827Y567D01*
X0Y566D02*
X7Y566D01*
X4820Y566D02*
X4827Y566D01*
X0Y565D02*
X7Y565D01*
X4820Y565D02*
X4827Y565D01*
X0Y564D02*
X7Y564D01*
X4820Y564D02*
X4827Y564D01*
X0Y563D02*
X7Y563D01*
X4820Y563D02*
X4827Y563D01*
X0Y562D02*
X7Y562D01*
X4820Y562D02*
X4827Y562D01*
X0Y561D02*
X7Y561D01*
X4820Y561D02*
X4827Y561D01*
X0Y560D02*
X7Y560D01*
X4820Y560D02*
X4827Y560D01*
X0Y559D02*
X7Y559D01*
X4820Y559D02*
X4827Y559D01*
X0Y558D02*
X7Y558D01*
X4820Y558D02*
X4827Y558D01*
X0Y557D02*
X7Y557D01*
X4820Y557D02*
X4827Y557D01*
X0Y556D02*
X7Y556D01*
X4820Y556D02*
X4827Y556D01*
X0Y555D02*
X7Y555D01*
X4820Y555D02*
X4827Y555D01*
X0Y554D02*
X7Y554D01*
X4820Y554D02*
X4827Y554D01*
X0Y553D02*
X7Y553D01*
X4820Y553D02*
X4827Y553D01*
X0Y552D02*
X7Y552D01*
X4820Y552D02*
X4827Y552D01*
X0Y551D02*
X7Y551D01*
X4820Y551D02*
X4827Y551D01*
X0Y550D02*
X7Y550D01*
X4820Y550D02*
X4827Y550D01*
X0Y549D02*
X7Y549D01*
X4820Y549D02*
X4827Y549D01*
X0Y548D02*
X7Y548D01*
X4820Y548D02*
X4827Y548D01*
X0Y547D02*
X7Y547D01*
X4820Y547D02*
X4827Y547D01*
X0Y546D02*
X7Y546D01*
X4820Y546D02*
X4827Y546D01*
X0Y545D02*
X7Y545D01*
X4820Y545D02*
X4827Y545D01*
X0Y544D02*
X7Y544D01*
X4820Y544D02*
X4827Y544D01*
X0Y543D02*
X7Y543D01*
X4820Y543D02*
X4827Y543D01*
X0Y542D02*
X7Y542D01*
X4820Y542D02*
X4827Y542D01*
X0Y541D02*
X7Y541D01*
X4820Y541D02*
X4827Y541D01*
X0Y540D02*
X7Y540D01*
X4820Y540D02*
X4827Y540D01*
X0Y539D02*
X7Y539D01*
X4820Y539D02*
X4827Y539D01*
X0Y538D02*
X7Y538D01*
X4820Y538D02*
X4827Y538D01*
X0Y537D02*
X7Y537D01*
X4820Y537D02*
X4827Y537D01*
X0Y536D02*
X7Y536D01*
X4820Y536D02*
X4827Y536D01*
X0Y535D02*
X7Y535D01*
X4820Y535D02*
X4827Y535D01*
X0Y534D02*
X7Y534D01*
X4820Y534D02*
X4827Y534D01*
X0Y533D02*
X7Y533D01*
X4820Y533D02*
X4827Y533D01*
X0Y532D02*
X7Y532D01*
X4820Y532D02*
X4827Y532D01*
X0Y531D02*
X7Y531D01*
X4820Y531D02*
X4827Y531D01*
X0Y530D02*
X7Y530D01*
X4820Y530D02*
X4827Y530D01*
X0Y529D02*
X7Y529D01*
X4820Y529D02*
X4827Y529D01*
X0Y528D02*
X7Y528D01*
X4820Y528D02*
X4827Y528D01*
X0Y527D02*
X7Y527D01*
X4820Y527D02*
X4827Y527D01*
X0Y526D02*
X7Y526D01*
X4820Y526D02*
X4827Y526D01*
X0Y525D02*
X7Y525D01*
X4820Y525D02*
X4827Y525D01*
X0Y524D02*
X7Y524D01*
X4820Y524D02*
X4827Y524D01*
X0Y523D02*
X7Y523D01*
X4820Y523D02*
X4827Y523D01*
X0Y522D02*
X7Y522D01*
X4820Y522D02*
X4827Y522D01*
X0Y521D02*
X7Y521D01*
X4820Y521D02*
X4827Y521D01*
X0Y520D02*
X7Y520D01*
X4820Y520D02*
X4827Y520D01*
X0Y519D02*
X7Y519D01*
X4820Y519D02*
X4827Y519D01*
X0Y518D02*
X7Y518D01*
X4820Y518D02*
X4827Y518D01*
X0Y517D02*
X7Y517D01*
X4820Y517D02*
X4827Y517D01*
X0Y516D02*
X7Y516D01*
X4820Y516D02*
X4827Y516D01*
X0Y515D02*
X7Y515D01*
X4820Y515D02*
X4827Y515D01*
X0Y514D02*
X7Y514D01*
X4820Y514D02*
X4827Y514D01*
X0Y513D02*
X7Y513D01*
X4820Y513D02*
X4827Y513D01*
X0Y512D02*
X7Y512D01*
X4820Y512D02*
X4827Y512D01*
X0Y511D02*
X7Y511D01*
X4820Y511D02*
X4827Y511D01*
X0Y510D02*
X7Y510D01*
X4820Y510D02*
X4827Y510D01*
X0Y509D02*
X7Y509D01*
X4820Y509D02*
X4827Y509D01*
X0Y508D02*
X7Y508D01*
X4820Y508D02*
X4827Y508D01*
X0Y507D02*
X7Y507D01*
X4820Y507D02*
X4827Y507D01*
X0Y506D02*
X7Y506D01*
X4820Y506D02*
X4827Y506D01*
X0Y505D02*
X7Y505D01*
X4820Y505D02*
X4827Y505D01*
X0Y504D02*
X7Y504D01*
X4820Y504D02*
X4827Y504D01*
X0Y503D02*
X7Y503D01*
X4820Y503D02*
X4827Y503D01*
X0Y502D02*
X7Y502D01*
X4820Y502D02*
X4827Y502D01*
X0Y501D02*
X7Y501D01*
X4820Y501D02*
X4827Y501D01*
X0Y500D02*
X7Y500D01*
X4820Y500D02*
X4827Y500D01*
X0Y499D02*
X7Y499D01*
X4820Y499D02*
X4827Y499D01*
X0Y498D02*
X7Y498D01*
X4820Y498D02*
X4827Y498D01*
X0Y497D02*
X7Y497D01*
X4820Y497D02*
X4827Y497D01*
X0Y496D02*
X7Y496D01*
X4820Y496D02*
X4827Y496D01*
X0Y495D02*
X7Y495D01*
X4820Y495D02*
X4827Y495D01*
X0Y494D02*
X7Y494D01*
X4820Y494D02*
X4827Y494D01*
X0Y493D02*
X7Y493D01*
X4820Y493D02*
X4827Y493D01*
X0Y492D02*
X7Y492D01*
X4820Y492D02*
X4827Y492D01*
X0Y491D02*
X7Y491D01*
X4820Y491D02*
X4827Y491D01*
X0Y490D02*
X7Y490D01*
X4820Y490D02*
X4827Y490D01*
X0Y489D02*
X7Y489D01*
X4820Y489D02*
X4827Y489D01*
X0Y488D02*
X7Y488D01*
X4820Y488D02*
X4827Y488D01*
X0Y487D02*
X7Y487D01*
X4820Y487D02*
X4827Y487D01*
X0Y486D02*
X7Y486D01*
X4820Y486D02*
X4827Y486D01*
X0Y485D02*
X7Y485D01*
X4820Y485D02*
X4827Y485D01*
X0Y484D02*
X7Y484D01*
X4820Y484D02*
X4827Y484D01*
X0Y483D02*
X7Y483D01*
X4820Y483D02*
X4827Y483D01*
X0Y482D02*
X7Y482D01*
X4820Y482D02*
X4827Y482D01*
X0Y481D02*
X7Y481D01*
X4820Y481D02*
X4827Y481D01*
X0Y480D02*
X7Y480D01*
X4820Y480D02*
X4827Y480D01*
X0Y479D02*
X7Y479D01*
X4820Y479D02*
X4827Y479D01*
X0Y478D02*
X7Y478D01*
X4820Y478D02*
X4827Y478D01*
X0Y477D02*
X7Y477D01*
X4820Y477D02*
X4827Y477D01*
X0Y476D02*
X7Y476D01*
X4820Y476D02*
X4827Y476D01*
X0Y475D02*
X7Y475D01*
X4820Y475D02*
X4827Y475D01*
X0Y474D02*
X7Y474D01*
X4820Y474D02*
X4827Y474D01*
X0Y473D02*
X7Y473D01*
X4820Y473D02*
X4827Y473D01*
X0Y472D02*
X7Y472D01*
X4820Y472D02*
X4827Y472D01*
X0Y471D02*
X7Y471D01*
X4820Y471D02*
X4827Y471D01*
X0Y470D02*
X7Y470D01*
X4820Y470D02*
X4827Y470D01*
X0Y469D02*
X7Y469D01*
X4820Y469D02*
X4827Y469D01*
X0Y468D02*
X7Y468D01*
X4820Y468D02*
X4827Y468D01*
X0Y467D02*
X7Y467D01*
X4820Y467D02*
X4827Y467D01*
X0Y466D02*
X7Y466D01*
X4820Y466D02*
X4827Y466D01*
X0Y465D02*
X7Y465D01*
X4820Y465D02*
X4827Y465D01*
X0Y464D02*
X7Y464D01*
X4820Y464D02*
X4827Y464D01*
X0Y463D02*
X7Y463D01*
X4820Y463D02*
X4827Y463D01*
X0Y462D02*
X7Y462D01*
X4820Y462D02*
X4827Y462D01*
X0Y461D02*
X7Y461D01*
X4820Y461D02*
X4827Y461D01*
X0Y460D02*
X7Y460D01*
X4820Y460D02*
X4827Y460D01*
X0Y459D02*
X7Y459D01*
X4820Y459D02*
X4827Y459D01*
X0Y458D02*
X7Y458D01*
X4820Y458D02*
X4827Y458D01*
X0Y457D02*
X7Y457D01*
X4820Y457D02*
X4827Y457D01*
X0Y456D02*
X7Y456D01*
X4820Y456D02*
X4827Y456D01*
X0Y455D02*
X7Y455D01*
X4820Y455D02*
X4827Y455D01*
X0Y454D02*
X7Y454D01*
X4820Y454D02*
X4827Y454D01*
X0Y453D02*
X7Y453D01*
X4820Y453D02*
X4827Y453D01*
X0Y452D02*
X7Y452D01*
X4820Y452D02*
X4827Y452D01*
X0Y451D02*
X7Y451D01*
X4820Y451D02*
X4827Y451D01*
X0Y450D02*
X7Y450D01*
X4820Y450D02*
X4827Y450D01*
X0Y449D02*
X7Y449D01*
X4820Y449D02*
X4827Y449D01*
X0Y448D02*
X7Y448D01*
X4820Y448D02*
X4827Y448D01*
X0Y447D02*
X7Y447D01*
X4820Y447D02*
X4827Y447D01*
X0Y446D02*
X7Y446D01*
X4820Y446D02*
X4827Y446D01*
X0Y445D02*
X7Y445D01*
X4820Y445D02*
X4827Y445D01*
X0Y444D02*
X7Y444D01*
X4820Y444D02*
X4827Y444D01*
X0Y443D02*
X7Y443D01*
X4820Y443D02*
X4827Y443D01*
X0Y442D02*
X7Y442D01*
X4820Y442D02*
X4827Y442D01*
X0Y441D02*
X7Y441D01*
X4820Y441D02*
X4827Y441D01*
X0Y440D02*
X7Y440D01*
X4820Y440D02*
X4827Y440D01*
X0Y439D02*
X7Y439D01*
X4820Y439D02*
X4827Y439D01*
X0Y438D02*
X7Y438D01*
X4820Y438D02*
X4827Y438D01*
X0Y437D02*
X7Y437D01*
X4820Y437D02*
X4827Y437D01*
X0Y436D02*
X7Y436D01*
X4820Y436D02*
X4827Y436D01*
X0Y435D02*
X7Y435D01*
X4820Y435D02*
X4827Y435D01*
X0Y434D02*
X7Y434D01*
X4820Y434D02*
X4827Y434D01*
X0Y433D02*
X7Y433D01*
X4820Y433D02*
X4827Y433D01*
X0Y432D02*
X7Y432D01*
X4820Y432D02*
X4827Y432D01*
X0Y431D02*
X7Y431D01*
X4820Y431D02*
X4827Y431D01*
X0Y430D02*
X7Y430D01*
X4820Y430D02*
X4827Y430D01*
X0Y429D02*
X7Y429D01*
X4820Y429D02*
X4827Y429D01*
X0Y428D02*
X7Y428D01*
X4820Y428D02*
X4827Y428D01*
X0Y427D02*
X7Y427D01*
X4820Y427D02*
X4827Y427D01*
X0Y426D02*
X7Y426D01*
X4820Y426D02*
X4827Y426D01*
X0Y425D02*
X7Y425D01*
X4820Y425D02*
X4827Y425D01*
X0Y424D02*
X7Y424D01*
X4820Y424D02*
X4827Y424D01*
X0Y423D02*
X7Y423D01*
X4820Y423D02*
X4827Y423D01*
X0Y422D02*
X7Y422D01*
X4820Y422D02*
X4827Y422D01*
X0Y421D02*
X7Y421D01*
X4820Y421D02*
X4827Y421D01*
X0Y420D02*
X7Y420D01*
X4820Y420D02*
X4827Y420D01*
X0Y419D02*
X7Y419D01*
X4820Y419D02*
X4827Y419D01*
X0Y418D02*
X7Y418D01*
X4820Y418D02*
X4827Y418D01*
X0Y417D02*
X7Y417D01*
X4820Y417D02*
X4827Y417D01*
X0Y416D02*
X7Y416D01*
X4820Y416D02*
X4827Y416D01*
X0Y415D02*
X7Y415D01*
X4820Y415D02*
X4827Y415D01*
X0Y414D02*
X7Y414D01*
X4820Y414D02*
X4827Y414D01*
X0Y413D02*
X7Y413D01*
X4820Y413D02*
X4827Y413D01*
X0Y412D02*
X7Y412D01*
X4820Y412D02*
X4827Y412D01*
X0Y411D02*
X7Y411D01*
X4820Y411D02*
X4827Y411D01*
X0Y410D02*
X7Y410D01*
X4820Y410D02*
X4827Y410D01*
X0Y409D02*
X7Y409D01*
X4820Y409D02*
X4827Y409D01*
X0Y408D02*
X7Y408D01*
X4820Y408D02*
X4827Y408D01*
X0Y407D02*
X7Y407D01*
X4820Y407D02*
X4827Y407D01*
X0Y406D02*
X7Y406D01*
X4820Y406D02*
X4827Y406D01*
X0Y405D02*
X7Y405D01*
X4820Y405D02*
X4827Y405D01*
X0Y404D02*
X7Y404D01*
X4820Y404D02*
X4827Y404D01*
X0Y403D02*
X7Y403D01*
X4820Y403D02*
X4827Y403D01*
X0Y402D02*
X7Y402D01*
X4820Y402D02*
X4827Y402D01*
X0Y401D02*
X7Y401D01*
X4820Y401D02*
X4827Y401D01*
X0Y400D02*
X7Y400D01*
X4820Y400D02*
X4827Y400D01*
X0Y399D02*
X7Y399D01*
X4820Y399D02*
X4827Y399D01*
X0Y398D02*
X7Y398D01*
X4820Y398D02*
X4827Y398D01*
X0Y397D02*
X7Y397D01*
X4820Y397D02*
X4827Y397D01*
X0Y396D02*
X7Y396D01*
X4820Y396D02*
X4827Y396D01*
X0Y395D02*
X7Y395D01*
X4820Y395D02*
X4827Y395D01*
X0Y394D02*
X7Y394D01*
X4820Y394D02*
X4827Y394D01*
X0Y393D02*
X7Y393D01*
X4820Y393D02*
X4827Y393D01*
X0Y392D02*
X7Y392D01*
X4820Y392D02*
X4827Y392D01*
X0Y391D02*
X7Y391D01*
X4820Y391D02*
X4827Y391D01*
X0Y390D02*
X7Y390D01*
X4820Y390D02*
X4827Y390D01*
X0Y389D02*
X7Y389D01*
X4820Y389D02*
X4827Y389D01*
X0Y388D02*
X7Y388D01*
X4820Y388D02*
X4827Y388D01*
X0Y387D02*
X7Y387D01*
X4820Y387D02*
X4827Y387D01*
X0Y386D02*
X7Y386D01*
X4820Y386D02*
X4827Y386D01*
X0Y385D02*
X7Y385D01*
X4820Y385D02*
X4827Y385D01*
X0Y384D02*
X7Y384D01*
X4820Y384D02*
X4827Y384D01*
X0Y383D02*
X7Y383D01*
X4820Y383D02*
X4827Y383D01*
X0Y382D02*
X7Y382D01*
X4820Y382D02*
X4827Y382D01*
X0Y381D02*
X7Y381D01*
X4820Y381D02*
X4827Y381D01*
X0Y380D02*
X7Y380D01*
X4820Y380D02*
X4827Y380D01*
X0Y379D02*
X7Y379D01*
X4820Y379D02*
X4827Y379D01*
X0Y378D02*
X7Y378D01*
X4820Y378D02*
X4827Y378D01*
X0Y377D02*
X7Y377D01*
X4820Y377D02*
X4827Y377D01*
X0Y376D02*
X7Y376D01*
X4820Y376D02*
X4827Y376D01*
X0Y375D02*
X7Y375D01*
X4820Y375D02*
X4827Y375D01*
X0Y374D02*
X7Y374D01*
X4820Y374D02*
X4827Y374D01*
X0Y373D02*
X7Y373D01*
X4820Y373D02*
X4827Y373D01*
X0Y372D02*
X7Y372D01*
X4820Y372D02*
X4827Y372D01*
X0Y371D02*
X7Y371D01*
X4820Y371D02*
X4827Y371D01*
X0Y370D02*
X7Y370D01*
X4820Y370D02*
X4827Y370D01*
X1Y369D02*
X8Y369D01*
X4819Y369D02*
X4826Y369D01*
X1Y368D02*
X8Y368D01*
X4819Y368D02*
X4826Y368D01*
X1Y367D02*
X8Y367D01*
X4819Y367D02*
X4826Y367D01*
X1Y366D02*
X8Y366D01*
X4819Y366D02*
X4826Y366D01*
X1Y365D02*
X8Y365D01*
X4819Y365D02*
X4826Y365D01*
X1Y364D02*
X8Y364D01*
X4819Y364D02*
X4826Y364D01*
X1Y363D02*
X8Y363D01*
X4819Y363D02*
X4826Y363D01*
X1Y362D02*
X8Y362D01*
X4819Y362D02*
X4826Y362D01*
X1Y361D02*
X8Y361D01*
X4819Y361D02*
X4826Y361D01*
X1Y360D02*
X8Y360D01*
X4819Y360D02*
X4826Y360D01*
X1Y359D02*
X8Y359D01*
X4819Y359D02*
X4826Y359D01*
X1Y358D02*
X8Y358D01*
X4819Y358D02*
X4826Y358D01*
X1Y357D02*
X8Y357D01*
X4819Y357D02*
X4826Y357D01*
X1Y356D02*
X8Y356D01*
X4819Y356D02*
X4826Y356D01*
X2Y355D02*
X9Y355D01*
X4818Y355D02*
X4825Y355D01*
X2Y354D02*
X9Y354D01*
X4818Y354D02*
X4825Y354D01*
X2Y353D02*
X9Y353D01*
X4818Y353D02*
X4825Y353D01*
X2Y352D02*
X9Y352D01*
X4818Y352D02*
X4825Y352D01*
X2Y351D02*
X9Y351D01*
X4818Y351D02*
X4825Y351D01*
X2Y350D02*
X9Y350D01*
X4818Y350D02*
X4825Y350D01*
X2Y349D02*
X9Y349D01*
X4818Y349D02*
X4825Y349D01*
X2Y348D02*
X9Y348D01*
X4818Y348D02*
X4825Y348D01*
X2Y347D02*
X9Y347D01*
X4818Y347D02*
X4825Y347D01*
X2Y346D02*
X9Y346D01*
X4818Y346D02*
X4825Y346D01*
X3Y345D02*
X10Y345D01*
X4817Y345D02*
X4824Y345D01*
X3Y344D02*
X10Y344D01*
X4817Y344D02*
X4824Y344D01*
X3Y343D02*
X10Y343D01*
X4817Y343D02*
X4824Y343D01*
X3Y342D02*
X10Y342D01*
X4817Y342D02*
X4824Y342D01*
X3Y341D02*
X10Y341D01*
X4817Y341D02*
X4824Y341D01*
X3Y340D02*
X10Y340D01*
X4817Y340D02*
X4824Y340D01*
X3Y339D02*
X10Y339D01*
X4817Y339D02*
X4824Y339D01*
X3Y338D02*
X10Y338D01*
X4817Y338D02*
X4824Y338D01*
X4Y337D02*
X11Y337D01*
X4816Y337D02*
X4823Y337D01*
X4Y336D02*
X11Y336D01*
X4816Y336D02*
X4823Y336D01*
X4Y335D02*
X11Y335D01*
X4816Y335D02*
X4823Y335D01*
X4Y334D02*
X11Y334D01*
X4816Y334D02*
X4823Y334D01*
X4Y333D02*
X11Y333D01*
X4816Y333D02*
X4823Y333D01*
X4Y332D02*
X11Y332D01*
X4816Y332D02*
X4823Y332D01*
X4Y331D02*
X11Y331D01*
X4816Y331D02*
X4823Y331D01*
X5Y330D02*
X12Y330D01*
X4815Y330D02*
X4822Y330D01*
X5Y329D02*
X12Y329D01*
X4815Y329D02*
X4822Y329D01*
X5Y328D02*
X12Y328D01*
X4815Y328D02*
X4822Y328D01*
X5Y327D02*
X12Y327D01*
X4815Y327D02*
X4822Y327D01*
X5Y326D02*
X12Y326D01*
X4815Y326D02*
X4822Y326D01*
X5Y325D02*
X12Y325D01*
X4815Y325D02*
X4822Y325D01*
X6Y324D02*
X13Y324D01*
X4814Y324D02*
X4821Y324D01*
X6Y323D02*
X13Y323D01*
X4814Y323D02*
X4821Y323D01*
X6Y322D02*
X13Y322D01*
X4814Y322D02*
X4821Y322D01*
X6Y321D02*
X13Y321D01*
X4814Y321D02*
X4821Y321D01*
X6Y320D02*
X13Y320D01*
X4814Y320D02*
X4821Y320D01*
X6Y319D02*
X14Y319D01*
X4813Y319D02*
X4821Y319D01*
X7Y318D02*
X14Y318D01*
X4813Y318D02*
X4820Y318D01*
X7Y317D02*
X14Y317D01*
X4813Y317D02*
X4820Y317D01*
X7Y316D02*
X14Y316D01*
X4813Y316D02*
X4820Y316D01*
X7Y315D02*
X14Y315D01*
X4813Y315D02*
X4820Y315D01*
X7Y314D02*
X14Y314D01*
X4813Y314D02*
X4820Y314D01*
X8Y313D02*
X15Y313D01*
X4812Y313D02*
X4819Y313D01*
X8Y312D02*
X15Y312D01*
X4812Y312D02*
X4819Y312D01*
X8Y311D02*
X15Y311D01*
X4812Y311D02*
X4819Y311D01*
X8Y310D02*
X15Y310D01*
X4812Y310D02*
X4819Y310D01*
X8Y309D02*
X16Y309D01*
X4811Y309D02*
X4819Y309D01*
X9Y308D02*
X16Y308D01*
X4811Y308D02*
X4818Y308D01*
X9Y307D02*
X16Y307D01*
X4811Y307D02*
X4818Y307D01*
X9Y306D02*
X16Y306D01*
X4811Y306D02*
X4818Y306D01*
X9Y305D02*
X16Y305D01*
X4811Y305D02*
X4818Y305D01*
X10Y304D02*
X17Y304D01*
X4810Y304D02*
X4817Y304D01*
X10Y303D02*
X17Y303D01*
X4810Y303D02*
X4817Y303D01*
X10Y302D02*
X17Y302D01*
X4810Y302D02*
X4817Y302D01*
X10Y301D02*
X17Y301D01*
X4810Y301D02*
X4817Y301D01*
X10Y300D02*
X18Y300D01*
X4809Y300D02*
X4817Y300D01*
X11Y299D02*
X18Y299D01*
X4809Y299D02*
X4816Y299D01*
X11Y298D02*
X18Y298D01*
X4809Y298D02*
X4816Y298D01*
X11Y297D02*
X18Y297D01*
X4809Y297D02*
X4816Y297D01*
X11Y296D02*
X19Y296D01*
X4808Y296D02*
X4816Y296D01*
X12Y295D02*
X19Y295D01*
X4808Y295D02*
X4815Y295D01*
X12Y294D02*
X19Y294D01*
X4808Y294D02*
X4815Y294D01*
X12Y293D02*
X19Y293D01*
X4808Y293D02*
X4815Y293D01*
X12Y292D02*
X20Y292D01*
X4807Y292D02*
X4815Y292D01*
X13Y291D02*
X20Y291D01*
X4807Y291D02*
X4814Y291D01*
X13Y290D02*
X20Y290D01*
X4807Y290D02*
X4814Y290D01*
X13Y289D02*
X20Y289D01*
X4807Y289D02*
X4814Y289D01*
X14Y288D02*
X21Y288D01*
X4806Y288D02*
X4813Y288D01*
X14Y287D02*
X21Y287D01*
X4806Y287D02*
X4813Y287D01*
X14Y286D02*
X21Y286D01*
X4806Y286D02*
X4813Y286D01*
X14Y285D02*
X22Y285D01*
X4805Y285D02*
X4813Y285D01*
X15Y284D02*
X22Y284D01*
X4805Y284D02*
X4812Y284D01*
X15Y283D02*
X22Y283D01*
X4805Y283D02*
X4812Y283D01*
X15Y282D02*
X22Y282D01*
X4805Y282D02*
X4812Y282D01*
X15Y281D02*
X23Y281D01*
X4804Y281D02*
X4812Y281D01*
X16Y280D02*
X23Y280D01*
X4804Y280D02*
X4811Y280D01*
X16Y279D02*
X23Y279D01*
X4804Y279D02*
X4811Y279D01*
X16Y278D02*
X24Y278D01*
X4803Y278D02*
X4811Y278D01*
X17Y277D02*
X24Y277D01*
X4803Y277D02*
X4810Y277D01*
X17Y276D02*
X24Y276D01*
X4803Y276D02*
X4810Y276D01*
X17Y275D02*
X25Y275D01*
X4802Y275D02*
X4810Y275D01*
X18Y274D02*
X25Y274D01*
X4802Y274D02*
X4809Y274D01*
X18Y273D02*
X25Y273D01*
X4802Y273D02*
X4809Y273D01*
X18Y272D02*
X26Y272D01*
X4801Y272D02*
X4809Y272D01*
X19Y271D02*
X26Y271D01*
X4801Y271D02*
X4808Y271D01*
X19Y270D02*
X26Y270D01*
X4801Y270D02*
X4808Y270D01*
X19Y269D02*
X27Y269D01*
X4800Y269D02*
X4808Y269D01*
X20Y268D02*
X27Y268D01*
X4800Y268D02*
X4807Y268D01*
X20Y267D02*
X27Y267D01*
X4800Y267D02*
X4807Y267D01*
X20Y266D02*
X28Y266D01*
X4799Y266D02*
X4807Y266D01*
X21Y265D02*
X28Y265D01*
X4799Y265D02*
X4806Y265D01*
X21Y264D02*
X28Y264D01*
X4799Y264D02*
X4806Y264D01*
X21Y263D02*
X29Y263D01*
X4798Y263D02*
X4806Y263D01*
X22Y262D02*
X29Y262D01*
X4798Y262D02*
X4805Y262D01*
X22Y261D02*
X29Y261D01*
X4798Y261D02*
X4805Y261D01*
X22Y260D02*
X30Y260D01*
X4797Y260D02*
X4805Y260D01*
X23Y259D02*
X30Y259D01*
X4797Y259D02*
X4804Y259D01*
X23Y258D02*
X30Y258D01*
X4797Y258D02*
X4804Y258D01*
X23Y257D02*
X31Y257D01*
X4796Y257D02*
X4804Y257D01*
X24Y256D02*
X31Y256D01*
X4796Y256D02*
X4803Y256D01*
X24Y255D02*
X32Y255D01*
X4795Y255D02*
X4803Y255D01*
X25Y254D02*
X32Y254D01*
X4795Y254D02*
X4802Y254D01*
X25Y253D02*
X32Y253D01*
X4795Y253D02*
X4802Y253D01*
X25Y252D02*
X33Y252D01*
X4794Y252D02*
X4802Y252D01*
X26Y251D02*
X33Y251D01*
X4794Y251D02*
X4801Y251D01*
X26Y250D02*
X34Y250D01*
X4793Y250D02*
X4801Y250D01*
X26Y249D02*
X34Y249D01*
X4793Y249D02*
X4801Y249D01*
X27Y248D02*
X34Y248D01*
X4793Y248D02*
X4800Y248D01*
X27Y247D02*
X35Y247D01*
X4792Y247D02*
X4800Y247D01*
X28Y246D02*
X35Y246D01*
X4792Y246D02*
X4799Y246D01*
X28Y245D02*
X36Y245D01*
X4791Y245D02*
X4799Y245D01*
X28Y244D02*
X36Y244D01*
X4791Y244D02*
X4799Y244D01*
X29Y243D02*
X36Y243D01*
X4791Y243D02*
X4798Y243D01*
X29Y242D02*
X37Y242D01*
X4790Y242D02*
X4798Y242D01*
X30Y241D02*
X37Y241D01*
X4790Y241D02*
X4797Y241D01*
X30Y240D02*
X38Y240D01*
X4789Y240D02*
X4797Y240D01*
X30Y239D02*
X38Y239D01*
X4789Y239D02*
X4797Y239D01*
X31Y238D02*
X38Y238D01*
X4789Y238D02*
X4796Y238D01*
X31Y237D02*
X39Y237D01*
X4788Y237D02*
X4796Y237D01*
X32Y236D02*
X39Y236D01*
X4788Y236D02*
X4795Y236D01*
X32Y235D02*
X40Y235D01*
X4787Y235D02*
X4795Y235D01*
X33Y234D02*
X40Y234D01*
X4787Y234D02*
X4794Y234D01*
X33Y233D02*
X41Y233D01*
X4786Y233D02*
X4794Y233D01*
X34Y232D02*
X41Y232D01*
X4786Y232D02*
X4793Y232D01*
X34Y231D02*
X42Y231D01*
X4785Y231D02*
X4793Y231D01*
X35Y230D02*
X42Y230D01*
X4785Y230D02*
X4792Y230D01*
X35Y229D02*
X43Y229D01*
X4784Y229D02*
X4792Y229D01*
X35Y228D02*
X43Y228D01*
X4784Y228D02*
X4792Y228D01*
X36Y227D02*
X43Y227D01*
X4784Y227D02*
X4791Y227D01*
X36Y226D02*
X44Y226D01*
X4783Y226D02*
X4791Y226D01*
X37Y225D02*
X44Y225D01*
X4783Y225D02*
X4790Y225D01*
X37Y224D02*
X45Y224D01*
X4782Y224D02*
X4790Y224D01*
X38Y223D02*
X45Y223D01*
X4782Y223D02*
X4789Y223D01*
X38Y222D02*
X46Y222D01*
X4781Y222D02*
X4789Y222D01*
X39Y221D02*
X46Y221D01*
X4781Y221D02*
X4788Y221D01*
X39Y220D02*
X47Y220D01*
X4780Y220D02*
X4788Y220D01*
X40Y219D02*
X47Y219D01*
X4780Y219D02*
X4787Y219D01*
X40Y218D02*
X48Y218D01*
X4779Y218D02*
X4787Y218D01*
X41Y217D02*
X49Y217D01*
X4779Y217D02*
X4786Y217D01*
X41Y216D02*
X49Y216D01*
X4778Y216D02*
X4786Y216D01*
X42Y215D02*
X50Y215D01*
X4777Y215D02*
X4785Y215D01*
X42Y214D02*
X50Y214D01*
X4777Y214D02*
X4785Y214D01*
X43Y213D02*
X51Y213D01*
X4776Y213D02*
X4784Y213D01*
X43Y212D02*
X51Y212D01*
X4776Y212D02*
X4784Y212D01*
X44Y211D02*
X52Y211D01*
X4775Y211D02*
X4783Y211D01*
X44Y210D02*
X52Y210D01*
X4775Y210D02*
X4783Y210D01*
X45Y209D02*
X53Y209D01*
X4774Y209D02*
X4782Y209D01*
X45Y208D02*
X53Y208D01*
X4774Y208D02*
X4782Y208D01*
X46Y207D02*
X54Y207D01*
X4773Y207D02*
X4781Y207D01*
X46Y206D02*
X54Y206D01*
X4773Y206D02*
X4781Y206D01*
X47Y205D02*
X55Y205D01*
X4772Y205D02*
X4780Y205D01*
X47Y204D02*
X55Y204D01*
X4772Y204D02*
X4780Y204D01*
X48Y203D02*
X56Y203D01*
X4771Y203D02*
X4779Y203D01*
X49Y202D02*
X57Y202D01*
X4770Y202D02*
X4778Y202D01*
X49Y201D02*
X57Y201D01*
X4770Y201D02*
X4778Y201D01*
X50Y200D02*
X58Y200D01*
X4769Y200D02*
X4777Y200D01*
X50Y199D02*
X58Y199D01*
X4769Y199D02*
X4777Y199D01*
X51Y198D02*
X59Y198D01*
X4768Y198D02*
X4776Y198D01*
X51Y197D02*
X60Y197D01*
X4767Y197D02*
X4776Y197D01*
X52Y196D02*
X60Y196D01*
X4767Y196D02*
X4775Y196D01*
X53Y195D02*
X61Y195D01*
X4766Y195D02*
X4774Y195D01*
X53Y194D02*
X61Y194D01*
X4766Y194D02*
X4774Y194D01*
X54Y193D02*
X62Y193D01*
X4765Y193D02*
X4773Y193D01*
X54Y192D02*
X62Y192D01*
X4765Y192D02*
X4773Y192D01*
X55Y191D02*
X63Y191D01*
X4764Y191D02*
X4772Y191D01*
X55Y190D02*
X64Y190D01*
X4763Y190D02*
X4772Y190D01*
X56Y189D02*
X64Y189D01*
X4763Y189D02*
X4771Y189D01*
X57Y188D02*
X65Y188D01*
X4762Y188D02*
X4770Y188D01*
X57Y187D02*
X66Y187D01*
X4761Y187D02*
X4770Y187D01*
X58Y186D02*
X66Y186D01*
X4761Y186D02*
X4769Y186D01*
X59Y185D02*
X67Y185D01*
X4760Y185D02*
X4768Y185D01*
X59Y184D02*
X68Y184D01*
X4759Y184D02*
X4768Y184D01*
X60Y183D02*
X68Y183D01*
X4759Y183D02*
X4767Y183D01*
X60Y182D02*
X69Y182D01*
X4758Y182D02*
X4767Y182D01*
X61Y181D02*
X70Y181D01*
X4757Y181D02*
X4766Y181D01*
X62Y180D02*
X70Y180D01*
X4757Y180D02*
X4765Y180D01*
X62Y179D02*
X71Y179D01*
X4756Y179D02*
X4765Y179D01*
X63Y178D02*
X71Y178D01*
X4756Y178D02*
X4764Y178D01*
X64Y177D02*
X72Y177D01*
X4755Y177D02*
X4763Y177D01*
X64Y176D02*
X73Y176D01*
X4754Y176D02*
X4763Y176D01*
X65Y175D02*
X74Y175D01*
X4753Y175D02*
X4762Y175D01*
X66Y174D02*
X74Y174D01*
X4753Y174D02*
X4761Y174D01*
X66Y173D02*
X75Y173D01*
X4752Y173D02*
X4761Y173D01*
X67Y172D02*
X76Y172D01*
X4751Y172D02*
X4760Y172D01*
X68Y171D02*
X76Y171D01*
X4751Y171D02*
X4759Y171D01*
X68Y170D02*
X77Y170D01*
X4750Y170D02*
X4759Y170D01*
X69Y169D02*
X78Y169D01*
X4749Y169D02*
X4758Y169D01*
X70Y168D02*
X79Y168D01*
X4748Y168D02*
X4757Y168D01*
X71Y167D02*
X79Y167D01*
X4748Y167D02*
X4756Y167D01*
X71Y166D02*
X80Y166D01*
X4747Y166D02*
X4756Y166D01*
X72Y165D02*
X81Y165D01*
X4746Y165D02*
X4755Y165D01*
X73Y164D02*
X81Y164D01*
X4746Y164D02*
X4754Y164D01*
X73Y163D02*
X82Y163D01*
X4745Y163D02*
X4754Y163D01*
X74Y162D02*
X83Y162D01*
X4744Y162D02*
X4753Y162D01*
X75Y161D02*
X84Y161D01*
X4743Y161D02*
X4752Y161D01*
X76Y160D02*
X84Y160D01*
X4743Y160D02*
X4751Y160D01*
X76Y159D02*
X85Y159D01*
X4742Y159D02*
X4751Y159D01*
X77Y158D02*
X86Y158D01*
X4741Y158D02*
X4750Y158D01*
X78Y157D02*
X87Y157D01*
X4740Y157D02*
X4749Y157D01*
X78Y156D02*
X88Y156D01*
X4739Y156D02*
X4749Y156D01*
X79Y155D02*
X88Y155D01*
X4739Y155D02*
X4748Y155D01*
X80Y154D02*
X89Y154D01*
X4738Y154D02*
X4747Y154D01*
X81Y153D02*
X90Y153D01*
X4737Y153D02*
X4746Y153D01*
X82Y152D02*
X91Y152D01*
X4736Y152D02*
X4745Y152D01*
X82Y151D02*
X92Y151D01*
X4735Y151D02*
X4745Y151D01*
X83Y150D02*
X92Y150D01*
X4735Y150D02*
X4744Y150D01*
X84Y149D02*
X93Y149D01*
X4734Y149D02*
X4743Y149D01*
X85Y148D02*
X94Y148D01*
X4733Y148D02*
X4742Y148D01*
X86Y147D02*
X95Y147D01*
X4732Y147D02*
X4741Y147D01*
X86Y146D02*
X96Y146D01*
X4731Y146D02*
X4741Y146D01*
X87Y145D02*
X97Y145D01*
X4730Y145D02*
X4740Y145D01*
X88Y144D02*
X97Y144D01*
X4730Y144D02*
X4739Y144D01*
X89Y143D02*
X98Y143D01*
X4729Y143D02*
X4738Y143D01*
X90Y142D02*
X99Y142D01*
X4728Y142D02*
X4737Y142D01*
X90Y141D02*
X100Y141D01*
X4727Y141D02*
X4737Y141D01*
X91Y140D02*
X101Y140D01*
X4726Y140D02*
X4736Y140D01*
X92Y139D02*
X102Y139D01*
X4725Y139D02*
X4735Y139D01*
X93Y138D02*
X103Y138D01*
X4724Y138D02*
X4734Y138D01*
X94Y137D02*
X103Y137D01*
X4724Y137D02*
X4733Y137D01*
X95Y136D02*
X104Y136D01*
X4723Y136D02*
X4732Y136D01*
X96Y135D02*
X105Y135D01*
X4722Y135D02*
X4731Y135D01*
X97Y134D02*
X106Y134D01*
X4721Y134D02*
X4731Y134D01*
X97Y133D02*
X107Y133D01*
X4720Y133D02*
X4730Y133D01*
X98Y132D02*
X108Y132D01*
X4719Y132D02*
X4729Y132D01*
X99Y131D02*
X109Y131D01*
X4718Y131D02*
X4728Y131D01*
X100Y130D02*
X110Y130D01*
X4717Y130D02*
X4727Y130D01*
X101Y129D02*
X111Y129D01*
X4716Y129D02*
X4726Y129D01*
X102Y128D02*
X112Y128D01*
X4715Y128D02*
X4725Y128D01*
X103Y127D02*
X113Y127D01*
X4714Y127D02*
X4724Y127D01*
X104Y126D02*
X114Y126D01*
X4713Y126D02*
X4723Y126D01*
X105Y125D02*
X115Y125D01*
X4712Y125D02*
X4722Y125D01*
X106Y124D02*
X116Y124D01*
X4711Y124D02*
X4721Y124D01*
X107Y123D02*
X117Y123D01*
X4710Y123D02*
X4720Y123D01*
X108Y122D02*
X118Y122D01*
X4709Y122D02*
X4720Y122D01*
X108Y121D02*
X119Y121D01*
X4708Y121D02*
X4719Y121D01*
X109Y120D02*
X120Y120D01*
X4707Y120D02*
X4718Y120D01*
X110Y119D02*
X121Y119D01*
X4706Y119D02*
X4717Y119D01*
X111Y118D02*
X122Y118D01*
X4705Y118D02*
X4716Y118D01*
X112Y117D02*
X123Y117D01*
X4704Y117D02*
X4715Y117D01*
X113Y116D02*
X124Y116D01*
X4703Y116D02*
X4714Y116D01*
X114Y115D02*
X125Y115D01*
X4702Y115D02*
X4713Y115D01*
X115Y114D02*
X126Y114D01*
X4701Y114D02*
X4712Y114D01*
X116Y113D02*
X127Y113D01*
X4700Y113D02*
X4711Y113D01*
X117Y112D02*
X128Y112D01*
X4699Y112D02*
X4710Y112D01*
X118Y111D02*
X129Y111D01*
X4698Y111D02*
X4709Y111D01*
X119Y110D02*
X130Y110D01*
X4697Y110D02*
X4708Y110D01*
X121Y109D02*
X131Y109D01*
X4696Y109D02*
X4706Y109D01*
X122Y108D02*
X132Y108D01*
X4695Y108D02*
X4705Y108D01*
X123Y107D02*
X133Y107D01*
X4694Y107D02*
X4704Y107D01*
X124Y106D02*
X135Y106D01*
X4692Y106D02*
X4703Y106D01*
X125Y105D02*
X136Y105D01*
X4691Y105D02*
X4702Y105D01*
X126Y104D02*
X137Y104D01*
X4690Y104D02*
X4701Y104D01*
X127Y103D02*
X138Y103D01*
X4689Y103D02*
X4700Y103D01*
X128Y102D02*
X139Y102D01*
X4688Y102D02*
X4699Y102D01*
X129Y101D02*
X140Y101D01*
X4687Y101D02*
X4698Y101D01*
X130Y100D02*
X141Y100D01*
X4686Y100D02*
X4697Y100D01*
X131Y99D02*
X143Y99D01*
X4684Y99D02*
X4696Y99D01*
X133Y98D02*
X144Y98D01*
X4683Y98D02*
X4694Y98D01*
X134Y97D02*
X145Y97D01*
X4682Y97D02*
X4693Y97D01*
X135Y96D02*
X146Y96D01*
X4681Y96D02*
X4692Y96D01*
X136Y95D02*
X147Y95D01*
X4680Y95D02*
X4691Y95D01*
X137Y94D02*
X149Y94D01*
X4678Y94D02*
X4690Y94D01*
X138Y93D02*
X150Y93D01*
X4677Y93D02*
X4689Y93D01*
X140Y92D02*
X151Y92D01*
X4676Y92D02*
X4687Y92D01*
X141Y91D02*
X153Y91D01*
X4674Y91D02*
X4686Y91D01*
X142Y90D02*
X154Y90D01*
X4673Y90D02*
X4685Y90D01*
X143Y89D02*
X155Y89D01*
X4672Y89D02*
X4684Y89D01*
X144Y88D02*
X156Y88D01*
X4671Y88D02*
X4683Y88D01*
X146Y87D02*
X158Y87D01*
X4669Y87D02*
X4681Y87D01*
X147Y86D02*
X159Y86D01*
X4668Y86D02*
X4680Y86D01*
X148Y85D02*
X160Y85D01*
X4667Y85D02*
X4679Y85D01*
X150Y84D02*
X162Y84D01*
X4665Y84D02*
X4677Y84D01*
X151Y83D02*
X163Y83D01*
X4664Y83D02*
X4676Y83D01*
X152Y82D02*
X164Y82D01*
X4663Y82D02*
X4675Y82D01*
X153Y81D02*
X166Y81D01*
X4661Y81D02*
X4674Y81D01*
X155Y80D02*
X167Y80D01*
X4660Y80D02*
X4672Y80D01*
X156Y79D02*
X169Y79D01*
X4658Y79D02*
X4671Y79D01*
X157Y78D02*
X170Y78D01*
X4657Y78D02*
X4670Y78D01*
X159Y77D02*
X171Y77D01*
X4656Y77D02*
X4668Y77D01*
X160Y76D02*
X173Y76D01*
X4654Y76D02*
X4667Y76D01*
X162Y75D02*
X174Y75D01*
X4653Y75D02*
X4665Y75D01*
X163Y74D02*
X176Y74D01*
X4651Y74D02*
X4664Y74D01*
X164Y73D02*
X177Y73D01*
X4650Y73D02*
X4663Y73D01*
X166Y72D02*
X179Y72D01*
X4648Y72D02*
X4661Y72D01*
X167Y71D02*
X180Y71D01*
X4647Y71D02*
X4660Y71D01*
X169Y70D02*
X182Y70D01*
X4645Y70D02*
X4658Y70D01*
X170Y69D02*
X184Y69D01*
X4643Y69D02*
X4657Y69D01*
X171Y68D02*
X185Y68D01*
X4642Y68D02*
X4656Y68D01*
X173Y67D02*
X187Y67D01*
X4640Y67D02*
X4654Y67D01*
X175Y66D02*
X188Y66D01*
X4639Y66D02*
X4652Y66D01*
X176Y65D02*
X190Y65D01*
X4637Y65D02*
X4651Y65D01*
X178Y64D02*
X191Y64D01*
X4636Y64D02*
X4649Y64D01*
X179Y63D02*
X193Y63D01*
X4634Y63D02*
X4648Y63D01*
X181Y62D02*
X195Y62D01*
X4632Y62D02*
X4646Y62D01*
X182Y61D02*
X197Y61D01*
X4630Y61D02*
X4645Y61D01*
X184Y60D02*
X198Y60D01*
X4629Y60D02*
X4643Y60D01*
X186Y59D02*
X200Y59D01*
X4627Y59D02*
X4641Y59D01*
X187Y58D02*
X202Y58D01*
X4625Y58D02*
X4640Y58D01*
X189Y57D02*
X204Y57D01*
X4623Y57D02*
X4638Y57D01*
X191Y56D02*
X205Y56D01*
X4622Y56D02*
X4636Y56D01*
X192Y55D02*
X207Y55D01*
X4620Y55D02*
X4635Y55D01*
X194Y54D02*
X209Y54D01*
X4618Y54D02*
X4633Y54D01*
X196Y53D02*
X211Y53D01*
X4616Y53D02*
X4631Y53D01*
X198Y52D02*
X213Y52D01*
X4614Y52D02*
X4629Y52D01*
X199Y51D02*
X215Y51D01*
X4612Y51D02*
X4628Y51D01*
X201Y50D02*
X217Y50D01*
X4610Y50D02*
X4626Y50D01*
X203Y49D02*
X219Y49D01*
X4608Y49D02*
X4624Y49D01*
X205Y48D02*
X221Y48D01*
X4606Y48D02*
X4622Y48D01*
X207Y47D02*
X223Y47D01*
X4604Y47D02*
X4620Y47D01*
X209Y46D02*
X225Y46D01*
X4602Y46D02*
X4618Y46D01*
X211Y45D02*
X227Y45D01*
X4600Y45D02*
X4616Y45D01*
X213Y44D02*
X230Y44D01*
X4597Y44D02*
X4614Y44D01*
X214Y43D02*
X232Y43D01*
X4595Y43D02*
X4613Y43D01*
X216Y42D02*
X234Y42D01*
X4593Y42D02*
X4611Y42D01*
X218Y41D02*
X236Y41D01*
X4591Y41D02*
X4609Y41D01*
X220Y40D02*
X238Y40D01*
X4589Y40D02*
X4607Y40D01*
X223Y39D02*
X241Y39D01*
X4586Y39D02*
X4604Y39D01*
X225Y38D02*
X243Y38D01*
X4584Y38D02*
X4602Y38D01*
X227Y37D02*
X246Y37D01*
X4581Y37D02*
X4600Y37D01*
X229Y36D02*
X248Y36D01*
X4579Y36D02*
X4598Y36D01*
X231Y35D02*
X251Y35D01*
X4576Y35D02*
X4596Y35D01*
X234Y34D02*
X253Y34D01*
X4574Y34D02*
X4593Y34D01*
X236Y33D02*
X256Y33D01*
X4571Y33D02*
X4591Y33D01*
X238Y32D02*
X259Y32D01*
X4568Y32D02*
X4589Y32D01*
X241Y31D02*
X262Y31D01*
X4565Y31D02*
X4586Y31D01*
X243Y30D02*
X265Y30D01*
X4562Y30D02*
X4584Y30D01*
X246Y29D02*
X268Y29D01*
X4559Y29D02*
X4581Y29D01*
X248Y28D02*
X271Y28D01*
X4556Y28D02*
X4579Y28D01*
X251Y27D02*
X274Y27D01*
X4553Y27D02*
X4576Y27D01*
X253Y26D02*
X277Y26D01*
X4550Y26D02*
X4574Y26D01*
X256Y25D02*
X280Y25D01*
X4547Y25D02*
X4571Y25D01*
X259Y24D02*
X284Y24D01*
X4543Y24D02*
X4568Y24D01*
X262Y23D02*
X287Y23D01*
X4540Y23D02*
X4565Y23D01*
X265Y22D02*
X291Y22D01*
X4536Y22D02*
X4562Y22D01*
X268Y21D02*
X295Y21D01*
X4532Y21D02*
X4559Y21D01*
X271Y20D02*
X299Y20D01*
X4528Y20D02*
X4556Y20D01*
X274Y19D02*
X303Y19D01*
X4524Y19D02*
X4553Y19D01*
X277Y18D02*
X308Y18D01*
X4519Y18D02*
X4550Y18D01*
X281Y17D02*
X313Y17D01*
X4514Y17D02*
X4546Y17D01*
X284Y16D02*
X318Y16D01*
X4509Y16D02*
X4543Y16D01*
X288Y15D02*
X323Y15D01*
X4504Y15D02*
X4539Y15D01*
X291Y14D02*
X330Y14D01*
X4497Y14D02*
X4536Y14D01*
X295Y13D02*
X337Y13D01*
X4490Y13D02*
X4532Y13D01*
X300Y12D02*
X345Y12D01*
X4482Y12D02*
X4527Y12D01*
X304Y11D02*
X355Y11D01*
X4472Y11D02*
X4523Y11D01*
X308Y10D02*
X369Y10D01*
X4458Y10D02*
X4519Y10D01*
X313Y9D02*
X4514Y9D01*
X319Y8D02*
X4509Y8D01*
X324Y7D02*
X4503Y7D01*
X330Y6D02*
X4497Y6D01*
X337Y5D02*
X4490Y5D01*
X346Y4D02*
X4481Y4D01*
X356Y3D02*
X4471Y3D01*
X370Y2D02*
X4457Y2D01*
D02*
G04 End of Silk0*
M02*