G04 MADE WITH FRITZING*
G04 WWW.FRITZING.ORG*
G04 DOUBLE SIDED*
G04 HOLES PLATED*
G04 CONTOUR ON CENTER OF CONTOUR VECTOR*
%ASAXBY*%
%FSLAX23Y23*%
%MOIN*%
%OFA0B0*%
%SFA1.0B1.0*%
%ADD10C,0.070000*%
%ADD11C,0.075000*%
%ADD12C,0.074000*%
%ADD13C,0.039370*%
%ADD14R,0.069972X0.070000*%
%ADD15C,0.024000*%
%LNCOPPER1*%
G90*
G70*
G54D10*
X2006Y3320D03*
X2006Y3220D03*
X2006Y3120D03*
X2006Y3020D03*
X2006Y2920D03*
X2006Y2820D03*
X2006Y2720D03*
X2006Y2620D03*
X2006Y2520D03*
X2006Y2420D03*
X2006Y2320D03*
X2006Y2220D03*
X2006Y2120D03*
X2006Y2020D03*
X2006Y1920D03*
X2606Y3320D03*
X2606Y3220D03*
X2606Y3120D03*
X2606Y3020D03*
X2606Y2920D03*
X2606Y2820D03*
X2606Y2720D03*
X2606Y2620D03*
X2606Y2520D03*
X2606Y2420D03*
X2606Y2320D03*
X2606Y2220D03*
X2606Y2120D03*
X2606Y2020D03*
X2606Y1920D03*
G54D11*
X1029Y665D03*
X1029Y920D03*
X1206Y665D03*
X1206Y920D03*
X729Y965D03*
X729Y1220D03*
X906Y965D03*
X906Y1220D03*
X729Y265D03*
X729Y520D03*
X906Y265D03*
X906Y520D03*
X3729Y965D03*
X3729Y1220D03*
X3906Y965D03*
X3906Y1220D03*
X3229Y665D03*
X3229Y920D03*
X3406Y665D03*
X3406Y920D03*
X429Y665D03*
X429Y920D03*
X606Y665D03*
X606Y920D03*
X4229Y665D03*
X4229Y920D03*
X4406Y665D03*
X4406Y920D03*
G54D12*
X2606Y1220D03*
X2506Y1220D03*
X2406Y1220D03*
X2306Y1220D03*
X2206Y1220D03*
X2106Y1220D03*
G54D13*
X1923Y2748D03*
X2187Y1068D03*
X2187Y1356D03*
G54D14*
X2006Y3320D03*
G54D15*
X1207Y1121D02*
X1906Y1620D01*
D02*
X1206Y949D02*
X1207Y1121D01*
D02*
X1906Y1620D02*
X1947Y2676D01*
D02*
X1947Y2676D02*
X1983Y2703D01*
D02*
X2032Y2634D02*
X2067Y2652D01*
D02*
X2067Y2652D02*
X2067Y3396D01*
D02*
X2067Y3396D02*
X1899Y3396D01*
D02*
X1805Y1722D02*
X1505Y1452D01*
D02*
X1899Y3396D02*
X1805Y1722D01*
D02*
X1505Y1452D02*
X795Y1452D01*
D02*
X795Y1452D02*
X795Y900D01*
D02*
X795Y900D02*
X734Y549D01*
D02*
X2505Y1252D02*
X2505Y1321D01*
D02*
X2505Y1321D02*
X2706Y1321D01*
D02*
X2706Y1321D02*
X2706Y2420D01*
D02*
X2706Y2420D02*
X2635Y2420D01*
D02*
X2584Y2001D02*
X2115Y1572D01*
D02*
X2115Y1572D02*
X2107Y1252D01*
D02*
X2030Y2436D02*
X2067Y2460D01*
D02*
X2067Y2460D02*
X2571Y3396D01*
D02*
X2571Y3396D02*
X2667Y3396D01*
D02*
X2667Y3396D02*
X3716Y1246D01*
D02*
X2026Y2300D02*
X2106Y2221D01*
D02*
X2106Y2221D02*
X2079Y1620D01*
D02*
X2079Y1620D02*
X2043Y1284D01*
D02*
X2043Y1284D02*
X2043Y1140D01*
D02*
X2043Y1140D02*
X4011Y1140D01*
D02*
X4011Y1140D02*
X4208Y941D01*
D02*
X1002Y930D02*
X933Y955D01*
D02*
X924Y542D02*
X1010Y643D01*
D02*
X2201Y1251D02*
X2189Y1337D01*
D02*
X3382Y936D02*
X3291Y996D01*
D02*
X3291Y996D02*
X2206Y1066D01*
D02*
X3881Y950D02*
X3795Y900D01*
D02*
X3795Y900D02*
X3434Y919D01*
D02*
X4380Y907D02*
X4275Y852D01*
D02*
X4275Y852D02*
X3915Y924D01*
D02*
X3915Y924D02*
X3912Y937D01*
D02*
X1982Y3004D02*
X1923Y2964D01*
D02*
X1923Y2964D02*
X1923Y2767D01*
G04 End of Copper1*
M02*