G04 MADE WITH FRITZING*
G04 WWW.FRITZING.ORG*
G04 DOUBLE SIDED*
G04 HOLES PLATED*
G04 CONTOUR ON CENTER OF CONTOUR VECTOR*
%ASAXBY*%
%FSLAX23Y23*%
%MOIN*%
%OFA0B0*%
%SFA1.0B1.0*%
%ADD10C,0.085000*%
%ADD11C,0.084000*%
%ADD12C,0.080000*%
%ADD13C,0.049370*%
%ADD14R,0.079972X0.080000*%
%LNMASK0*%
G90*
G70*
G54D10*
X1029Y665D03*
X1029Y920D03*
X1206Y665D03*
X1206Y920D03*
X729Y965D03*
X729Y1220D03*
X906Y965D03*
X906Y1220D03*
X729Y265D03*
X729Y520D03*
X906Y265D03*
X906Y520D03*
X3729Y965D03*
X3729Y1220D03*
X3906Y965D03*
X3906Y1220D03*
X3229Y665D03*
X3229Y920D03*
X3406Y665D03*
X3406Y920D03*
X429Y665D03*
X429Y920D03*
X606Y665D03*
X606Y920D03*
X4229Y665D03*
X4229Y920D03*
X4406Y665D03*
X4406Y920D03*
G54D11*
X2606Y1220D03*
X2506Y1220D03*
X2406Y1220D03*
X2306Y1220D03*
X2206Y1220D03*
X2106Y1220D03*
G54D12*
X2006Y3320D03*
X2006Y3220D03*
X2006Y3120D03*
X2006Y3020D03*
X2006Y2920D03*
X2006Y2820D03*
X2006Y2720D03*
X2006Y2620D03*
X2006Y2520D03*
X2006Y2420D03*
X2006Y2320D03*
X2006Y2220D03*
X2006Y2120D03*
X2006Y2020D03*
X2006Y1920D03*
X2606Y3320D03*
X2606Y3220D03*
X2606Y3120D03*
X2606Y3020D03*
X2606Y2920D03*
X2606Y2820D03*
X2606Y2720D03*
X2606Y2620D03*
X2606Y2520D03*
X2606Y2420D03*
X2606Y2320D03*
X2606Y2220D03*
X2606Y2120D03*
X2606Y2020D03*
X2606Y1920D03*
G54D13*
X2187Y1356D03*
X2187Y1068D03*
X1923Y2748D03*
G54D14*
X2006Y3320D03*
G04 End of Mask0*
M02*