G04 MADE WITH FRITZING*
G04 WWW.FRITZING.ORG*
G04 DOUBLE SIDED*
G04 HOLES PLATED*
G04 CONTOUR ON CENTER OF CONTOUR VECTOR*
%ASAXBY*%
%FSLAX23Y23*%
%MOIN*%
%OFA0B0*%
%SFA1.0B1.0*%
%ADD10C,0.008*%
%LNCONTOUR*%
G90*
G70*
G54D10*
X370Y3665D02*
X371Y3665D01*
X372Y3665D01*
X373Y3665D01*
X374Y3665D01*
X375Y3665D01*
X376Y3665D01*
X377Y3665D01*
X378Y3665D01*
X379Y3665D01*
X380Y3665D01*
X381Y3665D01*
X382Y3665D01*
X383Y3665D01*
X384Y3665D01*
X385Y3665D01*
X386Y3665D01*
X387Y3665D01*
X388Y3665D01*
X389Y3665D01*
X390Y3665D01*
X391Y3665D01*
X392Y3665D01*
X393Y3665D01*
X394Y3665D01*
X395Y3665D01*
X396Y3665D01*
X397Y3665D01*
X398Y3665D01*
X399Y3665D01*
X400Y3665D01*
X401Y3665D01*
X402Y3665D01*
X403Y3665D01*
X404Y3665D01*
X405Y3665D01*
X406Y3665D01*
X407Y3665D01*
X408Y3665D01*
X409Y3665D01*
X410Y3665D01*
X411Y3665D01*
X412Y3665D01*
X413Y3665D01*
X414Y3665D01*
X415Y3665D01*
X416Y3665D01*
X417Y3665D01*
X418Y3665D01*
X419Y3665D01*
X420Y3665D01*
X421Y3665D01*
X422Y3665D01*
X423Y3665D01*
X424Y3665D01*
X425Y3665D01*
X426Y3665D01*
X427Y3665D01*
X428Y3665D01*
X429Y3665D01*
X430Y3665D01*
X431Y3665D01*
X432Y3665D01*
X433Y3665D01*
X434Y3665D01*
X435Y3665D01*
X436Y3665D01*
X437Y3665D01*
X438Y3665D01*
X439Y3665D01*
X440Y3665D01*
X441Y3665D01*
X442Y3665D01*
X443Y3665D01*
X444Y3665D01*
X445Y3665D01*
X446Y3665D01*
X447Y3665D01*
X448Y3665D01*
X449Y3665D01*
X450Y3665D01*
X451Y3665D01*
X452Y3665D01*
X453Y3665D01*
X454Y3665D01*
X455Y3665D01*
X456Y3665D01*
X457Y3665D01*
X458Y3665D01*
X459Y3665D01*
X460Y3665D01*
X461Y3665D01*
X462Y3665D01*
X463Y3665D01*
X464Y3665D01*
X465Y3665D01*
X466Y3665D01*
X467Y3665D01*
X468Y3665D01*
X469Y3665D01*
X470Y3665D01*
X471Y3665D01*
X472Y3665D01*
X473Y3665D01*
X474Y3665D01*
X475Y3665D01*
X476Y3665D01*
X477Y3665D01*
X478Y3665D01*
X479Y3665D01*
X480Y3665D01*
X481Y3665D01*
X482Y3665D01*
X483Y3665D01*
X484Y3665D01*
X485Y3665D01*
X486Y3665D01*
X487Y3665D01*
X488Y3665D01*
X489Y3665D01*
X490Y3665D01*
X491Y3665D01*
X492Y3665D01*
X493Y3665D01*
X494Y3665D01*
X495Y3665D01*
X496Y3665D01*
X497Y3665D01*
X498Y3665D01*
X499Y3665D01*
X500Y3665D01*
X501Y3665D01*
X502Y3665D01*
X503Y3665D01*
X504Y3665D01*
X505Y3665D01*
X506Y3665D01*
X507Y3665D01*
X508Y3665D01*
X509Y3665D01*
X510Y3665D01*
X511Y3665D01*
X512Y3665D01*
X513Y3665D01*
X514Y3665D01*
X515Y3665D01*
X516Y3665D01*
X517Y3665D01*
X518Y3665D01*
X519Y3665D01*
X520Y3665D01*
X521Y3665D01*
X522Y3665D01*
X523Y3665D01*
X524Y3665D01*
X525Y3665D01*
X526Y3665D01*
X527Y3665D01*
X528Y3665D01*
X529Y3665D01*
X530Y3665D01*
X531Y3665D01*
X532Y3665D01*
X533Y3665D01*
X534Y3665D01*
X535Y3665D01*
X536Y3665D01*
X537Y3665D01*
X538Y3665D01*
X539Y3665D01*
X540Y3665D01*
X541Y3665D01*
X542Y3665D01*
X543Y3665D01*
X544Y3665D01*
X545Y3665D01*
X546Y3665D01*
X547Y3665D01*
X548Y3665D01*
X549Y3665D01*
X550Y3665D01*
X551Y3665D01*
X552Y3665D01*
X553Y3665D01*
X554Y3665D01*
X555Y3665D01*
X556Y3665D01*
X557Y3665D01*
X558Y3665D01*
X559Y3665D01*
X560Y3665D01*
X561Y3665D01*
X562Y3665D01*
X563Y3665D01*
X564Y3665D01*
X565Y3665D01*
X566Y3665D01*
X567Y3665D01*
X568Y3665D01*
X569Y3665D01*
X570Y3665D01*
X571Y3665D01*
X572Y3665D01*
X573Y3665D01*
X574Y3665D01*
X575Y3665D01*
X576Y3665D01*
X577Y3665D01*
X578Y3665D01*
X579Y3665D01*
X580Y3665D01*
X581Y3665D01*
X582Y3665D01*
X583Y3665D01*
X584Y3665D01*
X585Y3665D01*
X586Y3665D01*
X587Y3665D01*
X588Y3665D01*
X589Y3665D01*
X590Y3665D01*
X591Y3665D01*
X592Y3665D01*
X593Y3665D01*
X594Y3665D01*
X595Y3665D01*
X596Y3665D01*
X597Y3665D01*
X598Y3665D01*
X599Y3665D01*
X600Y3665D01*
X601Y3665D01*
X602Y3665D01*
X603Y3665D01*
X604Y3665D01*
X605Y3665D01*
X606Y3665D01*
X607Y3665D01*
X608Y3665D01*
X609Y3665D01*
X610Y3665D01*
X611Y3665D01*
X612Y3665D01*
X613Y3665D01*
X614Y3665D01*
X615Y3665D01*
X616Y3665D01*
X617Y3665D01*
X618Y3665D01*
X619Y3665D01*
X620Y3665D01*
X621Y3665D01*
X622Y3665D01*
X623Y3665D01*
X624Y3665D01*
X625Y3665D01*
X626Y3665D01*
X627Y3665D01*
X628Y3665D01*
X629Y3665D01*
X630Y3665D01*
X631Y3665D01*
X632Y3665D01*
X633Y3665D01*
X634Y3665D01*
X635Y3665D01*
X636Y3665D01*
X637Y3665D01*
X638Y3665D01*
X639Y3665D01*
X640Y3665D01*
X641Y3665D01*
X642Y3665D01*
X643Y3665D01*
X644Y3665D01*
X645Y3665D01*
X646Y3665D01*
X647Y3665D01*
X648Y3665D01*
X649Y3665D01*
X650Y3665D01*
X651Y3665D01*
X652Y3665D01*
X653Y3665D01*
X654Y3665D01*
X655Y3665D01*
X656Y3665D01*
X657Y3665D01*
X658Y3665D01*
X659Y3665D01*
X660Y3665D01*
X661Y3665D01*
X662Y3665D01*
X663Y3665D01*
X664Y3665D01*
X665Y3665D01*
X666Y3665D01*
X667Y3665D01*
X668Y3665D01*
X669Y3665D01*
X670Y3665D01*
X671Y3665D01*
X672Y3665D01*
X673Y3665D01*
X674Y3665D01*
X675Y3665D01*
X676Y3665D01*
X677Y3665D01*
X678Y3665D01*
X679Y3665D01*
X680Y3665D01*
X681Y3665D01*
X682Y3665D01*
X683Y3665D01*
X684Y3665D01*
X685Y3665D01*
X686Y3665D01*
X687Y3665D01*
X688Y3665D01*
X689Y3665D01*
X690Y3665D01*
X691Y3665D01*
X692Y3665D01*
X693Y3665D01*
X694Y3665D01*
X695Y3665D01*
X696Y3665D01*
X697Y3665D01*
X698Y3665D01*
X699Y3665D01*
X700Y3665D01*
X701Y3665D01*
X702Y3665D01*
X703Y3665D01*
X704Y3665D01*
X705Y3665D01*
X706Y3665D01*
X707Y3665D01*
X708Y3665D01*
X709Y3665D01*
X710Y3665D01*
X711Y3665D01*
X712Y3665D01*
X713Y3665D01*
X714Y3665D01*
X715Y3665D01*
X716Y3665D01*
X717Y3665D01*
X718Y3665D01*
X719Y3665D01*
X720Y3665D01*
X721Y3665D01*
X722Y3665D01*
X723Y3665D01*
X724Y3665D01*
X725Y3665D01*
X726Y3665D01*
X727Y3665D01*
X728Y3665D01*
X729Y3665D01*
X730Y3665D01*
X731Y3665D01*
X732Y3665D01*
X733Y3665D01*
X734Y3665D01*
X735Y3665D01*
X736Y3665D01*
X737Y3665D01*
X738Y3665D01*
X739Y3665D01*
X740Y3665D01*
X741Y3665D01*
X742Y3665D01*
X743Y3665D01*
X744Y3665D01*
X745Y3665D01*
X746Y3665D01*
X747Y3665D01*
X748Y3665D01*
X749Y3665D01*
X750Y3665D01*
X751Y3665D01*
X752Y3665D01*
X753Y3665D01*
X754Y3665D01*
X755Y3665D01*
X756Y3665D01*
X757Y3665D01*
X758Y3665D01*
X759Y3665D01*
X760Y3665D01*
X761Y3665D01*
X762Y3665D01*
X763Y3665D01*
X764Y3665D01*
X765Y3665D01*
X766Y3665D01*
X767Y3665D01*
X768Y3665D01*
X769Y3665D01*
X770Y3665D01*
X771Y3665D01*
X772Y3665D01*
X773Y3665D01*
X774Y3665D01*
X775Y3665D01*
X776Y3665D01*
X777Y3665D01*
X778Y3665D01*
X779Y3665D01*
X780Y3665D01*
X781Y3665D01*
X782Y3665D01*
X783Y3665D01*
X784Y3665D01*
X785Y3665D01*
X786Y3665D01*
X787Y3665D01*
X788Y3665D01*
X789Y3665D01*
X790Y3665D01*
X791Y3665D01*
X792Y3665D01*
X793Y3665D01*
X794Y3665D01*
X795Y3665D01*
X796Y3665D01*
X797Y3665D01*
X798Y3665D01*
X799Y3665D01*
X800Y3665D01*
X801Y3665D01*
X802Y3665D01*
X803Y3665D01*
X804Y3665D01*
X805Y3665D01*
X806Y3665D01*
X807Y3665D01*
X808Y3665D01*
X809Y3665D01*
X810Y3665D01*
X811Y3665D01*
X812Y3665D01*
X813Y3665D01*
X814Y3665D01*
X815Y3665D01*
X816Y3665D01*
X817Y3665D01*
X818Y3665D01*
X819Y3665D01*
X820Y3665D01*
X821Y3665D01*
X822Y3665D01*
X823Y3665D01*
X824Y3665D01*
X825Y3665D01*
X826Y3665D01*
X827Y3665D01*
X828Y3665D01*
X829Y3665D01*
X830Y3665D01*
X831Y3665D01*
X832Y3665D01*
X833Y3665D01*
X834Y3665D01*
X835Y3665D01*
X836Y3665D01*
X837Y3665D01*
X838Y3665D01*
X839Y3665D01*
X840Y3665D01*
X841Y3665D01*
X842Y3665D01*
X843Y3665D01*
X844Y3665D01*
X845Y3665D01*
X846Y3665D01*
X847Y3665D01*
X848Y3665D01*
X849Y3665D01*
X850Y3665D01*
X851Y3665D01*
X852Y3665D01*
X853Y3665D01*
X854Y3665D01*
X855Y3665D01*
X856Y3665D01*
X857Y3665D01*
X858Y3665D01*
X859Y3665D01*
X860Y3665D01*
X861Y3665D01*
X862Y3665D01*
X863Y3665D01*
X864Y3665D01*
X865Y3665D01*
X866Y3665D01*
X867Y3665D01*
X868Y3665D01*
X869Y3665D01*
X870Y3665D01*
X871Y3665D01*
X872Y3665D01*
X873Y3665D01*
X874Y3665D01*
X875Y3665D01*
X876Y3665D01*
X877Y3665D01*
X878Y3665D01*
X879Y3665D01*
X880Y3665D01*
X881Y3665D01*
X882Y3665D01*
X883Y3665D01*
X884Y3665D01*
X885Y3665D01*
X886Y3665D01*
X887Y3665D01*
X888Y3665D01*
X889Y3665D01*
X890Y3665D01*
X891Y3665D01*
X892Y3665D01*
X893Y3665D01*
X894Y3665D01*
X895Y3665D01*
X896Y3665D01*
X897Y3665D01*
X898Y3665D01*
X899Y3665D01*
X900Y3665D01*
X901Y3665D01*
X902Y3665D01*
X903Y3665D01*
X904Y3665D01*
X905Y3665D01*
X906Y3665D01*
X907Y3665D01*
X908Y3665D01*
X909Y3665D01*
X910Y3665D01*
X911Y3665D01*
X912Y3665D01*
X913Y3665D01*
X914Y3665D01*
X915Y3665D01*
X916Y3665D01*
X917Y3665D01*
X918Y3665D01*
X919Y3665D01*
X920Y3665D01*
X921Y3665D01*
X922Y3665D01*
X923Y3665D01*
X924Y3665D01*
X925Y3665D01*
X926Y3665D01*
X927Y3665D01*
X928Y3665D01*
X929Y3665D01*
X930Y3665D01*
X931Y3665D01*
X932Y3665D01*
X933Y3665D01*
X934Y3665D01*
X935Y3665D01*
X936Y3665D01*
X937Y3665D01*
X938Y3665D01*
X939Y3665D01*
X940Y3665D01*
X941Y3665D01*
X942Y3665D01*
X943Y3665D01*
X944Y3665D01*
X945Y3665D01*
X946Y3665D01*
X947Y3665D01*
X948Y3665D01*
X949Y3665D01*
X950Y3665D01*
X951Y3665D01*
X952Y3665D01*
X953Y3665D01*
X954Y3665D01*
X955Y3665D01*
X956Y3665D01*
X957Y3665D01*
X958Y3665D01*
X959Y3665D01*
X960Y3665D01*
X961Y3665D01*
X962Y3665D01*
X963Y3665D01*
X964Y3665D01*
X965Y3665D01*
X966Y3665D01*
X967Y3665D01*
X968Y3665D01*
X969Y3665D01*
X970Y3665D01*
X971Y3665D01*
X972Y3665D01*
X973Y3665D01*
X974Y3665D01*
X975Y3665D01*
X976Y3665D01*
X977Y3665D01*
X978Y3665D01*
X979Y3665D01*
X980Y3665D01*
X981Y3665D01*
X982Y3665D01*
X983Y3665D01*
X984Y3665D01*
X985Y3665D01*
X986Y3665D01*
X987Y3665D01*
X988Y3665D01*
X989Y3665D01*
X990Y3665D01*
X991Y3665D01*
X992Y3665D01*
X993Y3665D01*
X994Y3665D01*
X995Y3665D01*
X996Y3665D01*
X997Y3665D01*
X998Y3665D01*
X999Y3665D01*
X1000Y3665D01*
X1001Y3665D01*
X1002Y3665D01*
X1003Y3665D01*
X1004Y3665D01*
X1005Y3665D01*
X1006Y3665D01*
X1007Y3665D01*
X1008Y3665D01*
X1009Y3665D01*
X1010Y3665D01*
X1011Y3665D01*
X1012Y3665D01*
X1013Y3665D01*
X1014Y3665D01*
X1015Y3665D01*
X1016Y3665D01*
X1017Y3665D01*
X1018Y3665D01*
X1019Y3665D01*
X1020Y3665D01*
X1021Y3665D01*
X1022Y3665D01*
X1023Y3665D01*
X1024Y3665D01*
X1025Y3665D01*
X1026Y3665D01*
X1027Y3665D01*
X1028Y3665D01*
X1029Y3665D01*
X1030Y3665D01*
X1031Y3665D01*
X1032Y3665D01*
X1033Y3665D01*
X1034Y3665D01*
X1035Y3665D01*
X1036Y3665D01*
X1037Y3665D01*
X1038Y3665D01*
X1039Y3665D01*
X1040Y3665D01*
X1041Y3665D01*
X1042Y3665D01*
X1043Y3665D01*
X1044Y3665D01*
X1045Y3665D01*
X1046Y3665D01*
X1047Y3665D01*
X1048Y3665D01*
X1049Y3665D01*
X1050Y3665D01*
X1051Y3665D01*
X1052Y3665D01*
X1053Y3665D01*
X1054Y3665D01*
X1055Y3665D01*
X1056Y3665D01*
X1057Y3665D01*
X1058Y3665D01*
X1059Y3665D01*
X1060Y3665D01*
X1061Y3665D01*
X1062Y3665D01*
X1063Y3665D01*
X1064Y3665D01*
X1065Y3665D01*
X1066Y3665D01*
X1067Y3665D01*
X1068Y3665D01*
X1069Y3665D01*
X1070Y3665D01*
X1071Y3665D01*
X1072Y3665D01*
X1073Y3665D01*
X1074Y3665D01*
X1075Y3665D01*
X1076Y3665D01*
X1077Y3665D01*
X1078Y3665D01*
X1079Y3665D01*
X1080Y3665D01*
X1081Y3665D01*
X1082Y3665D01*
X1083Y3665D01*
X1084Y3665D01*
X1085Y3665D01*
X1086Y3665D01*
X1087Y3665D01*
X1088Y3665D01*
X1089Y3665D01*
X1090Y3665D01*
X1091Y3665D01*
X1092Y3665D01*
X1093Y3665D01*
X1094Y3665D01*
X1095Y3665D01*
X1096Y3665D01*
X1097Y3665D01*
X1098Y3665D01*
X1099Y3665D01*
X1100Y3665D01*
X1101Y3665D01*
X1102Y3665D01*
X1103Y3665D01*
X1104Y3665D01*
X1105Y3665D01*
X1106Y3665D01*
X1107Y3665D01*
X1108Y3665D01*
X1109Y3665D01*
X1110Y3665D01*
X1111Y3665D01*
X1112Y3665D01*
X1113Y3665D01*
X1114Y3665D01*
X1115Y3665D01*
X1116Y3665D01*
X1117Y3665D01*
X1118Y3665D01*
X1119Y3665D01*
X1120Y3665D01*
X1121Y3665D01*
X1122Y3665D01*
X1123Y3665D01*
X1124Y3665D01*
X1125Y3665D01*
X1126Y3665D01*
X1127Y3665D01*
X1128Y3665D01*
X1129Y3665D01*
X1130Y3665D01*
X1131Y3665D01*
X1132Y3665D01*
X1133Y3665D01*
X1134Y3665D01*
X1135Y3665D01*
X1136Y3665D01*
X1137Y3665D01*
X1138Y3665D01*
X1139Y3665D01*
X1140Y3665D01*
X1141Y3665D01*
X1142Y3665D01*
X1143Y3665D01*
X1144Y3665D01*
X1145Y3665D01*
X1146Y3665D01*
X1147Y3665D01*
X1148Y3665D01*
X1149Y3665D01*
X1150Y3665D01*
X1151Y3665D01*
X1152Y3665D01*
X1153Y3665D01*
X1154Y3665D01*
X1155Y3665D01*
X1156Y3665D01*
X1157Y3665D01*
X1158Y3665D01*
X1159Y3665D01*
X1160Y3665D01*
X1161Y3665D01*
X1162Y3665D01*
X1163Y3665D01*
X1164Y3665D01*
X1165Y3665D01*
X1166Y3665D01*
X1167Y3665D01*
X1168Y3665D01*
X1169Y3665D01*
X1170Y3665D01*
X1171Y3665D01*
X1172Y3665D01*
X1173Y3665D01*
X1174Y3665D01*
X1175Y3665D01*
X1176Y3665D01*
X1177Y3665D01*
X1178Y3665D01*
X1179Y3665D01*
X1180Y3665D01*
X1181Y3665D01*
X1182Y3665D01*
X1183Y3665D01*
X1184Y3665D01*
X1185Y3665D01*
X1186Y3665D01*
X1187Y3665D01*
X1188Y3665D01*
X1189Y3665D01*
X1190Y3665D01*
X1191Y3665D01*
X1192Y3665D01*
X1193Y3665D01*
X1194Y3665D01*
X1195Y3665D01*
X1196Y3665D01*
X1197Y3665D01*
X1198Y3665D01*
X1199Y3665D01*
X1200Y3665D01*
X1201Y3665D01*
X1202Y3665D01*
X1203Y3665D01*
X1204Y3665D01*
X1205Y3665D01*
X1206Y3665D01*
X1207Y3665D01*
X1208Y3665D01*
X1209Y3665D01*
X1210Y3665D01*
X1211Y3665D01*
X1212Y3665D01*
X1213Y3665D01*
X1214Y3665D01*
X1215Y3665D01*
X1216Y3665D01*
X1217Y3665D01*
X1218Y3665D01*
X1219Y3665D01*
X1220Y3665D01*
X1221Y3665D01*
X1222Y3665D01*
X1223Y3665D01*
X1224Y3665D01*
X1225Y3665D01*
X1226Y3665D01*
X1227Y3665D01*
X1228Y3665D01*
X1229Y3665D01*
X1230Y3665D01*
X1231Y3665D01*
X1232Y3665D01*
X1233Y3665D01*
X1234Y3665D01*
X1235Y3665D01*
X1236Y3665D01*
X1237Y3665D01*
X1238Y3665D01*
X1239Y3665D01*
X1240Y3665D01*
X1241Y3665D01*
X1242Y3665D01*
X1243Y3665D01*
X1244Y3665D01*
X1245Y3665D01*
X1246Y3665D01*
X1247Y3665D01*
X1248Y3665D01*
X1249Y3665D01*
X1250Y3665D01*
X1251Y3665D01*
X1252Y3665D01*
X1253Y3665D01*
X1254Y3665D01*
X1255Y3665D01*
X1256Y3665D01*
X1257Y3665D01*
X1258Y3665D01*
X1259Y3665D01*
X1260Y3665D01*
X1261Y3665D01*
X1262Y3665D01*
X1263Y3665D01*
X1264Y3665D01*
X1265Y3665D01*
X1266Y3665D01*
X1267Y3665D01*
X1268Y3665D01*
X1269Y3665D01*
X1270Y3665D01*
X1271Y3665D01*
X1272Y3665D01*
X1273Y3665D01*
X1274Y3665D01*
X1275Y3665D01*
X1276Y3665D01*
X1277Y3665D01*
X1278Y3665D01*
X1279Y3665D01*
X1280Y3665D01*
X1281Y3665D01*
X1282Y3665D01*
X1283Y3665D01*
X1284Y3665D01*
X1285Y3665D01*
X1286Y3665D01*
X1287Y3665D01*
X1288Y3665D01*
X1289Y3665D01*
X1290Y3665D01*
X1291Y3665D01*
X1292Y3665D01*
X1293Y3665D01*
X1294Y3665D01*
X1295Y3665D01*
X1296Y3665D01*
X1297Y3665D01*
X1298Y3665D01*
X1299Y3665D01*
X1300Y3665D01*
X1301Y3665D01*
X1302Y3665D01*
X1303Y3665D01*
X1304Y3665D01*
X1305Y3665D01*
X1306Y3665D01*
X1307Y3665D01*
X1308Y3665D01*
X1309Y3665D01*
X1310Y3665D01*
X1311Y3665D01*
X1312Y3665D01*
X1313Y3665D01*
X1314Y3665D01*
X1315Y3665D01*
X1316Y3665D01*
X1317Y3665D01*
X1318Y3665D01*
X1319Y3665D01*
X1320Y3665D01*
X1321Y3665D01*
X1322Y3665D01*
X1323Y3665D01*
X1324Y3665D01*
X1325Y3665D01*
X1326Y3665D01*
X1327Y3665D01*
X1328Y3665D01*
X1329Y3665D01*
X1330Y3665D01*
X1331Y3665D01*
X1332Y3665D01*
X1333Y3665D01*
X1334Y3665D01*
X1335Y3665D01*
X1336Y3665D01*
X1337Y3665D01*
X1338Y3665D01*
X1339Y3665D01*
X1340Y3665D01*
X1341Y3665D01*
X1342Y3665D01*
X1343Y3665D01*
X1344Y3665D01*
X1345Y3665D01*
X1346Y3665D01*
X1347Y3665D01*
X1348Y3665D01*
X1349Y3665D01*
X1350Y3665D01*
X1351Y3665D01*
X1352Y3665D01*
X1353Y3665D01*
X1354Y3665D01*
X1355Y3665D01*
X1356Y3665D01*
X1357Y3665D01*
X1358Y3665D01*
X1359Y3665D01*
X1360Y3665D01*
X1361Y3665D01*
X1362Y3665D01*
X1363Y3665D01*
X1364Y3665D01*
X1365Y3665D01*
X1366Y3665D01*
X1367Y3665D01*
X1368Y3665D01*
X1369Y3665D01*
X1370Y3665D01*
X1371Y3665D01*
X1372Y3665D01*
X1373Y3665D01*
X1374Y3665D01*
X1375Y3665D01*
X1376Y3665D01*
X1377Y3665D01*
X1378Y3665D01*
X1379Y3665D01*
X1380Y3665D01*
X1381Y3665D01*
X1382Y3665D01*
X1383Y3665D01*
X1384Y3665D01*
X1385Y3665D01*
X1386Y3665D01*
X1387Y3665D01*
X1388Y3665D01*
X1389Y3665D01*
X1390Y3665D01*
X1391Y3665D01*
X1392Y3665D01*
X1393Y3665D01*
X1394Y3665D01*
X1395Y3665D01*
X1396Y3665D01*
X1397Y3665D01*
X1398Y3665D01*
X1399Y3665D01*
X1400Y3665D01*
X1401Y3665D01*
X1402Y3665D01*
X1403Y3665D01*
X1404Y3665D01*
X1405Y3665D01*
X1406Y3665D01*
X1407Y3665D01*
X1408Y3665D01*
X1409Y3665D01*
X1410Y3665D01*
X1411Y3665D01*
X1412Y3665D01*
X1413Y3665D01*
X1414Y3665D01*
X1415Y3665D01*
X1416Y3665D01*
X1417Y3665D01*
X1418Y3665D01*
X1419Y3665D01*
X1420Y3665D01*
X1421Y3665D01*
X1422Y3665D01*
X1423Y3665D01*
X1424Y3665D01*
X1425Y3665D01*
X1426Y3665D01*
X1427Y3665D01*
X1428Y3665D01*
X1429Y3665D01*
X1430Y3665D01*
X1431Y3665D01*
X1432Y3665D01*
X1433Y3665D01*
X1434Y3665D01*
X1435Y3665D01*
X1436Y3665D01*
X1437Y3665D01*
X1438Y3665D01*
X1439Y3665D01*
X1440Y3665D01*
X1441Y3665D01*
X1442Y3665D01*
X1443Y3665D01*
X1444Y3665D01*
X1445Y3665D01*
X1446Y3665D01*
X1447Y3665D01*
X1448Y3665D01*
X1449Y3665D01*
X1450Y3665D01*
X1451Y3665D01*
X1452Y3665D01*
X1453Y3665D01*
X1454Y3665D01*
X1455Y3665D01*
X1456Y3665D01*
X1457Y3665D01*
X1458Y3665D01*
X1459Y3665D01*
X1460Y3665D01*
X1461Y3665D01*
X1462Y3665D01*
X1463Y3665D01*
X1464Y3665D01*
X1465Y3665D01*
X1466Y3665D01*
X1467Y3665D01*
X1468Y3665D01*
X1469Y3665D01*
X1470Y3665D01*
X1471Y3665D01*
X1472Y3665D01*
X1473Y3665D01*
X1474Y3665D01*
X1475Y3665D01*
X1476Y3665D01*
X1477Y3665D01*
X1478Y3665D01*
X1479Y3665D01*
X1480Y3665D01*
X1481Y3665D01*
X1482Y3665D01*
X1483Y3665D01*
X1484Y3665D01*
X1485Y3665D01*
X1486Y3665D01*
X1487Y3665D01*
X1488Y3665D01*
X1489Y3665D01*
X1490Y3665D01*
X1491Y3665D01*
X1492Y3665D01*
X1493Y3665D01*
X1494Y3665D01*
X1495Y3665D01*
X1496Y3665D01*
X1497Y3665D01*
X1498Y3665D01*
X1499Y3665D01*
X1500Y3665D01*
X1501Y3665D01*
X1502Y3665D01*
X1503Y3665D01*
X1504Y3665D01*
X1505Y3665D01*
X1506Y3665D01*
X1507Y3665D01*
X1508Y3665D01*
X1509Y3665D01*
X1510Y3665D01*
X1511Y3665D01*
X1512Y3665D01*
X1513Y3665D01*
X1514Y3665D01*
X1515Y3665D01*
X1516Y3665D01*
X1517Y3665D01*
X1518Y3665D01*
X1519Y3665D01*
X1520Y3665D01*
X1521Y3665D01*
X1522Y3665D01*
X1523Y3665D01*
X1524Y3665D01*
X1525Y3665D01*
X1526Y3665D01*
X1527Y3665D01*
X1528Y3665D01*
X1529Y3665D01*
X1530Y3665D01*
X1531Y3665D01*
X1532Y3665D01*
X1533Y3665D01*
X1534Y3665D01*
X1535Y3665D01*
X1536Y3665D01*
X1537Y3665D01*
X1538Y3665D01*
X1539Y3665D01*
X1540Y3665D01*
X1541Y3665D01*
X1542Y3665D01*
X1543Y3665D01*
X1544Y3665D01*
X1545Y3665D01*
X1546Y3665D01*
X1547Y3665D01*
X1548Y3665D01*
X1549Y3665D01*
X1550Y3665D01*
X1551Y3665D01*
X1552Y3665D01*
X1553Y3665D01*
X1554Y3665D01*
X1555Y3665D01*
X1556Y3665D01*
X1557Y3665D01*
X1558Y3665D01*
X1559Y3665D01*
X1560Y3665D01*
X1561Y3665D01*
X1562Y3665D01*
X1563Y3665D01*
X1564Y3665D01*
X1565Y3665D01*
X1566Y3665D01*
X1567Y3665D01*
X1568Y3665D01*
X1569Y3665D01*
X1570Y3665D01*
X1571Y3665D01*
X1572Y3665D01*
X1573Y3665D01*
X1574Y3665D01*
X1575Y3665D01*
X1576Y3665D01*
X1577Y3665D01*
X1578Y3665D01*
X1579Y3665D01*
X1580Y3665D01*
X1581Y3665D01*
X1582Y3665D01*
X1583Y3665D01*
X1584Y3665D01*
X1585Y3665D01*
X1586Y3665D01*
X1587Y3665D01*
X1588Y3665D01*
X1589Y3665D01*
X1590Y3665D01*
X1591Y3665D01*
X1592Y3665D01*
X1593Y3665D01*
X1594Y3665D01*
X1595Y3665D01*
X1596Y3665D01*
X1597Y3665D01*
X1598Y3665D01*
X1599Y3665D01*
X1600Y3665D01*
X1601Y3665D01*
X1602Y3665D01*
X1603Y3665D01*
X1604Y3665D01*
X1605Y3665D01*
X1606Y3665D01*
X1607Y3665D01*
X1608Y3665D01*
X1609Y3665D01*
X1610Y3665D01*
X1611Y3665D01*
X1612Y3665D01*
X1613Y3665D01*
X1614Y3665D01*
X1615Y3665D01*
X1616Y3665D01*
X1617Y3665D01*
X1618Y3665D01*
X1619Y3665D01*
X1620Y3665D01*
X1621Y3665D01*
X1622Y3665D01*
X1623Y3665D01*
X1624Y3665D01*
X1625Y3665D01*
X1626Y3665D01*
X1627Y3665D01*
X1628Y3665D01*
X1629Y3665D01*
X1630Y3665D01*
X1631Y3665D01*
X1632Y3665D01*
X1633Y3665D01*
X1634Y3665D01*
X1635Y3665D01*
X1636Y3665D01*
X1637Y3665D01*
X1638Y3665D01*
X1639Y3665D01*
X1640Y3665D01*
X1641Y3665D01*
X1642Y3665D01*
X1643Y3665D01*
X1644Y3665D01*
X1645Y3665D01*
X1646Y3665D01*
X1647Y3665D01*
X1648Y3665D01*
X1649Y3665D01*
X1650Y3665D01*
X1651Y3665D01*
X1652Y3665D01*
X1653Y3665D01*
X1654Y3665D01*
X1655Y3665D01*
X1656Y3665D01*
X1657Y3665D01*
X1658Y3665D01*
X1659Y3665D01*
X1660Y3665D01*
X1661Y3665D01*
X1662Y3665D01*
X1663Y3665D01*
X1664Y3665D01*
X1665Y3665D01*
X1666Y3665D01*
X1667Y3665D01*
X1668Y3665D01*
X1669Y3665D01*
X1670Y3665D01*
X1671Y3665D01*
X1672Y3665D01*
X1673Y3665D01*
X1674Y3665D01*
X1675Y3665D01*
X1676Y3665D01*
X1677Y3665D01*
X1678Y3665D01*
X1679Y3665D01*
X1680Y3665D01*
X1681Y3665D01*
X1682Y3665D01*
X1683Y3665D01*
X1684Y3665D01*
X1685Y3665D01*
X1686Y3665D01*
X1687Y3665D01*
X1688Y3665D01*
X1689Y3665D01*
X1690Y3665D01*
X1691Y3665D01*
X1692Y3665D01*
X1693Y3665D01*
X1694Y3665D01*
X1695Y3665D01*
X1696Y3665D01*
X1697Y3665D01*
X1698Y3665D01*
X1699Y3665D01*
X1700Y3665D01*
X1701Y3665D01*
X1702Y3665D01*
X1703Y3665D01*
X1704Y3665D01*
X1705Y3665D01*
X1706Y3665D01*
X1707Y3665D01*
X1708Y3665D01*
X1709Y3665D01*
X1710Y3665D01*
X1711Y3665D01*
X1712Y3665D01*
X1713Y3665D01*
X1714Y3665D01*
X1715Y3665D01*
X1716Y3665D01*
X1717Y3665D01*
X1718Y3665D01*
X1719Y3665D01*
X1720Y3665D01*
X1721Y3665D01*
X1722Y3665D01*
X1723Y3665D01*
X1724Y3665D01*
X1725Y3665D01*
X1726Y3665D01*
X1727Y3665D01*
X1728Y3665D01*
X1729Y3665D01*
X1730Y3665D01*
X1731Y3665D01*
X1732Y3665D01*
X1733Y3665D01*
X1734Y3665D01*
X1735Y3665D01*
X1736Y3665D01*
X1737Y3665D01*
X1738Y3665D01*
X1739Y3665D01*
X1740Y3665D01*
X1741Y3665D01*
X1742Y3665D01*
X1743Y3665D01*
X1744Y3665D01*
X1745Y3665D01*
X1746Y3665D01*
X1747Y3665D01*
X1748Y3665D01*
X1749Y3665D01*
X1750Y3665D01*
X1751Y3665D01*
X1752Y3665D01*
X1753Y3665D01*
X1754Y3665D01*
X1755Y3665D01*
X1756Y3665D01*
X1757Y3665D01*
X1758Y3665D01*
X1759Y3665D01*
X1760Y3665D01*
X1761Y3665D01*
X1762Y3665D01*
X1763Y3665D01*
X1764Y3665D01*
X1765Y3665D01*
X1766Y3665D01*
X1767Y3665D01*
X1768Y3665D01*
X1769Y3665D01*
X1770Y3665D01*
X1771Y3665D01*
X1772Y3665D01*
X1773Y3665D01*
X1774Y3665D01*
X1775Y3665D01*
X1776Y3665D01*
X1777Y3665D01*
X1778Y3665D01*
X1779Y3665D01*
X1780Y3665D01*
X1781Y3665D01*
X1782Y3665D01*
X1783Y3665D01*
X1784Y3665D01*
X1785Y3665D01*
X1786Y3665D01*
X1787Y3665D01*
X1788Y3665D01*
X1789Y3665D01*
X1790Y3665D01*
X1791Y3665D01*
X1792Y3665D01*
X1793Y3665D01*
X1794Y3665D01*
X1795Y3665D01*
X1796Y3665D01*
X1797Y3665D01*
X1798Y3665D01*
X1799Y3665D01*
X1800Y3665D01*
X1801Y3665D01*
X1802Y3665D01*
X1803Y3665D01*
X1804Y3665D01*
X1805Y3665D01*
X1806Y3665D01*
X1807Y3665D01*
X1808Y3665D01*
X1809Y3665D01*
X1810Y3665D01*
X1811Y3665D01*
X1812Y3665D01*
X1813Y3665D01*
X1814Y3665D01*
X1815Y3665D01*
X1816Y3665D01*
X1817Y3665D01*
X1818Y3665D01*
X1819Y3665D01*
X1820Y3665D01*
X1821Y3665D01*
X1822Y3665D01*
X1823Y3665D01*
X1824Y3665D01*
X1825Y3665D01*
X1826Y3665D01*
X1827Y3665D01*
X1828Y3665D01*
X1829Y3665D01*
X1830Y3665D01*
X1831Y3665D01*
X1832Y3665D01*
X1833Y3665D01*
X1834Y3665D01*
X1835Y3665D01*
X1836Y3665D01*
X1837Y3665D01*
X1838Y3665D01*
X1839Y3665D01*
X1840Y3665D01*
X1841Y3665D01*
X1842Y3665D01*
X1843Y3665D01*
X1844Y3665D01*
X1845Y3665D01*
X1846Y3665D01*
X1847Y3665D01*
X1848Y3665D01*
X1849Y3665D01*
X1850Y3665D01*
X1851Y3665D01*
X1852Y3665D01*
X1853Y3665D01*
X1854Y3665D01*
X1855Y3665D01*
X1856Y3665D01*
X1857Y3665D01*
X1858Y3665D01*
X1859Y3665D01*
X1860Y3665D01*
X1861Y3665D01*
X1862Y3665D01*
X1863Y3665D01*
X1864Y3665D01*
X1865Y3665D01*
X1866Y3665D01*
X1867Y3665D01*
X1868Y3665D01*
X1869Y3665D01*
X1870Y3665D01*
X1871Y3665D01*
X1872Y3665D01*
X1873Y3665D01*
X1874Y3665D01*
X1875Y3665D01*
X1876Y3665D01*
X1877Y3665D01*
X1878Y3665D01*
X1879Y3665D01*
X1880Y3665D01*
X1881Y3665D01*
X1882Y3665D01*
X1883Y3665D01*
X1884Y3665D01*
X1885Y3665D01*
X1886Y3665D01*
X1887Y3665D01*
X1888Y3665D01*
X1889Y3665D01*
X1890Y3665D01*
X1891Y3665D01*
X1892Y3665D01*
X1893Y3665D01*
X1894Y3665D01*
X1895Y3665D01*
X1896Y3665D01*
X1897Y3665D01*
X1898Y3665D01*
X1899Y3665D01*
X1900Y3665D01*
X1901Y3665D01*
X1902Y3665D01*
X1903Y3665D01*
X1904Y3665D01*
X1905Y3665D01*
X1906Y3665D01*
X1907Y3665D01*
X1908Y3665D01*
X1909Y3665D01*
X1910Y3665D01*
X1911Y3665D01*
X1912Y3665D01*
X1913Y3665D01*
X1914Y3665D01*
X1915Y3665D01*
X1916Y3665D01*
X1917Y3665D01*
X1918Y3665D01*
X1919Y3665D01*
X1920Y3665D01*
X1921Y3665D01*
X1922Y3665D01*
X1923Y3665D01*
X1924Y3665D01*
X1925Y3665D01*
X1926Y3665D01*
X1927Y3665D01*
X1928Y3665D01*
X1929Y3665D01*
X1930Y3665D01*
X1931Y3665D01*
X1932Y3665D01*
X1933Y3665D01*
X1934Y3665D01*
X1935Y3665D01*
X1936Y3665D01*
X1937Y3665D01*
X1938Y3665D01*
X1939Y3665D01*
X1940Y3665D01*
X1941Y3665D01*
X1942Y3665D01*
X1943Y3665D01*
X1944Y3665D01*
X1945Y3665D01*
X1946Y3665D01*
X1947Y3665D01*
X1948Y3665D01*
X1949Y3665D01*
X1950Y3665D01*
X1951Y3665D01*
X1952Y3665D01*
X1953Y3665D01*
X1954Y3665D01*
X1955Y3665D01*
X1956Y3665D01*
X1957Y3665D01*
X1958Y3665D01*
X1959Y3665D01*
X1960Y3665D01*
X1961Y3665D01*
X1962Y3665D01*
X1963Y3665D01*
X1964Y3665D01*
X1965Y3665D01*
X1966Y3665D01*
X1967Y3665D01*
X1968Y3665D01*
X1969Y3665D01*
X1970Y3665D01*
X1971Y3665D01*
X1972Y3665D01*
X1973Y3665D01*
X1974Y3665D01*
X1975Y3665D01*
X1976Y3665D01*
X1977Y3665D01*
X1978Y3665D01*
X1979Y3665D01*
X1980Y3665D01*
X1981Y3665D01*
X1982Y3665D01*
X1983Y3665D01*
X1984Y3665D01*
X1985Y3665D01*
X1986Y3665D01*
X1987Y3665D01*
X1988Y3665D01*
X1989Y3665D01*
X1990Y3665D01*
X1991Y3665D01*
X1992Y3665D01*
X1993Y3665D01*
X1994Y3665D01*
X1995Y3665D01*
X1996Y3665D01*
X1997Y3665D01*
X1998Y3665D01*
X1999Y3665D01*
X2000Y3665D01*
X2001Y3665D01*
X2002Y3665D01*
X2003Y3665D01*
X2004Y3665D01*
X2005Y3665D01*
X2006Y3665D01*
X2007Y3665D01*
X2008Y3665D01*
X2009Y3665D01*
X2010Y3665D01*
X2011Y3665D01*
X2012Y3665D01*
X2013Y3665D01*
X2014Y3665D01*
X2015Y3665D01*
X2016Y3665D01*
X2017Y3665D01*
X2018Y3665D01*
X2019Y3665D01*
X2020Y3665D01*
X2021Y3665D01*
X2022Y3665D01*
X2023Y3665D01*
X2024Y3665D01*
X2025Y3665D01*
X2026Y3665D01*
X2027Y3665D01*
X2028Y3665D01*
X2029Y3665D01*
X2030Y3665D01*
X2031Y3665D01*
X2032Y3665D01*
X2033Y3665D01*
X2034Y3665D01*
X2035Y3665D01*
X2036Y3665D01*
X2037Y3665D01*
X2038Y3665D01*
X2039Y3665D01*
X2040Y3665D01*
X2041Y3665D01*
X2042Y3665D01*
X2043Y3665D01*
X2044Y3665D01*
X2045Y3665D01*
X2046Y3665D01*
X2047Y3665D01*
X2048Y3665D01*
X2049Y3665D01*
X2050Y3665D01*
X2051Y3665D01*
X2052Y3665D01*
X2053Y3665D01*
X2054Y3665D01*
X2055Y3665D01*
X2056Y3665D01*
X2057Y3665D01*
X2058Y3665D01*
X2059Y3665D01*
X2060Y3665D01*
X2061Y3665D01*
X2062Y3665D01*
X2063Y3665D01*
X2064Y3665D01*
X2065Y3665D01*
X2066Y3665D01*
X2067Y3665D01*
X2068Y3665D01*
X2069Y3665D01*
X2070Y3665D01*
X2071Y3665D01*
X2072Y3665D01*
X2073Y3665D01*
X2074Y3665D01*
X2075Y3665D01*
X2076Y3665D01*
X2077Y3665D01*
X2078Y3665D01*
X2079Y3665D01*
X2080Y3665D01*
X2081Y3665D01*
X2082Y3665D01*
X2083Y3665D01*
X2084Y3665D01*
X2085Y3665D01*
X2086Y3665D01*
X2087Y3665D01*
X2088Y3665D01*
X2089Y3665D01*
X2090Y3665D01*
X2091Y3665D01*
X2092Y3665D01*
X2093Y3665D01*
X2094Y3665D01*
X2095Y3665D01*
X2096Y3665D01*
X2097Y3665D01*
X2098Y3665D01*
X2099Y3665D01*
X2100Y3665D01*
X2101Y3665D01*
X2102Y3665D01*
X2103Y3665D01*
X2104Y3665D01*
X2105Y3665D01*
X2106Y3665D01*
X2107Y3665D01*
X2108Y3665D01*
X2109Y3665D01*
X2110Y3665D01*
X2111Y3665D01*
X2112Y3665D01*
X2113Y3665D01*
X2114Y3665D01*
X2115Y3665D01*
X2116Y3665D01*
X2117Y3665D01*
X2118Y3665D01*
X2119Y3665D01*
X2120Y3665D01*
X2121Y3665D01*
X2122Y3665D01*
X2123Y3665D01*
X2124Y3665D01*
X2125Y3665D01*
X2126Y3665D01*
X2127Y3665D01*
X2128Y3665D01*
X2129Y3665D01*
X2130Y3665D01*
X2131Y3665D01*
X2132Y3665D01*
X2133Y3665D01*
X2134Y3665D01*
X2135Y3665D01*
X2136Y3665D01*
X2137Y3665D01*
X2138Y3665D01*
X2139Y3665D01*
X2140Y3665D01*
X2141Y3665D01*
X2142Y3665D01*
X2143Y3665D01*
X2144Y3665D01*
X2145Y3665D01*
X2146Y3665D01*
X2147Y3665D01*
X2148Y3665D01*
X2149Y3665D01*
X2150Y3665D01*
X2151Y3665D01*
X2152Y3665D01*
X2153Y3665D01*
X2154Y3665D01*
X2155Y3665D01*
X2156Y3665D01*
X2157Y3665D01*
X2158Y3665D01*
X2159Y3665D01*
X2160Y3665D01*
X2161Y3665D01*
X2162Y3665D01*
X2163Y3665D01*
X2164Y3665D01*
X2165Y3665D01*
X2166Y3665D01*
X2167Y3665D01*
X2168Y3665D01*
X2169Y3665D01*
X2170Y3665D01*
X2171Y3665D01*
X2172Y3665D01*
X2173Y3665D01*
X2174Y3665D01*
X2175Y3665D01*
X2176Y3665D01*
X2177Y3665D01*
X2178Y3665D01*
X2179Y3665D01*
X2180Y3665D01*
X2181Y3665D01*
X2182Y3665D01*
X2183Y3665D01*
X2184Y3665D01*
X2185Y3665D01*
X2186Y3665D01*
X2187Y3665D01*
X2188Y3665D01*
X2189Y3665D01*
X2190Y3665D01*
X2191Y3665D01*
X2192Y3665D01*
X2193Y3665D01*
X2194Y3665D01*
X2195Y3665D01*
X2196Y3665D01*
X2197Y3665D01*
X2198Y3665D01*
X2199Y3665D01*
X2200Y3665D01*
X2201Y3665D01*
X2202Y3665D01*
X2203Y3665D01*
X2204Y3665D01*
X2205Y3665D01*
X2206Y3665D01*
X2207Y3665D01*
X2208Y3665D01*
X2209Y3665D01*
X2210Y3665D01*
X2211Y3665D01*
X2212Y3665D01*
X2213Y3665D01*
X2214Y3665D01*
X2215Y3665D01*
X2216Y3665D01*
X2217Y3665D01*
X2218Y3665D01*
X2219Y3665D01*
X2220Y3665D01*
X2221Y3665D01*
X2222Y3665D01*
X2223Y3665D01*
X2224Y3665D01*
X2225Y3665D01*
X2226Y3665D01*
X2227Y3665D01*
X2228Y3665D01*
X2229Y3665D01*
X2230Y3665D01*
X2231Y3665D01*
X2232Y3665D01*
X2233Y3665D01*
X2234Y3665D01*
X2235Y3665D01*
X2236Y3665D01*
X2237Y3665D01*
X2238Y3665D01*
X2239Y3665D01*
X2240Y3665D01*
X2241Y3665D01*
X2242Y3665D01*
X2243Y3665D01*
X2244Y3665D01*
X2245Y3665D01*
X2246Y3665D01*
X2247Y3665D01*
X2248Y3665D01*
X2249Y3665D01*
X2250Y3665D01*
X2251Y3665D01*
X2252Y3665D01*
X2253Y3665D01*
X2254Y3665D01*
X2255Y3665D01*
X2256Y3665D01*
X2257Y3665D01*
X2258Y3665D01*
X2259Y3665D01*
X2260Y3665D01*
X2261Y3665D01*
X2262Y3665D01*
X2263Y3665D01*
X2264Y3665D01*
X2265Y3665D01*
X2266Y3665D01*
X2267Y3665D01*
X2268Y3665D01*
X2269Y3665D01*
X2270Y3665D01*
X2271Y3665D01*
X2272Y3665D01*
X2273Y3665D01*
X2274Y3665D01*
X2275Y3665D01*
X2276Y3665D01*
X2277Y3665D01*
X2278Y3665D01*
X2279Y3665D01*
X2280Y3665D01*
X2281Y3665D01*
X2282Y3665D01*
X2283Y3665D01*
X2284Y3665D01*
X2285Y3665D01*
X2286Y3665D01*
X2287Y3665D01*
X2288Y3665D01*
X2289Y3665D01*
X2290Y3665D01*
X2291Y3665D01*
X2292Y3665D01*
X2293Y3665D01*
X2294Y3665D01*
X2295Y3665D01*
X2296Y3665D01*
X2297Y3665D01*
X2298Y3665D01*
X2299Y3665D01*
X2300Y3665D01*
X2301Y3665D01*
X2302Y3665D01*
X2303Y3665D01*
X2304Y3665D01*
X2305Y3665D01*
X2306Y3665D01*
X2307Y3665D01*
X2308Y3665D01*
X2309Y3665D01*
X2310Y3665D01*
X2311Y3665D01*
X2312Y3665D01*
X2313Y3665D01*
X2314Y3665D01*
X2315Y3665D01*
X2316Y3665D01*
X2317Y3665D01*
X2318Y3665D01*
X2319Y3665D01*
X2320Y3665D01*
X2321Y3665D01*
X2322Y3665D01*
X2323Y3665D01*
X2324Y3665D01*
X2325Y3665D01*
X2326Y3665D01*
X2327Y3665D01*
X2328Y3665D01*
X2329Y3665D01*
X2330Y3665D01*
X2331Y3665D01*
X2332Y3665D01*
X2333Y3665D01*
X2334Y3665D01*
X2335Y3665D01*
X2336Y3665D01*
X2337Y3665D01*
X2338Y3665D01*
X2339Y3665D01*
X2340Y3665D01*
X2341Y3665D01*
X2342Y3665D01*
X2343Y3665D01*
X2344Y3665D01*
X2345Y3665D01*
X2346Y3665D01*
X2347Y3665D01*
X2348Y3665D01*
X2349Y3665D01*
X2350Y3665D01*
X2351Y3665D01*
X2352Y3665D01*
X2353Y3665D01*
X2354Y3665D01*
X2355Y3665D01*
X2356Y3665D01*
X2357Y3665D01*
X2358Y3665D01*
X2359Y3665D01*
X2360Y3665D01*
X2361Y3665D01*
X2362Y3665D01*
X2363Y3665D01*
X2364Y3665D01*
X2365Y3665D01*
X2366Y3665D01*
X2367Y3665D01*
X2368Y3665D01*
X2369Y3665D01*
X2370Y3665D01*
X2371Y3665D01*
X2372Y3665D01*
X2373Y3665D01*
X2374Y3665D01*
X2375Y3665D01*
X2376Y3665D01*
X2377Y3665D01*
X2378Y3665D01*
X2379Y3665D01*
X2380Y3665D01*
X2381Y3665D01*
X2382Y3665D01*
X2383Y3665D01*
X2384Y3665D01*
X2385Y3665D01*
X2386Y3665D01*
X2387Y3665D01*
X2388Y3665D01*
X2389Y3665D01*
X2390Y3665D01*
X2391Y3665D01*
X2392Y3665D01*
X2393Y3665D01*
X2394Y3665D01*
X2395Y3665D01*
X2396Y3665D01*
X2397Y3665D01*
X2398Y3665D01*
X2399Y3665D01*
X2400Y3665D01*
X2401Y3665D01*
X2402Y3665D01*
X2403Y3665D01*
X2404Y3665D01*
X2405Y3665D01*
X2406Y3665D01*
X2407Y3665D01*
X2408Y3665D01*
X2409Y3665D01*
X2410Y3665D01*
X2411Y3665D01*
X2412Y3665D01*
X2413Y3665D01*
X2414Y3665D01*
X2415Y3665D01*
X2416Y3665D01*
X2417Y3665D01*
X2418Y3665D01*
X2419Y3665D01*
X2420Y3665D01*
X2421Y3665D01*
X2422Y3665D01*
X2423Y3665D01*
X2424Y3665D01*
X2425Y3665D01*
X2426Y3665D01*
X2427Y3665D01*
X2428Y3665D01*
X2429Y3665D01*
X2430Y3665D01*
X2431Y3665D01*
X2432Y3665D01*
X2433Y3665D01*
X2434Y3665D01*
X2435Y3665D01*
X2436Y3665D01*
X2437Y3665D01*
X2438Y3665D01*
X2439Y3665D01*
X2440Y3665D01*
X2441Y3665D01*
X2442Y3665D01*
X2443Y3665D01*
X2444Y3665D01*
X2445Y3665D01*
X2446Y3665D01*
X2447Y3665D01*
X2448Y3665D01*
X2449Y3665D01*
X2450Y3665D01*
X2451Y3665D01*
X2452Y3665D01*
X2453Y3665D01*
X2454Y3665D01*
X2455Y3665D01*
X2456Y3665D01*
X2457Y3665D01*
X2458Y3665D01*
X2459Y3665D01*
X2460Y3665D01*
X2461Y3665D01*
X2462Y3665D01*
X2463Y3665D01*
X2464Y3665D01*
X2465Y3665D01*
X2466Y3665D01*
X2467Y3665D01*
X2468Y3665D01*
X2469Y3665D01*
X2470Y3665D01*
X2471Y3665D01*
X2472Y3665D01*
X2473Y3665D01*
X2474Y3665D01*
X2475Y3665D01*
X2476Y3665D01*
X2477Y3665D01*
X2478Y3665D01*
X2479Y3665D01*
X2480Y3665D01*
X2481Y3665D01*
X2482Y3665D01*
X2483Y3665D01*
X2484Y3665D01*
X2485Y3665D01*
X2486Y3665D01*
X2487Y3665D01*
X2488Y3665D01*
X2489Y3665D01*
X2490Y3665D01*
X2491Y3665D01*
X2492Y3665D01*
X2493Y3665D01*
X2494Y3665D01*
X2495Y3665D01*
X2496Y3665D01*
X2497Y3665D01*
X2498Y3665D01*
X2499Y3665D01*
X2500Y3665D01*
X2501Y3665D01*
X2502Y3665D01*
X2503Y3665D01*
X2504Y3665D01*
X2505Y3665D01*
X2506Y3665D01*
X2507Y3665D01*
X2508Y3665D01*
X2509Y3665D01*
X2510Y3665D01*
X2511Y3665D01*
X2512Y3665D01*
X2513Y3665D01*
X2514Y3665D01*
X2515Y3665D01*
X2516Y3665D01*
X2517Y3665D01*
X2518Y3665D01*
X2519Y3665D01*
X2520Y3665D01*
X2521Y3665D01*
X2522Y3665D01*
X2523Y3665D01*
X2524Y3665D01*
X2525Y3665D01*
X2526Y3665D01*
X2527Y3665D01*
X2528Y3665D01*
X2529Y3665D01*
X2530Y3665D01*
X2531Y3665D01*
X2532Y3665D01*
X2533Y3665D01*
X2534Y3665D01*
X2535Y3665D01*
X2536Y3665D01*
X2537Y3665D01*
X2538Y3665D01*
X2539Y3665D01*
X2540Y3665D01*
X2541Y3665D01*
X2542Y3665D01*
X2543Y3665D01*
X2544Y3665D01*
X2545Y3665D01*
X2546Y3665D01*
X2547Y3665D01*
X2548Y3665D01*
X2549Y3665D01*
X2550Y3665D01*
X2551Y3665D01*
X2552Y3665D01*
X2553Y3665D01*
X2554Y3665D01*
X2555Y3665D01*
X2556Y3665D01*
X2557Y3665D01*
X2558Y3665D01*
X2559Y3665D01*
X2560Y3665D01*
X2561Y3665D01*
X2562Y3665D01*
X2563Y3665D01*
X2564Y3665D01*
X2565Y3665D01*
X2566Y3665D01*
X2567Y3665D01*
X2568Y3665D01*
X2569Y3665D01*
X2570Y3665D01*
X2571Y3665D01*
X2572Y3665D01*
X2573Y3665D01*
X2574Y3665D01*
X2575Y3665D01*
X2576Y3665D01*
X2577Y3665D01*
X2578Y3665D01*
X2579Y3665D01*
X2580Y3665D01*
X2581Y3665D01*
X2582Y3665D01*
X2583Y3665D01*
X2584Y3665D01*
X2585Y3665D01*
X2586Y3665D01*
X2587Y3665D01*
X2588Y3665D01*
X2589Y3665D01*
X2590Y3665D01*
X2591Y3665D01*
X2592Y3665D01*
X2593Y3665D01*
X2594Y3665D01*
X2595Y3665D01*
X2596Y3665D01*
X2597Y3665D01*
X2598Y3665D01*
X2599Y3665D01*
X2600Y3665D01*
X2601Y3665D01*
X2602Y3665D01*
X2603Y3665D01*
X2604Y3665D01*
X2605Y3665D01*
X2606Y3665D01*
X2607Y3665D01*
X2608Y3665D01*
X2609Y3665D01*
X2610Y3665D01*
X2611Y3665D01*
X2612Y3665D01*
X2613Y3665D01*
X2614Y3665D01*
X2615Y3665D01*
X2616Y3665D01*
X2617Y3665D01*
X2618Y3665D01*
X2619Y3665D01*
X2620Y3665D01*
X2621Y3665D01*
X2622Y3665D01*
X2623Y3665D01*
X2624Y3665D01*
X2625Y3665D01*
X2626Y3665D01*
X2627Y3665D01*
X2628Y3665D01*
X2629Y3665D01*
X2630Y3665D01*
X2631Y3665D01*
X2632Y3665D01*
X2633Y3665D01*
X2634Y3665D01*
X2635Y3665D01*
X2636Y3665D01*
X2637Y3665D01*
X2638Y3665D01*
X2639Y3665D01*
X2640Y3665D01*
X2641Y3665D01*
X2642Y3665D01*
X2643Y3665D01*
X2644Y3665D01*
X2645Y3665D01*
X2646Y3665D01*
X2647Y3665D01*
X2648Y3665D01*
X2649Y3665D01*
X2650Y3665D01*
X2651Y3665D01*
X2652Y3665D01*
X2653Y3665D01*
X2654Y3665D01*
X2655Y3665D01*
X2656Y3665D01*
X2657Y3665D01*
X2658Y3665D01*
X2659Y3665D01*
X2660Y3665D01*
X2661Y3665D01*
X2662Y3665D01*
X2663Y3665D01*
X2664Y3665D01*
X2665Y3665D01*
X2666Y3665D01*
X2667Y3665D01*
X2668Y3665D01*
X2669Y3665D01*
X2670Y3665D01*
X2671Y3665D01*
X2672Y3665D01*
X2673Y3665D01*
X2674Y3665D01*
X2675Y3665D01*
X2676Y3665D01*
X2677Y3665D01*
X2678Y3665D01*
X2679Y3665D01*
X2680Y3665D01*
X2681Y3665D01*
X2682Y3665D01*
X2683Y3665D01*
X2684Y3665D01*
X2685Y3665D01*
X2686Y3665D01*
X2687Y3665D01*
X2688Y3665D01*
X2689Y3665D01*
X2690Y3665D01*
X2691Y3665D01*
X2692Y3665D01*
X2693Y3665D01*
X2694Y3665D01*
X2695Y3665D01*
X2696Y3665D01*
X2697Y3665D01*
X2698Y3665D01*
X2699Y3665D01*
X2700Y3665D01*
X2701Y3665D01*
X2702Y3665D01*
X2703Y3665D01*
X2704Y3665D01*
X2705Y3665D01*
X2706Y3665D01*
X2707Y3665D01*
X2708Y3665D01*
X2709Y3665D01*
X2710Y3665D01*
X2711Y3665D01*
X2712Y3665D01*
X2713Y3665D01*
X2714Y3665D01*
X2715Y3665D01*
X2716Y3665D01*
X2717Y3665D01*
X2718Y3665D01*
X2719Y3665D01*
X2720Y3665D01*
X2721Y3665D01*
X2722Y3665D01*
X2723Y3665D01*
X2724Y3665D01*
X2725Y3665D01*
X2726Y3665D01*
X2727Y3665D01*
X2728Y3665D01*
X2729Y3665D01*
X2730Y3665D01*
X2731Y3665D01*
X2732Y3665D01*
X2733Y3665D01*
X2734Y3665D01*
X2735Y3665D01*
X2736Y3665D01*
X2737Y3665D01*
X2738Y3665D01*
X2739Y3665D01*
X2740Y3665D01*
X2741Y3665D01*
X2742Y3665D01*
X2743Y3665D01*
X2744Y3665D01*
X2745Y3665D01*
X2746Y3665D01*
X2747Y3665D01*
X2748Y3665D01*
X2749Y3665D01*
X2750Y3665D01*
X2751Y3665D01*
X2752Y3665D01*
X2753Y3665D01*
X2754Y3665D01*
X2755Y3665D01*
X2756Y3665D01*
X2757Y3665D01*
X2758Y3665D01*
X2759Y3665D01*
X2760Y3665D01*
X2761Y3665D01*
X2762Y3665D01*
X2763Y3665D01*
X2764Y3665D01*
X2765Y3665D01*
X2766Y3665D01*
X2767Y3665D01*
X2768Y3665D01*
X2769Y3665D01*
X2770Y3665D01*
X2771Y3665D01*
X2772Y3665D01*
X2773Y3665D01*
X2774Y3665D01*
X2775Y3665D01*
X2776Y3665D01*
X2777Y3665D01*
X2778Y3665D01*
X2779Y3665D01*
X2780Y3665D01*
X2781Y3665D01*
X2782Y3665D01*
X2783Y3665D01*
X2784Y3665D01*
X2785Y3665D01*
X2786Y3665D01*
X2787Y3665D01*
X2788Y3665D01*
X2789Y3665D01*
X2790Y3665D01*
X2791Y3665D01*
X2792Y3665D01*
X2793Y3665D01*
X2794Y3665D01*
X2795Y3665D01*
X2796Y3665D01*
X2797Y3665D01*
X2798Y3665D01*
X2799Y3665D01*
X2800Y3665D01*
X2801Y3665D01*
X2802Y3665D01*
X2803Y3665D01*
X2804Y3665D01*
X2805Y3665D01*
X2806Y3665D01*
X2807Y3665D01*
X2808Y3665D01*
X2809Y3665D01*
X2810Y3665D01*
X2811Y3665D01*
X2812Y3665D01*
X2813Y3665D01*
X2814Y3665D01*
X2815Y3665D01*
X2816Y3665D01*
X2817Y3665D01*
X2818Y3665D01*
X2819Y3665D01*
X2820Y3665D01*
X2821Y3665D01*
X2822Y3665D01*
X2823Y3665D01*
X2824Y3665D01*
X2825Y3665D01*
X2826Y3665D01*
X2827Y3665D01*
X2828Y3665D01*
X2829Y3665D01*
X2830Y3665D01*
X2831Y3665D01*
X2832Y3665D01*
X2833Y3665D01*
X2834Y3665D01*
X2835Y3665D01*
X2836Y3665D01*
X2837Y3665D01*
X2838Y3665D01*
X2839Y3665D01*
X2840Y3665D01*
X2841Y3665D01*
X2842Y3665D01*
X2843Y3665D01*
X2844Y3665D01*
X2845Y3665D01*
X2846Y3665D01*
X2847Y3665D01*
X2848Y3665D01*
X2849Y3665D01*
X2850Y3665D01*
X2851Y3665D01*
X2852Y3665D01*
X2853Y3665D01*
X2854Y3665D01*
X2855Y3665D01*
X2856Y3665D01*
X2857Y3665D01*
X2858Y3665D01*
X2859Y3665D01*
X2860Y3665D01*
X2861Y3665D01*
X2862Y3665D01*
X2863Y3665D01*
X2864Y3665D01*
X2865Y3665D01*
X2866Y3665D01*
X2867Y3665D01*
X2868Y3665D01*
X2869Y3665D01*
X2870Y3665D01*
X2871Y3665D01*
X2872Y3665D01*
X2873Y3665D01*
X2874Y3665D01*
X2875Y3665D01*
X2876Y3665D01*
X2877Y3665D01*
X2878Y3665D01*
X2879Y3665D01*
X2880Y3665D01*
X2881Y3665D01*
X2882Y3665D01*
X2883Y3665D01*
X2884Y3665D01*
X2885Y3665D01*
X2886Y3665D01*
X2887Y3665D01*
X2888Y3665D01*
X2889Y3665D01*
X2890Y3665D01*
X2891Y3665D01*
X2892Y3665D01*
X2893Y3665D01*
X2894Y3665D01*
X2895Y3665D01*
X2896Y3665D01*
X2897Y3665D01*
X2898Y3665D01*
X2899Y3665D01*
X2900Y3665D01*
X2901Y3665D01*
X2902Y3665D01*
X2903Y3665D01*
X2904Y3665D01*
X2905Y3665D01*
X2906Y3665D01*
X2907Y3665D01*
X2908Y3665D01*
X2909Y3665D01*
X2910Y3665D01*
X2911Y3665D01*
X2912Y3665D01*
X2913Y3665D01*
X2914Y3665D01*
X2915Y3665D01*
X2916Y3665D01*
X2917Y3665D01*
X2918Y3665D01*
X2919Y3665D01*
X2920Y3665D01*
X2921Y3665D01*
X2922Y3665D01*
X2923Y3665D01*
X2924Y3665D01*
X2925Y3665D01*
X2926Y3665D01*
X2927Y3665D01*
X2928Y3665D01*
X2929Y3665D01*
X2930Y3665D01*
X2931Y3665D01*
X2932Y3665D01*
X2933Y3665D01*
X2934Y3665D01*
X2935Y3665D01*
X2936Y3665D01*
X2937Y3665D01*
X2938Y3665D01*
X2939Y3665D01*
X2940Y3665D01*
X2941Y3665D01*
X2942Y3665D01*
X2943Y3665D01*
X2944Y3665D01*
X2945Y3665D01*
X2946Y3665D01*
X2947Y3665D01*
X2948Y3665D01*
X2949Y3665D01*
X2950Y3665D01*
X2951Y3665D01*
X2952Y3665D01*
X2953Y3665D01*
X2954Y3665D01*
X2955Y3665D01*
X2956Y3665D01*
X2957Y3665D01*
X2958Y3665D01*
X2959Y3665D01*
X2960Y3665D01*
X2961Y3665D01*
X2962Y3665D01*
X2963Y3665D01*
X2964Y3665D01*
X2965Y3665D01*
X2966Y3665D01*
X2967Y3665D01*
X2968Y3665D01*
X2969Y3665D01*
X2970Y3665D01*
X2971Y3665D01*
X2972Y3665D01*
X2973Y3665D01*
X2974Y3665D01*
X2975Y3665D01*
X2976Y3665D01*
X2977Y3665D01*
X2978Y3665D01*
X2979Y3665D01*
X2980Y3665D01*
X2981Y3665D01*
X2982Y3665D01*
X2983Y3665D01*
X2984Y3665D01*
X2985Y3665D01*
X2986Y3665D01*
X2987Y3665D01*
X2988Y3665D01*
X2989Y3665D01*
X2990Y3665D01*
X2991Y3665D01*
X2992Y3665D01*
X2993Y3665D01*
X2994Y3665D01*
X2995Y3665D01*
X2996Y3665D01*
X2997Y3665D01*
X2998Y3665D01*
X2999Y3665D01*
X3000Y3665D01*
X3001Y3665D01*
X3002Y3665D01*
X3003Y3665D01*
X3004Y3665D01*
X3005Y3665D01*
X3006Y3665D01*
X3007Y3665D01*
X3008Y3665D01*
X3009Y3665D01*
X3010Y3665D01*
X3011Y3665D01*
X3012Y3665D01*
X3013Y3665D01*
X3014Y3665D01*
X3015Y3665D01*
X3016Y3665D01*
X3017Y3665D01*
X3018Y3665D01*
X3019Y3665D01*
X3020Y3665D01*
X3021Y3665D01*
X3022Y3665D01*
X3023Y3665D01*
X3024Y3665D01*
X3025Y3665D01*
X3026Y3665D01*
X3027Y3665D01*
X3028Y3665D01*
X3029Y3665D01*
X3030Y3665D01*
X3031Y3665D01*
X3032Y3665D01*
X3033Y3665D01*
X3034Y3665D01*
X3035Y3665D01*
X3036Y3665D01*
X3037Y3665D01*
X3038Y3665D01*
X3039Y3665D01*
X3040Y3665D01*
X3041Y3665D01*
X3042Y3665D01*
X3043Y3665D01*
X3044Y3665D01*
X3045Y3665D01*
X3046Y3665D01*
X3047Y3665D01*
X3048Y3665D01*
X3049Y3665D01*
X3050Y3665D01*
X3051Y3665D01*
X3052Y3665D01*
X3053Y3665D01*
X3054Y3665D01*
X3055Y3665D01*
X3056Y3665D01*
X3057Y3665D01*
X3058Y3665D01*
X3059Y3665D01*
X3060Y3665D01*
X3061Y3665D01*
X3062Y3665D01*
X3063Y3665D01*
X3064Y3665D01*
X3065Y3665D01*
X3066Y3665D01*
X3067Y3665D01*
X3068Y3665D01*
X3069Y3665D01*
X3070Y3665D01*
X3071Y3665D01*
X3072Y3665D01*
X3073Y3665D01*
X3074Y3665D01*
X3075Y3665D01*
X3076Y3665D01*
X3077Y3665D01*
X3078Y3665D01*
X3079Y3665D01*
X3080Y3665D01*
X3081Y3665D01*
X3082Y3665D01*
X3083Y3665D01*
X3084Y3665D01*
X3085Y3665D01*
X3086Y3665D01*
X3087Y3665D01*
X3088Y3665D01*
X3089Y3665D01*
X3090Y3665D01*
X3091Y3665D01*
X3092Y3665D01*
X3093Y3665D01*
X3094Y3665D01*
X3095Y3665D01*
X3096Y3665D01*
X3097Y3665D01*
X3098Y3665D01*
X3099Y3665D01*
X3100Y3665D01*
X3101Y3665D01*
X3102Y3665D01*
X3103Y3665D01*
X3104Y3665D01*
X3105Y3665D01*
X3106Y3665D01*
X3107Y3665D01*
X3108Y3665D01*
X3109Y3665D01*
X3110Y3665D01*
X3111Y3665D01*
X3112Y3665D01*
X3113Y3665D01*
X3114Y3665D01*
X3115Y3665D01*
X3116Y3665D01*
X3117Y3665D01*
X3118Y3665D01*
X3119Y3665D01*
X3120Y3665D01*
X3121Y3665D01*
X3122Y3665D01*
X3123Y3665D01*
X3124Y3665D01*
X3125Y3665D01*
X3126Y3665D01*
X3127Y3665D01*
X3128Y3665D01*
X3129Y3665D01*
X3130Y3665D01*
X3131Y3665D01*
X3132Y3665D01*
X3133Y3665D01*
X3134Y3665D01*
X3135Y3665D01*
X3136Y3665D01*
X3137Y3665D01*
X3138Y3665D01*
X3139Y3665D01*
X3140Y3665D01*
X3141Y3665D01*
X3142Y3665D01*
X3143Y3665D01*
X3144Y3665D01*
X3145Y3665D01*
X3146Y3665D01*
X3147Y3665D01*
X3148Y3665D01*
X3149Y3665D01*
X3150Y3665D01*
X3151Y3665D01*
X3152Y3665D01*
X3153Y3665D01*
X3154Y3665D01*
X3155Y3665D01*
X3156Y3665D01*
X3157Y3665D01*
X3158Y3665D01*
X3159Y3665D01*
X3160Y3665D01*
X3161Y3665D01*
X3162Y3665D01*
X3163Y3665D01*
X3164Y3665D01*
X3165Y3665D01*
X3166Y3665D01*
X3167Y3665D01*
X3168Y3665D01*
X3169Y3665D01*
X3170Y3665D01*
X3171Y3665D01*
X3172Y3665D01*
X3173Y3665D01*
X3174Y3665D01*
X3175Y3665D01*
X3176Y3665D01*
X3177Y3665D01*
X3178Y3665D01*
X3179Y3665D01*
X3180Y3665D01*
X3181Y3665D01*
X3182Y3665D01*
X3183Y3665D01*
X3184Y3665D01*
X3185Y3665D01*
X3186Y3665D01*
X3187Y3665D01*
X3188Y3665D01*
X3189Y3665D01*
X3190Y3665D01*
X3191Y3665D01*
X3192Y3665D01*
X3193Y3665D01*
X3194Y3665D01*
X3195Y3665D01*
X3196Y3665D01*
X3197Y3665D01*
X3198Y3665D01*
X3199Y3665D01*
X3200Y3665D01*
X3201Y3665D01*
X3202Y3665D01*
X3203Y3665D01*
X3204Y3665D01*
X3205Y3665D01*
X3206Y3665D01*
X3207Y3665D01*
X3208Y3665D01*
X3209Y3665D01*
X3210Y3665D01*
X3211Y3665D01*
X3212Y3665D01*
X3213Y3665D01*
X3214Y3665D01*
X3215Y3665D01*
X3216Y3665D01*
X3217Y3665D01*
X3218Y3665D01*
X3219Y3665D01*
X3220Y3665D01*
X3221Y3665D01*
X3222Y3665D01*
X3223Y3665D01*
X3224Y3665D01*
X3225Y3665D01*
X3226Y3665D01*
X3227Y3665D01*
X3228Y3665D01*
X3229Y3665D01*
X3230Y3665D01*
X3231Y3665D01*
X3232Y3665D01*
X3233Y3665D01*
X3234Y3665D01*
X3235Y3665D01*
X3236Y3665D01*
X3237Y3665D01*
X3238Y3665D01*
X3239Y3665D01*
X3240Y3665D01*
X3241Y3665D01*
X3242Y3665D01*
X3243Y3665D01*
X3244Y3665D01*
X3245Y3665D01*
X3246Y3665D01*
X3247Y3665D01*
X3248Y3665D01*
X3249Y3665D01*
X3250Y3665D01*
X3251Y3665D01*
X3252Y3665D01*
X3253Y3665D01*
X3254Y3665D01*
X3255Y3665D01*
X3256Y3665D01*
X3257Y3665D01*
X3258Y3665D01*
X3259Y3665D01*
X3260Y3665D01*
X3261Y3665D01*
X3262Y3665D01*
X3263Y3665D01*
X3264Y3665D01*
X3265Y3665D01*
X3266Y3665D01*
X3267Y3665D01*
X3268Y3665D01*
X3269Y3665D01*
X3270Y3665D01*
X3271Y3665D01*
X3272Y3665D01*
X3273Y3665D01*
X3274Y3665D01*
X3275Y3665D01*
X3276Y3665D01*
X3277Y3665D01*
X3278Y3665D01*
X3279Y3665D01*
X3280Y3665D01*
X3281Y3665D01*
X3282Y3665D01*
X3283Y3665D01*
X3284Y3665D01*
X3285Y3665D01*
X3286Y3665D01*
X3287Y3665D01*
X3288Y3665D01*
X3289Y3665D01*
X3290Y3665D01*
X3291Y3665D01*
X3292Y3665D01*
X3293Y3665D01*
X3294Y3665D01*
X3295Y3665D01*
X3296Y3665D01*
X3297Y3665D01*
X3298Y3665D01*
X3299Y3665D01*
X3300Y3665D01*
X3301Y3665D01*
X3302Y3665D01*
X3303Y3665D01*
X3304Y3665D01*
X3305Y3665D01*
X3306Y3665D01*
X3307Y3665D01*
X3308Y3665D01*
X3309Y3665D01*
X3310Y3665D01*
X3311Y3665D01*
X3312Y3665D01*
X3313Y3665D01*
X3314Y3665D01*
X3315Y3665D01*
X3316Y3665D01*
X3317Y3665D01*
X3318Y3665D01*
X3319Y3665D01*
X3320Y3665D01*
X3321Y3665D01*
X3322Y3665D01*
X3323Y3665D01*
X3324Y3665D01*
X3325Y3665D01*
X3326Y3665D01*
X3327Y3665D01*
X3328Y3665D01*
X3329Y3665D01*
X3330Y3665D01*
X3331Y3665D01*
X3332Y3665D01*
X3333Y3665D01*
X3334Y3665D01*
X3335Y3665D01*
X3336Y3665D01*
X3337Y3665D01*
X3338Y3665D01*
X3339Y3665D01*
X3340Y3665D01*
X3341Y3665D01*
X3342Y3665D01*
X3343Y3665D01*
X3344Y3665D01*
X3345Y3665D01*
X3346Y3665D01*
X3347Y3665D01*
X3348Y3665D01*
X3349Y3665D01*
X3350Y3665D01*
X3351Y3665D01*
X3352Y3665D01*
X3353Y3665D01*
X3354Y3665D01*
X3355Y3665D01*
X3356Y3665D01*
X3357Y3665D01*
X3358Y3665D01*
X3359Y3665D01*
X3360Y3665D01*
X3361Y3665D01*
X3362Y3665D01*
X3363Y3665D01*
X3364Y3665D01*
X3365Y3665D01*
X3366Y3665D01*
X3367Y3665D01*
X3368Y3665D01*
X3369Y3665D01*
X3370Y3665D01*
X3371Y3665D01*
X3372Y3665D01*
X3373Y3665D01*
X3374Y3665D01*
X3375Y3665D01*
X3376Y3665D01*
X3377Y3665D01*
X3378Y3665D01*
X3379Y3665D01*
X3380Y3665D01*
X3381Y3665D01*
X3382Y3665D01*
X3383Y3665D01*
X3384Y3665D01*
X3385Y3665D01*
X3386Y3665D01*
X3387Y3665D01*
X3388Y3665D01*
X3389Y3665D01*
X3390Y3665D01*
X3391Y3665D01*
X3392Y3665D01*
X3393Y3665D01*
X3394Y3665D01*
X3395Y3665D01*
X3396Y3665D01*
X3397Y3665D01*
X3398Y3665D01*
X3399Y3665D01*
X3400Y3665D01*
X3401Y3665D01*
X3402Y3665D01*
X3403Y3665D01*
X3404Y3665D01*
X3405Y3665D01*
X3406Y3665D01*
X3407Y3665D01*
X3408Y3665D01*
X3409Y3665D01*
X3410Y3665D01*
X3411Y3665D01*
X3412Y3665D01*
X3413Y3665D01*
X3414Y3665D01*
X3415Y3665D01*
X3416Y3665D01*
X3417Y3665D01*
X3418Y3665D01*
X3419Y3665D01*
X3420Y3665D01*
X3421Y3665D01*
X3422Y3665D01*
X3423Y3665D01*
X3424Y3665D01*
X3425Y3665D01*
X3426Y3665D01*
X3427Y3665D01*
X3428Y3665D01*
X3429Y3665D01*
X3430Y3665D01*
X3431Y3665D01*
X3432Y3665D01*
X3433Y3665D01*
X3434Y3665D01*
X3435Y3665D01*
X3436Y3665D01*
X3437Y3665D01*
X3438Y3665D01*
X3439Y3665D01*
X3440Y3665D01*
X3441Y3665D01*
X3442Y3665D01*
X3443Y3665D01*
X3444Y3665D01*
X3445Y3665D01*
X3446Y3665D01*
X3447Y3665D01*
X3448Y3665D01*
X3449Y3665D01*
X3450Y3665D01*
X3451Y3665D01*
X3452Y3665D01*
X3453Y3665D01*
X3454Y3665D01*
X3455Y3665D01*
X3456Y3665D01*
X3457Y3665D01*
X3458Y3665D01*
X3459Y3665D01*
X3460Y3665D01*
X3461Y3665D01*
X3462Y3665D01*
X3463Y3665D01*
X3464Y3665D01*
X3465Y3665D01*
X3466Y3665D01*
X3467Y3665D01*
X3468Y3665D01*
X3469Y3665D01*
X3470Y3665D01*
X3471Y3665D01*
X3472Y3665D01*
X3473Y3665D01*
X3474Y3665D01*
X3475Y3665D01*
X3476Y3665D01*
X3477Y3665D01*
X3478Y3665D01*
X3479Y3665D01*
X3480Y3665D01*
X3481Y3665D01*
X3482Y3665D01*
X3483Y3665D01*
X3484Y3665D01*
X3485Y3665D01*
X3486Y3665D01*
X3487Y3665D01*
X3488Y3665D01*
X3489Y3665D01*
X3490Y3665D01*
X3491Y3665D01*
X3492Y3665D01*
X3493Y3665D01*
X3494Y3665D01*
X3495Y3665D01*
X3496Y3665D01*
X3497Y3665D01*
X3498Y3665D01*
X3499Y3665D01*
X3500Y3665D01*
X3501Y3665D01*
X3502Y3665D01*
X3503Y3665D01*
X3504Y3665D01*
X3505Y3665D01*
X3506Y3665D01*
X3507Y3665D01*
X3508Y3665D01*
X3509Y3665D01*
X3510Y3665D01*
X3511Y3665D01*
X3512Y3665D01*
X3513Y3665D01*
X3514Y3665D01*
X3515Y3665D01*
X3516Y3665D01*
X3517Y3665D01*
X3518Y3665D01*
X3519Y3665D01*
X3520Y3665D01*
X3521Y3665D01*
X3522Y3665D01*
X3523Y3665D01*
X3524Y3665D01*
X3525Y3665D01*
X3526Y3665D01*
X3527Y3665D01*
X3528Y3665D01*
X3529Y3665D01*
X3530Y3665D01*
X3531Y3665D01*
X3532Y3665D01*
X3533Y3665D01*
X3534Y3665D01*
X3535Y3665D01*
X3536Y3665D01*
X3537Y3665D01*
X3538Y3665D01*
X3539Y3665D01*
X3540Y3665D01*
X3541Y3665D01*
X3542Y3665D01*
X3543Y3665D01*
X3544Y3665D01*
X3545Y3665D01*
X3546Y3665D01*
X3547Y3665D01*
X3548Y3665D01*
X3549Y3665D01*
X3550Y3665D01*
X3551Y3665D01*
X3552Y3665D01*
X3553Y3665D01*
X3554Y3665D01*
X3555Y3665D01*
X3556Y3665D01*
X3557Y3665D01*
X3558Y3665D01*
X3559Y3665D01*
X3560Y3665D01*
X3561Y3665D01*
X3562Y3665D01*
X3563Y3665D01*
X3564Y3665D01*
X3565Y3665D01*
X3566Y3665D01*
X3567Y3665D01*
X3568Y3665D01*
X3569Y3665D01*
X3570Y3665D01*
X3571Y3665D01*
X3572Y3665D01*
X3573Y3665D01*
X3574Y3665D01*
X3575Y3665D01*
X3576Y3665D01*
X3577Y3665D01*
X3578Y3665D01*
X3579Y3665D01*
X3580Y3665D01*
X3581Y3665D01*
X3582Y3665D01*
X3583Y3665D01*
X3584Y3665D01*
X3585Y3665D01*
X3586Y3665D01*
X3587Y3665D01*
X3588Y3665D01*
X3589Y3665D01*
X3590Y3665D01*
X3591Y3665D01*
X3592Y3665D01*
X3593Y3665D01*
X3594Y3665D01*
X3595Y3665D01*
X3596Y3665D01*
X3597Y3665D01*
X3598Y3665D01*
X3599Y3665D01*
X3600Y3665D01*
X3601Y3665D01*
X3602Y3665D01*
X3603Y3665D01*
X3604Y3665D01*
X3605Y3665D01*
X3606Y3665D01*
X3607Y3665D01*
X3608Y3665D01*
X3609Y3665D01*
X3610Y3665D01*
X3611Y3665D01*
X3612Y3665D01*
X3613Y3665D01*
X3614Y3665D01*
X3615Y3665D01*
X3616Y3665D01*
X3617Y3665D01*
X3618Y3665D01*
X3619Y3665D01*
X3620Y3665D01*
X3621Y3665D01*
X3622Y3665D01*
X3623Y3665D01*
X3624Y3665D01*
X3625Y3665D01*
X3626Y3665D01*
X3627Y3665D01*
X3628Y3665D01*
X3629Y3665D01*
X3630Y3665D01*
X3631Y3665D01*
X3632Y3665D01*
X3633Y3665D01*
X3634Y3665D01*
X3635Y3665D01*
X3636Y3665D01*
X3637Y3665D01*
X3638Y3665D01*
X3639Y3665D01*
X3640Y3665D01*
X3641Y3665D01*
X3642Y3665D01*
X3643Y3665D01*
X3644Y3665D01*
X3645Y3665D01*
X3646Y3665D01*
X3647Y3665D01*
X3648Y3665D01*
X3649Y3665D01*
X3650Y3665D01*
X3651Y3665D01*
X3652Y3665D01*
X3653Y3665D01*
X3654Y3665D01*
X3655Y3665D01*
X3656Y3665D01*
X3657Y3665D01*
X3658Y3665D01*
X3659Y3665D01*
X3660Y3665D01*
X3661Y3665D01*
X3662Y3665D01*
X3663Y3665D01*
X3664Y3665D01*
X3665Y3665D01*
X3666Y3665D01*
X3667Y3665D01*
X3668Y3665D01*
X3669Y3665D01*
X3670Y3665D01*
X3671Y3665D01*
X3672Y3665D01*
X3673Y3665D01*
X3674Y3665D01*
X3675Y3665D01*
X3676Y3665D01*
X3677Y3665D01*
X3678Y3665D01*
X3679Y3665D01*
X3680Y3665D01*
X3681Y3665D01*
X3682Y3665D01*
X3683Y3665D01*
X3684Y3665D01*
X3685Y3665D01*
X3686Y3665D01*
X3687Y3665D01*
X3688Y3665D01*
X3689Y3665D01*
X3690Y3665D01*
X3691Y3665D01*
X3692Y3665D01*
X3693Y3665D01*
X3694Y3665D01*
X3695Y3665D01*
X3696Y3665D01*
X3697Y3665D01*
X3698Y3665D01*
X3699Y3665D01*
X3700Y3665D01*
X3701Y3665D01*
X3702Y3665D01*
X3703Y3665D01*
X3704Y3665D01*
X3705Y3665D01*
X3706Y3665D01*
X3707Y3665D01*
X3708Y3665D01*
X3709Y3665D01*
X3710Y3665D01*
X3711Y3665D01*
X3712Y3665D01*
X3713Y3665D01*
X3714Y3665D01*
X3715Y3665D01*
X3716Y3665D01*
X3717Y3665D01*
X3718Y3665D01*
X3719Y3665D01*
X3720Y3665D01*
X3721Y3665D01*
X3722Y3665D01*
X3723Y3665D01*
X3724Y3665D01*
X3725Y3665D01*
X3726Y3665D01*
X3727Y3665D01*
X3728Y3665D01*
X3729Y3665D01*
X3730Y3665D01*
X3731Y3665D01*
X3732Y3665D01*
X3733Y3665D01*
X3734Y3665D01*
X3735Y3665D01*
X3736Y3665D01*
X3737Y3665D01*
X3738Y3665D01*
X3739Y3665D01*
X3740Y3665D01*
X3741Y3665D01*
X3742Y3665D01*
X3743Y3665D01*
X3744Y3665D01*
X3745Y3665D01*
X3746Y3665D01*
X3747Y3665D01*
X3748Y3665D01*
X3749Y3665D01*
X3750Y3665D01*
X3751Y3665D01*
X3752Y3665D01*
X3753Y3665D01*
X3754Y3665D01*
X3755Y3665D01*
X3756Y3665D01*
X3757Y3665D01*
X3758Y3665D01*
X3759Y3665D01*
X3760Y3665D01*
X3761Y3665D01*
X3762Y3665D01*
X3763Y3665D01*
X3764Y3665D01*
X3765Y3665D01*
X3766Y3665D01*
X3767Y3665D01*
X3768Y3665D01*
X3769Y3665D01*
X3770Y3665D01*
X3771Y3665D01*
X3772Y3665D01*
X3773Y3665D01*
X3774Y3665D01*
X3775Y3665D01*
X3776Y3665D01*
X3777Y3665D01*
X3778Y3665D01*
X3779Y3665D01*
X3780Y3665D01*
X3781Y3665D01*
X3782Y3665D01*
X3783Y3665D01*
X3784Y3665D01*
X3785Y3665D01*
X3786Y3665D01*
X3787Y3665D01*
X3788Y3665D01*
X3789Y3665D01*
X3790Y3665D01*
X3791Y3665D01*
X3792Y3665D01*
X3793Y3665D01*
X3794Y3665D01*
X3795Y3665D01*
X3796Y3665D01*
X3797Y3665D01*
X3798Y3665D01*
X3799Y3665D01*
X3800Y3665D01*
X3801Y3665D01*
X3802Y3665D01*
X3803Y3665D01*
X3804Y3665D01*
X3805Y3665D01*
X3806Y3665D01*
X3807Y3665D01*
X3808Y3665D01*
X3809Y3665D01*
X3810Y3665D01*
X3811Y3665D01*
X3812Y3665D01*
X3813Y3665D01*
X3814Y3665D01*
X3815Y3665D01*
X3816Y3665D01*
X3817Y3665D01*
X3818Y3665D01*
X3819Y3665D01*
X3820Y3665D01*
X3821Y3665D01*
X3822Y3665D01*
X3823Y3665D01*
X3824Y3665D01*
X3825Y3665D01*
X3826Y3665D01*
X3827Y3665D01*
X3828Y3665D01*
X3829Y3665D01*
X3830Y3665D01*
X3831Y3665D01*
X3832Y3665D01*
X3833Y3665D01*
X3834Y3665D01*
X3835Y3665D01*
X3836Y3665D01*
X3837Y3665D01*
X3838Y3665D01*
X3839Y3665D01*
X3840Y3665D01*
X3841Y3665D01*
X3842Y3665D01*
X3843Y3665D01*
X3844Y3665D01*
X3845Y3665D01*
X3846Y3665D01*
X3847Y3665D01*
X3848Y3665D01*
X3849Y3665D01*
X3850Y3665D01*
X3851Y3665D01*
X3852Y3665D01*
X3853Y3665D01*
X3854Y3665D01*
X3855Y3665D01*
X3856Y3665D01*
X3857Y3665D01*
X3858Y3665D01*
X3859Y3665D01*
X3860Y3665D01*
X3861Y3665D01*
X3862Y3665D01*
X3863Y3665D01*
X3864Y3665D01*
X3865Y3665D01*
X3866Y3665D01*
X3867Y3665D01*
X3868Y3665D01*
X3869Y3665D01*
X3870Y3665D01*
X3871Y3665D01*
X3872Y3665D01*
X3873Y3665D01*
X3874Y3665D01*
X3875Y3665D01*
X3876Y3665D01*
X3877Y3665D01*
X3878Y3665D01*
X3879Y3665D01*
X3880Y3665D01*
X3881Y3665D01*
X3882Y3665D01*
X3883Y3665D01*
X3884Y3665D01*
X3885Y3665D01*
X3886Y3665D01*
X3887Y3665D01*
X3888Y3665D01*
X3889Y3665D01*
X3890Y3665D01*
X3891Y3665D01*
X3892Y3665D01*
X3893Y3665D01*
X3894Y3665D01*
X3895Y3665D01*
X3896Y3665D01*
X3897Y3665D01*
X3898Y3665D01*
X3899Y3665D01*
X3900Y3665D01*
X3901Y3665D01*
X3902Y3665D01*
X3903Y3665D01*
X3904Y3665D01*
X3905Y3665D01*
X3906Y3665D01*
X3907Y3665D01*
X3908Y3665D01*
X3909Y3665D01*
X3910Y3665D01*
X3911Y3665D01*
X3912Y3665D01*
X3913Y3665D01*
X3914Y3665D01*
X3915Y3665D01*
X3916Y3665D01*
X3917Y3665D01*
X3918Y3665D01*
X3919Y3665D01*
X3920Y3665D01*
X3921Y3665D01*
X3922Y3665D01*
X3923Y3665D01*
X3924Y3665D01*
X3925Y3665D01*
X3926Y3665D01*
X3927Y3665D01*
X3928Y3665D01*
X3929Y3665D01*
X3930Y3665D01*
X3931Y3665D01*
X3932Y3665D01*
X3933Y3665D01*
X3934Y3665D01*
X3935Y3665D01*
X3936Y3665D01*
X3937Y3665D01*
X3938Y3665D01*
X3939Y3665D01*
X3940Y3665D01*
X3941Y3665D01*
X3942Y3665D01*
X3943Y3665D01*
X3944Y3665D01*
X3945Y3665D01*
X3946Y3665D01*
X3947Y3665D01*
X3948Y3665D01*
X3949Y3665D01*
X3950Y3665D01*
X3951Y3665D01*
X3952Y3665D01*
X3953Y3665D01*
X3954Y3665D01*
X3955Y3665D01*
X3956Y3665D01*
X3957Y3665D01*
X3958Y3665D01*
X3959Y3665D01*
X3960Y3665D01*
X3961Y3665D01*
X3962Y3665D01*
X3963Y3665D01*
X3964Y3665D01*
X3965Y3665D01*
X3966Y3665D01*
X3967Y3665D01*
X3968Y3665D01*
X3969Y3665D01*
X3970Y3665D01*
X3971Y3665D01*
X3972Y3665D01*
X3973Y3665D01*
X3974Y3665D01*
X3975Y3665D01*
X3976Y3665D01*
X3977Y3665D01*
X3978Y3665D01*
X3979Y3665D01*
X3980Y3665D01*
X3981Y3665D01*
X3982Y3665D01*
X3983Y3665D01*
X3984Y3665D01*
X3985Y3665D01*
X3986Y3665D01*
X3987Y3665D01*
X3988Y3665D01*
X3989Y3665D01*
X3990Y3665D01*
X3991Y3665D01*
X3992Y3665D01*
X3993Y3665D01*
X3994Y3665D01*
X3995Y3665D01*
X3996Y3665D01*
X3997Y3665D01*
X3998Y3665D01*
X3999Y3665D01*
X4000Y3665D01*
X4001Y3665D01*
X4002Y3665D01*
X4003Y3665D01*
X4004Y3665D01*
X4005Y3665D01*
X4006Y3665D01*
X4007Y3665D01*
X4008Y3665D01*
X4009Y3665D01*
X4010Y3665D01*
X4011Y3665D01*
X4012Y3665D01*
X4013Y3665D01*
X4014Y3665D01*
X4015Y3665D01*
X4016Y3665D01*
X4017Y3665D01*
X4018Y3665D01*
X4019Y3665D01*
X4020Y3665D01*
X4021Y3665D01*
X4022Y3665D01*
X4023Y3665D01*
X4024Y3665D01*
X4025Y3665D01*
X4026Y3665D01*
X4027Y3665D01*
X4028Y3665D01*
X4029Y3665D01*
X4030Y3665D01*
X4031Y3665D01*
X4032Y3665D01*
X4033Y3665D01*
X4034Y3665D01*
X4035Y3665D01*
X4036Y3665D01*
X4037Y3665D01*
X4038Y3665D01*
X4039Y3665D01*
X4040Y3665D01*
X4041Y3665D01*
X4042Y3665D01*
X4043Y3665D01*
X4044Y3665D01*
X4045Y3665D01*
X4046Y3665D01*
X4047Y3665D01*
X4048Y3665D01*
X4049Y3665D01*
X4050Y3665D01*
X4051Y3665D01*
X4052Y3665D01*
X4053Y3665D01*
X4054Y3665D01*
X4055Y3665D01*
X4056Y3665D01*
X4057Y3665D01*
X4058Y3665D01*
X4059Y3665D01*
X4060Y3665D01*
X4061Y3665D01*
X4062Y3665D01*
X4063Y3665D01*
X4064Y3665D01*
X4065Y3665D01*
X4066Y3665D01*
X4067Y3665D01*
X4068Y3665D01*
X4069Y3665D01*
X4070Y3665D01*
X4071Y3665D01*
X4072Y3665D01*
X4073Y3665D01*
X4074Y3665D01*
X4075Y3665D01*
X4076Y3665D01*
X4077Y3665D01*
X4078Y3665D01*
X4079Y3665D01*
X4080Y3665D01*
X4081Y3665D01*
X4082Y3665D01*
X4083Y3665D01*
X4084Y3665D01*
X4085Y3665D01*
X4086Y3665D01*
X4087Y3665D01*
X4088Y3665D01*
X4089Y3665D01*
X4090Y3665D01*
X4091Y3665D01*
X4092Y3665D01*
X4093Y3665D01*
X4094Y3665D01*
X4095Y3665D01*
X4096Y3665D01*
X4097Y3665D01*
X4098Y3665D01*
X4099Y3665D01*
X4100Y3665D01*
X4101Y3665D01*
X4102Y3665D01*
X4103Y3665D01*
X4104Y3665D01*
X4105Y3665D01*
X4106Y3665D01*
X4107Y3665D01*
X4108Y3665D01*
X4109Y3665D01*
X4110Y3665D01*
X4111Y3665D01*
X4112Y3665D01*
X4113Y3665D01*
X4114Y3665D01*
X4115Y3665D01*
X4116Y3665D01*
X4117Y3665D01*
X4118Y3665D01*
X4119Y3665D01*
X4120Y3665D01*
X4121Y3665D01*
X4122Y3665D01*
X4123Y3665D01*
X4124Y3665D01*
X4125Y3665D01*
X4126Y3665D01*
X4127Y3665D01*
X4128Y3665D01*
X4129Y3665D01*
X4130Y3665D01*
X4131Y3665D01*
X4132Y3665D01*
X4133Y3665D01*
X4134Y3665D01*
X4135Y3665D01*
X4136Y3665D01*
X4137Y3665D01*
X4138Y3665D01*
X4139Y3665D01*
X4140Y3665D01*
X4141Y3665D01*
X4142Y3665D01*
X4143Y3665D01*
X4144Y3665D01*
X4145Y3665D01*
X4146Y3665D01*
X4147Y3665D01*
X4148Y3665D01*
X4149Y3665D01*
X4150Y3665D01*
X4151Y3665D01*
X4152Y3665D01*
X4153Y3665D01*
X4154Y3665D01*
X4155Y3665D01*
X4156Y3665D01*
X4157Y3665D01*
X4158Y3665D01*
X4159Y3665D01*
X4160Y3665D01*
X4161Y3665D01*
X4162Y3665D01*
X4163Y3665D01*
X4164Y3665D01*
X4165Y3665D01*
X4166Y3665D01*
X4167Y3665D01*
X4168Y3665D01*
X4169Y3665D01*
X4170Y3665D01*
X4171Y3665D01*
X4172Y3665D01*
X4173Y3665D01*
X4174Y3665D01*
X4175Y3665D01*
X4176Y3665D01*
X4177Y3665D01*
X4178Y3665D01*
X4179Y3665D01*
X4180Y3665D01*
X4181Y3665D01*
X4182Y3665D01*
X4183Y3665D01*
X4184Y3665D01*
X4185Y3665D01*
X4186Y3665D01*
X4187Y3665D01*
X4188Y3665D01*
X4189Y3665D01*
X4190Y3665D01*
X4191Y3665D01*
X4192Y3665D01*
X4193Y3665D01*
X4194Y3665D01*
X4195Y3665D01*
X4196Y3665D01*
X4197Y3665D01*
X4198Y3665D01*
X4199Y3665D01*
X4200Y3665D01*
X4201Y3665D01*
X4202Y3665D01*
X4203Y3665D01*
X4204Y3665D01*
X4205Y3665D01*
X4206Y3665D01*
X4207Y3665D01*
X4208Y3665D01*
X4209Y3665D01*
X4210Y3665D01*
X4211Y3665D01*
X4212Y3665D01*
X4213Y3665D01*
X4214Y3665D01*
X4215Y3665D01*
X4216Y3665D01*
X4217Y3665D01*
X4218Y3665D01*
X4219Y3665D01*
X4220Y3665D01*
X4221Y3665D01*
X4222Y3665D01*
X4223Y3665D01*
X4224Y3665D01*
X4225Y3665D01*
X4226Y3665D01*
X4227Y3665D01*
X4228Y3665D01*
X4229Y3665D01*
X4230Y3665D01*
X4231Y3665D01*
X4232Y3665D01*
X4233Y3665D01*
X4234Y3665D01*
X4235Y3665D01*
X4236Y3665D01*
X4237Y3665D01*
X4238Y3665D01*
X4239Y3665D01*
X4240Y3665D01*
X4241Y3665D01*
X4242Y3665D01*
X4243Y3665D01*
X4244Y3665D01*
X4245Y3665D01*
X4246Y3665D01*
X4247Y3665D01*
X4248Y3665D01*
X4249Y3665D01*
X4250Y3665D01*
X4251Y3665D01*
X4252Y3665D01*
X4253Y3665D01*
X4254Y3665D01*
X4255Y3665D01*
X4256Y3665D01*
X4257Y3665D01*
X4258Y3665D01*
X4259Y3665D01*
X4260Y3665D01*
X4261Y3665D01*
X4262Y3665D01*
X4263Y3665D01*
X4264Y3665D01*
X4265Y3665D01*
X4266Y3665D01*
X4267Y3665D01*
X4268Y3665D01*
X4269Y3665D01*
X4270Y3665D01*
X4271Y3665D01*
X4272Y3665D01*
X4273Y3665D01*
X4274Y3665D01*
X4275Y3665D01*
X4276Y3665D01*
X4277Y3665D01*
X4278Y3665D01*
X4279Y3665D01*
X4280Y3665D01*
X4281Y3665D01*
X4282Y3665D01*
X4283Y3665D01*
X4284Y3665D01*
X4285Y3665D01*
X4286Y3665D01*
X4287Y3665D01*
X4288Y3665D01*
X4289Y3665D01*
X4290Y3665D01*
X4291Y3665D01*
X4292Y3665D01*
X4293Y3665D01*
X4294Y3665D01*
X4295Y3665D01*
X4296Y3665D01*
X4297Y3665D01*
X4298Y3665D01*
X4299Y3665D01*
X4300Y3665D01*
X4301Y3665D01*
X4302Y3665D01*
X4303Y3665D01*
X4304Y3665D01*
X4305Y3665D01*
X4306Y3665D01*
X4307Y3665D01*
X4308Y3665D01*
X4309Y3665D01*
X4310Y3665D01*
X4311Y3665D01*
X4312Y3665D01*
X4313Y3665D01*
X4314Y3665D01*
X4315Y3665D01*
X4316Y3665D01*
X4317Y3665D01*
X4318Y3665D01*
X4319Y3665D01*
X4320Y3665D01*
X4321Y3665D01*
X4322Y3665D01*
X4323Y3665D01*
X4324Y3665D01*
X4325Y3665D01*
X4326Y3665D01*
X4327Y3665D01*
X4328Y3665D01*
X4329Y3665D01*
X4330Y3665D01*
X4331Y3665D01*
X4332Y3665D01*
X4333Y3665D01*
X4334Y3665D01*
X4335Y3665D01*
X4336Y3665D01*
X4337Y3665D01*
X4338Y3665D01*
X4339Y3665D01*
X4340Y3665D01*
X4341Y3665D01*
X4342Y3665D01*
X4343Y3665D01*
X4344Y3665D01*
X4345Y3665D01*
X4346Y3665D01*
X4347Y3665D01*
X4348Y3665D01*
X4349Y3665D01*
X4350Y3665D01*
X4351Y3665D01*
X4352Y3665D01*
X4353Y3665D01*
X4354Y3665D01*
X4355Y3665D01*
X4356Y3665D01*
X4357Y3665D01*
X4358Y3665D01*
X4359Y3665D01*
X4360Y3665D01*
X4361Y3665D01*
X4362Y3665D01*
X4363Y3665D01*
X4364Y3665D01*
X4365Y3665D01*
X4366Y3665D01*
X4367Y3665D01*
X4368Y3665D01*
X4369Y3665D01*
X4370Y3665D01*
X4371Y3665D01*
X4372Y3665D01*
X4373Y3665D01*
X4374Y3665D01*
X4375Y3665D01*
X4376Y3665D01*
X4377Y3665D01*
X4378Y3665D01*
X4379Y3665D01*
X4380Y3665D01*
X4381Y3665D01*
X4382Y3665D01*
X4383Y3665D01*
X4384Y3665D01*
X4385Y3665D01*
X4386Y3665D01*
X4387Y3665D01*
X4388Y3665D01*
X4389Y3665D01*
X4390Y3665D01*
X4391Y3665D01*
X4392Y3665D01*
X4393Y3665D01*
X4394Y3665D01*
X4395Y3665D01*
X4396Y3665D01*
X4397Y3665D01*
X4398Y3665D01*
X4399Y3665D01*
X4400Y3665D01*
X4401Y3665D01*
X4402Y3665D01*
X4403Y3665D01*
X4404Y3665D01*
X4405Y3665D01*
X4406Y3665D01*
X4407Y3665D01*
X4408Y3665D01*
X4409Y3665D01*
X4410Y3665D01*
X4411Y3665D01*
X4412Y3665D01*
X4413Y3665D01*
X4414Y3665D01*
X4415Y3665D01*
X4416Y3665D01*
X4417Y3665D01*
X4418Y3665D01*
X4419Y3665D01*
X4420Y3665D01*
X4421Y3665D01*
X4422Y3665D01*
X4423Y3665D01*
X4424Y3665D01*
X4425Y3665D01*
X4426Y3665D01*
X4427Y3665D01*
X4428Y3665D01*
X4429Y3665D01*
X4430Y3665D01*
X4431Y3665D01*
X4432Y3665D01*
X4433Y3665D01*
X4434Y3665D01*
X4435Y3665D01*
X4436Y3665D01*
X4437Y3665D01*
X4438Y3665D01*
X4439Y3665D01*
X4440Y3665D01*
X4441Y3665D01*
X4442Y3665D01*
X4443Y3665D01*
X4444Y3665D01*
X4445Y3665D01*
X4446Y3665D01*
X4447Y3665D01*
X4448Y3665D01*
X4449Y3665D01*
X4450Y3665D01*
X4451Y3665D01*
X4452Y3665D01*
X4453Y3665D01*
X4454Y3665D01*
X4455Y3665D01*
X4456Y3665D01*
X4457Y3665D01*
X4458Y3664D01*
X4459Y3664D01*
X4460Y3664D01*
X4461Y3664D01*
X4462Y3664D01*
X4463Y3664D01*
X4464Y3664D01*
X4465Y3664D01*
X4466Y3664D01*
X4467Y3664D01*
X4468Y3664D01*
X4469Y3664D01*
X4470Y3664D01*
X4471Y3664D01*
X4472Y3663D01*
X4473Y3663D01*
X4474Y3663D01*
X4475Y3663D01*
X4476Y3663D01*
X4477Y3663D01*
X4478Y3663D01*
X4479Y3663D01*
X4480Y3663D01*
X4481Y3663D01*
X4482Y3662D01*
X4483Y3662D01*
X4484Y3662D01*
X4485Y3662D01*
X4486Y3662D01*
X4487Y3662D01*
X4488Y3662D01*
X4489Y3662D01*
X4490Y3662D01*
X4491Y3661D01*
X4492Y3661D01*
X4493Y3661D01*
X4494Y3661D01*
X4495Y3661D01*
X4496Y3661D01*
X4497Y3661D01*
X4498Y3660D01*
X4499Y3660D01*
X4500Y3660D01*
X4501Y3660D01*
X4502Y3660D01*
X4503Y3660D01*
X4504Y3659D01*
X4505Y3659D01*
X4506Y3659D01*
X4507Y3659D01*
X4508Y3659D01*
X4509Y3659D01*
X4510Y3658D01*
X4511Y3658D01*
X4512Y3658D01*
X4513Y3658D01*
X4514Y3658D01*
X4515Y3657D01*
X4516Y3657D01*
X4517Y3657D01*
X4518Y3657D01*
X4519Y3657D01*
X4520Y3656D01*
X4521Y3656D01*
X4522Y3656D01*
X4523Y3656D01*
X4524Y3655D01*
X4525Y3655D01*
X4526Y3655D01*
X4527Y3655D01*
X4528Y3655D01*
X4529Y3654D01*
X4530Y3654D01*
X4531Y3654D01*
X4532Y3654D01*
X4533Y3653D01*
X4534Y3653D01*
X4535Y3653D01*
X4536Y3653D01*
X4537Y3652D01*
X4538Y3652D01*
X4539Y3652D01*
X4540Y3651D01*
X4541Y3651D01*
X4542Y3651D01*
X4543Y3651D01*
X4544Y3650D01*
X4545Y3650D01*
X4546Y3650D01*
X4547Y3649D01*
X4548Y3649D01*
X4549Y3649D01*
X4550Y3649D01*
X4551Y3648D01*
X4552Y3648D01*
X4553Y3648D01*
X4554Y3647D01*
X4555Y3647D01*
X4556Y3647D01*
X4557Y3646D01*
X4558Y3646D01*
X4559Y3646D01*
X4560Y3645D01*
X4561Y3645D01*
X4562Y3645D01*
X4563Y3644D01*
X4564Y3644D01*
X4565Y3644D01*
X4566Y3643D01*
X4567Y3643D01*
X4568Y3643D01*
X4569Y3642D01*
X4570Y3642D01*
X4571Y3642D01*
X4572Y3641D01*
X4573Y3641D01*
X4574Y3641D01*
X4575Y3640D01*
X4576Y3640D01*
X4577Y3639D01*
X4578Y3639D01*
X4579Y3639D01*
X4580Y3638D01*
X4581Y3638D01*
X4582Y3637D01*
X4583Y3637D01*
X4584Y3637D01*
X4585Y3636D01*
X4586Y3636D01*
X4587Y3635D01*
X4588Y3635D01*
X4589Y3635D01*
X4590Y3634D01*
X4591Y3634D01*
X4592Y3633D01*
X4593Y3633D01*
X4594Y3632D01*
X4595Y3632D01*
X4596Y3632D01*
X4597Y3631D01*
X4598Y3631D01*
X4599Y3630D01*
X4600Y3630D01*
X4601Y3629D01*
X4602Y3629D01*
X4603Y3628D01*
X4604Y3628D01*
X4605Y3627D01*
X4606Y3627D01*
X4607Y3627D01*
X4608Y3626D01*
X4609Y3626D01*
X4610Y3625D01*
X4611Y3625D01*
X4612Y3624D01*
X4613Y3624D01*
X4614Y3623D01*
X4615Y3623D01*
X4616Y3622D01*
X4617Y3621D01*
X4618Y3621D01*
X4619Y3620D01*
X4620Y3620D01*
X4621Y3619D01*
X4622Y3619D01*
X4623Y3618D01*
X4624Y3618D01*
X4625Y3617D01*
X4626Y3617D01*
X4627Y3616D01*
X4628Y3616D01*
X4629Y3615D01*
X4630Y3614D01*
X4631Y3614D01*
X4632Y3613D01*
X4633Y3613D01*
X4634Y3612D01*
X4635Y3612D01*
X4636Y3611D01*
X4637Y3610D01*
X4638Y3610D01*
X4639Y3609D01*
X4640Y3609D01*
X4641Y3608D01*
X4642Y3607D01*
X4643Y3607D01*
X4644Y3606D01*
X4645Y3606D01*
X4646Y3605D01*
X4647Y3604D01*
X4648Y3604D01*
X4649Y3603D01*
X4650Y3602D01*
X4651Y3602D01*
X4652Y3601D01*
X4653Y3600D01*
X4654Y3600D01*
X4655Y3599D01*
X4656Y3599D01*
X4657Y3598D01*
X4658Y3597D01*
X4659Y3596D01*
X4660Y3596D01*
X4661Y3595D01*
X4662Y3594D01*
X4663Y3594D01*
X4664Y3593D01*
X4665Y3592D01*
X4666Y3591D01*
X4667Y3591D01*
X4668Y3590D01*
X4669Y3589D01*
X4670Y3589D01*
X4671Y3588D01*
X4672Y3587D01*
X4673Y3586D01*
X4674Y3586D01*
X4675Y3585D01*
X4676Y3584D01*
X4677Y3583D01*
X4678Y3582D01*
X4679Y3582D01*
X4680Y3581D01*
X4681Y3580D01*
X4682Y3579D01*
X4683Y3579D01*
X4684Y3578D01*
X4685Y3577D01*
X4686Y3576D01*
X4687Y3575D01*
X4688Y3574D01*
X4689Y3574D01*
X4690Y3573D01*
X4691Y3572D01*
X4692Y3571D01*
X4693Y3570D01*
X4694Y3569D01*
X4695Y3568D01*
X4696Y3568D01*
X4697Y3567D01*
X4698Y3566D01*
X4699Y3565D01*
X4700Y3564D01*
X4701Y3563D01*
X4702Y3562D01*
X4703Y3561D01*
X4704Y3560D01*
X4705Y3559D01*
X4706Y3558D01*
X4707Y3557D01*
X4708Y3557D01*
X4709Y3556D01*
X4710Y3555D01*
X4711Y3554D01*
X4712Y3553D01*
X4713Y3552D01*
X4714Y3551D01*
X4715Y3550D01*
X4716Y3549D01*
X4717Y3548D01*
X4718Y3547D01*
X4719Y3546D01*
X4720Y3545D01*
X4720Y3544D01*
X4721Y3543D01*
X4722Y3542D01*
X4723Y3541D01*
X4724Y3540D01*
X4725Y3539D01*
X4726Y3538D01*
X4727Y3537D01*
X4728Y3536D01*
X4729Y3535D01*
X4730Y3534D01*
X4731Y3533D01*
X4731Y3532D01*
X4732Y3531D01*
X4733Y3530D01*
X4734Y3529D01*
X4735Y3528D01*
X4736Y3527D01*
X4737Y3526D01*
X4737Y3525D01*
X4738Y3524D01*
X4739Y3523D01*
X4740Y3522D01*
X4741Y3521D01*
X4741Y3520D01*
X4742Y3519D01*
X4743Y3518D01*
X4744Y3517D01*
X4745Y3516D01*
X4745Y3515D01*
X4746Y3514D01*
X4747Y3513D01*
X4748Y3512D01*
X4749Y3511D01*
X4749Y3510D01*
X4750Y3509D01*
X4751Y3508D01*
X4751Y3507D01*
X4752Y3506D01*
X4753Y3505D01*
X4754Y3504D01*
X4754Y3503D01*
X4755Y3502D01*
X4756Y3501D01*
X4756Y3500D01*
X4757Y3499D01*
X4758Y3498D01*
X4759Y3497D01*
X4759Y3496D01*
X4760Y3495D01*
X4761Y3494D01*
X4761Y3493D01*
X4762Y3492D01*
X4763Y3491D01*
X4763Y3490D01*
X4764Y3489D01*
X4765Y3488D01*
X4765Y3487D01*
X4766Y3486D01*
X4767Y3485D01*
X4767Y3484D01*
X4768Y3483D01*
X4768Y3482D01*
X4769Y3481D01*
X4770Y3480D01*
X4770Y3479D01*
X4771Y3478D01*
X4772Y3477D01*
X4772Y3476D01*
X4773Y3475D01*
X4773Y3474D01*
X4774Y3473D01*
X4774Y3472D01*
X4775Y3471D01*
X4776Y3470D01*
X4776Y3469D01*
X4777Y3468D01*
X4777Y3467D01*
X4778Y3466D01*
X4778Y3465D01*
X4779Y3464D01*
X4780Y3463D01*
X4780Y3462D01*
X4781Y3461D01*
X4781Y3460D01*
X4782Y3459D01*
X4782Y3458D01*
X4783Y3457D01*
X4783Y3456D01*
X4784Y3455D01*
X4784Y3454D01*
X4785Y3453D01*
X4785Y3452D01*
X4786Y3451D01*
X4786Y3450D01*
X4787Y3449D01*
X4787Y3448D01*
X4788Y3447D01*
X4788Y3446D01*
X4789Y3445D01*
X4789Y3444D01*
X4790Y3443D01*
X4790Y3442D01*
X4791Y3441D01*
X4791Y3440D01*
X4792Y3439D01*
X4792Y3437D01*
X4793Y3436D01*
X4793Y3435D01*
X4794Y3434D01*
X4794Y3433D01*
X4795Y3432D01*
X4795Y3431D01*
X4796Y3430D01*
X4796Y3429D01*
X4797Y3428D01*
X4797Y3426D01*
X4798Y3425D01*
X4798Y3424D01*
X4799Y3423D01*
X4799Y3421D01*
X4800Y3420D01*
X4800Y3419D01*
X4801Y3418D01*
X4801Y3416D01*
X4802Y3415D01*
X4802Y3413D01*
X4803Y3412D01*
X4803Y3411D01*
X4804Y3410D01*
X4804Y3408D01*
X4805Y3407D01*
X4805Y3405D01*
X4806Y3404D01*
X4806Y3402D01*
X4807Y3401D01*
X4807Y3399D01*
X4808Y3398D01*
X4808Y3396D01*
X4809Y3395D01*
X4809Y3393D01*
X4810Y3392D01*
X4810Y3390D01*
X4811Y3389D01*
X4811Y3387D01*
X4812Y3386D01*
X4812Y3383D01*
X4813Y3382D01*
X4813Y3379D01*
X4814Y3378D01*
X4814Y3376D01*
X4815Y3375D01*
X4815Y3372D01*
X4816Y3371D01*
X4816Y3368D01*
X4817Y3367D01*
X4817Y3363D01*
X4818Y3362D01*
X4818Y3359D01*
X4819Y3358D01*
X4819Y3354D01*
X4820Y3353D01*
X4820Y3349D01*
X4821Y3348D01*
X4821Y3343D01*
X4822Y3342D01*
X4822Y3337D01*
X4823Y3336D01*
X4823Y3330D01*
X4824Y3329D01*
X4824Y3322D01*
X4825Y3321D01*
X4825Y3312D01*
X4826Y3311D01*
X4826Y3298D01*
X4827Y3297D01*
X4827Y370D01*
X4826Y369D01*
X4826Y356D01*
X4825Y355D01*
X4825Y346D01*
X4824Y345D01*
X4824Y338D01*
X4823Y337D01*
X4823Y331D01*
X4822Y330D01*
X4822Y325D01*
X4821Y324D01*
X4821Y319D01*
X4820Y318D01*
X4820Y314D01*
X4819Y313D01*
X4819Y309D01*
X4818Y308D01*
X4818Y305D01*
X4817Y304D01*
X4817Y300D01*
X4816Y299D01*
X4816Y296D01*
X4815Y295D01*
X4815Y292D01*
X4814Y291D01*
X4814Y289D01*
X4813Y288D01*
X4813Y285D01*
X4812Y284D01*
X4812Y281D01*
X4811Y280D01*
X4811Y278D01*
X4810Y277D01*
X4810Y275D01*
X4809Y274D01*
X4809Y272D01*
X4808Y271D01*
X4808Y269D01*
X4807Y268D01*
X4807Y266D01*
X4806Y265D01*
X4806Y263D01*
X4805Y262D01*
X4805Y260D01*
X4804Y259D01*
X4804Y257D01*
X4803Y256D01*
X4803Y255D01*
X4802Y254D01*
X4802Y252D01*
X4801Y251D01*
X4801Y249D01*
X4800Y248D01*
X4800Y247D01*
X4799Y246D01*
X4799Y244D01*
X4798Y243D01*
X4798Y242D01*
X4797Y241D01*
X4797Y239D01*
X4796Y238D01*
X4796Y237D01*
X4795Y236D01*
X4795Y235D01*
X4794Y234D01*
X4794Y233D01*
X4793Y232D01*
X4793Y231D01*
X4792Y230D01*
X4792Y228D01*
X4791Y227D01*
X4791Y226D01*
X4790Y225D01*
X4790Y224D01*
X4789Y223D01*
X4789Y222D01*
X4788Y221D01*
X4788Y220D01*
X4787Y219D01*
X4787Y218D01*
X4786Y217D01*
X4786Y216D01*
X4785Y215D01*
X4785Y214D01*
X4784Y213D01*
X4784Y212D01*
X4783Y211D01*
X4783Y210D01*
X4782Y209D01*
X4782Y208D01*
X4781Y207D01*
X4781Y206D01*
X4780Y205D01*
X4780Y204D01*
X4779Y203D01*
X4778Y202D01*
X4778Y201D01*
X4777Y200D01*
X4777Y199D01*
X4776Y198D01*
X4776Y197D01*
X4775Y196D01*
X4774Y195D01*
X4774Y194D01*
X4773Y193D01*
X4773Y192D01*
X4772Y191D01*
X4772Y190D01*
X4771Y189D01*
X4770Y188D01*
X4770Y187D01*
X4769Y186D01*
X4768Y185D01*
X4768Y184D01*
X4767Y183D01*
X4767Y182D01*
X4766Y181D01*
X4765Y180D01*
X4765Y179D01*
X4764Y178D01*
X4763Y177D01*
X4763Y176D01*
X4762Y175D01*
X4761Y174D01*
X4761Y173D01*
X4760Y172D01*
X4759Y171D01*
X4759Y170D01*
X4758Y169D01*
X4757Y168D01*
X4756Y167D01*
X4756Y166D01*
X4755Y165D01*
X4754Y164D01*
X4754Y163D01*
X4753Y162D01*
X4752Y161D01*
X4751Y160D01*
X4751Y159D01*
X4750Y158D01*
X4749Y157D01*
X4749Y156D01*
X4748Y155D01*
X4747Y154D01*
X4746Y153D01*
X4745Y152D01*
X4745Y151D01*
X4744Y150D01*
X4743Y149D01*
X4742Y148D01*
X4741Y147D01*
X4741Y146D01*
X4740Y145D01*
X4739Y144D01*
X4738Y143D01*
X4737Y142D01*
X4737Y141D01*
X4736Y140D01*
X4735Y139D01*
X4734Y138D01*
X4733Y137D01*
X4732Y136D01*
X4731Y135D01*
X4731Y134D01*
X4730Y133D01*
X4729Y132D01*
X4728Y131D01*
X4727Y130D01*
X4726Y129D01*
X4725Y128D01*
X4724Y127D01*
X4723Y126D01*
X4722Y125D01*
X4721Y124D01*
X4720Y123D01*
X4720Y122D01*
X4719Y121D01*
X4718Y120D01*
X4717Y119D01*
X4716Y118D01*
X4715Y117D01*
X4714Y116D01*
X4713Y115D01*
X4712Y114D01*
X4711Y113D01*
X4710Y112D01*
X4709Y111D01*
X4708Y110D01*
X4707Y110D01*
X4706Y109D01*
X4705Y108D01*
X4704Y107D01*
X4703Y106D01*
X4702Y105D01*
X4701Y104D01*
X4700Y103D01*
X4699Y102D01*
X4698Y101D01*
X4697Y100D01*
X4696Y99D01*
X4695Y99D01*
X4694Y98D01*
X4693Y97D01*
X4692Y96D01*
X4691Y95D01*
X4690Y94D01*
X4689Y93D01*
X4688Y93D01*
X4687Y92D01*
X4686Y91D01*
X4685Y90D01*
X4684Y89D01*
X4683Y88D01*
X4682Y88D01*
X4681Y87D01*
X4680Y86D01*
X4679Y85D01*
X4678Y85D01*
X4677Y84D01*
X4676Y83D01*
X4675Y82D01*
X4674Y81D01*
X4673Y81D01*
X4672Y80D01*
X4671Y79D01*
X4670Y78D01*
X4669Y78D01*
X4668Y77D01*
X4667Y76D01*
X4666Y76D01*
X4665Y75D01*
X4664Y74D01*
X4663Y73D01*
X4662Y73D01*
X4661Y72D01*
X4660Y71D01*
X4659Y71D01*
X4658Y70D01*
X4657Y69D01*
X4656Y68D01*
X4655Y68D01*
X4654Y67D01*
X4653Y67D01*
X4652Y66D01*
X4651Y65D01*
X4650Y65D01*
X4649Y64D01*
X4648Y63D01*
X4647Y63D01*
X4646Y62D01*
X4645Y61D01*
X4644Y61D01*
X4643Y60D01*
X4642Y60D01*
X4641Y59D01*
X4640Y58D01*
X4639Y58D01*
X4638Y57D01*
X4637Y57D01*
X4636Y56D01*
X4635Y55D01*
X4634Y55D01*
X4633Y54D01*
X4632Y54D01*
X4631Y53D01*
X4630Y53D01*
X4629Y52D01*
X4628Y51D01*
X4627Y51D01*
X4626Y50D01*
X4625Y50D01*
X4624Y49D01*
X4623Y49D01*
X4622Y48D01*
X4621Y48D01*
X4620Y47D01*
X4619Y47D01*
X4618Y46D01*
X4617Y46D01*
X4616Y45D01*
X4615Y45D01*
X4614Y44D01*
X4613Y43D01*
X4612Y43D01*
X4611Y42D01*
X4610Y42D01*
X4609Y41D01*
X4608Y41D01*
X4607Y40D01*
X4606Y40D01*
X4605Y40D01*
X4604Y39D01*
X4603Y39D01*
X4602Y38D01*
X4601Y38D01*
X4600Y37D01*
X4599Y37D01*
X4598Y36D01*
X4597Y36D01*
X4596Y35D01*
X4595Y35D01*
X4594Y35D01*
X4593Y34D01*
X4592Y34D01*
X4591Y33D01*
X4590Y33D01*
X4589Y32D01*
X4588Y32D01*
X4587Y32D01*
X4586Y31D01*
X4585Y31D01*
X4584Y30D01*
X4583Y30D01*
X4582Y30D01*
X4581Y29D01*
X4580Y29D01*
X4579Y28D01*
X4578Y28D01*
X4577Y28D01*
X4576Y27D01*
X4575Y27D01*
X4574Y26D01*
X4573Y26D01*
X4572Y26D01*
X4571Y25D01*
X4570Y25D01*
X4569Y25D01*
X4568Y24D01*
X4567Y24D01*
X4566Y24D01*
X4565Y23D01*
X4564Y23D01*
X4563Y23D01*
X4562Y22D01*
X4561Y22D01*
X4560Y22D01*
X4559Y21D01*
X4558Y21D01*
X4557Y21D01*
X4556Y20D01*
X4555Y20D01*
X4554Y20D01*
X4553Y19D01*
X4552Y19D01*
X4551Y19D01*
X4550Y18D01*
X4549Y18D01*
X4548Y18D01*
X4547Y18D01*
X4546Y17D01*
X4545Y17D01*
X4544Y17D01*
X4543Y16D01*
X4542Y16D01*
X4541Y16D01*
X4540Y16D01*
X4539Y15D01*
X4538Y15D01*
X4537Y15D01*
X4536Y14D01*
X4535Y14D01*
X4534Y14D01*
X4533Y14D01*
X4532Y13D01*
X4531Y13D01*
X4530Y13D01*
X4529Y13D01*
X4528Y13D01*
X4527Y12D01*
X4526Y12D01*
X4525Y12D01*
X4524Y12D01*
X4523Y11D01*
X4522Y11D01*
X4521Y11D01*
X4520Y11D01*
X4519Y10D01*
X4518Y10D01*
X4517Y10D01*
X4516Y10D01*
X4515Y10D01*
X4514Y9D01*
X4513Y9D01*
X4512Y9D01*
X4511Y9D01*
X4510Y9D01*
X4509Y8D01*
X4508Y8D01*
X4507Y8D01*
X4506Y8D01*
X4505Y8D01*
X4504Y8D01*
X4503Y7D01*
X4502Y7D01*
X4501Y7D01*
X4500Y7D01*
X4499Y7D01*
X4498Y7D01*
X4497Y6D01*
X4496Y6D01*
X4495Y6D01*
X4494Y6D01*
X4493Y6D01*
X4492Y6D01*
X4491Y6D01*
X4490Y5D01*
X4489Y5D01*
X4488Y5D01*
X4487Y5D01*
X4486Y5D01*
X4485Y5D01*
X4484Y5D01*
X4483Y5D01*
X4482Y5D01*
X4481Y4D01*
X4480Y4D01*
X4479Y4D01*
X4478Y4D01*
X4477Y4D01*
X4476Y4D01*
X4475Y4D01*
X4474Y4D01*
X4473Y4D01*
X4472Y4D01*
X4471Y3D01*
X4470Y3D01*
X4469Y3D01*
X4468Y3D01*
X4467Y3D01*
X4466Y3D01*
X4465Y3D01*
X4464Y3D01*
X4463Y3D01*
X4462Y3D01*
X4461Y3D01*
X4460Y3D01*
X4459Y3D01*
X4458Y3D01*
X4457Y2D01*
X4456Y2D01*
X4455Y2D01*
X4454Y2D01*
X4453Y2D01*
X4452Y2D01*
X4451Y2D01*
X4450Y2D01*
X4449Y2D01*
X4448Y2D01*
X4447Y2D01*
X4446Y2D01*
X4445Y2D01*
X4444Y2D01*
X4443Y2D01*
X4442Y2D01*
X4441Y2D01*
X4440Y2D01*
X4439Y2D01*
X4438Y2D01*
X4437Y2D01*
X4436Y2D01*
X4435Y2D01*
X4434Y2D01*
X4433Y2D01*
X4432Y2D01*
X4431Y2D01*
X4430Y2D01*
X4429Y2D01*
X4428Y2D01*
X4427Y2D01*
X4426Y2D01*
X4425Y2D01*
X4424Y2D01*
X4423Y2D01*
X4422Y2D01*
X4421Y2D01*
X4420Y2D01*
X4419Y2D01*
X4418Y2D01*
X4417Y2D01*
X4416Y2D01*
X4415Y2D01*
X4414Y2D01*
X4413Y2D01*
X4412Y2D01*
X4411Y2D01*
X4410Y2D01*
X4409Y2D01*
X4408Y2D01*
X4407Y2D01*
X4406Y2D01*
X4405Y2D01*
X4404Y2D01*
X4403Y2D01*
X4402Y2D01*
X4401Y2D01*
X4400Y2D01*
X4399Y2D01*
X4398Y2D01*
X4397Y2D01*
X4396Y2D01*
X4395Y2D01*
X4394Y2D01*
X4393Y2D01*
X4392Y2D01*
X4391Y2D01*
X4390Y2D01*
X4389Y2D01*
X4388Y2D01*
X4387Y2D01*
X4386Y2D01*
X4385Y2D01*
X4384Y2D01*
X4383Y2D01*
X4382Y2D01*
X4381Y2D01*
X4380Y2D01*
X4379Y2D01*
X4378Y2D01*
X4377Y2D01*
X4376Y2D01*
X4375Y2D01*
X4374Y2D01*
X4373Y2D01*
X4372Y2D01*
X4371Y2D01*
X4370Y2D01*
X4369Y2D01*
X4368Y2D01*
X4367Y2D01*
X4366Y2D01*
X4365Y2D01*
X4364Y2D01*
X4363Y2D01*
X4362Y2D01*
X4361Y2D01*
X4360Y2D01*
X4359Y2D01*
X4358Y2D01*
X4357Y2D01*
X4356Y2D01*
X4355Y2D01*
X4354Y2D01*
X4353Y2D01*
X4352Y2D01*
X4351Y2D01*
X4350Y2D01*
X4349Y2D01*
X4348Y2D01*
X4347Y2D01*
X4346Y2D01*
X4345Y2D01*
X4344Y2D01*
X4343Y2D01*
X4342Y2D01*
X4341Y2D01*
X4340Y2D01*
X4339Y2D01*
X4338Y2D01*
X4337Y2D01*
X4336Y2D01*
X4335Y2D01*
X4334Y2D01*
X4333Y2D01*
X4332Y2D01*
X4331Y2D01*
X4330Y2D01*
X4329Y2D01*
X4328Y2D01*
X4327Y2D01*
X4326Y2D01*
X4325Y2D01*
X4324Y2D01*
X4323Y2D01*
X4322Y2D01*
X4321Y2D01*
X4320Y2D01*
X4319Y2D01*
X4318Y2D01*
X4317Y2D01*
X4316Y2D01*
X4315Y2D01*
X4314Y2D01*
X4313Y2D01*
X4312Y2D01*
X4311Y2D01*
X4310Y2D01*
X4309Y2D01*
X4308Y2D01*
X4307Y2D01*
X4306Y2D01*
X4305Y2D01*
X4304Y2D01*
X4303Y2D01*
X4302Y2D01*
X4301Y2D01*
X4300Y2D01*
X4299Y2D01*
X4298Y2D01*
X4297Y2D01*
X4296Y2D01*
X4295Y2D01*
X4294Y2D01*
X4293Y2D01*
X4292Y2D01*
X4291Y2D01*
X4290Y2D01*
X4289Y2D01*
X4288Y2D01*
X4287Y2D01*
X4286Y2D01*
X4285Y2D01*
X4284Y2D01*
X4283Y2D01*
X4282Y2D01*
X4281Y2D01*
X4280Y2D01*
X4279Y2D01*
X4278Y2D01*
X4277Y2D01*
X4276Y2D01*
X4275Y2D01*
X4274Y2D01*
X4273Y2D01*
X4272Y2D01*
X4271Y2D01*
X4270Y2D01*
X4269Y2D01*
X4268Y2D01*
X4267Y2D01*
X4266Y2D01*
X4265Y2D01*
X4264Y2D01*
X4263Y2D01*
X4262Y2D01*
X4261Y2D01*
X4260Y2D01*
X4259Y2D01*
X4258Y2D01*
X4257Y2D01*
X4256Y2D01*
X4255Y2D01*
X4254Y2D01*
X4253Y2D01*
X4252Y2D01*
X4251Y2D01*
X4250Y2D01*
X4249Y2D01*
X4248Y2D01*
X4247Y2D01*
X4246Y2D01*
X4245Y2D01*
X4244Y2D01*
X4243Y2D01*
X4242Y2D01*
X4241Y2D01*
X4240Y2D01*
X4239Y2D01*
X4238Y2D01*
X4237Y2D01*
X4236Y2D01*
X4235Y2D01*
X4234Y2D01*
X4233Y2D01*
X4232Y2D01*
X4231Y2D01*
X4230Y2D01*
X4229Y2D01*
X4228Y2D01*
X4227Y2D01*
X4226Y2D01*
X4225Y2D01*
X4224Y2D01*
X4223Y2D01*
X4222Y2D01*
X4221Y2D01*
X4220Y2D01*
X4219Y2D01*
X4218Y2D01*
X4217Y2D01*
X4216Y2D01*
X4215Y2D01*
X4214Y2D01*
X4213Y2D01*
X4212Y2D01*
X4211Y2D01*
X4210Y2D01*
X4209Y2D01*
X4208Y2D01*
X4207Y2D01*
X4206Y2D01*
X4205Y2D01*
X4204Y2D01*
X4203Y2D01*
X4202Y2D01*
X4201Y2D01*
X4200Y2D01*
X4199Y2D01*
X4198Y2D01*
X4197Y2D01*
X4196Y2D01*
X4195Y2D01*
X4194Y2D01*
X4193Y2D01*
X4192Y2D01*
X4191Y2D01*
X4190Y2D01*
X4189Y2D01*
X4188Y2D01*
X4187Y2D01*
X4186Y2D01*
X4185Y2D01*
X4184Y2D01*
X4183Y2D01*
X4182Y2D01*
X4181Y2D01*
X4180Y2D01*
X4179Y2D01*
X4178Y2D01*
X4177Y2D01*
X4176Y2D01*
X4175Y2D01*
X4174Y2D01*
X4173Y2D01*
X4172Y2D01*
X4171Y2D01*
X4170Y2D01*
X4169Y2D01*
X4168Y2D01*
X4167Y2D01*
X4166Y2D01*
X4165Y2D01*
X4164Y2D01*
X4163Y2D01*
X4162Y2D01*
X4161Y2D01*
X4160Y2D01*
X4159Y2D01*
X4158Y2D01*
X4157Y2D01*
X4156Y2D01*
X4155Y2D01*
X4154Y2D01*
X4153Y2D01*
X4152Y2D01*
X4151Y2D01*
X4150Y2D01*
X4149Y2D01*
X4148Y2D01*
X4147Y2D01*
X4146Y2D01*
X4145Y2D01*
X4144Y2D01*
X4143Y2D01*
X4142Y2D01*
X4141Y2D01*
X4140Y2D01*
X4139Y2D01*
X4138Y2D01*
X4137Y2D01*
X4136Y2D01*
X4135Y2D01*
X4134Y2D01*
X4133Y2D01*
X4132Y2D01*
X4131Y2D01*
X4130Y2D01*
X4129Y2D01*
X4128Y2D01*
X4127Y2D01*
X4126Y2D01*
X4125Y2D01*
X4124Y2D01*
X4123Y2D01*
X4122Y2D01*
X4121Y2D01*
X4120Y2D01*
X4119Y2D01*
X4118Y2D01*
X4117Y2D01*
X4116Y2D01*
X4115Y2D01*
X4114Y2D01*
X4113Y2D01*
X4112Y2D01*
X4111Y2D01*
X4110Y2D01*
X4109Y2D01*
X4108Y2D01*
X4107Y2D01*
X4106Y2D01*
X4105Y2D01*
X4104Y2D01*
X4103Y2D01*
X4102Y2D01*
X4101Y2D01*
X4100Y2D01*
X4099Y2D01*
X4098Y2D01*
X4097Y2D01*
X4096Y2D01*
X4095Y2D01*
X4094Y2D01*
X4093Y2D01*
X4092Y2D01*
X4091Y2D01*
X4090Y2D01*
X4089Y2D01*
X4088Y2D01*
X4087Y2D01*
X4086Y2D01*
X4085Y2D01*
X4084Y2D01*
X4083Y2D01*
X4082Y2D01*
X4081Y2D01*
X4080Y2D01*
X4079Y2D01*
X4078Y2D01*
X4077Y2D01*
X4076Y2D01*
X4075Y2D01*
X4074Y2D01*
X4073Y2D01*
X4072Y2D01*
X4071Y2D01*
X4070Y2D01*
X4069Y2D01*
X4068Y2D01*
X4067Y2D01*
X4066Y2D01*
X4065Y2D01*
X4064Y2D01*
X4063Y2D01*
X4062Y2D01*
X4061Y2D01*
X4060Y2D01*
X4059Y2D01*
X4058Y2D01*
X4057Y2D01*
X4056Y2D01*
X4055Y2D01*
X4054Y2D01*
X4053Y2D01*
X4052Y2D01*
X4051Y2D01*
X4050Y2D01*
X4049Y2D01*
X4048Y2D01*
X4047Y2D01*
X4046Y2D01*
X4045Y2D01*
X4044Y2D01*
X4043Y2D01*
X4042Y2D01*
X4041Y2D01*
X4040Y2D01*
X4039Y2D01*
X4038Y2D01*
X4037Y2D01*
X4036Y2D01*
X4035Y2D01*
X4034Y2D01*
X4033Y2D01*
X4032Y2D01*
X4031Y2D01*
X4030Y2D01*
X4029Y2D01*
X4028Y2D01*
X4027Y2D01*
X4026Y2D01*
X4025Y2D01*
X4024Y2D01*
X4023Y2D01*
X4022Y2D01*
X4021Y2D01*
X4020Y2D01*
X4019Y2D01*
X4018Y2D01*
X4017Y2D01*
X4016Y2D01*
X4015Y2D01*
X4014Y2D01*
X4013Y2D01*
X4012Y2D01*
X4011Y2D01*
X4010Y2D01*
X4009Y2D01*
X4008Y2D01*
X4007Y2D01*
X4006Y2D01*
X4005Y2D01*
X4004Y2D01*
X4003Y2D01*
X4002Y2D01*
X4001Y2D01*
X4000Y2D01*
X3999Y2D01*
X3998Y2D01*
X3997Y2D01*
X3996Y2D01*
X3995Y2D01*
X3994Y2D01*
X3993Y2D01*
X3992Y2D01*
X3991Y2D01*
X3990Y2D01*
X3989Y2D01*
X3988Y2D01*
X3987Y2D01*
X3986Y2D01*
X3985Y2D01*
X3984Y2D01*
X3983Y2D01*
X3982Y2D01*
X3981Y2D01*
X3980Y2D01*
X3979Y2D01*
X3978Y2D01*
X3977Y2D01*
X3976Y2D01*
X3975Y2D01*
X3974Y2D01*
X3973Y2D01*
X3972Y2D01*
X3971Y2D01*
X3970Y2D01*
X3969Y2D01*
X3968Y2D01*
X3967Y2D01*
X3966Y2D01*
X3965Y2D01*
X3964Y2D01*
X3963Y2D01*
X3962Y2D01*
X3961Y2D01*
X3960Y2D01*
X3959Y2D01*
X3958Y2D01*
X3957Y2D01*
X3956Y2D01*
X3955Y2D01*
X3954Y2D01*
X3953Y2D01*
X3952Y2D01*
X3951Y2D01*
X3950Y2D01*
X3949Y2D01*
X3948Y2D01*
X3947Y2D01*
X3946Y2D01*
X3945Y2D01*
X3944Y2D01*
X3943Y2D01*
X3942Y2D01*
X3941Y2D01*
X3940Y2D01*
X3939Y2D01*
X3938Y2D01*
X3937Y2D01*
X3936Y2D01*
X3935Y2D01*
X3934Y2D01*
X3933Y2D01*
X3932Y2D01*
X3931Y2D01*
X3930Y2D01*
X3929Y2D01*
X3928Y2D01*
X3927Y2D01*
X3926Y2D01*
X3925Y2D01*
X3924Y2D01*
X3923Y2D01*
X3922Y2D01*
X3921Y2D01*
X3920Y2D01*
X3919Y2D01*
X3918Y2D01*
X3917Y2D01*
X3916Y2D01*
X3915Y2D01*
X3914Y2D01*
X3913Y2D01*
X3912Y2D01*
X3911Y2D01*
X3910Y2D01*
X3909Y2D01*
X3908Y2D01*
X3907Y2D01*
X3906Y2D01*
X3905Y2D01*
X3904Y2D01*
X3903Y2D01*
X3902Y2D01*
X3901Y2D01*
X3900Y2D01*
X3899Y2D01*
X3898Y2D01*
X3897Y2D01*
X3896Y2D01*
X3895Y2D01*
X3894Y2D01*
X3893Y2D01*
X3892Y2D01*
X3891Y2D01*
X3890Y2D01*
X3889Y2D01*
X3888Y2D01*
X3887Y2D01*
X3886Y2D01*
X3885Y2D01*
X3884Y2D01*
X3883Y2D01*
X3882Y2D01*
X3881Y2D01*
X3880Y2D01*
X3879Y2D01*
X3878Y2D01*
X3877Y2D01*
X3876Y2D01*
X3875Y2D01*
X3874Y2D01*
X3873Y2D01*
X3872Y2D01*
X3871Y2D01*
X3870Y2D01*
X3869Y2D01*
X3868Y2D01*
X3867Y2D01*
X3866Y2D01*
X3865Y2D01*
X3864Y2D01*
X3863Y2D01*
X3862Y2D01*
X3861Y2D01*
X3860Y2D01*
X3859Y2D01*
X3858Y2D01*
X3857Y2D01*
X3856Y2D01*
X3855Y2D01*
X3854Y2D01*
X3853Y2D01*
X3852Y2D01*
X3851Y2D01*
X3850Y2D01*
X3849Y2D01*
X3848Y2D01*
X3847Y2D01*
X3846Y2D01*
X3845Y2D01*
X3844Y2D01*
X3843Y2D01*
X3842Y2D01*
X3841Y2D01*
X3840Y2D01*
X3839Y2D01*
X3838Y2D01*
X3837Y2D01*
X3836Y2D01*
X3835Y2D01*
X3834Y2D01*
X3833Y2D01*
X3832Y2D01*
X3831Y2D01*
X3830Y2D01*
X3829Y2D01*
X3828Y2D01*
X3827Y2D01*
X3826Y2D01*
X3825Y2D01*
X3824Y2D01*
X3823Y2D01*
X3822Y2D01*
X3821Y2D01*
X3820Y2D01*
X3819Y2D01*
X3818Y2D01*
X3817Y2D01*
X3816Y2D01*
X3815Y2D01*
X3814Y2D01*
X3813Y2D01*
X3812Y2D01*
X3811Y2D01*
X3810Y2D01*
X3809Y2D01*
X3808Y2D01*
X3807Y2D01*
X3806Y2D01*
X3805Y2D01*
X3804Y2D01*
X3803Y2D01*
X3802Y2D01*
X3801Y2D01*
X3800Y2D01*
X3799Y2D01*
X3798Y2D01*
X3797Y2D01*
X3796Y2D01*
X3795Y2D01*
X3794Y2D01*
X3793Y2D01*
X3792Y2D01*
X3791Y2D01*
X3790Y2D01*
X3789Y2D01*
X3788Y2D01*
X3787Y2D01*
X3786Y2D01*
X3785Y2D01*
X3784Y2D01*
X3783Y2D01*
X3782Y2D01*
X3781Y2D01*
X3780Y2D01*
X3779Y2D01*
X3778Y2D01*
X3777Y2D01*
X3776Y2D01*
X3775Y2D01*
X3774Y2D01*
X3773Y2D01*
X3772Y2D01*
X3771Y2D01*
X3770Y2D01*
X3769Y2D01*
X3768Y2D01*
X3767Y2D01*
X3766Y2D01*
X3765Y2D01*
X3764Y2D01*
X3763Y2D01*
X3762Y2D01*
X3761Y2D01*
X3760Y2D01*
X3759Y2D01*
X3758Y2D01*
X3757Y2D01*
X3756Y2D01*
X3755Y2D01*
X3754Y2D01*
X3753Y2D01*
X3752Y2D01*
X3751Y2D01*
X3750Y2D01*
X3749Y2D01*
X3748Y2D01*
X3747Y2D01*
X3746Y2D01*
X3745Y2D01*
X3744Y2D01*
X3743Y2D01*
X3742Y2D01*
X3741Y2D01*
X3740Y2D01*
X3739Y2D01*
X3738Y2D01*
X3737Y2D01*
X3736Y2D01*
X3735Y2D01*
X3734Y2D01*
X3733Y2D01*
X3732Y2D01*
X3731Y2D01*
X3730Y2D01*
X3729Y2D01*
X3728Y2D01*
X3727Y2D01*
X3726Y2D01*
X3725Y2D01*
X3724Y2D01*
X3723Y2D01*
X3722Y2D01*
X3721Y2D01*
X3720Y2D01*
X3719Y2D01*
X3718Y2D01*
X3717Y2D01*
X3716Y2D01*
X3715Y2D01*
X3714Y2D01*
X3713Y2D01*
X3712Y2D01*
X3711Y2D01*
X3710Y2D01*
X3709Y2D01*
X3708Y2D01*
X3707Y2D01*
X3706Y2D01*
X3705Y2D01*
X3704Y2D01*
X3703Y2D01*
X3702Y2D01*
X3701Y2D01*
X3700Y2D01*
X3699Y2D01*
X3698Y2D01*
X3697Y2D01*
X3696Y2D01*
X3695Y2D01*
X3694Y2D01*
X3693Y2D01*
X3692Y2D01*
X3691Y2D01*
X3690Y2D01*
X3689Y2D01*
X3688Y2D01*
X3687Y2D01*
X3686Y2D01*
X3685Y2D01*
X3684Y2D01*
X3683Y2D01*
X3682Y2D01*
X3681Y2D01*
X3680Y2D01*
X3679Y2D01*
X3678Y2D01*
X3677Y2D01*
X3676Y2D01*
X3675Y2D01*
X3674Y2D01*
X3673Y2D01*
X3672Y2D01*
X3671Y2D01*
X3670Y2D01*
X3669Y2D01*
X3668Y2D01*
X3667Y2D01*
X3666Y2D01*
X3665Y2D01*
X3664Y2D01*
X3663Y2D01*
X3662Y2D01*
X3661Y2D01*
X3660Y2D01*
X3659Y2D01*
X3658Y2D01*
X3657Y2D01*
X3656Y2D01*
X3655Y2D01*
X3654Y2D01*
X3653Y2D01*
X3652Y2D01*
X3651Y2D01*
X3650Y2D01*
X3649Y2D01*
X3648Y2D01*
X3647Y2D01*
X3646Y2D01*
X3645Y2D01*
X3644Y2D01*
X3643Y2D01*
X3642Y2D01*
X3641Y2D01*
X3640Y2D01*
X3639Y2D01*
X3638Y2D01*
X3637Y2D01*
X3636Y2D01*
X3635Y2D01*
X3634Y2D01*
X3633Y2D01*
X3632Y2D01*
X3631Y2D01*
X3630Y2D01*
X3629Y2D01*
X3628Y2D01*
X3627Y2D01*
X3626Y2D01*
X3625Y2D01*
X3624Y2D01*
X3623Y2D01*
X3622Y2D01*
X3621Y2D01*
X3620Y2D01*
X3619Y2D01*
X3618Y2D01*
X3617Y2D01*
X3616Y2D01*
X3615Y2D01*
X3614Y2D01*
X3613Y2D01*
X3612Y2D01*
X3611Y2D01*
X3610Y2D01*
X3609Y2D01*
X3608Y2D01*
X3607Y2D01*
X3606Y2D01*
X3605Y2D01*
X3604Y2D01*
X3603Y2D01*
X3602Y2D01*
X3601Y2D01*
X3600Y2D01*
X3599Y2D01*
X3598Y2D01*
X3597Y2D01*
X3596Y2D01*
X3595Y2D01*
X3594Y2D01*
X3593Y2D01*
X3592Y2D01*
X3591Y2D01*
X3590Y2D01*
X3589Y2D01*
X3588Y2D01*
X3587Y2D01*
X3586Y2D01*
X3585Y2D01*
X3584Y2D01*
X3583Y2D01*
X3582Y2D01*
X3581Y2D01*
X3580Y2D01*
X3579Y2D01*
X3578Y2D01*
X3577Y2D01*
X3576Y2D01*
X3575Y2D01*
X3574Y2D01*
X3573Y2D01*
X3572Y2D01*
X3571Y2D01*
X3570Y2D01*
X3569Y2D01*
X3568Y2D01*
X3567Y2D01*
X3566Y2D01*
X3565Y2D01*
X3564Y2D01*
X3563Y2D01*
X3562Y2D01*
X3561Y2D01*
X3560Y2D01*
X3559Y2D01*
X3558Y2D01*
X3557Y2D01*
X3556Y2D01*
X3555Y2D01*
X3554Y2D01*
X3553Y2D01*
X3552Y2D01*
X3551Y2D01*
X3550Y2D01*
X3549Y2D01*
X3548Y2D01*
X3547Y2D01*
X3546Y2D01*
X3545Y2D01*
X3544Y2D01*
X3543Y2D01*
X3542Y2D01*
X3541Y2D01*
X3540Y2D01*
X3539Y2D01*
X3538Y2D01*
X3537Y2D01*
X3536Y2D01*
X3535Y2D01*
X3534Y2D01*
X3533Y2D01*
X3532Y2D01*
X3531Y2D01*
X3530Y2D01*
X3529Y2D01*
X3528Y2D01*
X3527Y2D01*
X3526Y2D01*
X3525Y2D01*
X3524Y2D01*
X3523Y2D01*
X3522Y2D01*
X3521Y2D01*
X3520Y2D01*
X3519Y2D01*
X3518Y2D01*
X3517Y2D01*
X3516Y2D01*
X3515Y2D01*
X3514Y2D01*
X3513Y2D01*
X3512Y2D01*
X3511Y2D01*
X3510Y2D01*
X3509Y2D01*
X3508Y2D01*
X3507Y2D01*
X3506Y2D01*
X3505Y2D01*
X3504Y2D01*
X3503Y2D01*
X3502Y2D01*
X3501Y2D01*
X3500Y2D01*
X3499Y2D01*
X3498Y2D01*
X3497Y2D01*
X3496Y2D01*
X3495Y2D01*
X3494Y2D01*
X3493Y2D01*
X3492Y2D01*
X3491Y2D01*
X3490Y2D01*
X3489Y2D01*
X3488Y2D01*
X3487Y2D01*
X3486Y2D01*
X3485Y2D01*
X3484Y2D01*
X3483Y2D01*
X3482Y2D01*
X3481Y2D01*
X3480Y2D01*
X3479Y2D01*
X3478Y2D01*
X3477Y2D01*
X3476Y2D01*
X3475Y2D01*
X3474Y2D01*
X3473Y2D01*
X3472Y2D01*
X3471Y2D01*
X3470Y2D01*
X3469Y2D01*
X3468Y2D01*
X3467Y2D01*
X3466Y2D01*
X3465Y2D01*
X3464Y2D01*
X3463Y2D01*
X3462Y2D01*
X3461Y2D01*
X3460Y2D01*
X3459Y2D01*
X3458Y2D01*
X3457Y2D01*
X3456Y2D01*
X3455Y2D01*
X3454Y2D01*
X3453Y2D01*
X3452Y2D01*
X3451Y2D01*
X3450Y2D01*
X3449Y2D01*
X3448Y2D01*
X3447Y2D01*
X3446Y2D01*
X3445Y2D01*
X3444Y2D01*
X3443Y2D01*
X3442Y2D01*
X3441Y2D01*
X3440Y2D01*
X3439Y2D01*
X3438Y2D01*
X3437Y2D01*
X3436Y2D01*
X3435Y2D01*
X3434Y2D01*
X3433Y2D01*
X3432Y2D01*
X3431Y2D01*
X3430Y2D01*
X3429Y2D01*
X3428Y2D01*
X3427Y2D01*
X3426Y2D01*
X3425Y2D01*
X3424Y2D01*
X3423Y2D01*
X3422Y2D01*
X3421Y2D01*
X3420Y2D01*
X3419Y2D01*
X3418Y2D01*
X3417Y2D01*
X3416Y2D01*
X3415Y2D01*
X3414Y2D01*
X3413Y2D01*
X3412Y2D01*
X3411Y2D01*
X3410Y2D01*
X3409Y2D01*
X3408Y2D01*
X3407Y2D01*
X3406Y2D01*
X3405Y2D01*
X3404Y2D01*
X3403Y2D01*
X3402Y2D01*
X3401Y2D01*
X3400Y2D01*
X3399Y2D01*
X3398Y2D01*
X3397Y2D01*
X3396Y2D01*
X3395Y2D01*
X3394Y2D01*
X3393Y2D01*
X3392Y2D01*
X3391Y2D01*
X3390Y2D01*
X3389Y2D01*
X3388Y2D01*
X3387Y2D01*
X3386Y2D01*
X3385Y2D01*
X3384Y2D01*
X3383Y2D01*
X3382Y2D01*
X3381Y2D01*
X3380Y2D01*
X3379Y2D01*
X3378Y2D01*
X3377Y2D01*
X3376Y2D01*
X3375Y2D01*
X3374Y2D01*
X3373Y2D01*
X3372Y2D01*
X3371Y2D01*
X3370Y2D01*
X3369Y2D01*
X3368Y2D01*
X3367Y2D01*
X3366Y2D01*
X3365Y2D01*
X3364Y2D01*
X3363Y2D01*
X3362Y2D01*
X3361Y2D01*
X3360Y2D01*
X3359Y2D01*
X3358Y2D01*
X3357Y2D01*
X3356Y2D01*
X3355Y2D01*
X3354Y2D01*
X3353Y2D01*
X3352Y2D01*
X3351Y2D01*
X3350Y2D01*
X3349Y2D01*
X3348Y2D01*
X3347Y2D01*
X3346Y2D01*
X3345Y2D01*
X3344Y2D01*
X3343Y2D01*
X3342Y2D01*
X3341Y2D01*
X3340Y2D01*
X3339Y2D01*
X3338Y2D01*
X3337Y2D01*
X3336Y2D01*
X3335Y2D01*
X3334Y2D01*
X3333Y2D01*
X3332Y2D01*
X3331Y2D01*
X3330Y2D01*
X3329Y2D01*
X3328Y2D01*
X3327Y2D01*
X3326Y2D01*
X3325Y2D01*
X3324Y2D01*
X3323Y2D01*
X3322Y2D01*
X3321Y2D01*
X3320Y2D01*
X3319Y2D01*
X3318Y2D01*
X3317Y2D01*
X3316Y2D01*
X3315Y2D01*
X3314Y2D01*
X3313Y2D01*
X3312Y2D01*
X3311Y2D01*
X3310Y2D01*
X3309Y2D01*
X3308Y2D01*
X3307Y2D01*
X3306Y2D01*
X3305Y2D01*
X3304Y2D01*
X3303Y2D01*
X3302Y2D01*
X3301Y2D01*
X3300Y2D01*
X3299Y2D01*
X3298Y2D01*
X3297Y2D01*
X3296Y2D01*
X3295Y2D01*
X3294Y2D01*
X3293Y2D01*
X3292Y2D01*
X3291Y2D01*
X3290Y2D01*
X3289Y2D01*
X3288Y2D01*
X3287Y2D01*
X3286Y2D01*
X3285Y2D01*
X3284Y2D01*
X3283Y2D01*
X3282Y2D01*
X3281Y2D01*
X3280Y2D01*
X3279Y2D01*
X3278Y2D01*
X3277Y2D01*
X3276Y2D01*
X3275Y2D01*
X3274Y2D01*
X3273Y2D01*
X3272Y2D01*
X3271Y2D01*
X3270Y2D01*
X3269Y2D01*
X3268Y2D01*
X3267Y2D01*
X3266Y2D01*
X3265Y2D01*
X3264Y2D01*
X3263Y2D01*
X3262Y2D01*
X3261Y2D01*
X3260Y2D01*
X3259Y2D01*
X3258Y2D01*
X3257Y2D01*
X3256Y2D01*
X3255Y2D01*
X3254Y2D01*
X3253Y2D01*
X3252Y2D01*
X3251Y2D01*
X3250Y2D01*
X3249Y2D01*
X3248Y2D01*
X3247Y2D01*
X3246Y2D01*
X3245Y2D01*
X3244Y2D01*
X3243Y2D01*
X3242Y2D01*
X3241Y2D01*
X3240Y2D01*
X3239Y2D01*
X3238Y2D01*
X3237Y2D01*
X3236Y2D01*
X3235Y2D01*
X3234Y2D01*
X3233Y2D01*
X3232Y2D01*
X3231Y2D01*
X3230Y2D01*
X3229Y2D01*
X3228Y2D01*
X3227Y2D01*
X3226Y2D01*
X3225Y2D01*
X3224Y2D01*
X3223Y2D01*
X3222Y2D01*
X3221Y2D01*
X3220Y2D01*
X3219Y2D01*
X3218Y2D01*
X3217Y2D01*
X3216Y2D01*
X3215Y2D01*
X3214Y2D01*
X3213Y2D01*
X3212Y2D01*
X3211Y2D01*
X3210Y2D01*
X3209Y2D01*
X3208Y2D01*
X3207Y2D01*
X3206Y2D01*
X3205Y2D01*
X3204Y2D01*
X3203Y2D01*
X3202Y2D01*
X3201Y2D01*
X3200Y2D01*
X3199Y2D01*
X3198Y2D01*
X3197Y2D01*
X3196Y2D01*
X3195Y2D01*
X3194Y2D01*
X3193Y2D01*
X3192Y2D01*
X3191Y2D01*
X3190Y2D01*
X3189Y2D01*
X3188Y2D01*
X3187Y2D01*
X3186Y2D01*
X3185Y2D01*
X3184Y2D01*
X3183Y2D01*
X3182Y2D01*
X3181Y2D01*
X3180Y2D01*
X3179Y2D01*
X3178Y2D01*
X3177Y2D01*
X3176Y2D01*
X3175Y2D01*
X3174Y2D01*
X3173Y2D01*
X3172Y2D01*
X3171Y2D01*
X3170Y2D01*
X3169Y2D01*
X3168Y2D01*
X3167Y2D01*
X3166Y2D01*
X3165Y2D01*
X3164Y2D01*
X3163Y2D01*
X3162Y2D01*
X3161Y2D01*
X3160Y2D01*
X3159Y2D01*
X3158Y2D01*
X3157Y2D01*
X3156Y2D01*
X3155Y2D01*
X3154Y2D01*
X3153Y2D01*
X3152Y2D01*
X3151Y2D01*
X3150Y2D01*
X3149Y2D01*
X3148Y2D01*
X3147Y2D01*
X3146Y2D01*
X3145Y2D01*
X3144Y2D01*
X3143Y2D01*
X3142Y2D01*
X3141Y2D01*
X3140Y2D01*
X3139Y2D01*
X3138Y2D01*
X3137Y2D01*
X3136Y2D01*
X3135Y2D01*
X3134Y2D01*
X3133Y2D01*
X3132Y2D01*
X3131Y2D01*
X3130Y2D01*
X3129Y2D01*
X3128Y2D01*
X3127Y2D01*
X3126Y2D01*
X3125Y2D01*
X3124Y2D01*
X3123Y2D01*
X3122Y2D01*
X3121Y2D01*
X3120Y2D01*
X3119Y2D01*
X3118Y2D01*
X3117Y2D01*
X3116Y2D01*
X3115Y2D01*
X3114Y2D01*
X3113Y2D01*
X3112Y2D01*
X3111Y2D01*
X3110Y2D01*
X3109Y2D01*
X3108Y2D01*
X3107Y2D01*
X3106Y2D01*
X3105Y2D01*
X3104Y2D01*
X3103Y2D01*
X3102Y2D01*
X3101Y2D01*
X3100Y2D01*
X3099Y2D01*
X3098Y2D01*
X3097Y2D01*
X3096Y2D01*
X3095Y2D01*
X3094Y2D01*
X3093Y2D01*
X3092Y2D01*
X3091Y2D01*
X3090Y2D01*
X3089Y2D01*
X3088Y2D01*
X3087Y2D01*
X3086Y2D01*
X3085Y2D01*
X3084Y2D01*
X3083Y2D01*
X3082Y2D01*
X3081Y2D01*
X3080Y2D01*
X3079Y2D01*
X3078Y2D01*
X3077Y2D01*
X3076Y2D01*
X3075Y2D01*
X3074Y2D01*
X3073Y2D01*
X3072Y2D01*
X3071Y2D01*
X3070Y2D01*
X3069Y2D01*
X3068Y2D01*
X3067Y2D01*
X3066Y2D01*
X3065Y2D01*
X3064Y2D01*
X3063Y2D01*
X3062Y2D01*
X3061Y2D01*
X3060Y2D01*
X3059Y2D01*
X3058Y2D01*
X3057Y2D01*
X3056Y2D01*
X3055Y2D01*
X3054Y2D01*
X3053Y2D01*
X3052Y2D01*
X3051Y2D01*
X3050Y2D01*
X3049Y2D01*
X3048Y2D01*
X3047Y2D01*
X3046Y2D01*
X3045Y2D01*
X3044Y2D01*
X3043Y2D01*
X3042Y2D01*
X3041Y2D01*
X3040Y2D01*
X3039Y2D01*
X3038Y2D01*
X3037Y2D01*
X3036Y2D01*
X3035Y2D01*
X3034Y2D01*
X3033Y2D01*
X3032Y2D01*
X3031Y2D01*
X3030Y2D01*
X3029Y2D01*
X3028Y2D01*
X3027Y2D01*
X3026Y2D01*
X3025Y2D01*
X3024Y2D01*
X3023Y2D01*
X3022Y2D01*
X3021Y2D01*
X3020Y2D01*
X3019Y2D01*
X3018Y2D01*
X3017Y2D01*
X3016Y2D01*
X3015Y2D01*
X3014Y2D01*
X3013Y2D01*
X3012Y2D01*
X3011Y2D01*
X3010Y2D01*
X3009Y2D01*
X3008Y2D01*
X3007Y2D01*
X3006Y2D01*
X3005Y2D01*
X3004Y2D01*
X3003Y2D01*
X3002Y2D01*
X3001Y2D01*
X3000Y2D01*
X2999Y2D01*
X2998Y2D01*
X2997Y2D01*
X2996Y2D01*
X2995Y2D01*
X2994Y2D01*
X2993Y2D01*
X2992Y2D01*
X2991Y2D01*
X2990Y2D01*
X2989Y2D01*
X2988Y2D01*
X2987Y2D01*
X2986Y2D01*
X2985Y2D01*
X2984Y2D01*
X2983Y2D01*
X2982Y2D01*
X2981Y2D01*
X2980Y2D01*
X2979Y2D01*
X2978Y2D01*
X2977Y2D01*
X2976Y2D01*
X2975Y2D01*
X2974Y2D01*
X2973Y2D01*
X2972Y2D01*
X2971Y2D01*
X2970Y2D01*
X2969Y2D01*
X2968Y2D01*
X2967Y2D01*
X2966Y2D01*
X2965Y2D01*
X2964Y2D01*
X2963Y2D01*
X2962Y2D01*
X2961Y2D01*
X2960Y2D01*
X2959Y2D01*
X2958Y2D01*
X2957Y2D01*
X2956Y2D01*
X2955Y2D01*
X2954Y2D01*
X2953Y2D01*
X2952Y2D01*
X2951Y2D01*
X2950Y2D01*
X2949Y2D01*
X2948Y2D01*
X2947Y2D01*
X2946Y2D01*
X2945Y2D01*
X2944Y2D01*
X2943Y2D01*
X2942Y2D01*
X2941Y2D01*
X2940Y2D01*
X2939Y2D01*
X2938Y2D01*
X2937Y2D01*
X2936Y2D01*
X2935Y2D01*
X2934Y2D01*
X2933Y2D01*
X2932Y2D01*
X2931Y2D01*
X2930Y2D01*
X2929Y2D01*
X2928Y2D01*
X2927Y2D01*
X2926Y2D01*
X2925Y2D01*
X2924Y2D01*
X2923Y2D01*
X2922Y2D01*
X2921Y2D01*
X2920Y2D01*
X2919Y2D01*
X2918Y2D01*
X2917Y2D01*
X2916Y2D01*
X2915Y2D01*
X2914Y2D01*
X2913Y2D01*
X2912Y2D01*
X2911Y2D01*
X2910Y2D01*
X2909Y2D01*
X2908Y2D01*
X2907Y2D01*
X2906Y2D01*
X2905Y2D01*
X2904Y2D01*
X2903Y2D01*
X2902Y2D01*
X2901Y2D01*
X2900Y2D01*
X2899Y2D01*
X2898Y2D01*
X2897Y2D01*
X2896Y2D01*
X2895Y2D01*
X2894Y2D01*
X2893Y2D01*
X2892Y2D01*
X2891Y2D01*
X2890Y2D01*
X2889Y2D01*
X2888Y2D01*
X2887Y2D01*
X2886Y2D01*
X2885Y2D01*
X2884Y2D01*
X2883Y2D01*
X2882Y2D01*
X2881Y2D01*
X2880Y2D01*
X2879Y2D01*
X2878Y2D01*
X2877Y2D01*
X2876Y2D01*
X2875Y2D01*
X2874Y2D01*
X2873Y2D01*
X2872Y2D01*
X2871Y2D01*
X2870Y2D01*
X2869Y2D01*
X2868Y2D01*
X2867Y2D01*
X2866Y2D01*
X2865Y2D01*
X2864Y2D01*
X2863Y2D01*
X2862Y2D01*
X2861Y2D01*
X2860Y2D01*
X2859Y2D01*
X2858Y2D01*
X2857Y2D01*
X2856Y2D01*
X2855Y2D01*
X2854Y2D01*
X2853Y2D01*
X2852Y2D01*
X2851Y2D01*
X2850Y2D01*
X2849Y2D01*
X2848Y2D01*
X2847Y2D01*
X2846Y2D01*
X2845Y2D01*
X2844Y2D01*
X2843Y2D01*
X2842Y2D01*
X2841Y2D01*
X2840Y2D01*
X2839Y2D01*
X2838Y2D01*
X2837Y2D01*
X2836Y2D01*
X2835Y2D01*
X2834Y2D01*
X2833Y2D01*
X2832Y2D01*
X2831Y2D01*
X2830Y2D01*
X2829Y2D01*
X2828Y2D01*
X2827Y2D01*
X2826Y2D01*
X2825Y2D01*
X2824Y2D01*
X2823Y2D01*
X2822Y2D01*
X2821Y2D01*
X2820Y2D01*
X2819Y2D01*
X2818Y2D01*
X2817Y2D01*
X2816Y2D01*
X2815Y2D01*
X2814Y2D01*
X2813Y2D01*
X2812Y2D01*
X2811Y2D01*
X2810Y2D01*
X2809Y2D01*
X2808Y2D01*
X2807Y2D01*
X2806Y2D01*
X2805Y2D01*
X2804Y2D01*
X2803Y2D01*
X2802Y2D01*
X2801Y2D01*
X2800Y2D01*
X2799Y2D01*
X2798Y2D01*
X2797Y2D01*
X2796Y2D01*
X2795Y2D01*
X2794Y2D01*
X2793Y2D01*
X2792Y2D01*
X2791Y2D01*
X2790Y2D01*
X2789Y2D01*
X2788Y2D01*
X2787Y2D01*
X2786Y2D01*
X2785Y2D01*
X2784Y2D01*
X2783Y2D01*
X2782Y2D01*
X2781Y2D01*
X2780Y2D01*
X2779Y2D01*
X2778Y2D01*
X2777Y2D01*
X2776Y2D01*
X2775Y2D01*
X2774Y2D01*
X2773Y2D01*
X2772Y2D01*
X2771Y2D01*
X2770Y2D01*
X2769Y2D01*
X2768Y2D01*
X2767Y2D01*
X2766Y2D01*
X2765Y2D01*
X2764Y2D01*
X2763Y2D01*
X2762Y2D01*
X2761Y2D01*
X2760Y2D01*
X2759Y2D01*
X2758Y2D01*
X2757Y2D01*
X2756Y2D01*
X2755Y2D01*
X2754Y2D01*
X2753Y2D01*
X2752Y2D01*
X2751Y2D01*
X2750Y2D01*
X2749Y2D01*
X2748Y2D01*
X2747Y2D01*
X2746Y2D01*
X2745Y2D01*
X2744Y2D01*
X2743Y2D01*
X2742Y2D01*
X2741Y2D01*
X2740Y2D01*
X2739Y2D01*
X2738Y2D01*
X2737Y2D01*
X2736Y2D01*
X2735Y2D01*
X2734Y2D01*
X2733Y2D01*
X2732Y2D01*
X2731Y2D01*
X2730Y2D01*
X2729Y2D01*
X2728Y2D01*
X2727Y2D01*
X2726Y2D01*
X2725Y2D01*
X2724Y2D01*
X2723Y2D01*
X2722Y2D01*
X2721Y2D01*
X2720Y2D01*
X2719Y2D01*
X2718Y2D01*
X2717Y2D01*
X2716Y2D01*
X2715Y2D01*
X2714Y2D01*
X2713Y2D01*
X2712Y2D01*
X2711Y2D01*
X2710Y2D01*
X2709Y2D01*
X2708Y2D01*
X2707Y2D01*
X2706Y2D01*
X2705Y2D01*
X2704Y2D01*
X2703Y2D01*
X2702Y2D01*
X2701Y2D01*
X2700Y2D01*
X2699Y2D01*
X2698Y2D01*
X2697Y2D01*
X2696Y2D01*
X2695Y2D01*
X2694Y2D01*
X2693Y2D01*
X2692Y2D01*
X2691Y2D01*
X2690Y2D01*
X2689Y2D01*
X2688Y2D01*
X2687Y2D01*
X2686Y2D01*
X2685Y2D01*
X2684Y2D01*
X2683Y2D01*
X2682Y2D01*
X2681Y2D01*
X2680Y2D01*
X2679Y2D01*
X2678Y2D01*
X2677Y2D01*
X2676Y2D01*
X2675Y2D01*
X2674Y2D01*
X2673Y2D01*
X2672Y2D01*
X2671Y2D01*
X2670Y2D01*
X2669Y2D01*
X2668Y2D01*
X2667Y2D01*
X2666Y2D01*
X2665Y2D01*
X2664Y2D01*
X2663Y2D01*
X2662Y2D01*
X2661Y2D01*
X2660Y2D01*
X2659Y2D01*
X2658Y2D01*
X2657Y2D01*
X2656Y2D01*
X2655Y2D01*
X2654Y2D01*
X2653Y2D01*
X2652Y2D01*
X2651Y2D01*
X2650Y2D01*
X2649Y2D01*
X2648Y2D01*
X2647Y2D01*
X2646Y2D01*
X2645Y2D01*
X2644Y2D01*
X2643Y2D01*
X2642Y2D01*
X2641Y2D01*
X2640Y2D01*
X2639Y2D01*
X2638Y2D01*
X2637Y2D01*
X2636Y2D01*
X2635Y2D01*
X2634Y2D01*
X2633Y2D01*
X2632Y2D01*
X2631Y2D01*
X2630Y2D01*
X2629Y2D01*
X2628Y2D01*
X2627Y2D01*
X2626Y2D01*
X2625Y2D01*
X2624Y2D01*
X2623Y2D01*
X2622Y2D01*
X2621Y2D01*
X2620Y2D01*
X2619Y2D01*
X2618Y2D01*
X2617Y2D01*
X2616Y2D01*
X2615Y2D01*
X2614Y2D01*
X2613Y2D01*
X2612Y2D01*
X2611Y2D01*
X2610Y2D01*
X2609Y2D01*
X2608Y2D01*
X2607Y2D01*
X2606Y2D01*
X2605Y2D01*
X2604Y2D01*
X2603Y2D01*
X2602Y2D01*
X2601Y2D01*
X2600Y2D01*
X2599Y2D01*
X2598Y2D01*
X2597Y2D01*
X2596Y2D01*
X2595Y2D01*
X2594Y2D01*
X2593Y2D01*
X2592Y2D01*
X2591Y2D01*
X2590Y2D01*
X2589Y2D01*
X2588Y2D01*
X2587Y2D01*
X2586Y2D01*
X2585Y2D01*
X2584Y2D01*
X2583Y2D01*
X2582Y2D01*
X2581Y2D01*
X2580Y2D01*
X2579Y2D01*
X2578Y2D01*
X2577Y2D01*
X2576Y2D01*
X2575Y2D01*
X2574Y2D01*
X2573Y2D01*
X2572Y2D01*
X2571Y2D01*
X2570Y2D01*
X2569Y2D01*
X2568Y2D01*
X2567Y2D01*
X2566Y2D01*
X2565Y2D01*
X2564Y2D01*
X2563Y2D01*
X2562Y2D01*
X2561Y2D01*
X2560Y2D01*
X2559Y2D01*
X2558Y2D01*
X2557Y2D01*
X2556Y2D01*
X2555Y2D01*
X2554Y2D01*
X2553Y2D01*
X2552Y2D01*
X2551Y2D01*
X2550Y2D01*
X2549Y2D01*
X2548Y2D01*
X2547Y2D01*
X2546Y2D01*
X2545Y2D01*
X2544Y2D01*
X2543Y2D01*
X2542Y2D01*
X2541Y2D01*
X2540Y2D01*
X2539Y2D01*
X2538Y2D01*
X2537Y2D01*
X2536Y2D01*
X2535Y2D01*
X2534Y2D01*
X2533Y2D01*
X2532Y2D01*
X2531Y2D01*
X2530Y2D01*
X2529Y2D01*
X2528Y2D01*
X2527Y2D01*
X2526Y2D01*
X2525Y2D01*
X2524Y2D01*
X2523Y2D01*
X2522Y2D01*
X2521Y2D01*
X2520Y2D01*
X2519Y2D01*
X2518Y2D01*
X2517Y2D01*
X2516Y2D01*
X2515Y2D01*
X2514Y2D01*
X2513Y2D01*
X2512Y2D01*
X2511Y2D01*
X2510Y2D01*
X2509Y2D01*
X2508Y2D01*
X2507Y2D01*
X2506Y2D01*
X2505Y2D01*
X2504Y2D01*
X2503Y2D01*
X2502Y2D01*
X2501Y2D01*
X2500Y2D01*
X2499Y2D01*
X2498Y2D01*
X2497Y2D01*
X2496Y2D01*
X2495Y2D01*
X2494Y2D01*
X2493Y2D01*
X2492Y2D01*
X2491Y2D01*
X2490Y2D01*
X2489Y2D01*
X2488Y2D01*
X2487Y2D01*
X2486Y2D01*
X2485Y2D01*
X2484Y2D01*
X2483Y2D01*
X2482Y2D01*
X2481Y2D01*
X2480Y2D01*
X2479Y2D01*
X2478Y2D01*
X2477Y2D01*
X2476Y2D01*
X2475Y2D01*
X2474Y2D01*
X2473Y2D01*
X2472Y2D01*
X2471Y2D01*
X2470Y2D01*
X2469Y2D01*
X2468Y2D01*
X2467Y2D01*
X2466Y2D01*
X2465Y2D01*
X2464Y2D01*
X2463Y2D01*
X2462Y2D01*
X2461Y2D01*
X2460Y2D01*
X2459Y2D01*
X2458Y2D01*
X2457Y2D01*
X2456Y2D01*
X2455Y2D01*
X2454Y2D01*
X2453Y2D01*
X2452Y2D01*
X2451Y2D01*
X2450Y2D01*
X2449Y2D01*
X2448Y2D01*
X2447Y2D01*
X2446Y2D01*
X2445Y2D01*
X2444Y2D01*
X2443Y2D01*
X2442Y2D01*
X2441Y2D01*
X2440Y2D01*
X2439Y2D01*
X2438Y2D01*
X2437Y2D01*
X2436Y2D01*
X2435Y2D01*
X2434Y2D01*
X2433Y2D01*
X2432Y2D01*
X2431Y2D01*
X2430Y2D01*
X2429Y2D01*
X2428Y2D01*
X2427Y2D01*
X2426Y2D01*
X2425Y2D01*
X2424Y2D01*
X2423Y2D01*
X2422Y2D01*
X2421Y2D01*
X2420Y2D01*
X2419Y2D01*
X2418Y2D01*
X2417Y2D01*
X2416Y2D01*
X2415Y2D01*
X2414Y2D01*
X2413Y2D01*
X2412Y2D01*
X2411Y2D01*
X2410Y2D01*
X2409Y2D01*
X2408Y2D01*
X2407Y2D01*
X2406Y2D01*
X2405Y2D01*
X2404Y2D01*
X2403Y2D01*
X2402Y2D01*
X2401Y2D01*
X2400Y2D01*
X2399Y2D01*
X2398Y2D01*
X2397Y2D01*
X2396Y2D01*
X2395Y2D01*
X2394Y2D01*
X2393Y2D01*
X2392Y2D01*
X2391Y2D01*
X2390Y2D01*
X2389Y2D01*
X2388Y2D01*
X2387Y2D01*
X2386Y2D01*
X2385Y2D01*
X2384Y2D01*
X2383Y2D01*
X2382Y2D01*
X2381Y2D01*
X2380Y2D01*
X2379Y2D01*
X2378Y2D01*
X2377Y2D01*
X2376Y2D01*
X2375Y2D01*
X2374Y2D01*
X2373Y2D01*
X2372Y2D01*
X2371Y2D01*
X2370Y2D01*
X2369Y2D01*
X2368Y2D01*
X2367Y2D01*
X2366Y2D01*
X2365Y2D01*
X2364Y2D01*
X2363Y2D01*
X2362Y2D01*
X2361Y2D01*
X2360Y2D01*
X2359Y2D01*
X2358Y2D01*
X2357Y2D01*
X2356Y2D01*
X2355Y2D01*
X2354Y2D01*
X2353Y2D01*
X2352Y2D01*
X2351Y2D01*
X2350Y2D01*
X2349Y2D01*
X2348Y2D01*
X2347Y2D01*
X2346Y2D01*
X2345Y2D01*
X2344Y2D01*
X2343Y2D01*
X2342Y2D01*
X2341Y2D01*
X2340Y2D01*
X2339Y2D01*
X2338Y2D01*
X2337Y2D01*
X2336Y2D01*
X2335Y2D01*
X2334Y2D01*
X2333Y2D01*
X2332Y2D01*
X2331Y2D01*
X2330Y2D01*
X2329Y2D01*
X2328Y2D01*
X2327Y2D01*
X2326Y2D01*
X2325Y2D01*
X2324Y2D01*
X2323Y2D01*
X2322Y2D01*
X2321Y2D01*
X2320Y2D01*
X2319Y2D01*
X2318Y2D01*
X2317Y2D01*
X2316Y2D01*
X2315Y2D01*
X2314Y2D01*
X2313Y2D01*
X2312Y2D01*
X2311Y2D01*
X2310Y2D01*
X2309Y2D01*
X2308Y2D01*
X2307Y2D01*
X2306Y2D01*
X2305Y2D01*
X2304Y2D01*
X2303Y2D01*
X2302Y2D01*
X2301Y2D01*
X2300Y2D01*
X2299Y2D01*
X2298Y2D01*
X2297Y2D01*
X2296Y2D01*
X2295Y2D01*
X2294Y2D01*
X2293Y2D01*
X2292Y2D01*
X2291Y2D01*
X2290Y2D01*
X2289Y2D01*
X2288Y2D01*
X2287Y2D01*
X2286Y2D01*
X2285Y2D01*
X2284Y2D01*
X2283Y2D01*
X2282Y2D01*
X2281Y2D01*
X2280Y2D01*
X2279Y2D01*
X2278Y2D01*
X2277Y2D01*
X2276Y2D01*
X2275Y2D01*
X2274Y2D01*
X2273Y2D01*
X2272Y2D01*
X2271Y2D01*
X2270Y2D01*
X2269Y2D01*
X2268Y2D01*
X2267Y2D01*
X2266Y2D01*
X2265Y2D01*
X2264Y2D01*
X2263Y2D01*
X2262Y2D01*
X2261Y2D01*
X2260Y2D01*
X2259Y2D01*
X2258Y2D01*
X2257Y2D01*
X2256Y2D01*
X2255Y2D01*
X2254Y2D01*
X2253Y2D01*
X2252Y2D01*
X2251Y2D01*
X2250Y2D01*
X2249Y2D01*
X2248Y2D01*
X2247Y2D01*
X2246Y2D01*
X2245Y2D01*
X2244Y2D01*
X2243Y2D01*
X2242Y2D01*
X2241Y2D01*
X2240Y2D01*
X2239Y2D01*
X2238Y2D01*
X2237Y2D01*
X2236Y2D01*
X2235Y2D01*
X2234Y2D01*
X2233Y2D01*
X2232Y2D01*
X2231Y2D01*
X2230Y2D01*
X2229Y2D01*
X2228Y2D01*
X2227Y2D01*
X2226Y2D01*
X2225Y2D01*
X2224Y2D01*
X2223Y2D01*
X2222Y2D01*
X2221Y2D01*
X2220Y2D01*
X2219Y2D01*
X2218Y2D01*
X2217Y2D01*
X2216Y2D01*
X2215Y2D01*
X2214Y2D01*
X2213Y2D01*
X2212Y2D01*
X2211Y2D01*
X2210Y2D01*
X2209Y2D01*
X2208Y2D01*
X2207Y2D01*
X2206Y2D01*
X2205Y2D01*
X2204Y2D01*
X2203Y2D01*
X2202Y2D01*
X2201Y2D01*
X2200Y2D01*
X2199Y2D01*
X2198Y2D01*
X2197Y2D01*
X2196Y2D01*
X2195Y2D01*
X2194Y2D01*
X2193Y2D01*
X2192Y2D01*
X2191Y2D01*
X2190Y2D01*
X2189Y2D01*
X2188Y2D01*
X2187Y2D01*
X2186Y2D01*
X2185Y2D01*
X2184Y2D01*
X2183Y2D01*
X2182Y2D01*
X2181Y2D01*
X2180Y2D01*
X2179Y2D01*
X2178Y2D01*
X2177Y2D01*
X2176Y2D01*
X2175Y2D01*
X2174Y2D01*
X2173Y2D01*
X2172Y2D01*
X2171Y2D01*
X2170Y2D01*
X2169Y2D01*
X2168Y2D01*
X2167Y2D01*
X2166Y2D01*
X2165Y2D01*
X2164Y2D01*
X2163Y2D01*
X2162Y2D01*
X2161Y2D01*
X2160Y2D01*
X2159Y2D01*
X2158Y2D01*
X2157Y2D01*
X2156Y2D01*
X2155Y2D01*
X2154Y2D01*
X2153Y2D01*
X2152Y2D01*
X2151Y2D01*
X2150Y2D01*
X2149Y2D01*
X2148Y2D01*
X2147Y2D01*
X2146Y2D01*
X2145Y2D01*
X2144Y2D01*
X2143Y2D01*
X2142Y2D01*
X2141Y2D01*
X2140Y2D01*
X2139Y2D01*
X2138Y2D01*
X2137Y2D01*
X2136Y2D01*
X2135Y2D01*
X2134Y2D01*
X2133Y2D01*
X2132Y2D01*
X2131Y2D01*
X2130Y2D01*
X2129Y2D01*
X2128Y2D01*
X2127Y2D01*
X2126Y2D01*
X2125Y2D01*
X2124Y2D01*
X2123Y2D01*
X2122Y2D01*
X2121Y2D01*
X2120Y2D01*
X2119Y2D01*
X2118Y2D01*
X2117Y2D01*
X2116Y2D01*
X2115Y2D01*
X2114Y2D01*
X2113Y2D01*
X2112Y2D01*
X2111Y2D01*
X2110Y2D01*
X2109Y2D01*
X2108Y2D01*
X2107Y2D01*
X2106Y2D01*
X2105Y2D01*
X2104Y2D01*
X2103Y2D01*
X2102Y2D01*
X2101Y2D01*
X2100Y2D01*
X2099Y2D01*
X2098Y2D01*
X2097Y2D01*
X2096Y2D01*
X2095Y2D01*
X2094Y2D01*
X2093Y2D01*
X2092Y2D01*
X2091Y2D01*
X2090Y2D01*
X2089Y2D01*
X2088Y2D01*
X2087Y2D01*
X2086Y2D01*
X2085Y2D01*
X2084Y2D01*
X2083Y2D01*
X2082Y2D01*
X2081Y2D01*
X2080Y2D01*
X2079Y2D01*
X2078Y2D01*
X2077Y2D01*
X2076Y2D01*
X2075Y2D01*
X2074Y2D01*
X2073Y2D01*
X2072Y2D01*
X2071Y2D01*
X2070Y2D01*
X2069Y2D01*
X2068Y2D01*
X2067Y2D01*
X2066Y2D01*
X2065Y2D01*
X2064Y2D01*
X2063Y2D01*
X2062Y2D01*
X2061Y2D01*
X2060Y2D01*
X2059Y2D01*
X2058Y2D01*
X2057Y2D01*
X2056Y2D01*
X2055Y2D01*
X2054Y2D01*
X2053Y2D01*
X2052Y2D01*
X2051Y2D01*
X2050Y2D01*
X2049Y2D01*
X2048Y2D01*
X2047Y2D01*
X2046Y2D01*
X2045Y2D01*
X2044Y2D01*
X2043Y2D01*
X2042Y2D01*
X2041Y2D01*
X2040Y2D01*
X2039Y2D01*
X2038Y2D01*
X2037Y2D01*
X2036Y2D01*
X2035Y2D01*
X2034Y2D01*
X2033Y2D01*
X2032Y2D01*
X2031Y2D01*
X2030Y2D01*
X2029Y2D01*
X2028Y2D01*
X2027Y2D01*
X2026Y2D01*
X2025Y2D01*
X2024Y2D01*
X2023Y2D01*
X2022Y2D01*
X2021Y2D01*
X2020Y2D01*
X2019Y2D01*
X2018Y2D01*
X2017Y2D01*
X2016Y2D01*
X2015Y2D01*
X2014Y2D01*
X2013Y2D01*
X2012Y2D01*
X2011Y2D01*
X2010Y2D01*
X2009Y2D01*
X2008Y2D01*
X2007Y2D01*
X2006Y2D01*
X2005Y2D01*
X2004Y2D01*
X2003Y2D01*
X2002Y2D01*
X2001Y2D01*
X2000Y2D01*
X1999Y2D01*
X1998Y2D01*
X1997Y2D01*
X1996Y2D01*
X1995Y2D01*
X1994Y2D01*
X1993Y2D01*
X1992Y2D01*
X1991Y2D01*
X1990Y2D01*
X1989Y2D01*
X1988Y2D01*
X1987Y2D01*
X1986Y2D01*
X1985Y2D01*
X1984Y2D01*
X1983Y2D01*
X1982Y2D01*
X1981Y2D01*
X1980Y2D01*
X1979Y2D01*
X1978Y2D01*
X1977Y2D01*
X1976Y2D01*
X1975Y2D01*
X1974Y2D01*
X1973Y2D01*
X1972Y2D01*
X1971Y2D01*
X1970Y2D01*
X1969Y2D01*
X1968Y2D01*
X1967Y2D01*
X1966Y2D01*
X1965Y2D01*
X1964Y2D01*
X1963Y2D01*
X1962Y2D01*
X1961Y2D01*
X1960Y2D01*
X1959Y2D01*
X1958Y2D01*
X1957Y2D01*
X1956Y2D01*
X1955Y2D01*
X1954Y2D01*
X1953Y2D01*
X1952Y2D01*
X1951Y2D01*
X1950Y2D01*
X1949Y2D01*
X1948Y2D01*
X1947Y2D01*
X1946Y2D01*
X1945Y2D01*
X1944Y2D01*
X1943Y2D01*
X1942Y2D01*
X1941Y2D01*
X1940Y2D01*
X1939Y2D01*
X1938Y2D01*
X1937Y2D01*
X1936Y2D01*
X1935Y2D01*
X1934Y2D01*
X1933Y2D01*
X1932Y2D01*
X1931Y2D01*
X1930Y2D01*
X1929Y2D01*
X1928Y2D01*
X1927Y2D01*
X1926Y2D01*
X1925Y2D01*
X1924Y2D01*
X1923Y2D01*
X1922Y2D01*
X1921Y2D01*
X1920Y2D01*
X1919Y2D01*
X1918Y2D01*
X1917Y2D01*
X1916Y2D01*
X1915Y2D01*
X1914Y2D01*
X1913Y2D01*
X1912Y2D01*
X1911Y2D01*
X1910Y2D01*
X1909Y2D01*
X1908Y2D01*
X1907Y2D01*
X1906Y2D01*
X1905Y2D01*
X1904Y2D01*
X1903Y2D01*
X1902Y2D01*
X1901Y2D01*
X1900Y2D01*
X1899Y2D01*
X1898Y2D01*
X1897Y2D01*
X1896Y2D01*
X1895Y2D01*
X1894Y2D01*
X1893Y2D01*
X1892Y2D01*
X1891Y2D01*
X1890Y2D01*
X1889Y2D01*
X1888Y2D01*
X1887Y2D01*
X1886Y2D01*
X1885Y2D01*
X1884Y2D01*
X1883Y2D01*
X1882Y2D01*
X1881Y2D01*
X1880Y2D01*
X1879Y2D01*
X1878Y2D01*
X1877Y2D01*
X1876Y2D01*
X1875Y2D01*
X1874Y2D01*
X1873Y2D01*
X1872Y2D01*
X1871Y2D01*
X1870Y2D01*
X1869Y2D01*
X1868Y2D01*
X1867Y2D01*
X1866Y2D01*
X1865Y2D01*
X1864Y2D01*
X1863Y2D01*
X1862Y2D01*
X1861Y2D01*
X1860Y2D01*
X1859Y2D01*
X1858Y2D01*
X1857Y2D01*
X1856Y2D01*
X1855Y2D01*
X1854Y2D01*
X1853Y2D01*
X1852Y2D01*
X1851Y2D01*
X1850Y2D01*
X1849Y2D01*
X1848Y2D01*
X1847Y2D01*
X1846Y2D01*
X1845Y2D01*
X1844Y2D01*
X1843Y2D01*
X1842Y2D01*
X1841Y2D01*
X1840Y2D01*
X1839Y2D01*
X1838Y2D01*
X1837Y2D01*
X1836Y2D01*
X1835Y2D01*
X1834Y2D01*
X1833Y2D01*
X1832Y2D01*
X1831Y2D01*
X1830Y2D01*
X1829Y2D01*
X1828Y2D01*
X1827Y2D01*
X1826Y2D01*
X1825Y2D01*
X1824Y2D01*
X1823Y2D01*
X1822Y2D01*
X1821Y2D01*
X1820Y2D01*
X1819Y2D01*
X1818Y2D01*
X1817Y2D01*
X1816Y2D01*
X1815Y2D01*
X1814Y2D01*
X1813Y2D01*
X1812Y2D01*
X1811Y2D01*
X1810Y2D01*
X1809Y2D01*
X1808Y2D01*
X1807Y2D01*
X1806Y2D01*
X1805Y2D01*
X1804Y2D01*
X1803Y2D01*
X1802Y2D01*
X1801Y2D01*
X1800Y2D01*
X1799Y2D01*
X1798Y2D01*
X1797Y2D01*
X1796Y2D01*
X1795Y2D01*
X1794Y2D01*
X1793Y2D01*
X1792Y2D01*
X1791Y2D01*
X1790Y2D01*
X1789Y2D01*
X1788Y2D01*
X1787Y2D01*
X1786Y2D01*
X1785Y2D01*
X1784Y2D01*
X1783Y2D01*
X1782Y2D01*
X1781Y2D01*
X1780Y2D01*
X1779Y2D01*
X1778Y2D01*
X1777Y2D01*
X1776Y2D01*
X1775Y2D01*
X1774Y2D01*
X1773Y2D01*
X1772Y2D01*
X1771Y2D01*
X1770Y2D01*
X1769Y2D01*
X1768Y2D01*
X1767Y2D01*
X1766Y2D01*
X1765Y2D01*
X1764Y2D01*
X1763Y2D01*
X1762Y2D01*
X1761Y2D01*
X1760Y2D01*
X1759Y2D01*
X1758Y2D01*
X1757Y2D01*
X1756Y2D01*
X1755Y2D01*
X1754Y2D01*
X1753Y2D01*
X1752Y2D01*
X1751Y2D01*
X1750Y2D01*
X1749Y2D01*
X1748Y2D01*
X1747Y2D01*
X1746Y2D01*
X1745Y2D01*
X1744Y2D01*
X1743Y2D01*
X1742Y2D01*
X1741Y2D01*
X1740Y2D01*
X1739Y2D01*
X1738Y2D01*
X1737Y2D01*
X1736Y2D01*
X1735Y2D01*
X1734Y2D01*
X1733Y2D01*
X1732Y2D01*
X1731Y2D01*
X1730Y2D01*
X1729Y2D01*
X1728Y2D01*
X1727Y2D01*
X1726Y2D01*
X1725Y2D01*
X1724Y2D01*
X1723Y2D01*
X1722Y2D01*
X1721Y2D01*
X1720Y2D01*
X1719Y2D01*
X1718Y2D01*
X1717Y2D01*
X1716Y2D01*
X1715Y2D01*
X1714Y2D01*
X1713Y2D01*
X1712Y2D01*
X1711Y2D01*
X1710Y2D01*
X1709Y2D01*
X1708Y2D01*
X1707Y2D01*
X1706Y2D01*
X1705Y2D01*
X1704Y2D01*
X1703Y2D01*
X1702Y2D01*
X1701Y2D01*
X1700Y2D01*
X1699Y2D01*
X1698Y2D01*
X1697Y2D01*
X1696Y2D01*
X1695Y2D01*
X1694Y2D01*
X1693Y2D01*
X1692Y2D01*
X1691Y2D01*
X1690Y2D01*
X1689Y2D01*
X1688Y2D01*
X1687Y2D01*
X1686Y2D01*
X1685Y2D01*
X1684Y2D01*
X1683Y2D01*
X1682Y2D01*
X1681Y2D01*
X1680Y2D01*
X1679Y2D01*
X1678Y2D01*
X1677Y2D01*
X1676Y2D01*
X1675Y2D01*
X1674Y2D01*
X1673Y2D01*
X1672Y2D01*
X1671Y2D01*
X1670Y2D01*
X1669Y2D01*
X1668Y2D01*
X1667Y2D01*
X1666Y2D01*
X1665Y2D01*
X1664Y2D01*
X1663Y2D01*
X1662Y2D01*
X1661Y2D01*
X1660Y2D01*
X1659Y2D01*
X1658Y2D01*
X1657Y2D01*
X1656Y2D01*
X1655Y2D01*
X1654Y2D01*
X1653Y2D01*
X1652Y2D01*
X1651Y2D01*
X1650Y2D01*
X1649Y2D01*
X1648Y2D01*
X1647Y2D01*
X1646Y2D01*
X1645Y2D01*
X1644Y2D01*
X1643Y2D01*
X1642Y2D01*
X1641Y2D01*
X1640Y2D01*
X1639Y2D01*
X1638Y2D01*
X1637Y2D01*
X1636Y2D01*
X1635Y2D01*
X1634Y2D01*
X1633Y2D01*
X1632Y2D01*
X1631Y2D01*
X1630Y2D01*
X1629Y2D01*
X1628Y2D01*
X1627Y2D01*
X1626Y2D01*
X1625Y2D01*
X1624Y2D01*
X1623Y2D01*
X1622Y2D01*
X1621Y2D01*
X1620Y2D01*
X1619Y2D01*
X1618Y2D01*
X1617Y2D01*
X1616Y2D01*
X1615Y2D01*
X1614Y2D01*
X1613Y2D01*
X1612Y2D01*
X1611Y2D01*
X1610Y2D01*
X1609Y2D01*
X1608Y2D01*
X1607Y2D01*
X1606Y2D01*
X1605Y2D01*
X1604Y2D01*
X1603Y2D01*
X1602Y2D01*
X1601Y2D01*
X1600Y2D01*
X1599Y2D01*
X1598Y2D01*
X1597Y2D01*
X1596Y2D01*
X1595Y2D01*
X1594Y2D01*
X1593Y2D01*
X1592Y2D01*
X1591Y2D01*
X1590Y2D01*
X1589Y2D01*
X1588Y2D01*
X1587Y2D01*
X1586Y2D01*
X1585Y2D01*
X1584Y2D01*
X1583Y2D01*
X1582Y2D01*
X1581Y2D01*
X1580Y2D01*
X1579Y2D01*
X1578Y2D01*
X1577Y2D01*
X1576Y2D01*
X1575Y2D01*
X1574Y2D01*
X1573Y2D01*
X1572Y2D01*
X1571Y2D01*
X1570Y2D01*
X1569Y2D01*
X1568Y2D01*
X1567Y2D01*
X1566Y2D01*
X1565Y2D01*
X1564Y2D01*
X1563Y2D01*
X1562Y2D01*
X1561Y2D01*
X1560Y2D01*
X1559Y2D01*
X1558Y2D01*
X1557Y2D01*
X1556Y2D01*
X1555Y2D01*
X1554Y2D01*
X1553Y2D01*
X1552Y2D01*
X1551Y2D01*
X1550Y2D01*
X1549Y2D01*
X1548Y2D01*
X1547Y2D01*
X1546Y2D01*
X1545Y2D01*
X1544Y2D01*
X1543Y2D01*
X1542Y2D01*
X1541Y2D01*
X1540Y2D01*
X1539Y2D01*
X1538Y2D01*
X1537Y2D01*
X1536Y2D01*
X1535Y2D01*
X1534Y2D01*
X1533Y2D01*
X1532Y2D01*
X1531Y2D01*
X1530Y2D01*
X1529Y2D01*
X1528Y2D01*
X1527Y2D01*
X1526Y2D01*
X1525Y2D01*
X1524Y2D01*
X1523Y2D01*
X1522Y2D01*
X1521Y2D01*
X1520Y2D01*
X1519Y2D01*
X1518Y2D01*
X1517Y2D01*
X1516Y2D01*
X1515Y2D01*
X1514Y2D01*
X1513Y2D01*
X1512Y2D01*
X1511Y2D01*
X1510Y2D01*
X1509Y2D01*
X1508Y2D01*
X1507Y2D01*
X1506Y2D01*
X1505Y2D01*
X1504Y2D01*
X1503Y2D01*
X1502Y2D01*
X1501Y2D01*
X1500Y2D01*
X1499Y2D01*
X1498Y2D01*
X1497Y2D01*
X1496Y2D01*
X1495Y2D01*
X1494Y2D01*
X1493Y2D01*
X1492Y2D01*
X1491Y2D01*
X1490Y2D01*
X1489Y2D01*
X1488Y2D01*
X1487Y2D01*
X1486Y2D01*
X1485Y2D01*
X1484Y2D01*
X1483Y2D01*
X1482Y2D01*
X1481Y2D01*
X1480Y2D01*
X1479Y2D01*
X1478Y2D01*
X1477Y2D01*
X1476Y2D01*
X1475Y2D01*
X1474Y2D01*
X1473Y2D01*
X1472Y2D01*
X1471Y2D01*
X1470Y2D01*
X1469Y2D01*
X1468Y2D01*
X1467Y2D01*
X1466Y2D01*
X1465Y2D01*
X1464Y2D01*
X1463Y2D01*
X1462Y2D01*
X1461Y2D01*
X1460Y2D01*
X1459Y2D01*
X1458Y2D01*
X1457Y2D01*
X1456Y2D01*
X1455Y2D01*
X1454Y2D01*
X1453Y2D01*
X1452Y2D01*
X1451Y2D01*
X1450Y2D01*
X1449Y2D01*
X1448Y2D01*
X1447Y2D01*
X1446Y2D01*
X1445Y2D01*
X1444Y2D01*
X1443Y2D01*
X1442Y2D01*
X1441Y2D01*
X1440Y2D01*
X1439Y2D01*
X1438Y2D01*
X1437Y2D01*
X1436Y2D01*
X1435Y2D01*
X1434Y2D01*
X1433Y2D01*
X1432Y2D01*
X1431Y2D01*
X1430Y2D01*
X1429Y2D01*
X1428Y2D01*
X1427Y2D01*
X1426Y2D01*
X1425Y2D01*
X1424Y2D01*
X1423Y2D01*
X1422Y2D01*
X1421Y2D01*
X1420Y2D01*
X1419Y2D01*
X1418Y2D01*
X1417Y2D01*
X1416Y2D01*
X1415Y2D01*
X1414Y2D01*
X1413Y2D01*
X1412Y2D01*
X1411Y2D01*
X1410Y2D01*
X1409Y2D01*
X1408Y2D01*
X1407Y2D01*
X1406Y2D01*
X1405Y2D01*
X1404Y2D01*
X1403Y2D01*
X1402Y2D01*
X1401Y2D01*
X1400Y2D01*
X1399Y2D01*
X1398Y2D01*
X1397Y2D01*
X1396Y2D01*
X1395Y2D01*
X1394Y2D01*
X1393Y2D01*
X1392Y2D01*
X1391Y2D01*
X1390Y2D01*
X1389Y2D01*
X1388Y2D01*
X1387Y2D01*
X1386Y2D01*
X1385Y2D01*
X1384Y2D01*
X1383Y2D01*
X1382Y2D01*
X1381Y2D01*
X1380Y2D01*
X1379Y2D01*
X1378Y2D01*
X1377Y2D01*
X1376Y2D01*
X1375Y2D01*
X1374Y2D01*
X1373Y2D01*
X1372Y2D01*
X1371Y2D01*
X1370Y2D01*
X1369Y2D01*
X1368Y2D01*
X1367Y2D01*
X1366Y2D01*
X1365Y2D01*
X1364Y2D01*
X1363Y2D01*
X1362Y2D01*
X1361Y2D01*
X1360Y2D01*
X1359Y2D01*
X1358Y2D01*
X1357Y2D01*
X1356Y2D01*
X1355Y2D01*
X1354Y2D01*
X1353Y2D01*
X1352Y2D01*
X1351Y2D01*
X1350Y2D01*
X1349Y2D01*
X1348Y2D01*
X1347Y2D01*
X1346Y2D01*
X1345Y2D01*
X1344Y2D01*
X1343Y2D01*
X1342Y2D01*
X1341Y2D01*
X1340Y2D01*
X1339Y2D01*
X1338Y2D01*
X1337Y2D01*
X1336Y2D01*
X1335Y2D01*
X1334Y2D01*
X1333Y2D01*
X1332Y2D01*
X1331Y2D01*
X1330Y2D01*
X1329Y2D01*
X1328Y2D01*
X1327Y2D01*
X1326Y2D01*
X1325Y2D01*
X1324Y2D01*
X1323Y2D01*
X1322Y2D01*
X1321Y2D01*
X1320Y2D01*
X1319Y2D01*
X1318Y2D01*
X1317Y2D01*
X1316Y2D01*
X1315Y2D01*
X1314Y2D01*
X1313Y2D01*
X1312Y2D01*
X1311Y2D01*
X1310Y2D01*
X1309Y2D01*
X1308Y2D01*
X1307Y2D01*
X1306Y2D01*
X1305Y2D01*
X1304Y2D01*
X1303Y2D01*
X1302Y2D01*
X1301Y2D01*
X1300Y2D01*
X1299Y2D01*
X1298Y2D01*
X1297Y2D01*
X1296Y2D01*
X1295Y2D01*
X1294Y2D01*
X1293Y2D01*
X1292Y2D01*
X1291Y2D01*
X1290Y2D01*
X1289Y2D01*
X1288Y2D01*
X1287Y2D01*
X1286Y2D01*
X1285Y2D01*
X1284Y2D01*
X1283Y2D01*
X1282Y2D01*
X1281Y2D01*
X1280Y2D01*
X1279Y2D01*
X1278Y2D01*
X1277Y2D01*
X1276Y2D01*
X1275Y2D01*
X1274Y2D01*
X1273Y2D01*
X1272Y2D01*
X1271Y2D01*
X1270Y2D01*
X1269Y2D01*
X1268Y2D01*
X1267Y2D01*
X1266Y2D01*
X1265Y2D01*
X1264Y2D01*
X1263Y2D01*
X1262Y2D01*
X1261Y2D01*
X1260Y2D01*
X1259Y2D01*
X1258Y2D01*
X1257Y2D01*
X1256Y2D01*
X1255Y2D01*
X1254Y2D01*
X1253Y2D01*
X1252Y2D01*
X1251Y2D01*
X1250Y2D01*
X1249Y2D01*
X1248Y2D01*
X1247Y2D01*
X1246Y2D01*
X1245Y2D01*
X1244Y2D01*
X1243Y2D01*
X1242Y2D01*
X1241Y2D01*
X1240Y2D01*
X1239Y2D01*
X1238Y2D01*
X1237Y2D01*
X1236Y2D01*
X1235Y2D01*
X1234Y2D01*
X1233Y2D01*
X1232Y2D01*
X1231Y2D01*
X1230Y2D01*
X1229Y2D01*
X1228Y2D01*
X1227Y2D01*
X1226Y2D01*
X1225Y2D01*
X1224Y2D01*
X1223Y2D01*
X1222Y2D01*
X1221Y2D01*
X1220Y2D01*
X1219Y2D01*
X1218Y2D01*
X1217Y2D01*
X1216Y2D01*
X1215Y2D01*
X1214Y2D01*
X1213Y2D01*
X1212Y2D01*
X1211Y2D01*
X1210Y2D01*
X1209Y2D01*
X1208Y2D01*
X1207Y2D01*
X1206Y2D01*
X1205Y2D01*
X1204Y2D01*
X1203Y2D01*
X1202Y2D01*
X1201Y2D01*
X1200Y2D01*
X1199Y2D01*
X1198Y2D01*
X1197Y2D01*
X1196Y2D01*
X1195Y2D01*
X1194Y2D01*
X1193Y2D01*
X1192Y2D01*
X1191Y2D01*
X1190Y2D01*
X1189Y2D01*
X1188Y2D01*
X1187Y2D01*
X1186Y2D01*
X1185Y2D01*
X1184Y2D01*
X1183Y2D01*
X1182Y2D01*
X1181Y2D01*
X1180Y2D01*
X1179Y2D01*
X1178Y2D01*
X1177Y2D01*
X1176Y2D01*
X1175Y2D01*
X1174Y2D01*
X1173Y2D01*
X1172Y2D01*
X1171Y2D01*
X1170Y2D01*
X1169Y2D01*
X1168Y2D01*
X1167Y2D01*
X1166Y2D01*
X1165Y2D01*
X1164Y2D01*
X1163Y2D01*
X1162Y2D01*
X1161Y2D01*
X1160Y2D01*
X1159Y2D01*
X1158Y2D01*
X1157Y2D01*
X1156Y2D01*
X1155Y2D01*
X1154Y2D01*
X1153Y2D01*
X1152Y2D01*
X1151Y2D01*
X1150Y2D01*
X1149Y2D01*
X1148Y2D01*
X1147Y2D01*
X1146Y2D01*
X1145Y2D01*
X1144Y2D01*
X1143Y2D01*
X1142Y2D01*
X1141Y2D01*
X1140Y2D01*
X1139Y2D01*
X1138Y2D01*
X1137Y2D01*
X1136Y2D01*
X1135Y2D01*
X1134Y2D01*
X1133Y2D01*
X1132Y2D01*
X1131Y2D01*
X1130Y2D01*
X1129Y2D01*
X1128Y2D01*
X1127Y2D01*
X1126Y2D01*
X1125Y2D01*
X1124Y2D01*
X1123Y2D01*
X1122Y2D01*
X1121Y2D01*
X1120Y2D01*
X1119Y2D01*
X1118Y2D01*
X1117Y2D01*
X1116Y2D01*
X1115Y2D01*
X1114Y2D01*
X1113Y2D01*
X1112Y2D01*
X1111Y2D01*
X1110Y2D01*
X1109Y2D01*
X1108Y2D01*
X1107Y2D01*
X1106Y2D01*
X1105Y2D01*
X1104Y2D01*
X1103Y2D01*
X1102Y2D01*
X1101Y2D01*
X1100Y2D01*
X1099Y2D01*
X1098Y2D01*
X1097Y2D01*
X1096Y2D01*
X1095Y2D01*
X1094Y2D01*
X1093Y2D01*
X1092Y2D01*
X1091Y2D01*
X1090Y2D01*
X1089Y2D01*
X1088Y2D01*
X1087Y2D01*
X1086Y2D01*
X1085Y2D01*
X1084Y2D01*
X1083Y2D01*
X1082Y2D01*
X1081Y2D01*
X1080Y2D01*
X1079Y2D01*
X1078Y2D01*
X1077Y2D01*
X1076Y2D01*
X1075Y2D01*
X1074Y2D01*
X1073Y2D01*
X1072Y2D01*
X1071Y2D01*
X1070Y2D01*
X1069Y2D01*
X1068Y2D01*
X1067Y2D01*
X1066Y2D01*
X1065Y2D01*
X1064Y2D01*
X1063Y2D01*
X1062Y2D01*
X1061Y2D01*
X1060Y2D01*
X1059Y2D01*
X1058Y2D01*
X1057Y2D01*
X1056Y2D01*
X1055Y2D01*
X1054Y2D01*
X1053Y2D01*
X1052Y2D01*
X1051Y2D01*
X1050Y2D01*
X1049Y2D01*
X1048Y2D01*
X1047Y2D01*
X1046Y2D01*
X1045Y2D01*
X1044Y2D01*
X1043Y2D01*
X1042Y2D01*
X1041Y2D01*
X1040Y2D01*
X1039Y2D01*
X1038Y2D01*
X1037Y2D01*
X1036Y2D01*
X1035Y2D01*
X1034Y2D01*
X1033Y2D01*
X1032Y2D01*
X1031Y2D01*
X1030Y2D01*
X1029Y2D01*
X1028Y2D01*
X1027Y2D01*
X1026Y2D01*
X1025Y2D01*
X1024Y2D01*
X1023Y2D01*
X1022Y2D01*
X1021Y2D01*
X1020Y2D01*
X1019Y2D01*
X1018Y2D01*
X1017Y2D01*
X1016Y2D01*
X1015Y2D01*
X1014Y2D01*
X1013Y2D01*
X1012Y2D01*
X1011Y2D01*
X1010Y2D01*
X1009Y2D01*
X1008Y2D01*
X1007Y2D01*
X1006Y2D01*
X1005Y2D01*
X1004Y2D01*
X1003Y2D01*
X1002Y2D01*
X1001Y2D01*
X1000Y2D01*
X999Y2D01*
X998Y2D01*
X997Y2D01*
X996Y2D01*
X995Y2D01*
X994Y2D01*
X993Y2D01*
X992Y2D01*
X991Y2D01*
X990Y2D01*
X989Y2D01*
X988Y2D01*
X987Y2D01*
X986Y2D01*
X985Y2D01*
X984Y2D01*
X983Y2D01*
X982Y2D01*
X981Y2D01*
X980Y2D01*
X979Y2D01*
X978Y2D01*
X977Y2D01*
X976Y2D01*
X975Y2D01*
X974Y2D01*
X973Y2D01*
X972Y2D01*
X971Y2D01*
X970Y2D01*
X969Y2D01*
X968Y2D01*
X967Y2D01*
X966Y2D01*
X965Y2D01*
X964Y2D01*
X963Y2D01*
X962Y2D01*
X961Y2D01*
X960Y2D01*
X959Y2D01*
X958Y2D01*
X957Y2D01*
X956Y2D01*
X955Y2D01*
X954Y2D01*
X953Y2D01*
X952Y2D01*
X951Y2D01*
X950Y2D01*
X949Y2D01*
X948Y2D01*
X947Y2D01*
X946Y2D01*
X945Y2D01*
X944Y2D01*
X943Y2D01*
X942Y2D01*
X941Y2D01*
X940Y2D01*
X939Y2D01*
X938Y2D01*
X937Y2D01*
X936Y2D01*
X935Y2D01*
X934Y2D01*
X933Y2D01*
X932Y2D01*
X931Y2D01*
X930Y2D01*
X929Y2D01*
X928Y2D01*
X927Y2D01*
X926Y2D01*
X925Y2D01*
X924Y2D01*
X923Y2D01*
X922Y2D01*
X921Y2D01*
X920Y2D01*
X919Y2D01*
X918Y2D01*
X917Y2D01*
X916Y2D01*
X915Y2D01*
X914Y2D01*
X913Y2D01*
X912Y2D01*
X911Y2D01*
X910Y2D01*
X909Y2D01*
X908Y2D01*
X907Y2D01*
X906Y2D01*
X905Y2D01*
X904Y2D01*
X903Y2D01*
X902Y2D01*
X901Y2D01*
X900Y2D01*
X899Y2D01*
X898Y2D01*
X897Y2D01*
X896Y2D01*
X895Y2D01*
X894Y2D01*
X893Y2D01*
X892Y2D01*
X891Y2D01*
X890Y2D01*
X889Y2D01*
X888Y2D01*
X887Y2D01*
X886Y2D01*
X885Y2D01*
X884Y2D01*
X883Y2D01*
X882Y2D01*
X881Y2D01*
X880Y2D01*
X879Y2D01*
X878Y2D01*
X877Y2D01*
X876Y2D01*
X875Y2D01*
X874Y2D01*
X873Y2D01*
X872Y2D01*
X871Y2D01*
X870Y2D01*
X869Y2D01*
X868Y2D01*
X867Y2D01*
X866Y2D01*
X865Y2D01*
X864Y2D01*
X863Y2D01*
X862Y2D01*
X861Y2D01*
X860Y2D01*
X859Y2D01*
X858Y2D01*
X857Y2D01*
X856Y2D01*
X855Y2D01*
X854Y2D01*
X853Y2D01*
X852Y2D01*
X851Y2D01*
X850Y2D01*
X849Y2D01*
X848Y2D01*
X847Y2D01*
X846Y2D01*
X845Y2D01*
X844Y2D01*
X843Y2D01*
X842Y2D01*
X841Y2D01*
X840Y2D01*
X839Y2D01*
X838Y2D01*
X837Y2D01*
X836Y2D01*
X835Y2D01*
X834Y2D01*
X833Y2D01*
X832Y2D01*
X831Y2D01*
X830Y2D01*
X829Y2D01*
X828Y2D01*
X827Y2D01*
X826Y2D01*
X825Y2D01*
X824Y2D01*
X823Y2D01*
X822Y2D01*
X821Y2D01*
X820Y2D01*
X819Y2D01*
X818Y2D01*
X817Y2D01*
X816Y2D01*
X815Y2D01*
X814Y2D01*
X813Y2D01*
X812Y2D01*
X811Y2D01*
X810Y2D01*
X809Y2D01*
X808Y2D01*
X807Y2D01*
X806Y2D01*
X805Y2D01*
X804Y2D01*
X803Y2D01*
X802Y2D01*
X801Y2D01*
X800Y2D01*
X799Y2D01*
X798Y2D01*
X797Y2D01*
X796Y2D01*
X795Y2D01*
X794Y2D01*
X793Y2D01*
X792Y2D01*
X791Y2D01*
X790Y2D01*
X789Y2D01*
X788Y2D01*
X787Y2D01*
X786Y2D01*
X785Y2D01*
X784Y2D01*
X783Y2D01*
X782Y2D01*
X781Y2D01*
X780Y2D01*
X779Y2D01*
X778Y2D01*
X777Y2D01*
X776Y2D01*
X775Y2D01*
X774Y2D01*
X773Y2D01*
X772Y2D01*
X771Y2D01*
X770Y2D01*
X769Y2D01*
X768Y2D01*
X767Y2D01*
X766Y2D01*
X765Y2D01*
X764Y2D01*
X763Y2D01*
X762Y2D01*
X761Y2D01*
X760Y2D01*
X759Y2D01*
X758Y2D01*
X757Y2D01*
X756Y2D01*
X755Y2D01*
X754Y2D01*
X753Y2D01*
X752Y2D01*
X751Y2D01*
X750Y2D01*
X749Y2D01*
X748Y2D01*
X747Y2D01*
X746Y2D01*
X745Y2D01*
X744Y2D01*
X743Y2D01*
X742Y2D01*
X741Y2D01*
X740Y2D01*
X739Y2D01*
X738Y2D01*
X737Y2D01*
X736Y2D01*
X735Y2D01*
X734Y2D01*
X733Y2D01*
X732Y2D01*
X731Y2D01*
X730Y2D01*
X729Y2D01*
X728Y2D01*
X727Y2D01*
X726Y2D01*
X725Y2D01*
X724Y2D01*
X723Y2D01*
X722Y2D01*
X721Y2D01*
X720Y2D01*
X719Y2D01*
X718Y2D01*
X717Y2D01*
X716Y2D01*
X715Y2D01*
X714Y2D01*
X713Y2D01*
X712Y2D01*
X711Y2D01*
X710Y2D01*
X709Y2D01*
X708Y2D01*
X707Y2D01*
X706Y2D01*
X705Y2D01*
X704Y2D01*
X703Y2D01*
X702Y2D01*
X701Y2D01*
X700Y2D01*
X699Y2D01*
X698Y2D01*
X697Y2D01*
X696Y2D01*
X695Y2D01*
X694Y2D01*
X693Y2D01*
X692Y2D01*
X691Y2D01*
X690Y2D01*
X689Y2D01*
X688Y2D01*
X687Y2D01*
X686Y2D01*
X685Y2D01*
X684Y2D01*
X683Y2D01*
X682Y2D01*
X681Y2D01*
X680Y2D01*
X679Y2D01*
X678Y2D01*
X677Y2D01*
X676Y2D01*
X675Y2D01*
X674Y2D01*
X673Y2D01*
X672Y2D01*
X671Y2D01*
X670Y2D01*
X669Y2D01*
X668Y2D01*
X667Y2D01*
X666Y2D01*
X665Y2D01*
X664Y2D01*
X663Y2D01*
X662Y2D01*
X661Y2D01*
X660Y2D01*
X659Y2D01*
X658Y2D01*
X657Y2D01*
X656Y2D01*
X655Y2D01*
X654Y2D01*
X653Y2D01*
X652Y2D01*
X651Y2D01*
X650Y2D01*
X649Y2D01*
X648Y2D01*
X647Y2D01*
X646Y2D01*
X645Y2D01*
X644Y2D01*
X643Y2D01*
X642Y2D01*
X641Y2D01*
X640Y2D01*
X639Y2D01*
X638Y2D01*
X637Y2D01*
X636Y2D01*
X635Y2D01*
X634Y2D01*
X633Y2D01*
X632Y2D01*
X631Y2D01*
X630Y2D01*
X629Y2D01*
X628Y2D01*
X627Y2D01*
X626Y2D01*
X625Y2D01*
X624Y2D01*
X623Y2D01*
X622Y2D01*
X621Y2D01*
X620Y2D01*
X619Y2D01*
X618Y2D01*
X617Y2D01*
X616Y2D01*
X615Y2D01*
X614Y2D01*
X613Y2D01*
X612Y2D01*
X611Y2D01*
X610Y2D01*
X609Y2D01*
X608Y2D01*
X607Y2D01*
X606Y2D01*
X605Y2D01*
X604Y2D01*
X603Y2D01*
X602Y2D01*
X601Y2D01*
X600Y2D01*
X599Y2D01*
X598Y2D01*
X597Y2D01*
X596Y2D01*
X595Y2D01*
X594Y2D01*
X593Y2D01*
X592Y2D01*
X591Y2D01*
X590Y2D01*
X589Y2D01*
X588Y2D01*
X587Y2D01*
X586Y2D01*
X585Y2D01*
X584Y2D01*
X583Y2D01*
X582Y2D01*
X581Y2D01*
X580Y2D01*
X579Y2D01*
X578Y2D01*
X577Y2D01*
X576Y2D01*
X575Y2D01*
X574Y2D01*
X573Y2D01*
X572Y2D01*
X571Y2D01*
X570Y2D01*
X569Y2D01*
X568Y2D01*
X567Y2D01*
X566Y2D01*
X565Y2D01*
X564Y2D01*
X563Y2D01*
X562Y2D01*
X561Y2D01*
X560Y2D01*
X559Y2D01*
X558Y2D01*
X557Y2D01*
X556Y2D01*
X555Y2D01*
X554Y2D01*
X553Y2D01*
X552Y2D01*
X551Y2D01*
X550Y2D01*
X549Y2D01*
X548Y2D01*
X547Y2D01*
X546Y2D01*
X545Y2D01*
X544Y2D01*
X543Y2D01*
X542Y2D01*
X541Y2D01*
X540Y2D01*
X539Y2D01*
X538Y2D01*
X537Y2D01*
X536Y2D01*
X535Y2D01*
X534Y2D01*
X533Y2D01*
X532Y2D01*
X531Y2D01*
X530Y2D01*
X529Y2D01*
X528Y2D01*
X527Y2D01*
X526Y2D01*
X525Y2D01*
X524Y2D01*
X523Y2D01*
X522Y2D01*
X521Y2D01*
X520Y2D01*
X519Y2D01*
X518Y2D01*
X517Y2D01*
X516Y2D01*
X515Y2D01*
X514Y2D01*
X513Y2D01*
X512Y2D01*
X511Y2D01*
X510Y2D01*
X509Y2D01*
X508Y2D01*
X507Y2D01*
X506Y2D01*
X505Y2D01*
X504Y2D01*
X503Y2D01*
X502Y2D01*
X501Y2D01*
X500Y2D01*
X499Y2D01*
X498Y2D01*
X497Y2D01*
X496Y2D01*
X495Y2D01*
X494Y2D01*
X493Y2D01*
X492Y2D01*
X491Y2D01*
X490Y2D01*
X489Y2D01*
X488Y2D01*
X487Y2D01*
X486Y2D01*
X485Y2D01*
X484Y2D01*
X483Y2D01*
X482Y2D01*
X481Y2D01*
X480Y2D01*
X479Y2D01*
X478Y2D01*
X477Y2D01*
X476Y2D01*
X475Y2D01*
X474Y2D01*
X473Y2D01*
X472Y2D01*
X471Y2D01*
X470Y2D01*
X469Y2D01*
X468Y2D01*
X467Y2D01*
X466Y2D01*
X465Y2D01*
X464Y2D01*
X463Y2D01*
X462Y2D01*
X461Y2D01*
X460Y2D01*
X459Y2D01*
X458Y2D01*
X457Y2D01*
X456Y2D01*
X455Y2D01*
X454Y2D01*
X453Y2D01*
X452Y2D01*
X451Y2D01*
X450Y2D01*
X449Y2D01*
X448Y2D01*
X447Y2D01*
X446Y2D01*
X445Y2D01*
X444Y2D01*
X443Y2D01*
X442Y2D01*
X441Y2D01*
X440Y2D01*
X439Y2D01*
X438Y2D01*
X437Y2D01*
X436Y2D01*
X435Y2D01*
X434Y2D01*
X433Y2D01*
X432Y2D01*
X431Y2D01*
X430Y2D01*
X429Y2D01*
X428Y2D01*
X427Y2D01*
X426Y2D01*
X425Y2D01*
X424Y2D01*
X423Y2D01*
X422Y2D01*
X421Y2D01*
X420Y2D01*
X419Y2D01*
X418Y2D01*
X417Y2D01*
X416Y2D01*
X415Y2D01*
X414Y2D01*
X413Y2D01*
X412Y2D01*
X411Y2D01*
X410Y2D01*
X409Y2D01*
X408Y2D01*
X407Y2D01*
X406Y2D01*
X405Y2D01*
X404Y2D01*
X403Y2D01*
X402Y2D01*
X401Y2D01*
X400Y2D01*
X399Y2D01*
X398Y2D01*
X397Y2D01*
X396Y2D01*
X395Y2D01*
X394Y2D01*
X393Y2D01*
X392Y2D01*
X391Y2D01*
X390Y2D01*
X389Y2D01*
X388Y2D01*
X387Y2D01*
X386Y2D01*
X385Y2D01*
X384Y2D01*
X383Y2D01*
X382Y2D01*
X381Y2D01*
X380Y2D01*
X379Y2D01*
X378Y2D01*
X377Y2D01*
X376Y2D01*
X375Y2D01*
X374Y2D01*
X373Y2D01*
X372Y2D01*
X371Y2D01*
X370Y2D01*
X369Y3D01*
X368Y3D01*
X367Y3D01*
X366Y3D01*
X365Y3D01*
X364Y3D01*
X363Y3D01*
X362Y3D01*
X361Y3D01*
X360Y3D01*
X359Y3D01*
X358Y3D01*
X357Y3D01*
X356Y3D01*
X355Y4D01*
X354Y4D01*
X353Y4D01*
X352Y4D01*
X351Y4D01*
X350Y4D01*
X349Y4D01*
X348Y4D01*
X347Y4D01*
X346Y4D01*
X345Y5D01*
X344Y5D01*
X343Y5D01*
X342Y5D01*
X341Y5D01*
X340Y5D01*
X339Y5D01*
X338Y5D01*
X337Y5D01*
X336Y6D01*
X335Y6D01*
X334Y6D01*
X333Y6D01*
X332Y6D01*
X331Y6D01*
X330Y6D01*
X329Y7D01*
X328Y7D01*
X327Y7D01*
X326Y7D01*
X325Y7D01*
X324Y7D01*
X323Y8D01*
X322Y8D01*
X321Y8D01*
X320Y8D01*
X319Y8D01*
X318Y9D01*
X317Y9D01*
X316Y9D01*
X315Y9D01*
X314Y9D01*
X313Y9D01*
X312Y10D01*
X311Y10D01*
X310Y10D01*
X309Y10D01*
X308Y10D01*
X307Y11D01*
X306Y11D01*
X305Y11D01*
X304Y11D01*
X303Y12D01*
X302Y12D01*
X301Y12D01*
X300Y12D01*
X299Y13D01*
X298Y13D01*
X297Y13D01*
X296Y13D01*
X295Y13D01*
X294Y14D01*
X293Y14D01*
X292Y14D01*
X291Y14D01*
X290Y15D01*
X289Y15D01*
X288Y15D01*
X287Y16D01*
X286Y16D01*
X285Y16D01*
X284Y16D01*
X283Y17D01*
X282Y17D01*
X281Y17D01*
X280Y18D01*
X279Y18D01*
X278Y18D01*
X277Y18D01*
X276Y19D01*
X275Y19D01*
X274Y19D01*
X273Y20D01*
X272Y20D01*
X271Y20D01*
X270Y21D01*
X269Y21D01*
X268Y21D01*
X267Y22D01*
X266Y22D01*
X265Y22D01*
X264Y23D01*
X263Y23D01*
X262Y23D01*
X261Y24D01*
X260Y24D01*
X259Y24D01*
X258Y25D01*
X257Y25D01*
X256Y25D01*
X255Y26D01*
X254Y26D01*
X253Y26D01*
X252Y27D01*
X251Y27D01*
X250Y28D01*
X249Y28D01*
X248Y28D01*
X247Y29D01*
X246Y29D01*
X245Y30D01*
X244Y30D01*
X243Y30D01*
X242Y31D01*
X241Y31D01*
X240Y32D01*
X239Y32D01*
X238Y32D01*
X237Y33D01*
X236Y33D01*
X235Y34D01*
X234Y34D01*
X233Y35D01*
X232Y35D01*
X231Y35D01*
X230Y36D01*
X229Y36D01*
X228Y37D01*
X227Y37D01*
X226Y38D01*
X225Y38D01*
X224Y39D01*
X223Y39D01*
X222Y40D01*
X221Y40D01*
X220Y40D01*
X219Y41D01*
X218Y41D01*
X217Y42D01*
X216Y42D01*
X215Y43D01*
X214Y43D01*
X213Y44D01*
X212Y45D01*
X211Y45D01*
X210Y46D01*
X209Y46D01*
X208Y47D01*
X207Y47D01*
X206Y48D01*
X205Y48D01*
X204Y49D01*
X203Y49D01*
X202Y50D01*
X201Y50D01*
X200Y51D01*
X199Y51D01*
X198Y52D01*
X197Y53D01*
X196Y53D01*
X195Y54D01*
X194Y54D01*
X193Y55D01*
X192Y55D01*
X191Y56D01*
X190Y57D01*
X189Y57D01*
X188Y58D01*
X187Y58D01*
X186Y59D01*
X185Y60D01*
X184Y60D01*
X183Y61D01*
X182Y61D01*
X181Y62D01*
X180Y63D01*
X179Y63D01*
X178Y64D01*
X177Y65D01*
X176Y65D01*
X175Y66D01*
X174Y67D01*
X173Y67D01*
X172Y68D01*
X171Y68D01*
X170Y69D01*
X169Y70D01*
X168Y71D01*
X167Y71D01*
X166Y72D01*
X165Y73D01*
X164Y73D01*
X163Y74D01*
X162Y75D01*
X161Y76D01*
X160Y76D01*
X159Y77D01*
X158Y78D01*
X157Y78D01*
X156Y79D01*
X155Y80D01*
X154Y81D01*
X153Y81D01*
X152Y82D01*
X151Y83D01*
X150Y84D01*
X149Y85D01*
X148Y85D01*
X147Y86D01*
X146Y87D01*
X145Y88D01*
X144Y88D01*
X143Y89D01*
X142Y90D01*
X141Y91D01*
X140Y92D01*
X139Y93D01*
X138Y93D01*
X137Y94D01*
X136Y95D01*
X135Y96D01*
X134Y97D01*
X133Y98D01*
X132Y99D01*
X131Y99D01*
X130Y100D01*
X129Y101D01*
X128Y102D01*
X127Y103D01*
X126Y104D01*
X125Y105D01*
X124Y106D01*
X123Y107D01*
X122Y108D01*
X121Y109D01*
X120Y110D01*
X119Y110D01*
X118Y111D01*
X117Y112D01*
X116Y113D01*
X115Y114D01*
X114Y115D01*
X113Y116D01*
X112Y117D01*
X111Y118D01*
X110Y119D01*
X109Y120D01*
X108Y121D01*
X108Y122D01*
X107Y123D01*
X106Y124D01*
X105Y125D01*
X104Y126D01*
X103Y127D01*
X102Y128D01*
X101Y129D01*
X100Y130D01*
X99Y131D01*
X98Y132D01*
X97Y133D01*
X97Y134D01*
X96Y135D01*
X95Y136D01*
X94Y137D01*
X93Y138D01*
X92Y139D01*
X91Y140D01*
X90Y141D01*
X90Y142D01*
X89Y143D01*
X88Y144D01*
X87Y145D01*
X86Y146D01*
X86Y147D01*
X85Y148D01*
X84Y149D01*
X83Y150D01*
X82Y151D01*
X82Y152D01*
X81Y153D01*
X80Y154D01*
X79Y155D01*
X78Y156D01*
X78Y157D01*
X77Y158D01*
X76Y159D01*
X76Y160D01*
X75Y161D01*
X74Y162D01*
X73Y163D01*
X73Y164D01*
X72Y165D01*
X71Y166D01*
X71Y167D01*
X70Y168D01*
X69Y169D01*
X68Y170D01*
X68Y171D01*
X67Y172D01*
X66Y173D01*
X66Y174D01*
X65Y175D01*
X64Y176D01*
X64Y177D01*
X63Y178D01*
X62Y179D01*
X62Y180D01*
X61Y181D01*
X60Y182D01*
X60Y183D01*
X59Y184D01*
X59Y185D01*
X58Y186D01*
X57Y187D01*
X57Y188D01*
X56Y189D01*
X55Y190D01*
X55Y191D01*
X54Y192D01*
X54Y193D01*
X53Y194D01*
X53Y195D01*
X52Y196D01*
X51Y197D01*
X51Y198D01*
X50Y199D01*
X50Y200D01*
X49Y201D01*
X49Y202D01*
X48Y203D01*
X47Y204D01*
X47Y205D01*
X46Y206D01*
X46Y207D01*
X45Y208D01*
X45Y209D01*
X44Y210D01*
X44Y211D01*
X43Y212D01*
X43Y213D01*
X42Y214D01*
X42Y215D01*
X41Y216D01*
X41Y217D01*
X40Y218D01*
X40Y219D01*
X39Y220D01*
X39Y221D01*
X38Y222D01*
X38Y223D01*
X37Y224D01*
X37Y225D01*
X36Y226D01*
X36Y227D01*
X35Y228D01*
X35Y230D01*
X34Y231D01*
X34Y232D01*
X33Y233D01*
X33Y234D01*
X32Y235D01*
X32Y236D01*
X31Y237D01*
X31Y238D01*
X30Y239D01*
X30Y241D01*
X29Y242D01*
X29Y243D01*
X28Y244D01*
X28Y246D01*
X27Y247D01*
X27Y248D01*
X26Y249D01*
X26Y251D01*
X25Y252D01*
X25Y254D01*
X24Y255D01*
X24Y256D01*
X23Y257D01*
X23Y259D01*
X22Y260D01*
X22Y262D01*
X21Y263D01*
X21Y265D01*
X20Y266D01*
X20Y268D01*
X19Y269D01*
X19Y271D01*
X18Y272D01*
X18Y274D01*
X17Y275D01*
X17Y277D01*
X16Y278D01*
X16Y280D01*
X15Y281D01*
X15Y284D01*
X14Y285D01*
X14Y288D01*
X13Y289D01*
X13Y291D01*
X12Y292D01*
X12Y295D01*
X11Y296D01*
X11Y299D01*
X10Y300D01*
X10Y304D01*
X9Y305D01*
X9Y308D01*
X8Y309D01*
X8Y313D01*
X7Y314D01*
X7Y318D01*
X6Y319D01*
X6Y324D01*
X5Y325D01*
X5Y330D01*
X4Y331D01*
X4Y337D01*
X3Y338D01*
X3Y345D01*
X2Y346D01*
X2Y355D01*
X1Y356D01*
X1Y369D01*
X0Y370D01*
X0Y3297D01*
X1Y3298D01*
X1Y3311D01*
X2Y3312D01*
X2Y3321D01*
X3Y3322D01*
X3Y3329D01*
X4Y3330D01*
X4Y3336D01*
X5Y3337D01*
X5Y3342D01*
X6Y3343D01*
X6Y3348D01*
X7Y3349D01*
X7Y3353D01*
X8Y3354D01*
X8Y3358D01*
X9Y3359D01*
X9Y3362D01*
X10Y3363D01*
X10Y3367D01*
X11Y3368D01*
X11Y3371D01*
X12Y3372D01*
X12Y3375D01*
X13Y3376D01*
X13Y3378D01*
X14Y3379D01*
X14Y3382D01*
X15Y3383D01*
X15Y3386D01*
X16Y3387D01*
X16Y3389D01*
X17Y3390D01*
X17Y3392D01*
X18Y3393D01*
X18Y3395D01*
X19Y3396D01*
X19Y3398D01*
X20Y3399D01*
X20Y3401D01*
X21Y3402D01*
X21Y3404D01*
X22Y3405D01*
X22Y3407D01*
X23Y3408D01*
X23Y3410D01*
X24Y3411D01*
X24Y3412D01*
X25Y3413D01*
X25Y3415D01*
X26Y3416D01*
X26Y3418D01*
X27Y3419D01*
X27Y3420D01*
X28Y3421D01*
X28Y3423D01*
X29Y3424D01*
X29Y3425D01*
X30Y3426D01*
X30Y3428D01*
X31Y3429D01*
X31Y3430D01*
X32Y3431D01*
X32Y3432D01*
X33Y3433D01*
X33Y3434D01*
X34Y3435D01*
X34Y3436D01*
X35Y3437D01*
X35Y3439D01*
X36Y3440D01*
X36Y3441D01*
X37Y3442D01*
X37Y3443D01*
X38Y3444D01*
X38Y3445D01*
X39Y3446D01*
X39Y3447D01*
X40Y3448D01*
X40Y3449D01*
X41Y3450D01*
X41Y3451D01*
X42Y3452D01*
X42Y3453D01*
X43Y3454D01*
X43Y3455D01*
X44Y3456D01*
X44Y3457D01*
X45Y3458D01*
X45Y3459D01*
X46Y3460D01*
X46Y3461D01*
X47Y3462D01*
X47Y3463D01*
X48Y3464D01*
X49Y3465D01*
X49Y3466D01*
X50Y3467D01*
X50Y3468D01*
X51Y3469D01*
X51Y3470D01*
X52Y3471D01*
X53Y3472D01*
X53Y3473D01*
X54Y3474D01*
X54Y3475D01*
X55Y3476D01*
X55Y3477D01*
X56Y3478D01*
X57Y3479D01*
X57Y3480D01*
X58Y3481D01*
X59Y3482D01*
X59Y3483D01*
X60Y3484D01*
X60Y3485D01*
X61Y3486D01*
X62Y3487D01*
X62Y3488D01*
X63Y3489D01*
X64Y3490D01*
X64Y3491D01*
X65Y3492D01*
X66Y3493D01*
X66Y3494D01*
X67Y3495D01*
X68Y3496D01*
X68Y3497D01*
X69Y3498D01*
X70Y3499D01*
X71Y3500D01*
X71Y3501D01*
X72Y3502D01*
X73Y3503D01*
X73Y3504D01*
X74Y3505D01*
X75Y3506D01*
X76Y3507D01*
X76Y3508D01*
X77Y3509D01*
X78Y3510D01*
X78Y3511D01*
X79Y3512D01*
X80Y3513D01*
X81Y3514D01*
X82Y3515D01*
X82Y3516D01*
X83Y3517D01*
X84Y3518D01*
X85Y3519D01*
X86Y3520D01*
X86Y3521D01*
X87Y3522D01*
X88Y3523D01*
X89Y3524D01*
X90Y3525D01*
X90Y3526D01*
X91Y3527D01*
X92Y3528D01*
X93Y3529D01*
X94Y3530D01*
X95Y3531D01*
X96Y3532D01*
X97Y3533D01*
X97Y3534D01*
X98Y3535D01*
X99Y3536D01*
X100Y3537D01*
X101Y3538D01*
X102Y3539D01*
X103Y3540D01*
X104Y3541D01*
X105Y3542D01*
X106Y3543D01*
X107Y3544D01*
X108Y3545D01*
X108Y3546D01*
X109Y3547D01*
X110Y3548D01*
X111Y3549D01*
X112Y3550D01*
X113Y3551D01*
X114Y3552D01*
X115Y3553D01*
X116Y3554D01*
X117Y3555D01*
X118Y3556D01*
X119Y3557D01*
X120Y3557D01*
X121Y3558D01*
X122Y3559D01*
X123Y3560D01*
X124Y3561D01*
X125Y3562D01*
X126Y3563D01*
X127Y3564D01*
X128Y3565D01*
X129Y3566D01*
X130Y3567D01*
X131Y3568D01*
X132Y3568D01*
X133Y3569D01*
X134Y3570D01*
X135Y3571D01*
X136Y3572D01*
X137Y3573D01*
X138Y3574D01*
X139Y3574D01*
X140Y3575D01*
X141Y3576D01*
X142Y3577D01*
X143Y3578D01*
X144Y3579D01*
X145Y3579D01*
X146Y3580D01*
X147Y3581D01*
X148Y3582D01*
X149Y3582D01*
X150Y3583D01*
X151Y3584D01*
X152Y3585D01*
X153Y3586D01*
X154Y3586D01*
X155Y3587D01*
X156Y3588D01*
X157Y3589D01*
X158Y3589D01*
X159Y3590D01*
X160Y3591D01*
X161Y3591D01*
X162Y3592D01*
X163Y3593D01*
X164Y3594D01*
X165Y3594D01*
X166Y3595D01*
X167Y3596D01*
X168Y3596D01*
X169Y3597D01*
X170Y3598D01*
X171Y3599D01*
X172Y3599D01*
X173Y3600D01*
X174Y3600D01*
X175Y3601D01*
X176Y3602D01*
X177Y3602D01*
X178Y3603D01*
X179Y3604D01*
X180Y3604D01*
X181Y3605D01*
X182Y3606D01*
X183Y3606D01*
X184Y3607D01*
X185Y3607D01*
X186Y3608D01*
X187Y3609D01*
X188Y3609D01*
X189Y3610D01*
X190Y3610D01*
X191Y3611D01*
X192Y3612D01*
X193Y3612D01*
X194Y3613D01*
X195Y3613D01*
X196Y3614D01*
X197Y3614D01*
X198Y3615D01*
X199Y3616D01*
X200Y3616D01*
X201Y3617D01*
X202Y3617D01*
X203Y3618D01*
X204Y3618D01*
X205Y3619D01*
X206Y3619D01*
X207Y3620D01*
X208Y3620D01*
X209Y3621D01*
X210Y3621D01*
X211Y3622D01*
X212Y3623D01*
X213Y3623D01*
X214Y3624D01*
X215Y3624D01*
X216Y3625D01*
X217Y3625D01*
X218Y3626D01*
X219Y3626D01*
X220Y3627D01*
X221Y3627D01*
X222Y3627D01*
X223Y3628D01*
X224Y3628D01*
X225Y3629D01*
X226Y3629D01*
X227Y3630D01*
X228Y3630D01*
X229Y3631D01*
X230Y3631D01*
X231Y3632D01*
X232Y3632D01*
X233Y3632D01*
X234Y3633D01*
X235Y3633D01*
X236Y3634D01*
X237Y3634D01*
X238Y3635D01*
X239Y3635D01*
X240Y3635D01*
X241Y3636D01*
X242Y3636D01*
X243Y3637D01*
X244Y3637D01*
X245Y3637D01*
X246Y3638D01*
X247Y3638D01*
X248Y3639D01*
X249Y3639D01*
X250Y3639D01*
X251Y3640D01*
X252Y3640D01*
X253Y3641D01*
X254Y3641D01*
X255Y3641D01*
X256Y3642D01*
X257Y3642D01*
X258Y3642D01*
X259Y3643D01*
X260Y3643D01*
X261Y3643D01*
X262Y3644D01*
X263Y3644D01*
X264Y3644D01*
X265Y3645D01*
X266Y3645D01*
X267Y3645D01*
X268Y3646D01*
X269Y3646D01*
X270Y3646D01*
X271Y3647D01*
X272Y3647D01*
X273Y3647D01*
X274Y3648D01*
X275Y3648D01*
X276Y3648D01*
X277Y3649D01*
X278Y3649D01*
X279Y3649D01*
X280Y3649D01*
X281Y3650D01*
X282Y3650D01*
X283Y3650D01*
X284Y3651D01*
X285Y3651D01*
X286Y3651D01*
X287Y3651D01*
X288Y3652D01*
X289Y3652D01*
X290Y3652D01*
X291Y3653D01*
X292Y3653D01*
X293Y3653D01*
X294Y3653D01*
X295Y3654D01*
X296Y3654D01*
X297Y3654D01*
X298Y3654D01*
X299Y3655D01*
X300Y3655D01*
X301Y3655D01*
X302Y3655D01*
X303Y3655D01*
X304Y3656D01*
X305Y3656D01*
X306Y3656D01*
X307Y3656D01*
X308Y3657D01*
X309Y3657D01*
X310Y3657D01*
X311Y3657D01*
X312Y3657D01*
X313Y3658D01*
X314Y3658D01*
X315Y3658D01*
X316Y3658D01*
X317Y3658D01*
X318Y3659D01*
X319Y3659D01*
X320Y3659D01*
X321Y3659D01*
X322Y3659D01*
X323Y3659D01*
X324Y3660D01*
X325Y3660D01*
X326Y3660D01*
X327Y3660D01*
X328Y3660D01*
X329Y3660D01*
X330Y3661D01*
X331Y3661D01*
X332Y3661D01*
X333Y3661D01*
X334Y3661D01*
X335Y3661D01*
X336Y3661D01*
X337Y3662D01*
X338Y3662D01*
X339Y3662D01*
X340Y3662D01*
X341Y3662D01*
X342Y3662D01*
X343Y3662D01*
X344Y3662D01*
X345Y3662D01*
X346Y3663D01*
X347Y3663D01*
X348Y3663D01*
X349Y3663D01*
X350Y3663D01*
X351Y3663D01*
X352Y3663D01*
X353Y3663D01*
X354Y3663D01*
X355Y3663D01*
X356Y3664D01*
X357Y3664D01*
X358Y3664D01*
X359Y3664D01*
X360Y3664D01*
X361Y3664D01*
X362Y3664D01*
X363Y3664D01*
X364Y3664D01*
X365Y3664D01*
X366Y3664D01*
X367Y3664D01*
X368Y3664D01*
X369Y3664D01*
X370Y3665D01*
D02*
G04 End of contour*
M02*